<?xml version="1.0" encoding="utf-8"?>
<!-- Generator: Adobe Illustrator 20.1.0, SVG Export Plug-In . SVG Version: 6.00 Build 0)  -->
<svg version="1.1" id="Layer_1" xmlns="http://www.w3.org/2000/svg" xmlns:xlink="http://www.w3.org/1999/xlink" x="0px" y="0px"
	 width="1920px" height="672.2px" viewBox="0 0 1920 672.2" style="enable-background:new 0 0 1920 672.2;" xml:space="preserve">
<style type="text/css">
	.st0{fill:#010101;}
	.st1{fill:#ABB2AB;}
	.st2{fill:#FFFFFF;}
	.st3{fill:#FDFEFF;}
	.st4{fill:#060606;}
	.st5{fill:#0C0C0C;}
	.st6{fill:#020202;}
</style>
<path class="st0" d="M20.9,672.2c312.5,0,625,0,937.5,0c314,0,627.9,0,941.9,0c19.4,0,19.7-0.2,19.7-20.1c0-202.4,0-404.7,0-607.1
	c0-32.5-12.5-45-44.7-45C1265.2,0,655.1,0,45,0C12.7,0,0,12.5,0,44.8c0,202.4,0,404.7,0,607.1C0,672.2,0.1,672.2,20.9,672.2z
	 M1219.2,606.2c-3,14.6-13.9,20.8-27.5,23c-18.2,2.9-36.5,0.6-54.8,1.4c-6.6,0.3-6.9-3.8-6.8-8.6c0.1-29.7,0.2-59.3-0.1-89
	c-0.1-7.1,2.1-9.5,9.2-9.2c13.8,0.5,27.7,0.3,41.5,0.1c12.8-0.2,25.6,0.8,31.8,13.9c6.2,13,3.1,25-9.3,34.3
	C1218.3,580,1222.1,591.9,1219.2,606.2z M1301.6,564.1c-11.5,16-17.2,33-14.7,52.6c1.2,9,0,14.6-12,14.3
	c-10.5-0.3-14.5-3.2-12.9-13.5c3.3-20.8-3.7-38.6-15.6-55.4c-8.1-11.6-14.6-24.3-22-36.7c18-5.2,30.3-1.2,37,16.5
	c2.8,7.3,8,13.6,12.5,21.2c6.3-5.3,10-12.3,12.8-19.2c7.1-17,18.4-24.7,38.1-18.5C1317.3,538.3,1310.4,551.9,1301.6,564.1z
	 M16.8,309c0-87.3,0-174.6,0-261.9c0-24.6,5.1-29.8,29.2-29.8c305.1,0,610.1,0,915.2,0c304.1,0,608.1,0,912.2,0
	c24.5,0,29.7,5.1,29.7,29.3c0,135.9-0.2,271.8,0.4,407.7c0.1,14.5-3.7,17.9-18,17.9c-429.6-0.4-859.1-0.3-1288.7-0.6
	c-13.5,0-20.7,4.2-28,15.7C457.5,663,201.9,662.2,90.5,486c-6.6-10.4-13.2-15.6-25.9-14.3c-11.8,1.3-23.8-0.3-35.7,0.4
	c-10,0.6-12.4-3.2-12.3-12.8C17.1,409.2,16.8,359.1,16.8,309z"/>
<path class="st1" d="M29,472.1c11.9-0.7,23.9,0.8,35.7-0.4c12.7-1.3,19.3,3.9,25.9,14.3c111.4,176.3,367,177,478.4,1.3
	c7.2-11.4,14.4-15.7,28-15.7c429.6,0.4,859.1,0.2,1288.7,0.6c14.3,0,18-3.4,18-17.9c-0.6-135.9-0.4-271.8-0.4-407.7
	c0-24.2-5.2-29.3-29.7-29.3c-304.1,0-608.1,0-912.2,0c-305.1,0-610.1,0-915.2,0c-24.2,0-29.2,5.2-29.2,29.8c0,87.3,0,174.6,0,261.9
	c0,50.1,0.2,100.2-0.2,150.3C16.5,468.9,19,472.7,29,472.1z M1219.8,54.1c105.4,0,186.4,81.1,186.2,186.6
	c-0.1,103.5-82.7,185.2-186.8,185c-102.2-0.2-184.8-83.2-184.9-185.6C1034.4,135.7,1115.8,54.1,1219.8,54.1z M329.9,63
	C471,63,580.3,172.4,580.3,313.9c0,140.4-109.4,248.2-249.6,250.5C196.8,566.7,76.8,447,79.8,310.9C82.9,173.8,191.9,63,329.9,63z"
	/>
<path class="st2" d="M1203.3,572.1c12.3-9.3,15.5-21.3,9.3-34.3c-6.3-13.1-19-14.1-31.8-13.9c-13.8,0.2-27.7,0.4-41.5-0.1
	c-7.1-0.2-9.3,2.1-9.2,9.2c0.4,29.7,0.2,59.3,0.1,89c0,4.9,0.2,8.9,6.8,8.6c18.2-0.8,36.6,1.6,54.8-1.4c13.6-2.2,24.5-8.3,27.5-23
	C1222.1,591.9,1218.3,580,1203.3,572.1z M1168.6,542.1c9.4,1,22.3-2.5,22.8,12.1c0.4,14.1-11.9,11.4-20.8,11.9
	c-8.5,0.4-16.5,2.3-16.1-11.7C1154.7,543,1159.1,541.1,1168.6,542.1z M1179.9,610.7c-2.5,0-4.9,0-7.4,0c-17.5,0-21.6-5.5-17.7-22.7
	c1.1-4.6,3.4-5.2,7.2-5.2c6.4,0.1,12.8,0,19.1,0.4c9.1,0.5,14.8,4.4,14.6,14.5C1195.5,608.4,1188.7,610.7,1179.9,610.7z"/>
<path class="st3" d="M1286.9,543.9c-2.9,6.9-6.6,13.8-12.8,19.2c-4.6-7.6-9.8-13.9-12.5-21.2c-6.7-17.7-19-21.7-37-16.5
	c7.4,12.4,13.9,25.1,22,36.7c11.9,16.8,18.8,34.6,15.6,55.4c-1.6,10.2,2.3,13.2,12.9,13.5c12,0.3,13.2-5.3,12-14.3
	c-2.5-19.6,3.1-36.6,14.7-52.6c8.8-12.2,15.7-25.8,23.4-38.7C1305.2,519.2,1294,526.9,1286.9,543.9z"/>
<path class="st0" d="M330.7,564.5c140.2-2.3,249.6-110.1,249.6-250.5C580.3,172.4,471,63,329.9,63c-137.9,0-247,110.8-250,247.9
	C76.8,447,196.8,566.7,330.7,564.5z M331.5,109.6c113.7,0,202.8,89.4,203.3,203.9C535.3,426.8,443.9,518,330,518
	c-111.8-0.1-203-92.7-204.3-204.4C124.4,209.1,218.7,104.6,331.5,109.6z"/>
<path class="st0" d="M1219.3,425.7c104.1,0.2,186.6-81.5,186.8-185c0.1-105.5-80.8-186.6-186.2-186.6c-104,0-185.4,81.7-185.4,186
	C1034.4,342.5,1117.1,425.4,1219.3,425.7z M1220.1,88.1c84.5,0.1,151.4,67.5,151.2,152.4c-0.2,84.4-66.5,150-151.6,149.9
	c-83.7,0-151.2-67.5-151.1-151.1C1068.7,156.4,1137.2,88,1220.1,88.1z"/>
<path class="st4" d="M1181.1,583.3c-6.4-0.3-12.7-0.2-19.1-0.4c-3.7-0.1-6.1,0.5-7.2,5.2c-3.9,17.2,0.2,22.7,17.7,22.7
	c2.5,0,4.9,0,7.4,0c8.8,0,15.5-2.3,15.8-12.9C1195.9,587.7,1190.2,583.8,1181.1,583.3z"/>
<path class="st5" d="M1170.5,566.1c9-0.5,21.3,2.2,20.8-11.9c-0.4-14.6-13.4-11.1-22.8-12.1c-9.4-1-13.8,0.9-14.2,12.3
	C1154,568.4,1162,566.5,1170.5,566.1z"/>
<path class="st2" d="M330,518c113.9,0.1,205.2-91.1,204.8-204.5c-0.4-114.5-89.5-203.9-203.3-203.9
	c-112.9-5.1-207.1,99.5-205.9,203.9C127,425.3,218.2,517.9,330,518z M361.3,249.8c24.5-18,51.7-18.1,79.1-7.4
	c14.2,5.5,24.8,15.9,31.6,30.4c-4.6,2.4-9,4.6-13.3,7c-11,6.1-19.7,12.2-31.1-3c-11.2-14.9-37.6-7.7-45.3,10.4
	c-7.3,17.1-7.4,34.9-0.4,52.1c8.7,21.3,39.1,26.2,52.2,7.3c7.4-10.6,12.5-8.5,20.9-3.9c20,10.9,20.7,13.2,4.1,29.1
	c-23.3,22.3-51.3,24.6-80.3,15.4c-29.4-9.3-42.8-32.4-45.7-61.7C330.1,295.8,335.8,268.5,361.3,249.8z M218.4,248.6
	c25.5-17.9,65.8-17.3,90.7,1.5c7.5,5.7,19,14.1,16.4,21.1c-3.6,9.8-18.1,11.7-27.9,17c-4.4,2.4-5.6-2.7-7.4-5.3
	c-7.9-11.7-18.7-15.3-32.2-12.5c-13.5,2.9-19.4,12.6-22.3,24.9c-3.3,13.7-2.9,27.5,1.3,41c3.3,10.6,10.2,18.3,21.4,20.4
	c12.3,2.3,25,1,31.9-10.3c6.4-10.4,11.5-9.1,20.5-4c20.8,11.9,20.9,11.2,4,28.7c-14.4,14.9-32.1,20.7-52.3,20.3
	c-35,0-60.5-16.9-70.1-46.4C180,307.8,190.8,267.9,218.4,248.6z"/>
<path class="st2" d="M1219.7,390.4c85.1,0,151.4-65.5,151.6-149.9c0.2-84.9-66.7-152.4-151.2-152.4
	c-82.9-0.1-151.4,68.4-151.5,151.3C1068.6,322.9,1136.1,390.4,1219.7,390.4z M1220.5,119.6c14.6,0.4,26,12.5,25.7,27
	c-0.3,14.4-12.6,26.3-26.9,25.9c-14.5-0.3-26-12.4-25.7-27.1C1194.1,130.7,1206,119.1,1220.5,119.6z M1170,195
	c0.1-9,4.8-13.5,14-13.5c23.8,0.1,47.6,0.1,71.3,0c9.8-0.1,14.7,4.5,14.7,14.3c0,21.8-0.2,43.6,0.2,65.4c0.1,7-2,10.5-9.2,9.1
	c-11.1-2.1-12.8,3.3-12.5,13.1c0.7,22.3,0,44.6,0.4,66.9c0.1,7.4-1.4,10.6-9.6,10.1c-12.8-0.7-25.8-0.6-38.6,0
	c-7.5,0.3-10.6-1.5-10.1-9.7c0.7-11.8,0.2-23.8,0.2-35.7c0-9.4-0.4-18.9,0.1-28.2c0.6-10.3,0.6-19.1-14-16.5c-6.4,1.1-7-3.5-7-8.4
	C1169.9,239.6,1169.8,217.3,1170,195z"/>
<path class="st0" d="M262.3,391.4c20.2,0.4,37.9-5.4,52.3-20.3c16.9-17.5,16.8-16.8-4-28.7c-9-5.1-14.1-6.4-20.5,4
	c-6.9,11.2-19.6,12.6-31.9,10.3c-11.2-2.1-18.1-9.8-21.4-20.4c-4.2-13.5-4.5-27.3-1.3-41c2.9-12.2,8.8-22,22.3-24.9
	c13.5-2.9,24.4,0.8,32.2,12.5c1.8,2.6,3,7.6,7.4,5.3c9.8-5.3,24.3-7.3,27.9-17c2.6-7-8.8-15.4-16.4-21.1
	c-24.9-18.8-65.2-19.4-90.7-1.5c-27.5,19.3-38.4,59.2-26.2,96.5C201.9,374.6,227.4,391.4,262.3,391.4z"/>
<path class="st0" d="M378.7,387.1c29,9.2,57,6.8,80.3-15.4c16.6-15.9,15.9-18.2-4.1-29.1c-8.5-4.6-13.5-6.7-20.9,3.9
	c-13.2,18.9-43.5,14-52.2-7.3c-7-17.2-6.9-35,0.4-52.1c7.7-18.1,34.1-25.3,45.3-10.4c11.4,15.2,20.1,9.1,31.1,3
	c4.3-2.4,8.7-4.6,13.3-7c-6.7-14.5-17.4-24.8-31.6-30.4c-27.3-10.6-54.6-10.6-79.1,7.4c-25.5,18.7-31.2,46-28.3,75.6
	C335.9,354.7,349.4,377.8,378.7,387.1z"/>
<path class="st0" d="M1176.9,270.3c14.6-2.6,14.6,6.2,14,16.5c-0.5,9.4-0.1,18.8-0.1,28.2c0,11.9,0.5,23.8-0.2,35.7
	c-0.5,8.1,2.6,10,10.1,9.7c12.9-0.5,25.8-0.7,38.6,0c8.3,0.5,9.8-2.7,9.6-10.1c-0.4-22.3,0.3-44.6-0.4-66.9
	c-0.3-9.8,1.3-15.2,12.5-13.1c7.2,1.4,9.3-2.1,9.2-9.1c-0.4-21.8-0.1-43.6-0.2-65.4c0-9.8-4.9-14.3-14.7-14.3
	c-23.8,0.2-47.6,0.1-71.3,0c-9.2,0-14,4.5-14,13.5c-0.2,22.3,0,44.6-0.1,66.9C1169.9,266.8,1170.5,271.4,1176.9,270.3z"/>
<path class="st6" d="M1219.4,172.6c14.3,0.3,26.6-11.6,26.9-25.9c0.3-14.6-11.2-26.6-25.7-27c-14.5-0.4-26.5,11.2-26.8,25.9
	C1193.4,160.1,1204.9,172.2,1219.4,172.6z"/>
</svg>
