<?xml version="1.0" encoding="utf-8"?>
<!-- Generator: Adobe Illustrator 20.1.0, SVG Export Plug-In . SVG Version: 6.00 Build 0)  -->
<svg version="1.1" xmlns="http://www.w3.org/2000/svg" xmlns:xlink="http://www.w3.org/1999/xlink" x="0px" y="0px" width="1920px"
	 height="672.2px" viewBox="0 0 1920 672.2" style="enable-background:new 0 0 1920 672.2;" xml:space="preserve">
<style type="text/css">
	.st0{display:none;}
	.st1{display:inline;fill:#010101;}
	.st2{display:inline;fill:#ABB2AB;}
	.st3{display:inline;fill:#FFFFFF;}
	.st4{display:inline;fill:#FDFEFF;}
	.st5{display:inline;fill:#060606;}
	.st6{display:inline;fill:#0C0C0C;}
	.st7{display:inline;fill:#020202;}
	.st8{display:inline;fill:#030303;}
	.st9{display:inline;fill:#0B0B0B;}
	.st10{display:inline;fill:#0F0F0F;}
	.st11{display:inline;fill:#070707;}
	.st12{display:inline;fill:#090909;}
	.st13{fill:#010101;}
	.st14{fill:#ABB2AB;}
	.st15{fill:#FFFFFF;}
	.st16{fill:#FDFEFF;}
	.st17{fill:#040404;}
	.st18{fill:#060606;}
	.st19{fill:#030303;}
	.st20{fill:#020202;}
</style>
<g id="Grid">
</g>
<g id="Layer_1" class="st0">
	<path class="st1" d="M20.9,672.2c312.5,0,625,0,937.5,0c314,0,627.9,0,941.9,0c19.4,0,19.7-0.2,19.7-20.1c0-202.4,0-404.7,0-607.1
		c0-32.5-12.5-45-44.7-45C1265.2,0,655.1,0,45,0C12.7,0,0,12.5,0,44.8c0,202.4,0,404.7,0,607.1C0,672.2,0.1,672.2,20.9,672.2z
		 M1219.2,606.2c-3,14.6-13.9,20.8-27.5,23c-18.2,2.9-36.5,0.6-54.8,1.4c-6.6,0.3-6.9-3.8-6.8-8.6c0.1-29.7,0.2-59.3-0.1-89
		c-0.1-7.1,2.1-9.5,9.2-9.2c13.8,0.5,27.7,0.3,41.5,0.1c12.8-0.2,25.6,0.8,31.8,13.9c6.2,13,3.1,25-9.3,34.3
		C1218.3,580,1222.1,591.9,1219.2,606.2z M1301.6,564.1c-11.5,16-17.2,33-14.7,52.6c1.2,9,0,14.6-12,14.3
		c-10.5-0.3-14.5-3.2-12.9-13.5c3.3-20.8-3.7-38.6-15.6-55.4c-8.1-11.6-14.6-24.3-22-36.7c18-5.2,30.3-1.2,37,16.5
		c2.8,7.3,8,13.6,12.5,21.2c6.3-5.3,10-12.3,12.8-19.2c7.1-17,18.4-24.7,38.1-18.5C1317.3,538.3,1310.4,551.9,1301.6,564.1z
		 M16.8,309c0-87.3,0-174.6,0-261.9c0-24.6,5.1-29.8,29.2-29.8c305.1,0,610.1,0,915.2,0c304.1,0,608.1,0,912.2,0
		c24.5,0,29.7,5.1,29.7,29.3c0,135.9-0.2,271.8,0.4,407.7c0.1,14.5-3.7,17.9-18,17.9c-429.6-0.4-859.1-0.3-1288.7-0.6
		c-13.5,0-20.7,4.2-28,15.7C457.5,663,201.9,662.2,90.5,486c-6.6-10.4-13.2-15.6-25.9-14.3c-11.8,1.3-23.8-0.3-35.7,0.4
		c-10,0.6-12.4-3.2-12.3-12.8C17.1,409.2,16.8,359.1,16.8,309z"/>
	<path class="st2" d="M29,472.1c11.9-0.7,23.9,0.8,35.7-0.4c12.7-1.3,19.3,3.9,25.9,14.3c111.4,176.3,367,177,478.4,1.3
		c7.2-11.4,14.4-15.7,28-15.7c429.6,0.4,859.1,0.2,1288.7,0.6c14.3,0,18-3.4,18-17.9c-0.6-135.9-0.4-271.8-0.4-407.7
		c0-24.2-5.2-29.3-29.7-29.3c-304.1,0-608.1,0-912.2,0c-305.1,0-610.1,0-915.2,0c-24.2,0-29.2,5.2-29.2,29.8c0,87.3,0,174.6,0,261.9
		c0,50.1,0.2,100.2-0.2,150.3C16.5,468.9,19,472.7,29,472.1z M1219.8,54.1c105.4,0,186.4,81.1,186.2,186.6
		c-0.1,103.5-82.7,185.2-186.8,185c-102.2-0.2-184.8-83.2-184.9-185.6C1034.4,135.7,1115.8,54.1,1219.8,54.1z M329.9,63
		C471,63,580.3,172.4,580.3,313.9c0,140.4-109.4,248.2-249.6,250.5C196.8,566.7,76.8,447,79.8,310.9C82.9,173.8,191.9,63,329.9,63z"
		/>
	<path class="st3" d="M1203.3,572.1c12.3-9.3,15.5-21.3,9.3-34.3c-6.3-13.1-19-14.1-31.8-13.9c-13.8,0.2-27.7,0.4-41.5-0.1
		c-7.1-0.2-9.3,2.1-9.2,9.2c0.4,29.7,0.2,59.3,0.1,89c0,4.9,0.2,8.9,6.8,8.6c18.2-0.8,36.6,1.6,54.8-1.4c13.6-2.2,24.5-8.3,27.5-23
		C1222.1,591.9,1218.3,580,1203.3,572.1z M1168.6,542.1c9.4,1,22.3-2.5,22.8,12.1c0.4,14.1-11.9,11.4-20.8,11.9
		c-8.5,0.4-16.5,2.3-16.1-11.7C1154.7,543,1159.1,541.1,1168.6,542.1z M1179.9,610.7c-2.5,0-4.9,0-7.4,0c-17.5,0-21.6-5.5-17.7-22.7
		c1.1-4.6,3.4-5.2,7.2-5.2c6.4,0.1,12.8,0,19.1,0.4c9.1,0.5,14.8,4.4,14.6,14.5C1195.5,608.4,1188.7,610.7,1179.9,610.7z"/>
	<path class="st4" d="M1286.9,543.9c-2.9,6.9-6.6,13.8-12.8,19.2c-4.6-7.6-9.8-13.9-12.5-21.2c-6.7-17.7-19-21.7-37-16.5
		c7.4,12.4,13.9,25.1,22,36.7c11.9,16.8,18.8,34.6,15.6,55.4c-1.6,10.2,2.3,13.2,12.9,13.5c12,0.3,13.2-5.3,12-14.3
		c-2.5-19.6,3.1-36.6,14.7-52.6c8.8-12.2,15.7-25.8,23.4-38.7C1305.2,519.2,1294,526.9,1286.9,543.9z"/>
	<path class="st1" d="M330.7,564.5c140.2-2.3,249.6-110.1,249.6-250.5C580.3,172.4,471,63,329.9,63c-137.9,0-247,110.8-250,247.9
		C76.8,447,196.8,566.7,330.7,564.5z M331.5,109.6c113.7,0,202.8,89.4,203.3,203.9C535.3,426.8,443.9,518,330,518
		c-111.8-0.1-203-92.7-204.3-204.4C124.4,209.1,218.7,104.6,331.5,109.6z"/>
	<path class="st1" d="M1219.3,425.7c104.1,0.2,186.6-81.5,186.8-185c0.1-105.5-80.8-186.6-186.2-186.6c-104,0-185.4,81.7-185.4,186
		C1034.4,342.5,1117.1,425.4,1219.3,425.7z M1220.1,88.1c84.5,0.1,151.4,67.5,151.2,152.4c-0.2,84.4-66.5,150-151.6,149.9
		c-83.7,0-151.2-67.5-151.1-151.1C1068.7,156.4,1137.2,88,1220.1,88.1z"/>
	<path class="st5" d="M1181.1,583.3c-6.4-0.3-12.7-0.2-19.1-0.4c-3.7-0.1-6.1,0.5-7.2,5.2c-3.9,17.2,0.2,22.7,17.7,22.7
		c2.5,0,4.9,0,7.4,0c8.8,0,15.5-2.3,15.8-12.9C1195.9,587.7,1190.2,583.8,1181.1,583.3z"/>
	<path class="st6" d="M1170.5,566.1c9-0.5,21.3,2.2,20.8-11.9c-0.4-14.6-13.4-11.1-22.8-12.1c-9.4-1-13.8,0.9-14.2,12.3
		C1154,568.4,1162,566.5,1170.5,566.1z"/>
	<path class="st3" d="M330,518c113.9,0.1,205.2-91.1,204.8-204.5c-0.4-114.5-89.5-203.9-203.3-203.9
		c-112.9-5.1-207.1,99.5-205.9,203.9C127,425.3,218.2,517.9,330,518z M361.3,249.8c24.5-18,51.7-18.1,79.1-7.4
		c14.2,5.5,24.8,15.9,31.6,30.4c-4.6,2.4-9,4.6-13.3,7c-11,6.1-19.7,12.2-31.1-3c-11.2-14.9-37.6-7.7-45.3,10.4
		c-7.3,17.1-7.4,34.9-0.4,52.1c8.7,21.3,39.1,26.2,52.2,7.3c7.4-10.6,12.5-8.5,20.9-3.9c20,10.9,20.7,13.2,4.1,29.1
		c-23.3,22.3-51.3,24.6-80.3,15.4c-29.4-9.3-42.8-32.4-45.7-61.7C330.1,295.8,335.8,268.5,361.3,249.8z M218.4,248.6
		c25.5-17.9,65.8-17.3,90.7,1.5c7.5,5.7,19,14.1,16.4,21.1c-3.6,9.8-18.1,11.7-27.9,17c-4.4,2.4-5.6-2.7-7.4-5.3
		c-7.9-11.7-18.7-15.3-32.2-12.5c-13.5,2.9-19.4,12.6-22.3,24.9c-3.3,13.7-2.9,27.5,1.3,41c3.3,10.6,10.2,18.3,21.4,20.4
		c12.3,2.3,25,1,31.9-10.3c6.4-10.4,11.5-9.1,20.5-4c20.8,11.9,20.9,11.2,4,28.7c-14.4,14.9-32.1,20.7-52.3,20.3
		c-35,0-60.5-16.9-70.1-46.4C180,307.8,190.8,267.9,218.4,248.6z"/>
	<path class="st3" d="M1219.7,390.4c85.1,0,151.4-65.5,151.6-149.9c0.2-84.9-66.7-152.4-151.2-152.4
		c-82.9-0.1-151.4,68.4-151.5,151.3C1068.6,322.9,1136.1,390.4,1219.7,390.4z M1220.5,119.6c14.6,0.4,26,12.5,25.7,27
		c-0.3,14.4-12.6,26.3-26.9,25.9c-14.5-0.3-26-12.4-25.7-27.1C1194.1,130.7,1206,119.1,1220.5,119.6z M1170,195
		c0.1-9,4.8-13.5,14-13.5c23.8,0.1,47.6,0.1,71.3,0c9.8-0.1,14.7,4.5,14.7,14.3c0,21.8-0.2,43.6,0.2,65.4c0.1,7-2,10.5-9.2,9.1
		c-11.1-2.1-12.8,3.3-12.5,13.1c0.7,22.3,0,44.6,0.4,66.9c0.1,7.4-1.4,10.6-9.6,10.1c-12.8-0.7-25.8-0.6-38.6,0
		c-7.5,0.3-10.6-1.5-10.1-9.7c0.7-11.8,0.2-23.8,0.2-35.7c0-9.4-0.4-18.9,0.1-28.2c0.6-10.3,0.6-19.1-14-16.5c-6.4,1.1-7-3.5-7-8.4
		C1169.9,239.6,1169.8,217.3,1170,195z"/>
	<path class="st1" d="M262.3,391.4c20.2,0.4,37.9-5.4,52.3-20.3c16.9-17.5,16.8-16.8-4-28.7c-9-5.1-14.1-6.4-20.5,4
		c-6.9,11.2-19.6,12.6-31.9,10.3c-11.2-2.1-18.1-9.8-21.4-20.4c-4.2-13.5-4.5-27.3-1.3-41c2.9-12.2,8.8-22,22.3-24.9
		c13.5-2.9,24.4,0.8,32.2,12.5c1.8,2.6,3,7.6,7.4,5.3c9.8-5.3,24.3-7.3,27.9-17c2.6-7-8.8-15.4-16.4-21.1
		c-24.9-18.8-65.2-19.4-90.7-1.5c-27.5,19.3-38.4,59.2-26.2,96.5C201.9,374.6,227.4,391.4,262.3,391.4z"/>
	<path class="st1" d="M378.7,387.1c29,9.2,57,6.8,80.3-15.4c16.6-15.9,15.9-18.2-4.1-29.1c-8.5-4.6-13.5-6.7-20.9,3.9
		c-13.2,18.9-43.5,14-52.2-7.3c-7-17.2-6.9-35,0.4-52.1c7.7-18.1,34.1-25.3,45.3-10.4c11.4,15.2,20.1,9.1,31.1,3
		c4.3-2.4,8.7-4.6,13.3-7c-6.7-14.5-17.4-24.8-31.6-30.4c-27.3-10.6-54.6-10.6-79.1,7.4c-25.5,18.7-31.2,46-28.3,75.6
		C335.9,354.7,349.4,377.8,378.7,387.1z"/>
	<path class="st1" d="M1176.9,270.3c14.6-2.6,14.6,6.2,14,16.5c-0.5,9.4-0.1,18.8-0.1,28.2c0,11.9,0.5,23.8-0.2,35.7
		c-0.5,8.1,2.6,10,10.1,9.7c12.9-0.5,25.8-0.7,38.6,0c8.3,0.5,9.8-2.7,9.6-10.1c-0.4-22.3,0.3-44.6-0.4-66.9
		c-0.3-9.8,1.3-15.2,12.5-13.1c7.2,1.4,9.3-2.1,9.2-9.1c-0.4-21.8-0.1-43.6-0.2-65.4c0-9.8-4.9-14.3-14.7-14.3
		c-23.8,0.2-47.6,0.1-71.3,0c-9.2,0-14,4.5-14,13.5c-0.2,22.3,0,44.6-0.1,66.9C1169.9,266.8,1170.5,271.4,1176.9,270.3z"/>
	<path class="st7" d="M1219.4,172.6c14.3,0.3,26.6-11.6,26.9-25.9c0.3-14.6-11.2-26.6-25.7-27c-14.5-0.4-26.5,11.2-26.8,25.9
		C1193.4,160.1,1204.9,172.2,1219.4,172.6z"/>
</g>
<g id="Layer_2" class="st0">
	<path class="st1" d="M20.7,672.2c313.2,0,626.3,0,939.5,0s626.3,0,939.5,0c20.4,0,20.4,0,20.4-20.5c0-202.4,0-404.8,0-607.1
		c0-32.8-11.9-44.6-44.8-44.6C1264.8,0,654.4,0,43.9,0C12,0,0,12,0,43.8c0,202.4,0,404.8,0,607.1C0,672.2,0,672.2,20.7,672.2z
		 M997.8,608.3c-2.4,11-11,17.3-21.8,19.9c-20.1,4.8-40.5,1.6-60.7,2.3c-7,0.3-5.8-5.2-5.9-9.5c-0.1-14.9,0-29.7,0-44.6
		c0-11.9,1.2-23.9-0.3-35.6c-1.9-15.1,4.2-18.5,17.9-17.2c13.3,1.2,26.7,0,40.1,0.4c10.3,0.3,20.1,3.4,24.4,13.8
		c4.2,10.1,4.4,20.7-4,29c-4.5,4.4-4.4,6,0.9,9.4C1000.4,584,1000.4,596.5,997.8,608.3z M1084.7,557.4
		c-13.3,19.7-23.5,39.8-19.5,64.7c1.5,9.3-5.2,9-11.3,8.5c-5.2-0.5-14.1,2.8-12.3-7.2c5.8-32.1-12.4-55.5-27.8-80
		c-3.6-5.7-6.7-11.7-10.2-17.7c17.8-5.1,30.2-1.5,36.9,16.3c2.9,7.6,8.3,14.2,13.4,22.6c4.8-7.9,9.9-14.2,12.7-21.4
		c6.7-17.1,18.1-23.4,36.5-17.6C1099.2,536.9,1091.6,547.1,1084.7,557.4z M1417.7,630.8c-23.3,5.6-47.2-0.7-56.6-15.7
		c-3.9-6.2-10.4-15.6-2.2-20.2c5.5-3.1,17.6-6.4,22.2,8.1c3.7,11.6,27.3,14.8,36.3,6.3c7.1-6.8,5.8-13.6-2.9-17.6
		c-7.6-3.4-15.8-5.6-23.8-7.8c-24.1-6.7-33.8-17-31.7-34.1c2.1-17.3,18.5-28.9,44.5-28.7c12.3,0.7,27.2,3.8,35.1,19.7
		c2.2,4.3,6.8,12,0.6,14.2c-6.4,2.3-16.3,6.2-21.5-4c-5.9-11.6-15.5-12.6-26.4-9.6c-5.1,1.4-8.7,4.6-8.7,10.6c0,5.7,4.2,7.6,8.5,8.9
		c9.5,2.8,19.1,5.1,28.6,7.9c17.9,5.2,26.1,15.5,25.5,31.5C1444.4,615.3,1434.1,626.9,1417.7,630.8z M1520.7,613.2
		c-0.6-5.6-4.4-6.8-9.5-6.6c-7.9,0.3-15.9,0.4-23.8,0c-5.8-0.3-9.5,1.4-10.3,7.6c-2.4,17.5-14,18.8-29.7,14.9
		c7-18.6,14.1-37.3,21.1-56c4.5-12,9.6-23.8,13.4-36.1c3-9.7,7.4-13.7,18.5-13.8c11.3-0.1,13.6,5.5,16.6,13.9
		c11,30.6,22.7,60.9,34.4,92.1C1534.9,632.8,1522.6,632.1,1520.7,613.2z M15.9,176c0-42.7,0-85.3,0-128c0-25.3,5.3-30.6,30.2-30.6
		c304.8,0,609.5,0,914.3,0c303.8,0,607.5,0,911.3,0c27.8,0,32,4.1,32,31.5c0,135.4-0.2,270.9,0.3,406.3c0,13.3-2.9,17.2-16.8,17.2
		c-428.8-0.4-857.7-0.3-1286.5-0.6c-12.5,0-20.1,2.9-27.4,14.3c-113.5,177.9-369.7,175.9-480.9-3.5c-4.7-7.6-9.5-11.3-18.8-10.8
		c-14.4,0.8-28.8-0.6-43.2,0.4c-11.9,0.8-14.8-3.3-14.8-15C16.1,363.5,15.9,269.7,15.9,176z"/>
	<path class="st2" d="M30.4,472.2c14.3-1,28.8,0.3,43.2-0.4c9.2-0.5,14.1,3.2,18.8,10.8c111.2,179.4,367.4,181.4,480.9,3.5
		c7.2-11.4,14.8-14.3,27.4-14.3c428.8,0.3,857.7,0.2,1286.5,0.6c13.9,0,16.9-3.9,16.8-17.2c-0.5-135.4-0.3-270.9-0.3-406.3
		c0-27.4-4.2-31.5-32-31.5c-303.8,0-607.5,0-911.3,0c-304.8,0-609.5,0-914.3,0c-24.9,0-30.2,5.3-30.2,30.6c0,42.7,0,85.3,0,128
		c0,93.8,0.2,187.5-0.3,281.3C15.5,468.9,18.4,473,30.4,472.2z M1466.9,54.1c106.2,0,186.9,80,187.1,185.6
		c0.1,104-81.6,185.9-185.6,186c-102.4,0.1-186.7-83.9-186.7-186.1C1281.7,137.5,1365,54.1,1466.9,54.1z M1016.3,54.1
		c102.6,0.2,182.9,82.1,182.9,186.6c-0.1,103.9-82,185.2-186.3,185c-102.9-0.2-184.9-83.2-184.9-187
		C828.1,134.5,910.3,53.9,1016.3,54.1z M334.6,62.3c143.9,0.2,253.7,118.8,250.2,258c-3.3,134.2-113.9,244-251.2,243.6
		C195.4,565.7,80.1,443.8,83.3,308C86.4,173.5,198.7,62.1,334.6,62.3z"/>
	<path class="st3" d="M988.5,576.3c-5.3-3.5-5.4-5-0.9-9.4c8.4-8.3,8.2-19,4-29c-4.4-10.4-14.1-13.4-24.4-13.8
		c-13.4-0.4-26.8,0.8-40.1-0.4c-13.7-1.3-19.8,2-17.9,17.2c1.5,11.7,0.3,23.7,0.3,35.6c0,14.9,0,29.7,0,44.6c0,4.3-1.2,9.7,5.9,9.5
		c20.2-0.8,40.7,2.5,60.7-2.3c10.9-2.6,19.4-8.9,21.8-19.9C1000.4,596.5,1000.4,584,988.5,576.3z M945.2,542.2c1.4,0.2,2.9,0,4.4,0
		c9.2,0.4,20.9-1.1,20.9,12.2c0.1,13.7-11.8,11.5-20.9,11.8c-8.1-0.4-18,3.5-16.9-11.9C933.4,544.7,935.5,540.6,945.2,542.2z
		 M950.3,610.7c-16.6,0-21.7-6.9-17-23.1c0.3-0.9,0.3-2.4,0.8-2.6c9.9-4.1,20.1-2.2,30.1-1.2c5.7,0.6,9.5,4.5,10.5,10.7
		C976.6,606.4,970.1,610.7,950.3,610.7z"/>
	<path class="st3" d="M1419.5,568.6c-9.5-2.7-19.1-5.1-28.6-7.9c-4.3-1.3-8.4-3.2-8.5-8.9c0-6,3.6-9.2,8.7-10.6
		c10.9-3,20.5-2,26.4,9.6c5.2,10.2,15.1,6.3,21.5,4c6.2-2.2,1.6-9.9-0.6-14.2c-7.9-15.8-22.8-18.9-35.1-19.7
		c-26-0.1-42.4,11.4-44.5,28.7c-2.1,17.1,7.6,27.4,31.7,34.1c8.1,2.2,16.3,4.4,23.8,7.8c8.8,4,10.1,10.8,2.9,17.6
		c-9,8.6-32.6,5.4-36.3-6.3c-4.6-14.4-16.6-11.2-22.2-8.1c-8.2,4.6-1.7,13.9,2.2,20.2c9.4,15,33.3,21.3,56.6,15.7
		c16.4-4,26.7-15.5,27.3-30.8C1445.6,584.1,1437.3,573.7,1419.5,568.6z"/>
	<path class="st3" d="M1500.3,523.3c-11.1,0.1-15.5,4.1-18.5,13.8c-3.8,12.2-8.8,24.1-13.4,36.1c-7,18.7-14.1,37.4-21.1,56
		c15.7,3.9,27.2,2.5,29.7-14.9c0.9-6.3,4.5-7.9,10.3-7.6c7.9,0.4,15.9,0.3,23.8,0c5.1-0.2,9,1,9.5,6.6c1.9,18.8,14.2,19.6,30.7,16.1
		c-11.7-31.1-23.4-61.5-34.4-92.1C1513.9,528.8,1511.6,523.3,1500.3,523.3z M1485.9,588.2c4.5-12.3,8.4-23,13.3-36.4
		c2.5,6.8,4,10.6,5.4,14.5C1513.1,590.1,1513.1,590.1,1485.9,588.2z"/>
	<path class="st3" d="M1066.6,542.9c-2.8,7.2-7.9,13.5-12.7,21.4c-5.1-8.4-10.5-15-13.4-22.6c-6.7-17.8-19.1-21.4-36.9-16.3
		c3.5,6.1,6.6,12,10.2,17.7c15.4,24.5,33.6,47.9,27.8,80c-1.8,10,7.1,6.8,12.3,7.2c6.1,0.5,12.8,0.9,11.3-8.5
		c-4.1-24.8,6.2-44.9,19.5-64.7c6.9-10.3,14.5-20.6,18.4-32.1C1084.7,519.5,1073.3,525.9,1066.6,542.9z"/>
	<path class="st1" d="M333.6,563.9c137.3,0.4,247.9-109.4,251.2-243.6c3.5-139.2-106.3-257.8-250.2-258
		C198.7,62.1,86.4,173.5,83.3,308C80.1,443.8,195.4,565.7,333.6,563.9z M334,108.6c114-0.1,204.3,90.4,205.2,204.3
		c1,123.5-106.3,205.2-202.3,204.7c-113.5-0.6-208.3-93.3-207.8-204.7C129.6,201.7,222.8,108.8,334,108.6z"/>
	<path class="st1" d="M1012.8,425.7c104.3,0.2,186.2-81.1,186.3-185c0.1-104.4-80.3-186.4-182.9-186.6
		c-106-0.2-188.2,80.4-188.3,184.6C827.9,342.5,909.9,425.5,1012.8,425.7z M1014.1,88.5c85.1,0.2,151,66.8,150.9,152.6
		c-0.1,83.2-66.9,149.4-150.8,149.4c-83.6,0-152.4-67.7-152.5-150.1C861.6,156.6,930.2,88.3,1014.1,88.5z"/>
	<path class="st1" d="M1468.3,425.7c104-0.1,185.8-82,185.6-186c-0.2-105.6-80.8-185.7-187.1-185.6c-101.9,0-185.2,83.5-185.2,185.5
		C1281.6,341.8,1365.9,425.8,1468.3,425.7z M1470,88.6c83.5,0.8,151,69.6,150.3,152.2c-0.8,94.3-85.2,153.9-158.7,150.3
		c-78-3.8-145.6-71.9-145.2-152C1316.9,155.5,1386,87.8,1470,88.6z"/>
	<path class="st8" d="M964.2,583.9c-10-1.1-20.3-2.9-30.1,1.2c-0.5,0.2-0.5,1.7-0.8,2.6c-4.7,16.2,0.4,23.1,17,23.1
		c19.8,0,26.3-4.4,24.4-16.2C973.7,588.4,969.8,584.5,964.2,583.9z"/>
	<path class="st9" d="M949.6,566.2c9.1-0.3,21,1.9,20.9-11.8c-0.1-13.3-11.7-11.8-20.9-12.2c-1.5-0.1-3,0.2-4.4,0
		c-9.7-1.6-11.8,2.6-12.5,12.1C931.6,569.7,941.6,565.7,949.6,566.2z"/>
	<path class="st10" d="M1499.3,551.8c-4.9,13.4-8.8,24.2-13.3,36.4c27.1,1.8,27.1,1.8,18.7-21.9
		C1503.2,562.4,1501.8,558.6,1499.3,551.8z"/>
	<path class="st3" d="M336.9,517.6c96,0.5,203.3-81.2,202.3-204.7C538.3,199,448,108.5,334,108.6c-111.2,0.1-204.4,93.1-204.9,204.3
		C128.6,424.3,223.4,517,336.9,517.6z M381.8,240.1c30.5-11.4,66.4-3,86,19.2c8.3,9.4,8.8,15.3-4.1,19.6c-4.2,1.4-8.1,3.6-11.9,5.9
		c-6.2,3.8-10.5,4.7-15-3.2c-5.9-10.3-15.9-14-28-12.1c-12.6,2-20.7,8.9-24.3,20.9c-4.8,15.6-5,31.3,0.4,46.6
		c8.1,22.6,38.3,28.6,52.7,9.4c7.7-10.3,12.8-9,22-3.8c19.8,11.3,20.1,11.1,4,27.6c-20.8,21.3-55.3,27.4-85.4,15
		c-27.1-11.2-41.7-36.5-41.7-72.2C336.6,277,352.9,250.9,381.8,240.1z M231.4,243c28.4-13.6,56.7-10.7,82.9,7.6
		c2,1.4,3.8,3.2,5.6,4.9c14.4,14.6,13.9,14.8-3.5,24.9c-11.2,6.4-18.2,9.4-28.6-3.6c-12.5-15.7-38.2-8.7-45.8,10.8
		c-6.4,16.2-6.4,33-0.6,49.4c8,22.6,38.2,28.8,52.3,9.4c8-10.9,13.3-8.5,22.1-3.6c19.3,10.7,19.5,10.9,3.8,27.3
		c-20.2,21.2-56.1,27.7-85.4,15.6c-27.4-11.3-42.4-36.7-42.6-71.9C191.7,282.7,202.3,256.9,231.4,243z"/>
	<path class="st3" d="M1014.2,390.4c83.9,0,150.7-66.2,150.8-149.4c0.1-85.8-65.8-152.4-150.9-152.6
		c-83.9-0.2-152.5,68.2-152.4,151.9C861.8,322.8,930.6,390.5,1014.2,390.4z M1013.2,119.6c14.4-0.2,26.6,11.8,26.8,26.1
		c0.1,14.4-11.8,26.6-26.2,26.8c-14.2,0.2-26.8-12-26.9-26.2C986.7,132.1,998.8,119.8,1013.2,119.6z M963.1,195.5
		c0.1-8.7,4.4-13.9,13.7-13.9c24.3,0,48.6,0,72.8,0c10,0,14.2,5.2,14.2,14.9c-0.1,20.8-0.4,41.6,0.2,62.4
		c0.2,8.7-1.5,13.4-11.2,11.6c-9.3-1.8-10.1,3.5-10,11c0.4,22.8-0.2,45.6,0.3,68.3c0.2,8.3-2,11.2-10.6,10.7
		c-12.3-0.7-24.8-0.7-37.1,0c-8.7,0.5-12.6-1.5-11.8-11.2c0.9-11.3,0.2-22.8,0.2-34.1c0-8.9-0.4-17.9,0.1-26.7
		c0.6-11.1,1.4-21.2-15.1-18c-5.6,1.1-5.9-3.7-5.9-7.9C963,240,962.9,217.8,963.1,195.5z"/>
	<path class="st3" d="M1461.6,391.1c73.5,3.6,158-56,158.7-150.3c0.7-82.6-66.8-151.4-150.3-152.2c-84-0.8-153.1,66.9-153.6,150.5
		C1315.9,319.2,1383.6,387.3,1461.6,391.1z M1387.1,205.6c12.2-43,38.9-63.6,79.6-64c42.7-0.5,76.5,22.9,89.9,62
		c20,58.2-7.1,118.1-60.7,134.3c-48.9,14.8-95-7.5-108.7-52.7c-5-16.3-4.7-16.7,11.6-16.7c5,0,9.9,0.3,14.9-0.1
		c10.4-0.7,17.1,0.1,20.7,13.5c6.1,22.2,42.9,27.8,61.7,11.1c22.7-20.3,25.3-78.3,4.5-100.3c-17.4-18.5-54.5-13.9-65.5,8
		c-4,8-4.5,13.7,9.3,14.4c-12,11.7-21.8,20.8-31,30.5c-4.5,4.8-7.2,4.6-11.6-0.1c-9.2-9.7-19-18.7-29.7-29.1
		C1377.7,212.6,1384.6,214.3,1387.1,205.6z"/>
	<path class="st1" d="M234.1,385.5c29.3,12.1,65.2,5.6,85.4-15.6c15.7-16.4,15.5-16.6-3.8-27.3c-8.8-4.9-14.1-7.3-22.1,3.6
		c-14.1,19.4-44.3,13.2-52.3-9.4c-5.8-16.4-5.8-33.2,0.6-49.4c7.7-19.5,33.3-26.5,45.8-10.8c10.3,13,17.4,10.1,28.6,3.6
		c17.4-10,17.9-10.3,3.5-24.9c-1.7-1.8-3.5-3.5-5.6-4.9c-26.2-18.3-54.4-21.2-82.9-7.6c-29,13.9-39.7,39.7-39.9,70.7
		C191.7,348.8,206.7,374.2,234.1,385.5z"/>
	<path class="st1" d="M378.2,385.2c30,12.4,64.6,6.3,85.4-15c16.1-16.5,15.8-16.4-4-27.6c-9.2-5.2-14.2-6.6-22,3.8
		c-14.4,19.2-44.6,13.2-52.7-9.4c-5.5-15.3-5.2-31.1-0.4-46.6c3.7-12,11.8-18.9,24.3-20.9c12.1-1.9,22.1,1.8,28,12.1
		c4.6,7.9,8.9,7,15,3.2c3.8-2.3,7.7-4.5,11.9-5.9c12.9-4.3,12.5-10.1,4.1-19.6c-19.6-22.2-55.5-30.6-86-19.2
		c-29,10.8-45.2,37-45.3,73C336.5,348.7,351.1,374,378.2,385.2z"/>
	<path class="st1" d="M968.8,270.2c16.5-3.2,15.7,7,15.1,18c-0.5,8.9-0.1,17.8-0.1,26.7c0,11.4,0.7,22.8-0.2,34.1
		c-0.8,9.7,3,11.7,11.8,11.2c12.3-0.7,24.8-0.7,37.1,0c8.5,0.5,10.8-2.4,10.6-10.7c-0.6-22.8,0-45.6-0.3-68.3
		c-0.1-7.5,0.6-12.8,10-11c9.7,1.8,11.5-2.9,11.2-11.6c-0.6-20.8-0.3-41.6-0.2-62.4c0.1-9.7-4.2-14.9-14.2-14.9
		c-24.3,0-48.6,0-72.8,0c-9.3,0-13.6,5.2-13.7,13.9c-0.2,22.3-0.1,44.6-0.1,66.8C963,266.5,963.2,271.3,968.8,270.2z"/>
	<path class="st8" d="M1013.8,172.5c14.3-0.2,26.3-12.5,26.2-26.8c-0.1-14.4-12.4-26.3-26.8-26.1c-14.3,0.2-26.5,12.6-26.3,26.8
		C987,160.5,999.5,172.7,1013.8,172.5z"/>
	<path class="st1" d="M1401.9,245.4c4.4,4.7,7.1,4.9,11.6,0.1c9.2-9.7,19-18.8,31-30.5c-13.8-0.7-13.3-6.4-9.3-14.4
		c11-21.9,48.1-26.5,65.5-8c20.8,22.1,18.2,80-4.5,100.3c-18.8,16.8-55.6,11.2-61.7-11.1c-3.7-13.4-10.3-14.2-20.7-13.5
		c-4.9,0.3-9.9,0-14.9,0.1c-16.3,0-16.6,0.5-11.6,16.7c13.8,45.2,59.8,67.5,108.7,52.7c53.6-16.2,80.6-76.1,60.7-134.3
		c-13.5-39.1-47.3-62.5-89.9-62c-40.7,0.4-67.4,21-79.6,64c-2.5,8.7-9.4,7-14.9,10.8C1382.9,226.7,1392.7,235.8,1401.9,245.4z"/>
</g>
<g id="Layer_3" class="st0">
	<path class="st1" d="M1919.7,44.2c0-31.2-13-44.2-44.2-44.2c-191.4,0-382.8,0-574.2,0C881.9,0,462.4,0,42.9,0
		C13,0,0.4,12.6,0.3,42.4c0,35.2,0,70.5,0,105.7c0,168.7,0,337.5,0.1,506.2c0,6.5-2.9,14.4,6.2,17.9c4.4-0.2,8.9-0.6,13.3-0.6
		c627.5,0,1255,0,1882.5,0c4,0,7.9,0.2,11.9,0.3c7.6-4.6,5.3-12.2,5.3-18.8C1919.8,450.1,1919.8,247.2,1919.7,44.2z M812.4,608.9
		c-4.9,14.6-16.8,20.2-31,20.9c-16.3,0.8-32.6,0.2-48.9,0.7c-6,0.2-8.8-1.1-8.7-8c0.3-30.7,0.2-61.3,0.1-92c0-4.5,0.7-7.6,6.3-7.4
		c17.8,0.6,35.5,0.4,53.3,1.4c10.9,0.6,20.5,4.8,23.7,16.6c3.2,11.9,1.3,22.6-10.5,30.6C812.3,583.2,817.2,594.5,812.4,608.9z
		 M897.6,560c-12.6,17.9-21.2,36.7-17.3,59.3c2,11.5-5,11.1-13.1,11.4c-8.5,0.3-13.5-1.2-11.8-11.1c3.8-23-4.7-42.2-17.5-60.6
		c-7.5-10.7-13.5-22.6-20.3-34.3c17.6-4.3,30-1.5,36.6,16c3.1,8.2,8.9,15.3,14.1,23.9c5-8.3,10.4-15.4,13.7-23.4
		c6.8-16.4,18.1-21.9,37-16.2C911.4,537.4,905.2,549.1,897.6,560z M1223.1,629.8c-8.4,0.8-18.6,5.1-25.1-6.3
		c-10.4-18-21.8-35.4-32.8-53c-1.2-1.9-2.7-3.5-6.2-8.3c0,21.7-0.5,39.8,0.2,57.9c0.3,8.8-2.9,10.6-11,10.5
		c-8.1-0.1-12.6-0.6-12.4-10.9c0.7-27.7,0.1-55.5,0.4-83.3c0.1-4.6-3.5-12.6,5-12.9c7.6-0.2,16.6-4.4,22.6,5.5
		c12.1,20.2,24.7,39.9,39.7,59.2c0-18.1,0.6-36.2-0.2-54.3c-0.5-10.1,4-10.8,12.3-11.2c9.3-0.4,11.7,2.4,11.5,11.6
		c-0.6,27.3,0,54.5-0.4,81.8C1226.6,620.9,1230.4,629.1,1223.1,629.8z M1338.8,601.2c-5.5,17.7-17.9,28.4-36.1,31
		c-19.9,2.8-37.4-2.3-50-19c-8.1-10.6-11.2-22.9-10.9-39.1c0.1-35.8,28.7-59.7,65.3-51.5c12.1,2.7,22.3,8.8,27.7,20.3
		c2.3,4.9,9.8,12.6,2,16c-5.8,2.5-16.2,5.6-21.8-4.7c-5.2-9.7-14.1-14-24.8-12.5c-11.3,1.6-18.3,8.9-21.8,19.7
		c-4.2,12.8-3.7,25.2,2.6,37.3c5.2,9.9,13.5,13.8,24.3,13.7c10.2-0.1,17.7-5.4,20-14.7c3.4-14,13.9-9.1,21.4-8.4
		C1344.2,590,1340,597.4,1338.8,601.2z M1611.9,630.6c-5.2,1.4-10.6,1.9-12.5,2.3c-26.1,0.1-43.5-9.5-48-25.2
		c-1.2-4.2-4.9-11.7,1.2-12.6c6.4-1,15.3-6.2,20.7,4c7.3,13.8,19.3,18.1,33.1,13.2c5.2-1.8,8.9-5,9.4-10.2c0.6-5.6-3.3-9.4-8.2-11.1
		c-9.3-3.2-18.9-5.6-28.3-8.6c-19.8-6.1-27.4-15.7-25.8-32.3c1.5-15.6,12.6-25.6,31.3-28.3c21.5-3.1,39.5,3.5,47,17.3
		c2.8,5.2,6.3,13.6,1,15.5c-6.3,2.3-16.9,6.4-21.7-4.4c-3.4-7.6-9.4-9.7-16.6-10c-7.7-0.3-15.8,0.4-17.5,9.8
		c-1.7,9.6,6.9,10.6,13.3,12.6c7.5,2.3,15.4,3.7,22.9,6c18.2,5.5,26.4,15.6,25.8,31.5C1638.5,615.8,1629.6,626,1611.9,630.6z
		 M1714.9,614c-0.8-6.1-4.8-7.9-10.6-7.5c-4.9,0.4-10,0.7-14.8,0c-11.5-1.7-18.4,1.8-20.8,14c-3.4,17.2-16.8,7.3-27.7,10.1
		c13.2-34.9,25.9-68,38.1-101.2c3-8.3,9.2-5.9,14.6-6.1c5.6-0.2,11.7-1.9,14.6,6c12.1,33.3,24.5,66.4,36.9,99.8
		C1730.1,632.3,1717.4,633.1,1714.9,614z M1886.5,471.9c-429-0.4-858-0.3-1287-0.6c-12.3,0-19,3.5-25.8,14.1
		C461,663,205.7,662.1,93.8,483.7c-5.7-9.1-11.3-13.2-22.2-12.4c-13.8,1-27.8-0.4-41.6,0.5c-10.8,0.7-13.2-3.4-13.2-13.5
		c0.4-69.5,0.2-139,0.2-208.5c0-67,0-134,0-201c0-28.2,4.3-32.4,33.1-32.4c303,0,606.1,0,909.1,0s606.1,0,909.1,0
		c30.1,0,34.1,4.1,34.1,34.3c0,135-0.2,270,0.3,405C1902.8,468.9,1899.5,471.9,1886.5,471.9z"/>
	<path class="st2" d="M1902.4,50.7c0-30.2-4.1-34.3-34.1-34.3c-303,0-606.1,0-909.1,0s-606.1,0-909.1,0C21.4,16.4,17,20.6,17,48.8
		c0,67,0,134,0,201c0,69.5,0.2,139-0.2,208.5c-0.1,10.1,2.4,14.2,13.2,13.5c13.8-0.9,27.8,0.6,41.6-0.5c10.9-0.8,16.4,3.3,22.2,12.4
		C205.7,662.1,461,663,573.7,485.4c6.7-10.6,13.4-14.1,25.8-14.1c429,0.4,858,0.2,1287,0.6c13,0,16.3-3,16.3-16.2
		C1902.2,320.7,1902.4,185.7,1902.4,50.7z M334.5,564C197,563.8,84.7,450.8,83.9,312.8C83.2,179.2,195.5,58.6,334.2,62.7
		c142.1,0,249.7,108.9,250.6,250.7C585.8,458.4,465.1,564.1,334.5,564z M827.8,425.7c-102.9,0.1-185.7-83.1-185.6-186.4
		C640.1,140,727.5,51.7,831.5,53.6c96.5,1.8,185.1,84.3,182.2,189.4C1010.9,344.9,931.1,425.7,827.8,425.7z M1243.9,426
		c-101.2,0.7-186.7-90.1-185.1-189.1c1.4-91.4,81.7-186.5,190.8-182.9c101.6,3.3,181,82.6,180.9,187.3
		C1430.5,345.1,1348.5,425.3,1243.9,426z M1659.5,425.7c-103.9-2.7-185.6-87.2-183.1-189.2C1478.9,133,1563.1,51,1664,53.8
		c106.3,2.9,186.8,85.3,184.4,188.8C1846,346.5,1761.5,428.4,1659.5,425.7z"/>
	<path class="st3" d="M1227.1,534.5c0.2-9.2-2.2-12-11.5-11.6c-8.2,0.3-12.7,1.1-12.3,11.2c0.8,18.1,0.2,36.2,0.2,54.3
		c-15-19.3-27.7-39-39.7-59.2c-5.9-9.9-15-5.7-22.6-5.5c-8.5,0.3-5,8.3-5,12.9c-0.3,27.8,0.3,55.5-0.4,83.3
		c-0.3,10.3,4.3,10.8,12.4,10.9c8.1,0.1,11.3-1.6,11-10.5c-0.7-18.1-0.2-36.2-0.2-57.9c3.6,4.7,5.1,6.4,6.2,8.3
		c11,17.6,22.4,35,32.8,53c6.6,11.3,16.8,7,25.1,6.3c7.3-0.7,3.5-8.9,3.6-13.5C1227.1,589,1226.5,561.7,1227.1,534.5z"/>
	<path class="st3" d="M796.7,571.7c11.8-8,13.7-18.8,10.5-30.6c-3.2-11.8-12.8-16-23.7-16.6c-17.7-0.9-35.5-0.8-53.3-1.4
		c-5.6-0.2-6.3,2.9-6.3,7.4c0.1,30.7,0.2,61.3-0.1,92c-0.1,6.9,2.7,8.1,8.7,8c16.3-0.4,32.6,0.1,48.9-0.7c14.2-0.7,26.1-6.3,31-20.9
		C817.2,594.5,812.3,583.2,796.7,571.7z M764.9,543c8.1,0.7,20.6-2.6,19.7,12.1c-0.9,14.4-13.6,11-23.1,11.9
		c-9,0.8-13.7-0.1-14.3-11.9C746.5,539.4,755.9,543.4,764.9,543z M780.3,610.1c-5.1,1.4-10.6,1.4-11.5,1.5c-20,0-26.4-9.7-20.9-24.9
		c0.3-0.9,0.5-1.9,1.1-2.6c6-6.4,37.3,0,39.7,8.4C791,600.4,789.3,607.6,780.3,610.1z"/>
	<path class="st3" d="M1613.3,568.6c-7.6-2.3-15.4-3.7-22.9-6c-6.4-1.9-15-2.9-13.3-12.6c1.6-9.4,9.7-10.1,17.5-9.8
		c7.2,0.3,13.2,2.4,16.6,10c4.8,10.8,15.4,6.7,21.7,4.4c5.3-1.9,1.8-10.3-1-15.5c-7.5-13.8-25.6-20.4-47-17.3
		c-18.6,2.7-29.7,12.7-31.3,28.3c-1.6,16.6,6,26.2,25.8,32.3c9.4,2.9,19,5.4,28.3,8.6c4.9,1.7,8.8,5.5,8.2,11.1
		c-0.5,5.2-4.2,8.4-9.4,10.2c-13.8,4.9-25.8,0.6-33.1-13.2c-5.4-10.2-14.3-5-20.7-4c-6.1,0.9-2.4,8.4-1.2,12.6
		c4.6,15.7,21.9,25.3,48,25.2c1.8-0.3,7.2-0.9,12.5-2.3c17.7-4.6,26.6-14.8,27.2-30.6C1639.7,584.2,1631.5,574,1613.3,568.6z"/>
	<path class="st3" d="M1336.6,589.3c-7.5-0.7-17.9-5.6-21.4,8.4c-2.3,9.3-9.8,14.5-20,14.7c-10.8,0.2-19.1-3.8-24.3-13.7
		c-6.3-12.1-6.8-24.5-2.6-37.3c3.5-10.8,10.5-18.1,21.8-19.7c10.7-1.5,19.6,2.8,24.8,12.5c5.6,10.4,16.1,7.3,21.8,4.7
		c7.9-3.5,0.3-11.1-2-16c-5.4-11.5-15.7-17.6-27.7-20.3c-36.6-8.2-65.2,15.7-65.3,51.5c-0.3,16.2,2.8,28.5,10.9,39.1
		c12.7,16.6,30.2,21.8,50,19c18.2-2.6,30.6-13.2,36.1-31C1340,597.4,1344.2,590,1336.6,589.3z"/>
	<path class="st3" d="M1693.6,523.3c-5.5,0.2-11.6-2.2-14.6,6.1c-12.2,33.3-24.9,66.4-38.1,101.2c10.9-2.7,24.3,7.1,27.7-10.1
		c2.4-12.2,9.3-15.8,20.8-14c4.8,0.7,9.9,0.4,14.8,0c5.8-0.4,9.8,1.3,10.6,7.5c2.5,19.1,15.2,18.3,30.3,15.1
		c-12.4-33.4-24.8-66.5-36.9-99.8C1705.4,521.4,1699.2,523.1,1693.6,523.3z M1703,588.3c-6.4,0.6-12.9,0.6-19.2-0.1
		c-3.4-0.4-2.1-4-1.4-6.1c3.2-9.3,6.6-18.6,10.2-28.5c6.6,9,7.5,19.7,11.7,29.1C1705.2,584.8,1706.7,588,1703,588.3z"/>
	<path class="st4" d="M882,541.1c-3.3,8-8.8,15.1-13.7,23.4c-5.2-8.6-11-15.7-14.1-23.9c-6.6-17.5-19-20.3-36.6-16
		c6.9,11.7,12.8,23.6,20.3,34.3c12.9,18.4,21.4,37.6,17.5,60.6c-1.7,9.9,3.4,11.4,11.8,11.1c8.1-0.3,15.1,0.1,13.1-11.4
		c-3.9-22.5,4.8-41.3,17.3-59.3c7.6-10.8,13.8-22.6,21.3-35.1C900.1,519.2,888.8,524.7,882,541.1z"/>
	<path class="st1" d="M334.2,62.7C195.5,58.6,83.2,179.2,83.9,312.8c0.8,138,113,251,250.6,251.2c130.5,0.2,251.2-105.5,250.3-250.6
		C583.9,171.5,476.3,62.7,334.2,62.7z M335.2,517.2c-112.2,0.1-204.9-92.1-204.9-203.7c0-113.2,91.8-205.3,204.5-205.3
		c114.3,0,204.2,90.2,204.2,205C539,425.9,447.9,517.1,335.2,517.2z"/>
	<path class="st1" d="M1249.7,53.9c-109.2-3.6-189.4,91.5-190.8,182.9c-1.5,99.1,83.9,189.9,185.1,189.1
		c104.6-0.7,186.5-80.9,186.6-184.8C1430.7,136.6,1351.3,57.2,1249.7,53.9z M1373,321.7c-58.2,84.7-165.5,89.2-228.9,29.9
		c-43-40.2-58.7-89-46.7-146.8c2.1-10.1,4.7-15.9,16-8.4c5.7,3.7,12.5,6.1,19,8.3c10.2,3.6,17.3,8.6,14.3,21.1
		c-1.9,7.8,2.7,9.3,9.2,8.5c5.3-0.6,8.1,1.1,8.2,7.3c0.2,6.5-3,7.9-8.1,7c-12-2-8.8,6.6-9.5,12.9c-1,8.6,2.4,11.9,10.7,10.5
		c7.3-1.2,9.9,2.2,11.8,9.2c16.2,58.1,78.3,78.6,130.6,58.7c6.3-2.4,10.2-5.4,7.7-13.1c-2.8-8.4-2.6-17.6-7-25.8
		c-17.2,5.9-34.2,10.4-52.2,4.8c-6.2-1.9-12-4.6-17-8.7c-7-5.9-15.1-13.5-12.5-22c2.2-7.3,13-1.9,19.9-3
		c50.9-8.1,90.5,22.5,134.2,39.3C1379.9,314.2,1375.3,318.4,1373,321.7z M1392,278.8c-31.3-13.9-61.8-27.7-92.5-40.8
		c-8.1-3.5-5.8-9.7-5.4-15c0.6-8.7-2.8-10.5-11-10.7c-18.5-0.5-37.5,3.8-55.4-5.7c-7-3.7-6.9-6.4-3-12c11.2-16,35-23.5,59.2-15.7
		c12.1,3.9,18.1,3.5,18.8-10.6c0.2-4.4,1.7-8.8,3.3-12.9c2.8-7.1-0.5-9.2-6.8-11.4c-43.1-15.6-88.8-3.2-115.8,32.8
		c-4.6,6.1-7.7,7-14.3,3.7c-13.7-6.7-27.8-12.9-42-18.5c-8-3.1-8-6.1-3.1-12.4c39.6-50.3,91.5-71.3,153.6-57.7
		c60.8,13.3,99.3,53.2,115.1,113.6C1399.1,229,1398.1,253.3,1392,278.8z"/>
	<path class="st1" d="M831.5,53.6c-104-1.9-191.4,86.3-189.2,185.7c-0.1,103.4,82.6,186.5,185.6,186.4
		c103.3-0.1,183.1-80.8,185.9-182.7C1016.6,137.9,928,55.4,831.5,53.6z M827,391.1c-82.2-0.1-150.7-69.3-150.6-152
		c0.1-82.2,69.2-151.1,151.6-151.3c84.2-0.2,151.6,68.2,151.5,153.8C979.3,324.5,911.1,391.3,827,391.1z"/>
	<path class="st1" d="M1664,53.8c-100.9-2.8-185,79.2-187.6,182.8c-2.5,102,79.3,186.4,183.1,189.2
		c101.9,2.7,186.4-79.3,188.8-183.1C1850.7,139.1,1770.3,56.7,1664,53.8z M1660.2,391.1c-80.9-0.5-150.4-70.8-150.1-151.6
		c0.3-82.5,70.7-152.2,153.2-151.7c84.1,0.5,151,68.7,150.4,153.3C1813,325.2,1745,391.7,1660.2,391.1z"/>
	<path class="st11" d="M749,584.1c-0.6,0.6-0.8,1.7-1.1,2.6c-5.5,15.2,0.9,24.9,20.9,24.9c0.9-0.1,6.4,0,11.5-1.5
		c9-2.5,10.6-9.7,8.4-17.6C786.3,584.1,755,577.7,749,584.1z"/>
	<path class="st5" d="M761.5,567c9.5-0.9,22.2,2.5,23.1-11.9c1-14.7-11.6-11.4-19.7-12.1c-9,0.4-18.4-3.6-17.7,12.1
		C747.7,566.9,752.5,567.8,761.5,567z"/>
	<path class="st12" d="M1692.5,553.6c-3.6,9.9-7,19.2-10.2,28.5c-0.7,2.1-2,5.7,1.4,6.1c6.3,0.7,12.8,0.7,19.2,0.1
		c3.8-0.3,2.2-3.5,1.2-5.6C1700.1,573.3,1699.2,562.6,1692.5,553.6z"/>
	<path class="st3" d="M334.8,108.2c-112.7,0-204.5,92.2-204.5,205.3c0,111.6,92.7,203.8,204.9,203.7
		C447.9,517.1,539,425.9,539,313.2C539,198.4,449.1,108.2,334.8,108.2z M319.3,370.2c-21.3,21.9-58.9,27.5-88.3,13.3
		c-28.4-13.8-43.3-45.5-38.7-81.6c4-31.3,19.4-53.9,50-63.8c29.7-9.6,63.8,0.1,81.7,21.2c7,8.3,9.9,14.4-3.3,18.8
		c-5.1,1.7-10,4.4-14.5,7.4c-5.3,3.5-8.3,2.8-11.7-2.9c-8.1-13.5-21-16.1-35-12.1c-13.7,3.9-18.5,15.4-20.5,28.3
		c-0.7,4.4-0.5,8.9-0.6,11.7c0.2,9.6-0.1,17.5,2.8,25.2c8.7,23.5,38.5,30,53.3,9.8c7.7-10.6,12.6-8.1,20.8-3.5
		C334.8,352.7,335.1,354,319.3,370.2z M385.2,336.7c8,22.5,38.9,28.4,52.8,9c7.7-10.8,12.9-8.3,21.6-3.6
		c19.8,10.7,20.5,11.9,4.3,27.8c-23.3,22.9-51.3,26.2-81.1,16.4c-28.6-9.4-41.9-31.6-45.4-60.2c-1.9-15.3-1.3-30.7,4.4-45.4
		c11.3-28.8,32.7-44,63.3-45.6c30.3-1.6,55.4,7.9,71.3,36.5c-5.1,2.6-10.1,4.8-14.7,7.7c-10.9,6.9-18.9,10.9-29.9-3.3
		c-12.4-16-39.6-7.6-46.7,12.6C379.6,304.4,379.6,320.9,385.2,336.7z"/>
	<path class="st3" d="M1277.7,91.8c-62.2-13.6-114,7.4-153.6,57.7c-5,6.3-4.9,9.2,3.1,12.4c14.2,5.6,28.3,11.8,42,18.5
		c6.6,3.3,9.7,2.3,14.3-3.7c27-35.9,72.7-48.4,115.8-32.8c6.3,2.3,9.5,4.4,6.8,11.4c-1.6,4.1-3.1,8.5-3.3,12.9
		c-0.7,14-6.7,14.4-18.8,10.6c-24.2-7.8-48.1-0.3-59.2,15.7c-3.9,5.6-4,8.3,3,12c17.9,9.5,36.9,5.3,55.4,5.7c8.2,0.2,11.6,2,11,10.7
		c-0.4,5.3-2.7,11.5,5.4,15c30.8,13.2,61.3,27,92.5,40.8c6.1-25.4,7.1-49.7,0.9-73.4C1377,145,1338.5,105.1,1277.7,91.8z"/>
	<path class="st3" d="M1372.5,311.4c-43.6-16.8-83.3-47.5-134.2-39.3c-6.9,1.1-17.6-4.3-19.9,3c-2.6,8.4,5.6,16.1,12.5,22
		c5,4.2,10.8,6.8,17,8.7c18,5.6,35.1,1.1,52.2-4.8c4.4,8.2,4.2,17.4,7,25.8c2.5,7.7-1.3,10.7-7.7,13.1
		c-52.3,19.8-114.4-0.7-130.6-58.7c-1.9-6.9-4.5-10.4-11.8-9.2c-8.3,1.4-11.7-1.9-10.7-10.5c0.7-6.4-2.5-14.9,9.5-12.9
		c5.1,0.8,8.3-0.5,8.1-7c-0.2-6.1-2.9-7.9-8.2-7.3c-6.5,0.8-11.1-0.7-9.2-8.5c3-12.5-4.1-17.6-14.3-21.1c-6.5-2.3-13.3-4.6-19-8.3
		c-11.3-7.4-13.9-1.6-16,8.4c-12,57.8,3.7,106.6,46.7,146.8c63.4,59.3,170.8,54.8,228.9-29.9
		C1375.3,318.4,1379.9,314.2,1372.5,311.4z"/>
	<path class="st3" d="M827.9,87.9c-82.4,0.2-151.5,69.1-151.6,151.3c-0.1,82.7,68.4,151.8,150.6,152
		c84.2,0.2,152.3-66.7,152.4-149.5C979.5,156.1,912.1,87.7,827.9,87.9z M829.3,120.1c14.5,0.6,25.9,12.9,25.1,27.3
		c-0.8,14.5-13,25.2-28,24.6c-14.6-0.6-25.9-13-25-27.4C802.4,129.8,814.1,119.5,829.3,120.1z M867.5,270
		c-9.2-1.5-10.4,3.3-10.3,11.1c0.4,22.8-0.2,45.6,0.3,68.4c0.2,8.3-2.1,11.5-10.8,11.1c-15.3-0.8-35.1,4.9-44.6-2.7
		c-10.1-8-1.7-28.7-3.3-41.4c0-13.8-0.4-25.2,0.1-36.6c0.4-7.8-2.3-11.2-10.1-9.8c-10.7,2-11.8-3.7-11.6-12.4
		c0.5-19.3,0.6-38.6,0-57.9c-0.4-12.5,4.3-18.3,17.2-18.1c22.3,0.4,44.5,0.3,66.8,0c11.7-0.1,17.2,4.8,17,17
		c-0.4,20.3-0.5,40.6,0.1,60.9C878.7,268.1,875.8,271.4,867.5,270z"/>
	<path class="st3" d="M1663.2,87.8c-82.5-0.5-152.8,69.1-153.2,151.7c-0.3,80.9,69.2,151.1,150.1,151.6
		c84.8,0.5,152.9-65.9,153.5-150C1814.2,156.6,1747.4,88.4,1663.2,87.8z M1755.8,256.1c-4.1,37.7-23.5,65.8-60,79.7
		c-51.7,19.5-102.8-5.3-115.7-55c-2.9-10.9,0.4-12.8,9.9-11.9c5.4,0.5,10.9,0.5,16.3,0c11.3-0.9,18.6,0.1,23.1,14.2
		c7.3,22.6,44.9,26.1,63,7.6c20.6-21,22.6-75.2,3.2-97.2c-10.9-12.4-25.2-14.3-40.8-11.3c-16,3-25.2,12.5-29.2,29.9
		c4.2,0.4,7.8,0.8,14.1,1.4c-12,11.8-22.4,21.6-32.1,31.9c-4.8,5.1-7.7,3.8-12-0.5c-9.7-9.8-19.9-19.3-32.9-31.8
		c15.1,1.9,17.7-5.5,20.5-14.8c16.7-54.8,82.1-75.7,132.3-41.7C1750.5,180.6,1760.2,216.4,1755.8,256.1z"/>
	<path class="st1" d="M315.1,341.8c-8.2-4.6-13.1-7.1-20.8,3.5c-14.7,20.2-44.6,13.7-53.3-9.8c-2.9-7.7-2.5-15.6-2.8-25.2
		c0.1-2.7,0-7.3,0.6-11.7c1.9-12.9,6.7-24.4,20.5-28.3c14-4,26.9-1.3,35,12.1c3.4,5.7,6.4,6.4,11.7,2.9c4.5-2.9,9.4-5.7,14.5-7.4
		c13.3-4.4,10.3-10.5,3.3-18.8c-17.9-21.1-52-30.8-81.7-21.2c-30.6,9.9-46,32.5-50,63.8c-4.6,36.1,10.3,67.8,38.7,81.6
		c29.4,14.2,67,8.6,88.3-13.3C335.1,354,334.8,352.7,315.1,341.8z"/>
	<path class="st1" d="M431.9,276c11,14.2,19,10.2,29.9,3.3c4.6-2.9,9.6-5,14.7-7.7c-15.9-28.7-41.1-38.2-71.3-36.5
		c-30.6,1.6-52,16.8-63.3,45.6c-5.7,14.6-6.3,30.1-4.4,45.4c3.5,28.6,16.8,50.8,45.4,60.2c29.8,9.8,57.8,6.5,81.1-16.4
		c16.2-15.9,15.5-17.2-4.3-27.8c-8.7-4.7-13.8-7.2-21.6,3.6c-13.9,19.4-44.8,13.5-52.8-9c-5.6-15.8-5.6-32.3-0.1-48.1
		C392.3,268.4,419.5,260.1,431.9,276z"/>
	<path class="st1" d="M878.3,198.6c0.2-12.1-5.2-17.1-17-17c-22.3,0.2-44.5,0.3-66.8,0c-12.9-0.2-17.5,5.6-17.2,18.1
		c0.6,19.3,0.5,38.6,0,57.9c-0.2,8.8,0.9,14.4,11.6,12.4c7.7-1.5,10.5,1.9,10.1,9.8c-0.6,11.4-0.1,22.8-0.1,36.6
		c1.6,12.7-6.8,33.4,3.3,41.4c9.6,7.6,29.4,1.8,44.6,2.7c8.6,0.5,11-2.7,10.8-11.1c-0.5-22.8,0.1-45.6-0.3-68.4
		c-0.1-7.8,1.1-12.6,10.3-11.1c8.3,1.4,11.1-1.9,10.9-10.5C877.8,239.2,877.9,218.9,878.3,198.6z"/>
	<path class="st7" d="M826.4,172c14.9,0.6,27.2-10.1,28-24.6c0.8-14.4-10.5-26.8-25.1-27.3c-15.2-0.6-26.9,9.7-27.9,24.5
		C800.5,159.1,811.8,171.4,826.4,172z"/>
	<path class="st1" d="M1715.5,156.9c-50.1-34-115.6-13.1-132.3,41.7c-2.8,9.3-5.4,16.7-20.5,14.8c13,12.5,23.2,21.9,32.9,31.8
		c4.2,4.3,7.2,5.5,12,0.5c9.8-10.4,20.2-20.1,32.1-31.9c-6.3-0.6-9.9-1-14.1-1.4c4-17.4,13.2-26.9,29.2-29.9
		c15.6-3,29.9-1.1,40.8,11.3c19.4,22,17.4,76.1-3.2,97.2c-18.1,18.5-55.7,15-63-7.6c-4.5-14.1-11.8-15.1-23.1-14.2
		c-5.4,0.4-10.9,0.5-16.3,0c-9.6-0.9-12.8,0.9-9.9,11.9c12.9,49.7,64.1,74.5,115.7,55c36.6-13.8,55.9-41.9,60-79.7
		C1760.2,216.4,1750.5,180.6,1715.5,156.9z"/>
</g>
<g id="Layer_4">
	<path class="st13" d="M20.3,671.9c313.1,0,626.2,0,939.3,0c313.6,0,627.2-0.1,940.7,0.3c14.6,0,19.7-3.2,19.7-18.7
		c-0.5-203.8-0.3-407.5-0.3-611.3c0-29.2-13.2-42.2-42.8-42.2C1265.6,0,654.3,0,43,0C12.6,0,0,12.7,0,43.4c0,202.8,0,405.5,0,608.3
		C0,671.9,0,671.9,20.3,671.9z M997.7,608c-3,13.2-13.7,19.1-26,21c-10.2,1.5-20.7,1.3-31,1.8c-31.4-0.5-31.4-0.5-31.4-31.8
		c0-21.8,0.4-43.5-0.2-65.3c-0.2-8.4,2.3-11.1,10.8-10.7c15.3,0.7,30.7-0.4,46,0.7c27.3,2,36.4,22,20.4,44.2
		c-2.5,3.5-3.5,4.5,0.9,7.2C999.5,582.9,1000.6,595.4,997.7,608z M1074.8,573c-11.5,15.2-9.8,31.6-9.5,48.2
		c0.1,7.2-2.3,10.6-9.2,8.9c-5.2-1.2-16.2,4.7-14.4-6.1c6-35.4-15.9-59.8-31.4-86.8c-2.2-3.8-4.4-7.6-7.4-12.6
		c18.7-5,30.7-0.3,37.4,17.1c2.8,7.3,8,13.6,12.7,21.2c6.7-5.8,10.4-13.2,13.5-20.5c7.1-16.2,17.7-24.3,37.6-17.4
		C1094.6,540.9,1086.1,558.1,1074.8,573z M1438.1,629.7c-8.3,0.7-18.5,5.3-25.1-6.1c-11.6-20-24.3-39.4-39.2-58.5
		c0,17.5-0.2,34.9,0.1,52.4c0.2,8.1,0.4,13.7-11.1,13.3c-10.2-0.3-12.2-3.4-12-12.7c0.5-27.2,0-54.5,0.4-81.8
		c0.1-4.5-3.8-12.6,4.8-12.7c7.6-0.1,16.7-4.7,22.7,5.3c10.4,17.4,21.3,34.5,32.1,51.7c1.7,2.7,2.3,6.4,7.7,7.7
		c0-17.5,0.5-34.6-0.2-51.6c-0.4-9.5,1-13.9,12.4-13.9c11.2,0,11.4,4.8,11.3,13.2c-0.4,26.8,0.1,53.5-0.3,80.3
		C1441.5,620.8,1445.2,629.1,1438.1,629.7z M1550.8,603.3c-7.4,17-21.3,25.7-39.5,26.7c-13.3,0.7-26.8-0.3-40.1,0.5
		c-9.2,0.6-10.4-3.5-10.3-11.2c0.4-27.2,0.7-54.5-0.1-81.7c-0.3-11.4,2.4-16.4,14.4-14.5c4.8,0.8,9.9,0.1,14.8,0.1c3,0,5.9,0,8.9,0
		C1545.3,523.3,1569.5,560.5,1550.8,603.3z M15.9,182.8c0-44.1,0-88.3,0-132.4c0-28.2,4.8-33.1,32.3-33.1c304.2,0,608.4,0,912.6,0
		s608.4,0,912.6,0c24.6,0,29.8,5.1,29.8,29.3c0,136.4-0.3,272.7,0.4,409.1c0.1,14.1-4.5,15.8-16.7,15.8
		c-429.3-0.3-858.6-0.2-1287.8-0.6c-12.5,0-19.2,3.8-25.9,14.3c-113.2,177.2-368.6,176-480.1-2.1c-5.3-8.5-10.7-12.8-21.1-12.1
		c-13.8,1-27.8-0.5-41.7,0.5c-11.9,0.9-14.9-3.2-14.8-14.9C16.1,365.3,15.9,274.1,15.9,182.8z"/>
	<path class="st14" d="M30.4,471.5c13.8-1,27.8,0.5,41.7-0.5c10.4-0.7,15.7,3.5,21.1,12.1c111.5,178.2,366.9,179.4,480.1,2.1
		c6.7-10.5,13.4-14.3,25.9-14.3c429.3,0.4,858.6,0.3,1287.8,0.6c12.2,0,16.8-1.7,16.7-15.8c-0.7-136.4-0.4-272.7-0.4-409.1
		c0-24.2-5.3-29.3-29.8-29.3c-304.2,0-608.4,0-912.6,0s-608.4,0-912.6,0c-27.5,0-32.3,4.9-32.3,33.1c0,44.1,0,88.3,0,132.4
		c0,91.2,0.2,182.5-0.3,273.7C15.5,468.2,18.5,472.3,30.4,471.5z M1474,54.5c89.8-2,189.9,78.7,179.1,204.6
		c-8.1,95-95.7,175.8-204.5,165.9c-87.2-8-170.8-87.6-167.1-191.4C1285.2,131.7,1371.9,48.6,1474,54.5z M1016,53.5
		c102.6,0.2,183,82.1,182.9,186.4c-0.1,103.9-81.9,185.2-186.2,185c-102.9-0.2-185-83.1-184.9-186.9C827.9,133.9,910,53.4,1016,53.5
		z M83.3,305.5C87,172.4,200,61.3,334.9,61.8c143.2,0.5,254,118.5,249.8,259.7c-3.9,133-115.2,242.4-251.5,241.6
		C196,564.8,79.4,443.6,83.3,305.5z"/>
	<path class="st15" d="M1441.9,535.8c0.1-8.3-0.1-13.2-11.3-13.2c-11.4,0-12.8,4.4-12.4,13.9c0.7,17.1,0.2,34.2,0.2,51.6
		c-5.4-1.3-6-5-7.7-7.7c-10.8-17.2-21.7-34.2-32.1-51.7c-5.9-10-15.1-5.4-22.7-5.3c-8.7,0.1-4.8,8.2-4.8,12.7
		c-0.4,27.3,0.2,54.5-0.4,81.8c-0.2,9.3,1.9,12.4,12,12.7c11.6,0.3,11.3-5.2,11.1-13.3c-0.3-17.5-0.1-34.9-0.1-52.4
		c14.9,19.1,27.6,38.5,39.2,58.5c6.6,11.4,16.8,6.8,25.1,6.1c7.1-0.6,3.4-8.9,3.5-13.6C1442,589.4,1441.5,562.6,1441.9,535.8z"/>
	<path class="st15" d="M987,575.1c-4.4-2.8-3.4-3.7-0.9-7.2c16-22.2,6.9-42.2-20.4-44.2c-15.3-1.1-30.7,0-46-0.7
		c-8.4-0.4-11,2.3-10.8,10.7c0.6,21.8,0.2,43.5,0.2,65.3c0,31.3,0,31.3,31.4,31.8c10.4-0.5,20.8-0.3,31-1.8c12.4-1.8,23-7.8,26-21
		C1000.6,595.4,999.5,582.9,987,575.1z M933.9,545.5c2.2-6.1,9.7-1.7,14.8-3.3c4.3,0.4,8.8,0.4,13.1,1.2c6.3,1.2,9.2,5.8,8.7,11.8
		c-0.4,5.4-3.7,9.3-9.2,10.1c-9.2,1.3-19.5,4.1-27.1-1.5C931.1,561.5,931.9,551.1,933.9,545.5z M974.2,600.3
		c-6,17.5-21.6,8.9-33.2,10.5c-11.1,1.5-7-7.5-8.1-13.1c-3.3-16.2,6.4-16.6,17.9-15.3c4.4,0.3,9,0,13.2,1.1
		C972.8,585.6,977,592.3,974.2,600.3z"/>
	<path class="st15" d="M1499,523.2c-3,0-5.9,0-8.9,0c-5,0-10,0.6-14.8-0.1c-12-1.9-14.8,3.2-14.4,14.5c0.8,27.2,0.5,54.4,0.1,81.7
		c-0.1,7.7,1,11.8,10.3,11.2c13.3-0.8,26.8,0.2,40.1-0.5c18.3-1,32.1-9.6,39.5-26.7C1569.5,560.5,1545.3,523.3,1499,523.2z
		 M1494.6,609.7c-8-0.2-10.3-2.7-9.8-10.2c0.6-7.9,0.1-15.8,0.1-23.8c0-3.5-0.7-7.1,0.2-10.4c2-7.1-6-18,5.7-21
		c17.5-4.5,32.2,2.4,37.7,15.6C1540.6,588.7,1525.5,610.5,1494.6,609.7z"/>
	<path class="st16" d="M1066.5,542.4c-3.2,7.2-6.9,14.7-13.5,20.5c-4.7-7.6-9.9-14-12.7-21.2c-6.7-17.4-18.7-22-37.4-17.1
		c3,5,5.2,8.8,7.4,12.6c15.5,27.1,37.4,51.5,31.4,86.8c-1.9,10.8,9.2,4.9,14.4,6.1c7,1.7,9.4-1.7,9.2-8.9
		c-0.3-16.6-1.9-33.1,9.5-48.2c11.3-15,19.8-32.1,29.3-48C1084.2,518.1,1073.6,526.2,1066.5,542.4z"/>
	<path class="st13" d="M333.2,563.1c136.4,0.8,247.7-108.7,251.5-241.6c4.1-141.2-106.6-259.3-249.8-259.7
		C200,61.3,87,172.4,83.3,305.5C79.4,443.6,196,564.8,333.2,563.1z M327.2,108.1c113.2-4.4,207.3,83.4,211.7,197.5
		c4.8,125.3-99.1,207.6-194,211.1c-117.1,4.3-213.6-85.4-215.7-202.2C127.4,206.5,218.6,109.7,327.2,108.1z"/>
	<path class="st13" d="M1012.7,425c104.3,0.2,186.1-81.1,186.2-185c0.1-104.4-80.3-186.3-182.9-186.4
		c-106-0.2-188.1,80.3-188.2,184.5C827.7,341.8,909.8,424.8,1012.7,425z M1015.3,87.7c89.3,2.8,152.3,70.7,149.5,161.2
		c-2.4,78.4-76.5,146.4-161.9,141.3c-77.8-4.6-144.1-77-141.3-158.2C864.3,153.1,936.6,85.2,1015.3,87.7z"/>
	<path class="st13" d="M1448.7,424.9c108.8,9.9,196.3-70.9,204.5-165.9C1664,133.2,1563.9,52.4,1474,54.5
		c-102.2-5.9-188.8,77.2-192.4,179.1C1278,337.3,1361.5,417,1448.7,424.9z M1467.4,88.3c84.2-0.3,152.1,67.2,152.5,151.4
		c0.4,83.3-68.2,151.3-152.6,151.2c-82.9-0.2-151.2-68.5-151.2-151.3C1316.2,157,1384.6,88.5,1467.4,88.3z"/>
	<path class="st17" d="M964.1,583.5c-4.2-1-8.8-0.8-13.2-1.1c-11.5-1.3-21.2-0.9-17.9,15.3c1.1,5.5-3,14.6,8.1,13.1
		c11.6-1.6,27.2,7,33.2-10.5C977,592.3,972.8,585.6,964.1,583.5z"/>
	<path class="st18" d="M961.3,565.3c5.5-0.8,8.8-4.7,9.2-10.1c0.4-6.1-2.4-10.6-8.7-11.8c-4.3-0.8-8.8-0.9-13.1-1.2
		c-5.1,1.6-12.6-2.8-14.8,3.3c-2,5.6-2.8,16,0.3,18.3C941.8,569.4,952.1,566.6,961.3,565.3z"/>
	<path class="st19" d="M1490.7,544.3c-11.7,3-3.7,14-5.7,21c-0.9,3.2-0.2,6.9-0.2,10.4c0,7.9,0.4,15.9-0.1,23.8
		c-0.5,7.6,1.8,10,9.8,10.2c31,0.8,46-20.9,33.9-49.8C1522.9,546.7,1508.2,539.8,1490.7,544.3z"/>
	<path class="st15" d="M345,516.7c94.9-3.5,198.8-85.7,194-211.1c-4.4-114.1-98.5-201.9-211.7-197.5
		c-108.7,1.6-199.8,98.5-197.9,206.4C131.4,431.3,227.9,521,345,516.7z M440.2,239.8c4.1,1.5,8.2,3.4,12,5.7
		c9.8,6.1,22.8,14.3,21.2,24.5c-1.5,9.5-17.8,11.1-27.2,16.8c-5.8,3.5-6.4-2.3-8.4-5c-7.2-10.1-16.5-15-29.2-12.9
		c-13.3,2.2-21.2,9.8-24.6,22.5c-4,14.6-4.3,29.4,0.6,43.8c8,23.5,38.6,30.2,53.2,10.3c8-10.8,13.5-8.7,22-3.3
		c5.4,3.4,11.2,6.1,16.8,9.1c-18.7,32.9-50.6,46.3-87.5,37.1c-31.9-8-51.3-33.9-52.6-70.3C334.3,255.7,382.9,219.1,440.2,239.8z
		 M304.5,243.6c9,4.5,16,11.4,22.1,19.4c4.3,5.7,5.8,10-2.8,12.9c-4.2,1.4-8.1,3.6-11.9,6c-8.1,5.1-13.4,7.7-21.2-3.1
		c-13.2-18.3-40.6-13-49,8.3c-6.2,15.7-5.7,31.9-1,48c3.3,11.5,10.9,18.7,22.7,20.9c12.6,2.3,24.7-0.5,31.4-11.6
		c5.8-9.6,10.4-8,18.5-3.5c21.8,12,22.5,13.7,3.8,30.7c-24.7,22.4-53.7,24.4-83.2,12.9c-31.9-12.5-41.8-39.7-42.4-71.6
		C190.8,244.6,254.4,218.8,304.5,243.6z"/>
	<path class="st15" d="M1002.9,390.2c85.4,5.1,159.5-62.9,161.9-141.3c2.8-90.5-60.2-158.5-149.5-161.2
		c-78.7-2.4-151,65.5-153.8,144.3C858.8,313.2,925.1,385.6,1002.9,390.2z M1013.1,119c14.4-0.1,26.6,11.9,26.6,26.2
		c0.1,14.4-12,26.6-26.3,26.7c-14.2,0.1-26.7-12.1-26.8-26.3C986.6,131.4,998.8,119.1,1013.1,119z M963,194
		c0.2-8.8,5.5-13.1,14.6-13c23.8,0.2,47.6,0.1,71.3,0c10.8,0,14.9,5.5,14.8,15.8c-0.2,20.8-0.4,41.6,0.1,62.4
		c0.2,8.3-2.1,12.1-10.6,10.6c-8.5-1.5-10.8,2.1-10.6,10.4c0.6,23.2-0.2,46.5,0.4,69.8c0.2,8-2.4,10.7-10,9.6c-1-0.1-2,0-3,0
		c-15.1-1-35.4,6.5-43.9-3.1c-7.3-8.4-1.5-28.2-1.5-43c-0.3,0-0.6,0-0.9,0c0-8.9-0.2-17.8,0.1-26.7c0.4-10.3,1.4-20.5-14.5-17.1
		c-5.3,1.1-6.5-2.8-6.4-7.4C962.9,239.5,962.6,216.7,963,194z"/>
	<path class="st15" d="M1467.4,390.8c84.3,0.2,153-67.8,152.6-151.2c-0.4-84.2-68.4-151.7-152.5-151.4
		c-82.8,0.3-151.2,68.7-151.2,151.3C1316.2,322.3,1384.4,390.6,1467.4,390.8z M1538.6,280.5c0.4,5.7-1.6,7.7-7.5,7.7
		c-40.6-0.2-81.2-0.2-121.8,0c-5,0-7.3-1.4-6.9-6.7c0.3-4.4,0.6-9,0-13.3c-1.5-10.3,2.1-13.6,12.7-13c18.3,0.9,36.6,0.3,54.9,0.3
		c19.3,0,38.6,0.4,57.9-0.2c8.2-0.2,11.9,1.8,10.7,10.5C1538,270.6,1538.2,275.6,1538.6,280.5z M1415.1,195.5
		c18.2,1.4,36.5,0.3,54.8,0.3c19.3,0,38.6,0.4,57.8-0.2c8.2-0.2,11,1.8,11,10.5c0,21.9,0.5,21.9-21.9,21.9
		c-34.1,0-68.2-0.8-102.3,0.4c-17.1,0.6-11.1-10.4-12-18.4C1401.4,200.7,1402.3,194.5,1415.1,195.5z"/>
	<path class="st13" d="M233.9,384.4c29.5,11.5,58.5,9.5,83.2-12.9c18.7-17,17.9-18.7-3.8-30.7c-8.1-4.4-12.6-6-18.5,3.5
		c-6.8,11.1-18.8,13.9-31.4,11.6c-11.7-2.1-19.4-9.3-22.7-20.9c-4.6-16.1-5.2-32.3,1-48c8.4-21.3,35.8-26.6,49-8.3
		c7.8,10.9,13.2,8.2,21.2,3.1c3.7-2.4,7.7-4.6,11.9-6c8.6-2.9,7.1-7.2,2.8-12.9c-6-8.1-13-14.9-22.1-19.4
		c-50.1-24.8-113.8,1-113.1,69.2C192.1,344.7,202,371.9,233.9,384.4z"/>
	<path class="st13" d="M389.1,388.3c36.9,9.2,68.8-4.1,87.5-37.1c-5.6-3-11.5-5.7-16.8-9.1c-8.5-5.4-14.1-7.5-22,3.3
		c-14.6,19.8-45.2,13.2-53.2-10.3c-4.9-14.4-4.6-29.2-0.6-43.8c3.4-12.6,11.3-20.3,24.6-22.5c12.8-2.1,22,2.7,29.2,12.9
		c2,2.8,2.6,8.5,8.4,5c9.4-5.7,25.7-7.3,27.2-16.8c1.6-10.1-11.5-18.4-21.2-24.5c-3.7-2.3-7.8-4.2-12-5.7
		c-57.3-20.7-105.8,15.9-103.7,78.2C337.8,354.4,357.2,380.3,389.1,388.3z"/>
	<path class="st13" d="M969.2,269.6c15.9-3.4,14.8,6.8,14.5,17.1c-0.3,8.9-0.1,17.8-0.1,26.7c0.3,0,0.6,0,0.9,0
		c0,14.8-5.8,34.6,1.5,43c8.5,9.7,28.8,2.1,43.9,3.1c1,0.1,2-0.1,3,0c7.6,1.2,10.2-1.6,10-9.6c-0.6-23.2,0.2-46.5-0.4-69.8
		c-0.2-8.3,2-11.9,10.6-10.4c8.5,1.5,10.9-2.3,10.6-10.6c-0.5-20.8-0.3-41.6-0.1-62.4c0.1-10.3-3.9-15.9-14.8-15.8
		c-23.8,0.1-47.6,0.2-71.3,0c-9.1-0.1-14.4,4.2-14.6,13c-0.4,22.8-0.1,45.5-0.2,68.3C962.8,266.8,963.9,270.8,969.2,269.6z"/>
	<path class="st19" d="M1013.5,171.9c14.3-0.1,26.3-12.3,26.3-26.7c-0.1-14.4-12.2-26.4-26.6-26.2c-14.3,0.1-26.5,12.4-26.4,26.6
		C986.7,159.8,999.2,172,1013.5,171.9z"/>
	<path class="st20" d="M1414.6,228.5c34.1-1.2,68.2-0.4,102.3-0.4c22.4,0,21.9,0,21.9-21.9c0-8.7-2.9-10.7-11-10.5
		c-19.3,0.5-38.5,0.2-57.8,0.2c-18.3,0-36.7,1-54.8-0.3c-12.8-1-13.7,5.2-12.6,14.6C1403.5,218.1,1397.5,229.1,1414.6,228.5z"/>
	<path class="st13" d="M1527.9,255.2c-19.3,0.6-38.6,0.2-57.9,0.2c-18.3,0-36.7,0.7-54.9-0.3c-10.6-0.5-14.2,2.8-12.7,13
		c0.7,4.4,0.4,8.9,0,13.3c-0.4,5.3,1.9,6.7,6.9,6.7c40.6-0.1,81.2-0.2,121.8,0c5.9,0,7.9-2,7.5-7.7c-0.4-4.9-0.6-10,0-14.8
		C1539.8,257,1536.1,255,1527.9,255.2z"/>
</g>
</svg>
