<?xml version="1.0" encoding="utf-8"?>
<!-- Generator: Adobe Illustrator 20.1.0, SVG Export Plug-In . SVG Version: 6.00 Build 0)  -->
<svg version="1.1" xmlns="http://www.w3.org/2000/svg" xmlns:xlink="http://www.w3.org/1999/xlink" x="0px" y="0px" width="1920px"
	 height="672.2px" viewBox="0 0 1920 672.2" style="enable-background:new 0 0 1920 672.2;" xml:space="preserve">
<style type="text/css">
	.st0{fill:#1873A0;}
	.st1{fill:#FFFFFF;}
	.st2{fill:#FDFEFF;}
	.st3{display:none;}
	.st4{display:inline;fill:#1873A0;}
	.st5{display:inline;fill:#FFFFFF;}
</style>
<g id="Grid">
</g>
<g id="CC_x5F_BY">
	<path class="st0" d="M20.9,672.2c312.5,0,625,0,937.5,0c314,0,627.9,0,941.9,0c19.4,0,19.7-0.2,19.7-20.1c0-202.4,0-404.7,0-607.1
		c0-32.5-12.5-45-44.7-45C1265.2,0,655.1,0,45,0C12.7,0,0,12.5,0,44.8c0,202.4,0,404.7,0,607.1C0,672.2,0.1,672.2,20.9,672.2z
		 M1219.2,606.2c-3,14.6-13.9,20.8-27.5,23c-18.2,2.9-36.5,0.6-54.8,1.4c-6.6,0.3-6.9-3.8-6.8-8.6c0.1-29.7,0.2-59.3-0.1-89
		c-0.1-7.1,2.1-9.5,9.2-9.2c13.8,0.5,27.7,0.3,41.5,0.1c12.8-0.2,25.6,0.8,31.8,13.9c6.2,13,3.1,25-9.3,34.3
		C1218.3,580,1222.1,591.9,1219.2,606.2z M1301.6,564.1c-11.5,16-17.2,33-14.7,52.6c1.2,9,0,14.6-12,14.3
		c-10.5-0.3-14.5-3.2-12.9-13.5c3.3-20.8-3.7-38.6-15.6-55.4c-8.1-11.6-14.6-24.3-22-36.7c18-5.2,30.3-1.2,37,16.5
		c2.8,7.3,8,13.6,12.5,21.2c6.3-5.3,10-12.3,12.8-19.2c7.1-17,18.4-24.7,38.1-18.5C1317.3,538.3,1310.4,551.9,1301.6,564.1z
		 M16.8,309c0-87.3,0-174.6,0-261.9c0-24.6,5.1-29.8,29.2-29.8c305.1,0,610.1,0,915.2,0c304.1,0,608.1,0,912.2,0
		c24.5,0,29.7,5.1,29.7,29.3c0,135.9-0.2,271.8,0.4,407.7c0.1,14.5-3.7,17.9-18,17.9c-429.6-0.4-859.1-0.3-1288.7-0.6
		c-13.5,0-20.7,4.2-28,15.7C457.5,663,201.9,662.2,90.5,486c-6.6-10.4-13.2-15.6-25.9-14.3c-11.8,1.3-23.8-0.3-35.7,0.4
		c-10,0.6-12.4-3.2-12.3-12.8C17.1,409.2,16.8,359.1,16.8,309z"/>
	<path class="st1" d="M29,472.1c11.9-0.7,23.9,0.8,35.7-0.4c12.7-1.3,19.3,3.9,25.9,14.3c111.4,176.3,367,177,478.4,1.3
		c7.2-11.4,14.4-15.7,28-15.7c429.6,0.4,859.1,0.2,1288.7,0.6c14.3,0,18-3.4,18-17.9c-0.6-135.9-0.4-271.8-0.4-407.7
		c0-24.2-5.2-29.3-29.7-29.3c-304.1,0-608.1,0-912.2,0c-305.1,0-610.1,0-915.2,0c-24.2,0-29.2,5.2-29.2,29.8c0,87.3,0,174.6,0,261.9
		c0,50.1,0.2,100.2-0.2,150.3C16.5,468.9,19,472.7,29,472.1z M1219.8,54.1c105.4,0,186.4,81.1,186.2,186.6
		c-0.1,103.5-82.7,185.2-186.8,185c-102.2-0.2-184.8-83.2-184.9-185.6C1034.4,135.7,1115.8,54.1,1219.8,54.1z M329.9,63
		C471,63,580.3,172.4,580.3,313.9c0,140.4-109.4,248.2-249.6,250.5C196.8,566.7,76.8,447,79.8,310.9C82.9,173.8,191.9,63,329.9,63z"
		/>
	<path class="st1" d="M1203.3,572.1c12.3-9.3,15.5-21.3,9.3-34.3c-6.3-13.1-19-14.1-31.8-13.9c-13.8,0.2-27.7,0.4-41.5-0.1
		c-7.1-0.2-9.3,2.1-9.2,9.2c0.4,29.7,0.2,59.3,0.1,89c0,4.9,0.2,8.9,6.8,8.6c18.2-0.8,36.6,1.6,54.8-1.4c13.6-2.2,24.5-8.3,27.5-23
		C1222.1,591.9,1218.3,580,1203.3,572.1z M1168.6,542.1c9.4,1,22.3-2.5,22.8,12.1c0.4,14.1-11.9,11.4-20.8,11.9
		c-8.5,0.4-16.5,2.3-16.1-11.7C1154.7,543,1159.1,541.1,1168.6,542.1z M1179.9,610.7c-2.5,0-4.9,0-7.4,0c-17.5,0-21.6-5.5-17.7-22.7
		c1.1-4.6,3.4-5.2,7.2-5.2c6.4,0.1,12.8,0,19.1,0.4c9.1,0.5,14.8,4.4,14.6,14.5C1195.5,608.4,1188.7,610.7,1179.9,610.7z"/>
	<path class="st2" d="M1286.9,543.9c-2.9,6.9-6.6,13.8-12.8,19.2c-4.6-7.6-9.8-13.9-12.5-21.2c-6.7-17.7-19-21.7-37-16.5
		c7.4,12.4,13.9,25.1,22,36.7c11.9,16.8,18.8,34.6,15.6,55.4c-1.6,10.2,2.3,13.2,12.9,13.5c12,0.3,13.2-5.3,12-14.3
		c-2.5-19.6,3.1-36.6,14.7-52.6c8.8-12.2,15.7-25.8,23.4-38.7C1305.2,519.2,1294,526.9,1286.9,543.9z"/>
	<path class="st0" d="M330.7,564.5c140.2-2.3,249.6-110.1,249.6-250.5C580.3,172.4,471,63,329.9,63c-137.9,0-247,110.8-250,247.9
		C76.8,447,196.8,566.7,330.7,564.5z M331.5,109.6c113.7,0,202.8,89.4,203.3,203.9C535.3,426.8,443.9,518,330,518
		c-111.8-0.1-203-92.7-204.3-204.4C124.4,209.1,218.7,104.6,331.5,109.6z"/>
	<path class="st0" d="M1219.3,425.7c104.1,0.2,186.6-81.5,186.8-185c0.1-105.5-80.8-186.6-186.2-186.6c-104,0-185.4,81.7-185.4,186
		C1034.4,342.5,1117.1,425.4,1219.3,425.7z M1220.1,88.1c84.5,0.1,151.4,67.5,151.2,152.4c-0.2,84.4-66.5,150-151.6,149.9
		c-83.7,0-151.2-67.5-151.1-151.1C1068.7,156.4,1137.2,88,1220.1,88.1z"/>
	<path class="st0" d="M1181.1,583.3c-6.4-0.3-12.7-0.2-19.1-0.4c-3.7-0.1-6.1,0.5-7.2,5.2c-3.9,17.2,0.2,22.7,17.7,22.7
		c2.5,0,4.9,0,7.4,0c8.8,0,15.5-2.3,15.8-12.9C1195.9,587.7,1190.2,583.8,1181.1,583.3z"/>
	<path class="st0" d="M1170.5,566.1c9-0.5,21.3,2.2,20.8-11.9c-0.4-14.6-13.4-11.1-22.8-12.1c-9.4-1-13.8,0.9-14.2,12.3
		C1154,568.4,1162,566.5,1170.5,566.1z"/>
	<path class="st1" d="M330,518c113.9,0.1,205.2-91.1,204.8-204.5c-0.4-114.5-89.5-203.9-203.3-203.9
		c-112.9-5.1-207.1,99.5-205.9,203.9C127,425.3,218.2,517.9,330,518z M361.3,249.8c24.5-18,51.7-18.1,79.1-7.4
		c14.2,5.5,24.8,15.9,31.6,30.4c-4.6,2.4-9,4.6-13.3,7c-11,6.1-19.7,12.2-31.1-3c-11.2-14.9-37.6-7.7-45.3,10.4
		c-7.3,17.1-7.4,34.9-0.4,52.1c8.7,21.3,39.1,26.2,52.2,7.3c7.4-10.6,12.5-8.5,20.9-3.9c20,10.9,20.7,13.2,4.1,29.1
		c-23.3,22.3-51.3,24.6-80.3,15.4c-29.4-9.3-42.8-32.4-45.7-61.7C330.1,295.8,335.8,268.5,361.3,249.8z M218.4,248.6
		c25.5-17.9,65.8-17.3,90.7,1.5c7.5,5.7,19,14.1,16.4,21.1c-3.6,9.8-18.1,11.7-27.9,17c-4.4,2.4-5.6-2.7-7.4-5.3
		c-7.9-11.7-18.7-15.3-32.2-12.5c-13.5,2.9-19.4,12.6-22.3,24.9c-3.3,13.7-2.9,27.5,1.3,41c3.3,10.6,10.2,18.3,21.4,20.4
		c12.3,2.3,25,1,31.9-10.3c6.4-10.4,11.5-9.1,20.5-4c20.8,11.9,20.9,11.2,4,28.7c-14.4,14.9-32.1,20.7-52.3,20.3
		c-35,0-60.5-16.9-70.1-46.4C180,307.8,190.8,267.9,218.4,248.6z"/>
	<path class="st1" d="M1219.7,390.4c85.1,0,151.4-65.5,151.6-149.9c0.2-84.9-66.7-152.4-151.2-152.4
		c-82.9-0.1-151.4,68.4-151.5,151.3C1068.6,322.9,1136.1,390.4,1219.7,390.4z M1220.5,119.6c14.6,0.4,26,12.5,25.7,27
		c-0.3,14.4-12.6,26.3-26.9,25.9c-14.5-0.3-26-12.4-25.7-27.1C1194.1,130.7,1206,119.1,1220.5,119.6z M1170,195
		c0.1-9,4.8-13.5,14-13.5c23.8,0.1,47.6,0.1,71.3,0c9.8-0.1,14.7,4.5,14.7,14.3c0,21.8-0.2,43.6,0.2,65.4c0.1,7-2,10.5-9.2,9.1
		c-11.1-2.1-12.8,3.3-12.5,13.1c0.7,22.3,0,44.6,0.4,66.9c0.1,7.4-1.4,10.6-9.6,10.1c-12.8-0.7-25.8-0.6-38.6,0
		c-7.5,0.3-10.6-1.5-10.1-9.7c0.7-11.8,0.2-23.8,0.2-35.7c0-9.4-0.4-18.9,0.1-28.2c0.6-10.3,0.6-19.1-14-16.5c-6.4,1.1-7-3.5-7-8.4
		C1169.9,239.6,1169.8,217.3,1170,195z"/>
	<path class="st0" d="M262.3,391.4c20.2,0.4,37.9-5.4,52.3-20.3c16.9-17.5,16.8-16.8-4-28.7c-9-5.1-14.1-6.4-20.5,4
		c-6.9,11.2-19.6,12.6-31.9,10.3c-11.2-2.1-18.1-9.8-21.4-20.4c-4.2-13.5-4.5-27.3-1.3-41c2.9-12.2,8.8-22,22.3-24.9
		c13.5-2.9,24.4,0.8,32.2,12.5c1.8,2.6,3,7.6,7.4,5.3c9.8-5.3,24.3-7.3,27.9-17c2.6-7-8.8-15.4-16.4-21.1
		c-24.9-18.8-65.2-19.4-90.7-1.5c-27.5,19.3-38.4,59.2-26.2,96.5C201.9,374.6,227.4,391.4,262.3,391.4z"/>
	<path class="st0" d="M378.7,387.1c29,9.2,57,6.8,80.3-15.4c16.6-15.9,15.9-18.2-4.1-29.1c-8.5-4.6-13.5-6.7-20.9,3.9
		c-13.2,18.9-43.5,14-52.2-7.3c-7-17.2-6.9-35,0.4-52.1c7.7-18.1,34.1-25.3,45.3-10.4c11.4,15.2,20.1,9.1,31.1,3
		c4.3-2.4,8.7-4.6,13.3-7c-6.7-14.5-17.4-24.8-31.6-30.4c-27.3-10.6-54.6-10.6-79.1,7.4c-25.5,18.7-31.2,46-28.3,75.6
		C335.9,354.7,349.4,377.8,378.7,387.1z"/>
	<path class="st0" d="M1176.9,270.3c14.6-2.6,14.6,6.2,14,16.5c-0.5,9.4-0.1,18.8-0.1,28.2c0,11.9,0.5,23.8-0.2,35.7
		c-0.5,8.1,2.6,10,10.1,9.7c12.9-0.5,25.8-0.7,38.6,0c8.3,0.5,9.8-2.7,9.6-10.1c-0.4-22.3,0.3-44.6-0.4-66.9
		c-0.3-9.8,1.3-15.2,12.5-13.1c7.2,1.4,9.3-2.1,9.2-9.1c-0.4-21.8-0.1-43.6-0.2-65.4c0-9.8-4.9-14.3-14.7-14.3
		c-23.8,0.2-47.6,0.1-71.3,0c-9.2,0-14,4.5-14,13.5c-0.2,22.3,0,44.6-0.1,66.9C1169.9,266.8,1170.5,271.4,1176.9,270.3z"/>
	<path class="st0" d="M1219.4,172.6c14.3,0.3,26.6-11.6,26.9-25.9c0.3-14.6-11.2-26.6-25.7-27c-14.5-0.4-26.5,11.2-26.8,25.9
		C1193.4,160.1,1204.9,172.2,1219.4,172.6z"/>
</g>
<g id="CC_x5F_BY_x5F_SA">
	<path class="st0" d="M20.7,672.2c313.2,0,626.3,0,939.5,0s626.3,0,939.5,0c20.4,0,20.4,0,20.4-20.5c0-202.4,0-404.8,0-607.1
		c0-32.8-11.9-44.6-44.8-44.6C1264.8,0,654.4,0,43.9,0C12,0,0,12,0,43.8c0,202.4,0,404.8,0,607.1C0,672.2,0,672.2,20.7,672.2z
		 M997.8,608.3c-2.4,11-11,17.3-21.8,19.9c-20.1,4.8-40.5,1.6-60.7,2.3c-7,0.3-5.8-5.2-5.9-9.5c-0.1-14.9,0-29.7,0-44.6
		c0-11.9,1.2-23.9-0.3-35.6c-1.9-15.1,4.2-18.5,17.9-17.2c13.3,1.2,26.7,0,40.1,0.4c10.3,0.3,20.1,3.4,24.4,13.8
		c4.2,10.1,4.4,20.7-4,29c-4.5,4.4-4.4,6,0.9,9.4C1000.4,584,1000.4,596.5,997.8,608.3z M1084.7,557.4
		c-13.3,19.7-23.5,39.8-19.5,64.7c1.5,9.3-5.2,9-11.3,8.5c-5.2-0.5-14.1,2.8-12.3-7.2c5.8-32.1-12.4-55.5-27.8-80
		c-3.6-5.7-6.7-11.7-10.2-17.7c17.8-5.1,30.2-1.5,36.9,16.3c2.9,7.6,8.3,14.2,13.4,22.6c4.8-7.9,9.9-14.2,12.7-21.4
		c6.7-17.1,18.1-23.4,36.5-17.6C1099.2,536.9,1091.6,547.1,1084.7,557.4z M1417.7,630.8c-23.3,5.6-47.2-0.7-56.6-15.7
		c-3.9-6.2-10.4-15.6-2.2-20.2c5.5-3.1,17.6-6.4,22.2,8.1c3.7,11.6,27.3,14.8,36.3,6.3c7.1-6.8,5.8-13.6-2.9-17.6
		c-7.6-3.4-15.8-5.6-23.8-7.8c-24.1-6.7-33.8-17-31.7-34.1c2.1-17.3,18.5-28.9,44.5-28.7c12.3,0.7,27.2,3.8,35.1,19.7
		c2.2,4.3,6.8,12,0.6,14.2c-6.4,2.3-16.3,6.2-21.5-4c-5.9-11.6-15.5-12.6-26.4-9.6c-5.1,1.4-8.7,4.6-8.7,10.6c0,5.7,4.2,7.6,8.5,8.9
		c9.5,2.8,19.1,5.1,28.6,7.9c17.9,5.2,26.1,15.5,25.5,31.5C1444.4,615.3,1434.1,626.9,1417.7,630.8z M1520.7,613.2
		c-0.6-5.6-4.4-6.8-9.5-6.6c-7.9,0.3-15.9,0.4-23.8,0c-5.8-0.3-9.5,1.4-10.3,7.6c-2.4,17.5-14,18.8-29.7,14.9
		c7-18.6,14.1-37.3,21.1-56c4.5-12,9.6-23.8,13.4-36.1c3-9.7,7.4-13.7,18.5-13.8c11.3-0.1,13.6,5.5,16.6,13.9
		c11,30.6,22.7,60.9,34.4,92.1C1534.9,632.8,1522.6,632.1,1520.7,613.2z M15.9,176c0-42.7,0-85.3,0-128c0-25.3,5.3-30.6,30.2-30.6
		c304.8,0,609.5,0,914.3,0c303.8,0,607.5,0,911.3,0c27.8,0,32,4.1,32,31.5c0,135.4-0.2,270.9,0.3,406.3c0,13.3-2.9,17.2-16.8,17.2
		c-428.8-0.4-857.7-0.3-1286.5-0.6c-12.5,0-20.1,2.9-27.4,14.3c-113.5,177.9-369.7,175.9-480.9-3.5c-4.7-7.6-9.5-11.3-18.8-10.8
		c-14.4,0.8-28.8-0.6-43.2,0.4c-11.9,0.8-14.8-3.3-14.8-15C16.1,363.5,15.9,269.7,15.9,176z"/>
	<path class="st1" d="M30.4,472.2c14.3-1,28.8,0.3,43.2-0.4c9.2-0.5,14.1,3.2,18.8,10.8c111.2,179.4,367.4,181.4,480.9,3.5
		c7.2-11.4,14.8-14.3,27.4-14.3c428.8,0.3,857.7,0.2,1286.5,0.6c13.9,0,16.9-3.9,16.8-17.2c-0.5-135.4-0.3-270.9-0.3-406.3
		c0-27.4-4.2-31.5-32-31.5c-303.8,0-607.5,0-911.3,0c-304.8,0-609.5,0-914.3,0c-24.9,0-30.2,5.3-30.2,30.6c0,42.7,0,85.3,0,128
		c0,93.8,0.2,187.5-0.3,281.3C15.5,468.9,18.4,473,30.4,472.2z M1466.9,54.1c106.2,0,186.9,80,187.1,185.6
		c0.1,104-81.6,185.9-185.6,186c-102.4,0.1-186.7-83.9-186.7-186.1C1281.7,137.5,1365,54.1,1466.9,54.1z M1016.3,54.1
		c102.6,0.2,182.9,82.1,182.9,186.6c-0.1,103.9-82,185.2-186.3,185c-102.9-0.2-184.9-83.2-184.9-187
		C828.1,134.5,910.3,53.9,1016.3,54.1z M334.6,62.3c143.9,0.2,253.7,118.8,250.2,258c-3.3,134.2-113.9,244-251.2,243.6
		C195.4,565.7,80.1,443.8,83.3,308C86.4,173.5,198.7,62.1,334.6,62.3z"/>
	<path class="st1" d="M988.5,576.3c-5.3-3.5-5.4-5-0.9-9.4c8.4-8.3,8.2-19,4-29c-4.4-10.4-14.1-13.4-24.4-13.8
		c-13.4-0.4-26.8,0.8-40.1-0.4c-13.7-1.3-19.8,2-17.9,17.2c1.5,11.7,0.3,23.7,0.3,35.6c0,14.9,0,29.7,0,44.6c0,4.3-1.2,9.7,5.9,9.5
		c20.2-0.8,40.7,2.5,60.7-2.3c10.9-2.6,19.4-8.9,21.8-19.9C1000.4,596.5,1000.4,584,988.5,576.3z M945.2,542.2c1.4,0.2,2.9,0,4.4,0
		c9.2,0.4,20.9-1.1,20.9,12.2c0.1,13.7-11.8,11.5-20.9,11.8c-8.1-0.4-18,3.5-16.9-11.9C933.4,544.7,935.5,540.6,945.2,542.2z
		 M950.3,610.7c-16.6,0-21.7-6.9-17-23.1c0.3-0.9,0.3-2.4,0.8-2.6c9.9-4.1,20.1-2.2,30.1-1.2c5.7,0.6,9.5,4.5,10.5,10.7
		C976.6,606.4,970.1,610.7,950.3,610.7z"/>
	<path class="st1" d="M1419.5,568.6c-9.5-2.7-19.1-5.1-28.6-7.9c-4.3-1.3-8.4-3.2-8.5-8.9c0-6,3.6-9.2,8.7-10.6
		c10.9-3,20.5-2,26.4,9.6c5.2,10.2,15.1,6.3,21.5,4c6.2-2.2,1.6-9.9-0.6-14.2c-7.9-15.8-22.8-18.9-35.1-19.7
		c-26-0.1-42.4,11.4-44.5,28.7c-2.1,17.1,7.6,27.4,31.7,34.1c8.1,2.2,16.3,4.4,23.8,7.8c8.8,4,10.1,10.8,2.9,17.6
		c-9,8.6-32.6,5.4-36.3-6.3c-4.6-14.4-16.6-11.2-22.2-8.1c-8.2,4.6-1.7,13.9,2.2,20.2c9.4,15,33.3,21.3,56.6,15.7
		c16.4-4,26.7-15.5,27.3-30.8C1445.6,584.1,1437.3,573.7,1419.5,568.6z"/>
	<path class="st1" d="M1500.3,523.3c-11.1,0.1-15.5,4.1-18.5,13.8c-3.8,12.2-8.8,24.1-13.4,36.1c-7,18.7-14.1,37.4-21.1,56
		c15.7,3.9,27.2,2.5,29.7-14.9c0.9-6.3,4.5-7.9,10.3-7.6c7.9,0.4,15.9,0.3,23.8,0c5.1-0.2,9,1,9.5,6.6c1.9,18.8,14.2,19.6,30.7,16.1
		c-11.7-31.1-23.4-61.5-34.4-92.1C1513.9,528.8,1511.6,523.3,1500.3,523.3z M1485.9,588.2c4.5-12.3,8.4-23,13.3-36.4
		c2.5,6.8,4,10.6,5.4,14.5C1513.1,590.1,1513.1,590.1,1485.9,588.2z"/>
	<path class="st1" d="M1066.6,542.9c-2.8,7.2-7.9,13.5-12.7,21.4c-5.1-8.4-10.5-15-13.4-22.6c-6.7-17.8-19.1-21.4-36.9-16.3
		c3.5,6.1,6.6,12,10.2,17.7c15.4,24.5,33.6,47.9,27.8,80c-1.8,10,7.1,6.8,12.3,7.2c6.1,0.5,12.8,0.9,11.3-8.5
		c-4.1-24.8,6.2-44.9,19.5-64.7c6.9-10.3,14.5-20.6,18.4-32.1C1084.7,519.5,1073.3,525.9,1066.6,542.9z"/>
	<path class="st0" d="M333.6,563.9c137.3,0.4,247.9-109.4,251.2-243.6c3.5-139.2-106.3-257.8-250.2-258
		C198.7,62.1,86.4,173.5,83.3,308C80.1,443.8,195.4,565.7,333.6,563.9z M334,108.6c114-0.1,204.3,90.4,205.2,204.3
		c1,123.5-106.3,205.2-202.3,204.7c-113.5-0.6-208.3-93.3-207.8-204.7C129.6,201.7,222.8,108.8,334,108.6z"/>
	<path class="st0" d="M1012.8,425.7c104.3,0.2,186.2-81.1,186.3-185c0.1-104.4-80.3-186.4-182.9-186.6
		c-106-0.2-188.2,80.4-188.3,184.6C827.9,342.5,909.9,425.5,1012.8,425.7z M1014.1,88.5c85.1,0.2,151,66.8,150.9,152.6
		c-0.1,83.2-66.9,149.4-150.8,149.4c-83.6,0-152.4-67.7-152.5-150.1C861.6,156.6,930.2,88.3,1014.1,88.5z"/>
	<path class="st0" d="M1468.3,425.7c104-0.1,185.8-82,185.6-186c-0.2-105.6-80.8-185.7-187.1-185.6c-101.9,0-185.2,83.5-185.2,185.5
		C1281.6,341.8,1365.9,425.8,1468.3,425.7z M1470,88.6c83.5,0.8,151,69.6,150.3,152.2c-0.8,94.3-85.2,153.9-158.7,150.3
		c-78-3.8-145.6-71.9-145.2-152C1316.9,155.5,1386,87.8,1470,88.6z"/>
	<path class="st0" d="M964.2,583.9c-10-1.1-20.3-2.9-30.1,1.2c-0.5,0.2-0.5,1.7-0.8,2.6c-4.7,16.2,0.4,23.1,17,23.1
		c19.8,0,26.3-4.4,24.4-16.2C973.7,588.4,969.8,584.5,964.2,583.9z"/>
	<path class="st0" d="M949.6,566.2c9.1-0.3,21,1.9,20.9-11.8c-0.1-13.3-11.7-11.8-20.9-12.2c-1.5-0.1-3,0.2-4.4,0
		c-9.7-1.6-11.8,2.6-12.5,12.1C931.6,569.7,941.6,565.7,949.6,566.2z"/>
	<path class="st0" d="M1499.3,551.8c-4.9,13.4-8.8,24.2-13.3,36.4c27.1,1.8,27.1,1.8,18.7-21.9
		C1503.2,562.4,1501.8,558.6,1499.3,551.8z"/>
	<path class="st1" d="M336.9,517.6c96,0.5,203.3-81.2,202.3-204.7C538.3,199,448,108.5,334,108.6c-111.2,0.1-204.4,93.1-204.9,204.3
		C128.6,424.3,223.4,517,336.9,517.6z M381.8,240.1c30.5-11.4,66.4-3,86,19.2c8.3,9.4,8.8,15.3-4.1,19.6c-4.2,1.4-8.1,3.6-11.9,5.9
		c-6.2,3.8-10.5,4.7-15-3.2c-5.9-10.3-15.9-14-28-12.1c-12.6,2-20.7,8.9-24.3,20.9c-4.8,15.6-5,31.3,0.4,46.6
		c8.1,22.6,38.3,28.6,52.7,9.4c7.7-10.3,12.8-9,22-3.8c19.8,11.3,20.1,11.1,4,27.6c-20.8,21.3-55.3,27.4-85.4,15
		c-27.1-11.2-41.7-36.5-41.7-72.2C336.6,277,352.9,250.9,381.8,240.1z M231.4,243c28.4-13.6,56.7-10.7,82.9,7.6
		c2,1.4,3.8,3.2,5.6,4.9c14.4,14.6,13.9,14.8-3.5,24.9c-11.2,6.4-18.2,9.4-28.6-3.6c-12.5-15.7-38.2-8.7-45.8,10.8
		c-6.4,16.2-6.4,33-0.6,49.4c8,22.6,38.2,28.8,52.3,9.4c8-10.9,13.3-8.5,22.1-3.6c19.3,10.7,19.5,10.9,3.8,27.3
		c-20.2,21.2-56.1,27.7-85.4,15.6c-27.4-11.3-42.4-36.7-42.6-71.9C191.7,282.7,202.3,256.9,231.4,243z"/>
	<path class="st1" d="M1014.2,390.4c83.9,0,150.7-66.2,150.8-149.4c0.1-85.8-65.8-152.4-150.9-152.6
		c-83.9-0.2-152.5,68.2-152.4,151.9C861.8,322.8,930.6,390.5,1014.2,390.4z M1013.2,119.6c14.4-0.2,26.6,11.8,26.8,26.1
		c0.1,14.4-11.8,26.6-26.2,26.8c-14.2,0.2-26.8-12-26.9-26.2C986.7,132.1,998.8,119.8,1013.2,119.6z M963.1,195.5
		c0.1-8.7,4.4-13.9,13.7-13.9c24.3,0,48.6,0,72.8,0c10,0,14.2,5.2,14.2,14.9c-0.1,20.8-0.4,41.6,0.2,62.4
		c0.2,8.7-1.5,13.4-11.2,11.6c-9.3-1.8-10.1,3.5-10,11c0.4,22.8-0.2,45.6,0.3,68.3c0.2,8.3-2,11.2-10.6,10.7
		c-12.3-0.7-24.8-0.7-37.1,0c-8.7,0.5-12.6-1.5-11.8-11.2c0.9-11.3,0.2-22.8,0.2-34.1c0-8.9-0.4-17.9,0.1-26.7
		c0.6-11.1,1.4-21.2-15.1-18c-5.6,1.1-5.9-3.7-5.9-7.9C963,240,962.9,217.8,963.1,195.5z"/>
	<path class="st1" d="M1461.6,391.1c73.5,3.6,158-56,158.7-150.3c0.7-82.6-66.8-151.4-150.3-152.2c-84-0.8-153.1,66.9-153.6,150.5
		C1315.9,319.2,1383.6,387.3,1461.6,391.1z M1387.1,205.6c12.2-43,38.9-63.6,79.6-64c42.7-0.5,76.5,22.9,89.9,62
		c20,58.2-7.1,118.1-60.7,134.3c-48.9,14.8-95-7.5-108.7-52.7c-5-16.3-4.7-16.7,11.6-16.7c5,0,9.9,0.3,14.9-0.1
		c10.4-0.7,17.1,0.1,20.7,13.5c6.1,22.2,42.9,27.8,61.7,11.1c22.7-20.3,25.3-78.3,4.5-100.3c-17.4-18.5-54.5-13.9-65.5,8
		c-4,8-4.5,13.7,9.3,14.4c-12,11.7-21.8,20.8-31,30.5c-4.5,4.8-7.2,4.6-11.6-0.1c-9.2-9.7-19-18.7-29.7-29.1
		C1377.7,212.6,1384.6,214.3,1387.1,205.6z"/>
	<path class="st0" d="M234.1,385.5c29.3,12.1,65.2,5.6,85.4-15.6c15.7-16.4,15.5-16.6-3.8-27.3c-8.8-4.9-14.1-7.3-22.1,3.6
		c-14.1,19.4-44.3,13.2-52.3-9.4c-5.8-16.4-5.8-33.2,0.6-49.4c7.7-19.5,33.3-26.5,45.8-10.8c10.3,13,17.4,10.1,28.6,3.6
		c17.4-10,17.9-10.3,3.5-24.9c-1.7-1.8-3.5-3.5-5.6-4.9c-26.2-18.3-54.4-21.2-82.9-7.6c-29,13.9-39.7,39.7-39.9,70.7
		C191.7,348.8,206.7,374.2,234.1,385.5z"/>
	<path class="st0" d="M378.2,385.2c30,12.4,64.6,6.3,85.4-15c16.1-16.5,15.8-16.4-4-27.6c-9.2-5.2-14.2-6.6-22,3.8
		c-14.4,19.2-44.6,13.2-52.7-9.4c-5.5-15.3-5.2-31.1-0.4-46.6c3.7-12,11.8-18.9,24.3-20.9c12.1-1.9,22.1,1.8,28,12.1
		c4.6,7.9,8.9,7,15,3.2c3.8-2.3,7.7-4.5,11.9-5.9c12.9-4.3,12.5-10.1,4.1-19.6c-19.6-22.2-55.5-30.6-86-19.2
		c-29,10.8-45.2,37-45.3,73C336.5,348.7,351.1,374,378.2,385.2z"/>
	<path class="st0" d="M968.8,270.2c16.5-3.2,15.7,7,15.1,18c-0.5,8.9-0.1,17.8-0.1,26.7c0,11.4,0.7,22.8-0.2,34.1
		c-0.8,9.7,3,11.7,11.8,11.2c12.3-0.7,24.8-0.7,37.1,0c8.5,0.5,10.8-2.4,10.6-10.7c-0.6-22.8,0-45.6-0.3-68.3
		c-0.1-7.5,0.6-12.8,10-11c9.7,1.8,11.5-2.9,11.2-11.6c-0.6-20.8-0.3-41.6-0.2-62.4c0.1-9.7-4.2-14.9-14.2-14.9
		c-24.3,0-48.6,0-72.8,0c-9.3,0-13.6,5.2-13.7,13.9c-0.2,22.3-0.1,44.6-0.1,66.8C963,266.5,963.2,271.3,968.8,270.2z"/>
	<path class="st0" d="M1013.8,172.5c14.3-0.2,26.3-12.5,26.2-26.8c-0.1-14.4-12.4-26.3-26.8-26.1c-14.3,0.2-26.5,12.6-26.3,26.8
		C987,160.5,999.5,172.7,1013.8,172.5z"/>
	<path class="st0" d="M1401.9,245.4c4.4,4.7,7.1,4.9,11.6,0.1c9.2-9.7,19-18.8,31-30.5c-13.8-0.7-13.3-6.4-9.3-14.4
		c11-21.9,48.1-26.5,65.5-8c20.8,22.1,18.2,80-4.5,100.3c-18.8,16.8-55.6,11.2-61.7-11.1c-3.7-13.4-10.3-14.2-20.7-13.5
		c-4.9,0.3-9.9,0-14.9,0.1c-16.3,0-16.6,0.5-11.6,16.7c13.8,45.2,59.8,67.5,108.7,52.7c53.6-16.2,80.6-76.1,60.7-134.3
		c-13.5-39.1-47.3-62.5-89.9-62c-40.7,0.4-67.4,21-79.6,64c-2.5,8.7-9.4,7-14.9,10.8C1382.9,226.7,1392.7,235.8,1401.9,245.4z"/>
</g>
<g id="CC_x5F_BY_x5F_NC_x5F_SA">
	<path class="st0" d="M1919.7,44.2c0-31.2-13-44.2-44.2-44.2c-191.4,0-382.8,0-574.2,0C881.9,0,462.4,0,42.9,0
		C13,0,0.4,12.6,0.3,42.4c0,35.2,0,70.5,0,105.7c0,168.7,0,337.5,0.1,506.2c0,6.5-2.9,14.4,6.2,17.9c4.4-0.2,8.9-0.6,13.3-0.6
		c627.5,0,1255,0,1882.5,0c4,0,7.9,0.2,11.9,0.3c7.6-4.6,5.3-12.2,5.3-18.8C1919.8,450.1,1919.8,247.2,1919.7,44.2z M812.4,608.9
		c-4.9,14.6-16.8,20.2-31,20.9c-16.3,0.8-32.6,0.2-48.9,0.7c-6,0.2-8.8-1.1-8.7-8c0.3-30.7,0.2-61.3,0.1-92c0-4.5,0.7-7.6,6.3-7.4
		c17.8,0.6,35.5,0.4,53.3,1.4c10.9,0.6,20.5,4.8,23.7,16.6c3.2,11.9,1.3,22.6-10.5,30.6C812.3,583.2,817.2,594.5,812.4,608.9z
		 M897.6,560c-12.6,17.9-21.2,36.7-17.3,59.3c2,11.5-5,11.1-13.1,11.4c-8.5,0.3-13.5-1.2-11.8-11.1c3.8-23-4.7-42.2-17.5-60.6
		c-7.5-10.7-13.5-22.6-20.3-34.3c17.6-4.3,30-1.5,36.6,16c3.1,8.2,8.9,15.3,14.1,23.9c5-8.3,10.4-15.4,13.7-23.4
		c6.8-16.4,18.1-21.9,37-16.2C911.4,537.4,905.2,549.1,897.6,560z M1223.1,629.8c-8.4,0.8-18.6,5.1-25.1-6.3
		c-10.4-18-21.8-35.4-32.8-53c-1.2-1.9-2.7-3.5-6.2-8.3c0,21.7-0.5,39.8,0.2,57.9c0.3,8.8-2.9,10.6-11,10.5
		c-8.1-0.1-12.6-0.6-12.4-10.9c0.7-27.7,0.1-55.5,0.4-83.3c0.1-4.6-3.5-12.6,5-12.9c7.6-0.2,16.6-4.4,22.6,5.5
		c12.1,20.2,24.7,39.9,39.7,59.2c0-18.1,0.6-36.2-0.2-54.3c-0.5-10.1,4-10.8,12.3-11.2c9.3-0.4,11.7,2.4,11.5,11.6
		c-0.6,27.3,0,54.5-0.4,81.8C1226.6,620.9,1230.4,629.1,1223.1,629.8z M1338.8,601.2c-5.5,17.7-17.9,28.4-36.1,31
		c-19.9,2.8-37.4-2.3-50-19c-8.1-10.6-11.2-22.9-10.9-39.1c0.1-35.8,28.7-59.7,65.3-51.5c12.1,2.7,22.3,8.8,27.7,20.3
		c2.3,4.9,9.8,12.6,2,16c-5.8,2.5-16.2,5.6-21.8-4.7c-5.2-9.7-14.1-14-24.8-12.5c-11.3,1.6-18.3,8.9-21.8,19.7
		c-4.2,12.8-3.7,25.2,2.6,37.3c5.2,9.9,13.5,13.8,24.3,13.7c10.2-0.1,17.7-5.4,20-14.7c3.4-14,13.9-9.1,21.4-8.4
		C1344.2,590,1340,597.4,1338.8,601.2z M1611.9,630.6c-5.2,1.4-10.6,1.9-12.5,2.3c-26.1,0.1-43.5-9.5-48-25.2
		c-1.2-4.2-4.9-11.7,1.2-12.6c6.4-1,15.3-6.2,20.7,4c7.3,13.8,19.3,18.1,33.1,13.2c5.2-1.8,8.9-5,9.4-10.2c0.6-5.6-3.3-9.4-8.2-11.1
		c-9.3-3.2-18.9-5.6-28.3-8.6c-19.8-6.1-27.4-15.7-25.8-32.3c1.5-15.6,12.6-25.6,31.3-28.3c21.5-3.1,39.5,3.5,47,17.3
		c2.8,5.2,6.3,13.6,1,15.5c-6.3,2.3-16.9,6.4-21.7-4.4c-3.4-7.6-9.4-9.7-16.6-10c-7.7-0.3-15.8,0.4-17.5,9.8
		c-1.7,9.6,6.9,10.6,13.3,12.6c7.5,2.3,15.4,3.7,22.9,6c18.2,5.5,26.4,15.6,25.8,31.5C1638.5,615.8,1629.6,626,1611.9,630.6z
		 M1714.9,614c-0.8-6.1-4.8-7.9-10.6-7.5c-4.9,0.4-10,0.7-14.8,0c-11.5-1.7-18.4,1.8-20.8,14c-3.4,17.2-16.8,7.3-27.7,10.1
		c13.2-34.9,25.9-68,38.1-101.2c3-8.3,9.2-5.9,14.6-6.1c5.6-0.2,11.7-1.9,14.6,6c12.1,33.3,24.5,66.4,36.9,99.8
		C1730.1,632.3,1717.4,633.1,1714.9,614z M1886.5,471.9c-429-0.4-858-0.3-1287-0.6c-12.3,0-19,3.5-25.8,14.1
		C461,663,205.7,662.1,93.8,483.7c-5.7-9.1-11.3-13.2-22.2-12.4c-13.8,1-27.8-0.4-41.6,0.5c-10.8,0.7-13.2-3.4-13.2-13.5
		c0.4-69.5,0.2-139,0.2-208.5c0-67,0-134,0-201c0-28.2,4.3-32.4,33.1-32.4c303,0,606.1,0,909.1,0s606.1,0,909.1,0
		c30.1,0,34.1,4.1,34.1,34.3c0,135-0.2,270,0.3,405C1902.8,468.9,1899.5,471.9,1886.5,471.9z"/>
	<path class="st1" d="M1902.4,50.7c0-30.2-4.1-34.3-34.1-34.3c-303,0-606.1,0-909.1,0s-606.1,0-909.1,0C21.4,16.4,17,20.6,17,48.8
		c0,67,0,134,0,201c0,69.5,0.2,139-0.2,208.5c-0.1,10.1,2.4,14.2,13.2,13.5c13.8-0.9,27.8,0.6,41.6-0.5c10.9-0.8,16.4,3.3,22.2,12.4
		C205.7,662.1,461,663,573.7,485.4c6.7-10.6,13.4-14.1,25.8-14.1c429,0.4,858,0.2,1287,0.6c13,0,16.3-3,16.3-16.2
		C1902.2,320.7,1902.4,185.7,1902.4,50.7z M334.5,564C197,563.8,84.7,450.8,83.9,312.8C83.2,179.2,195.5,58.6,334.2,62.7
		c142.1,0,249.7,108.9,250.6,250.7C585.8,458.4,465.1,564.1,334.5,564z M827.8,425.7c-102.9,0.1-185.7-83.1-185.6-186.4
		C640.1,140,727.5,51.7,831.5,53.6c96.5,1.8,185.1,84.3,182.2,189.4C1010.9,344.9,931.1,425.7,827.8,425.7z M1243.9,426
		c-101.2,0.7-186.7-90.1-185.1-189.1c1.4-91.4,81.7-186.5,190.8-182.9c101.6,3.3,181,82.6,180.9,187.3
		C1430.5,345.1,1348.5,425.3,1243.9,426z M1659.5,425.7c-103.9-2.7-185.6-87.2-183.1-189.2C1478.9,133,1563.1,51,1664,53.8
		c106.3,2.9,186.8,85.3,184.4,188.8C1846,346.5,1761.5,428.4,1659.5,425.7z"/>
	<path class="st1" d="M1227.1,534.5c0.2-9.2-2.2-12-11.5-11.6c-8.2,0.3-12.7,1.1-12.3,11.2c0.8,18.1,0.2,36.2,0.2,54.3
		c-15-19.3-27.7-39-39.7-59.2c-5.9-9.9-15-5.7-22.6-5.5c-8.5,0.3-5,8.3-5,12.9c-0.3,27.8,0.3,55.5-0.4,83.3
		c-0.3,10.3,4.3,10.8,12.4,10.9c8.1,0.1,11.3-1.6,11-10.5c-0.7-18.1-0.2-36.2-0.2-57.9c3.6,4.7,5.1,6.4,6.2,8.3
		c11,17.6,22.4,35,32.8,53c6.6,11.3,16.8,7,25.1,6.3c7.3-0.7,3.5-8.9,3.6-13.5C1227.1,589,1226.5,561.7,1227.1,534.5z"/>
	<path class="st1" d="M796.7,571.7c11.8-8,13.7-18.8,10.5-30.6c-3.2-11.8-12.8-16-23.7-16.6c-17.7-0.9-35.5-0.8-53.3-1.4
		c-5.6-0.2-6.3,2.9-6.3,7.4c0.1,30.7,0.2,61.3-0.1,92c-0.1,6.9,2.7,8.1,8.7,8c16.3-0.4,32.6,0.1,48.9-0.7c14.2-0.7,26.1-6.3,31-20.9
		C817.2,594.5,812.3,583.2,796.7,571.7z M764.9,543c8.1,0.7,20.6-2.6,19.7,12.1c-0.9,14.4-13.6,11-23.1,11.9
		c-9,0.8-13.7-0.1-14.3-11.9C746.5,539.4,755.9,543.4,764.9,543z M780.3,610.1c-5.1,1.4-10.6,1.4-11.5,1.5c-20,0-26.4-9.7-20.9-24.9
		c0.3-0.9,0.5-1.9,1.1-2.6c6-6.4,37.3,0,39.7,8.4C791,600.4,789.3,607.6,780.3,610.1z"/>
	<path class="st1" d="M1613.3,568.6c-7.6-2.3-15.4-3.7-22.9-6c-6.4-1.9-15-2.9-13.3-12.6c1.6-9.4,9.7-10.1,17.5-9.8
		c7.2,0.3,13.2,2.4,16.6,10c4.8,10.8,15.4,6.7,21.7,4.4c5.3-1.9,1.8-10.3-1-15.5c-7.5-13.8-25.6-20.4-47-17.3
		c-18.6,2.7-29.7,12.7-31.3,28.3c-1.6,16.6,6,26.2,25.8,32.3c9.4,2.9,19,5.4,28.3,8.6c4.9,1.7,8.8,5.5,8.2,11.1
		c-0.5,5.2-4.2,8.4-9.4,10.2c-13.8,4.9-25.8,0.6-33.1-13.2c-5.4-10.2-14.3-5-20.7-4c-6.1,0.9-2.4,8.4-1.2,12.6
		c4.6,15.7,21.9,25.3,48,25.2c1.8-0.3,7.2-0.9,12.5-2.3c17.7-4.6,26.6-14.8,27.2-30.6C1639.7,584.2,1631.5,574,1613.3,568.6z"/>
	<path class="st1" d="M1336.6,589.3c-7.5-0.7-17.9-5.6-21.4,8.4c-2.3,9.3-9.8,14.5-20,14.7c-10.8,0.2-19.1-3.8-24.3-13.7
		c-6.3-12.1-6.8-24.5-2.6-37.3c3.5-10.8,10.5-18.1,21.8-19.7c10.7-1.5,19.6,2.8,24.8,12.5c5.6,10.4,16.1,7.3,21.8,4.7
		c7.9-3.5,0.3-11.1-2-16c-5.4-11.5-15.7-17.6-27.7-20.3c-36.6-8.2-65.2,15.7-65.3,51.5c-0.3,16.2,2.8,28.5,10.9,39.1
		c12.7,16.6,30.2,21.8,50,19c18.2-2.6,30.6-13.2,36.1-31C1340,597.4,1344.2,590,1336.6,589.3z"/>
	<path class="st1" d="M1693.6,523.3c-5.5,0.2-11.6-2.2-14.6,6.1c-12.2,33.3-24.9,66.4-38.1,101.2c10.9-2.7,24.3,7.1,27.7-10.1
		c2.4-12.2,9.3-15.8,20.8-14c4.8,0.7,9.9,0.4,14.8,0c5.8-0.4,9.8,1.3,10.6,7.5c2.5,19.1,15.2,18.3,30.3,15.1
		c-12.4-33.4-24.8-66.5-36.9-99.8C1705.4,521.4,1699.2,523.1,1693.6,523.3z M1703,588.3c-6.4,0.6-12.9,0.6-19.2-0.1
		c-3.4-0.4-2.1-4-1.4-6.1c3.2-9.3,6.6-18.6,10.2-28.5c6.6,9,7.5,19.7,11.7,29.1C1705.2,584.8,1706.7,588,1703,588.3z"/>
	<path class="st2" d="M882,541.1c-3.3,8-8.8,15.1-13.7,23.4c-5.2-8.6-11-15.7-14.1-23.9c-6.6-17.5-19-20.3-36.6-16
		c6.9,11.7,12.8,23.6,20.3,34.3c12.9,18.4,21.4,37.6,17.5,60.6c-1.7,9.9,3.4,11.4,11.8,11.1c8.1-0.3,15.1,0.1,13.1-11.4
		c-3.9-22.5,4.8-41.3,17.3-59.3c7.6-10.8,13.8-22.6,21.3-35.1C900.1,519.2,888.8,524.7,882,541.1z"/>
	<path class="st0" d="M334.2,62.7C195.5,58.6,83.2,179.2,83.9,312.8c0.8,138,113,251,250.6,251.2c130.5,0.2,251.2-105.5,250.3-250.6
		C583.9,171.5,476.3,62.7,334.2,62.7z M335.2,517.2c-112.2,0.1-204.9-92.1-204.9-203.7c0-113.2,91.8-205.3,204.5-205.3
		c114.3,0,204.2,90.2,204.2,205C539,425.9,447.9,517.1,335.2,517.2z"/>
	<path class="st0" d="M1249.7,53.9c-109.2-3.6-189.4,91.5-190.8,182.9c-1.5,99.1,83.9,189.9,185.1,189.1
		c104.6-0.7,186.5-80.9,186.6-184.8C1430.7,136.6,1351.3,57.2,1249.7,53.9z M1373,321.7c-58.2,84.7-165.5,89.2-228.9,29.9
		c-43-40.2-58.7-89-46.7-146.8c2.1-10.1,4.7-15.9,16-8.4c5.7,3.7,12.5,6.1,19,8.3c10.2,3.6,17.3,8.6,14.3,21.1
		c-1.9,7.8,2.7,9.3,9.2,8.5c5.3-0.6,8.1,1.1,8.2,7.3c0.2,6.5-3,7.9-8.1,7c-12-2-8.8,6.6-9.5,12.9c-1,8.6,2.4,11.9,10.7,10.5
		c7.3-1.2,9.9,2.2,11.8,9.2c16.2,58.1,78.3,78.6,130.6,58.7c6.3-2.4,10.2-5.4,7.7-13.1c-2.8-8.4-2.6-17.6-7-25.8
		c-17.2,5.9-34.2,10.4-52.2,4.8c-6.2-1.9-12-4.6-17-8.7c-7-5.9-15.1-13.5-12.5-22c2.2-7.3,13-1.9,19.9-3
		c50.9-8.1,90.5,22.5,134.2,39.3C1379.9,314.2,1375.3,318.4,1373,321.7z M1392,278.8c-31.3-13.9-61.8-27.7-92.5-40.8
		c-8.1-3.5-5.8-9.7-5.4-15c0.6-8.7-2.8-10.5-11-10.7c-18.5-0.5-37.5,3.8-55.4-5.7c-7-3.7-6.9-6.4-3-12c11.2-16,35-23.5,59.2-15.7
		c12.1,3.9,18.1,3.5,18.8-10.6c0.2-4.4,1.7-8.8,3.3-12.9c2.8-7.1-0.5-9.2-6.8-11.4c-43.1-15.6-88.8-3.2-115.8,32.8
		c-4.6,6.1-7.7,7-14.3,3.7c-13.7-6.7-27.8-12.9-42-18.5c-8-3.1-8-6.1-3.1-12.4c39.6-50.3,91.5-71.3,153.6-57.7
		c60.8,13.3,99.3,53.2,115.1,113.6C1399.1,229,1398.1,253.3,1392,278.8z"/>
	<path class="st0" d="M831.5,53.6c-104-1.9-191.4,86.3-189.2,185.7c-0.1,103.4,82.6,186.5,185.6,186.4
		c103.3-0.1,183.1-80.8,185.9-182.7C1016.6,137.9,928,55.4,831.5,53.6z M827,391.1c-82.2-0.1-150.7-69.3-150.6-152
		c0.1-82.2,69.2-151.1,151.6-151.3c84.2-0.2,151.6,68.2,151.5,153.8C979.3,324.5,911.1,391.3,827,391.1z"/>
	<path class="st0" d="M1664,53.8c-100.9-2.8-185,79.2-187.6,182.8c-2.5,102,79.3,186.4,183.1,189.2
		c101.9,2.7,186.4-79.3,188.8-183.1C1850.7,139.1,1770.3,56.7,1664,53.8z M1660.2,391.1c-80.9-0.5-150.4-70.8-150.1-151.6
		c0.3-82.5,70.7-152.2,153.2-151.7c84.1,0.5,151,68.7,150.4,153.3C1813,325.2,1745,391.7,1660.2,391.1z"/>
	<path class="st0" d="M749,584.1c-0.6,0.6-0.8,1.7-1.1,2.6c-5.5,15.2,0.9,24.9,20.9,24.9c0.9-0.1,6.4,0,11.5-1.5
		c9-2.5,10.6-9.7,8.4-17.6C786.3,584.1,755,577.7,749,584.1z"/>
	<path class="st0" d="M761.5,567c9.5-0.9,22.2,2.5,23.1-11.9c1-14.7-11.6-11.4-19.7-12.1c-9,0.4-18.4-3.6-17.7,12.1
		C747.7,566.9,752.5,567.8,761.5,567z"/>
	<path class="st0" d="M1692.5,553.6c-3.6,9.9-7,19.2-10.2,28.5c-0.7,2.1-2,5.7,1.4,6.1c6.3,0.7,12.8,0.7,19.2,0.1
		c3.8-0.3,2.2-3.5,1.2-5.6C1700.1,573.3,1699.2,562.6,1692.5,553.6z"/>
	<path class="st1" d="M334.8,108.2c-112.7,0-204.5,92.2-204.5,205.3c0,111.6,92.7,203.8,204.9,203.7
		C447.9,517.1,539,425.9,539,313.2C539,198.4,449.1,108.2,334.8,108.2z M319.3,370.2c-21.3,21.9-58.9,27.5-88.3,13.3
		c-28.4-13.8-43.3-45.5-38.7-81.6c4-31.3,19.4-53.9,50-63.8c29.7-9.6,63.8,0.1,81.7,21.2c7,8.3,9.9,14.4-3.3,18.8
		c-5.1,1.7-10,4.4-14.5,7.4c-5.3,3.5-8.3,2.8-11.7-2.9c-8.1-13.5-21-16.1-35-12.1c-13.7,3.9-18.5,15.4-20.5,28.3
		c-0.7,4.4-0.5,8.9-0.6,11.7c0.2,9.6-0.1,17.5,2.8,25.2c8.7,23.5,38.5,30,53.3,9.8c7.7-10.6,12.6-8.1,20.8-3.5
		C334.8,352.7,335.1,354,319.3,370.2z M385.2,336.7c8,22.5,38.9,28.4,52.8,9c7.7-10.8,12.9-8.3,21.6-3.6
		c19.8,10.7,20.5,11.9,4.3,27.8c-23.3,22.9-51.3,26.2-81.1,16.4c-28.6-9.4-41.9-31.6-45.4-60.2c-1.9-15.3-1.3-30.7,4.4-45.4
		c11.3-28.8,32.7-44,63.3-45.6c30.3-1.6,55.4,7.9,71.3,36.5c-5.1,2.6-10.1,4.8-14.7,7.7c-10.9,6.9-18.9,10.9-29.9-3.3
		c-12.4-16-39.6-7.6-46.7,12.6C379.6,304.4,379.6,320.9,385.2,336.7z"/>
	<path class="st1" d="M1277.7,91.8c-62.2-13.6-114,7.4-153.6,57.7c-5,6.3-4.9,9.2,3.1,12.4c14.2,5.6,28.3,11.8,42,18.5
		c6.6,3.3,9.7,2.3,14.3-3.7c27-35.9,72.7-48.4,115.8-32.8c6.3,2.3,9.5,4.4,6.8,11.4c-1.6,4.1-3.1,8.5-3.3,12.9
		c-0.7,14-6.7,14.4-18.8,10.6c-24.2-7.8-48.1-0.3-59.2,15.7c-3.9,5.6-4,8.3,3,12c17.9,9.5,36.9,5.3,55.4,5.7c8.2,0.2,11.6,2,11,10.7
		c-0.4,5.3-2.7,11.5,5.4,15c30.8,13.2,61.3,27,92.5,40.8c6.1-25.4,7.1-49.7,0.9-73.4C1377,145,1338.5,105.1,1277.7,91.8z"/>
	<path class="st1" d="M1372.5,311.4c-43.6-16.8-83.3-47.5-134.2-39.3c-6.9,1.1-17.6-4.3-19.9,3c-2.6,8.4,5.6,16.1,12.5,22
		c5,4.2,10.8,6.8,17,8.7c18,5.6,35.1,1.1,52.2-4.8c4.4,8.2,4.2,17.4,7,25.8c2.5,7.7-1.3,10.7-7.7,13.1
		c-52.3,19.8-114.4-0.7-130.6-58.7c-1.9-6.9-4.5-10.4-11.8-9.2c-8.3,1.4-11.7-1.9-10.7-10.5c0.7-6.4-2.5-14.9,9.5-12.9
		c5.1,0.8,8.3-0.5,8.1-7c-0.2-6.1-2.9-7.9-8.2-7.3c-6.5,0.8-11.1-0.7-9.2-8.5c3-12.5-4.1-17.6-14.3-21.1c-6.5-2.3-13.3-4.6-19-8.3
		c-11.3-7.4-13.9-1.6-16,8.4c-12,57.8,3.7,106.6,46.7,146.8c63.4,59.3,170.8,54.8,228.9-29.9
		C1375.3,318.4,1379.9,314.2,1372.5,311.4z"/>
	<path class="st1" d="M827.9,87.9c-82.4,0.2-151.5,69.1-151.6,151.3c-0.1,82.7,68.4,151.8,150.6,152
		c84.2,0.2,152.3-66.7,152.4-149.5C979.5,156.1,912.1,87.7,827.9,87.9z M829.3,120.1c14.5,0.6,25.9,12.9,25.1,27.3
		c-0.8,14.5-13,25.2-28,24.6c-14.6-0.6-25.9-13-25-27.4C802.4,129.8,814.1,119.5,829.3,120.1z M867.5,270
		c-9.2-1.5-10.4,3.3-10.3,11.1c0.4,22.8-0.2,45.6,0.3,68.4c0.2,8.3-2.1,11.5-10.8,11.1c-15.3-0.8-35.1,4.9-44.6-2.7
		c-10.1-8-1.7-28.7-3.3-41.4c0-13.8-0.4-25.2,0.1-36.6c0.4-7.8-2.3-11.2-10.1-9.8c-10.7,2-11.8-3.7-11.6-12.4
		c0.5-19.3,0.6-38.6,0-57.9c-0.4-12.5,4.3-18.3,17.2-18.1c22.3,0.4,44.5,0.3,66.8,0c11.7-0.1,17.2,4.8,17,17
		c-0.4,20.3-0.5,40.6,0.1,60.9C878.7,268.1,875.8,271.4,867.5,270z"/>
	<path class="st1" d="M1663.2,87.8c-82.5-0.5-152.8,69.1-153.2,151.7c-0.3,80.9,69.2,151.1,150.1,151.6
		c84.8,0.5,152.9-65.9,153.5-150C1814.2,156.6,1747.4,88.4,1663.2,87.8z M1755.8,256.1c-4.1,37.7-23.5,65.8-60,79.7
		c-51.7,19.5-102.8-5.3-115.7-55c-2.9-10.9,0.4-12.8,9.9-11.9c5.4,0.5,10.9,0.5,16.3,0c11.3-0.9,18.6,0.1,23.1,14.2
		c7.3,22.6,44.9,26.1,63,7.6c20.6-21,22.6-75.2,3.2-97.2c-10.9-12.4-25.2-14.3-40.8-11.3c-16,3-25.2,12.5-29.2,29.9
		c4.2,0.4,7.8,0.8,14.1,1.4c-12,11.8-22.4,21.6-32.1,31.9c-4.8,5.1-7.7,3.8-12-0.5c-9.7-9.8-19.9-19.3-32.9-31.8
		c15.1,1.9,17.7-5.5,20.5-14.8c16.7-54.8,82.1-75.7,132.3-41.7C1750.5,180.6,1760.2,216.4,1755.8,256.1z"/>
	<path class="st0" d="M315.1,341.8c-8.2-4.6-13.1-7.1-20.8,3.5c-14.7,20.2-44.6,13.7-53.3-9.8c-2.9-7.7-2.5-15.6-2.8-25.2
		c0.1-2.7,0-7.3,0.6-11.7c1.9-12.9,6.7-24.4,20.5-28.3c14-4,26.9-1.3,35,12.1c3.4,5.7,6.4,6.4,11.7,2.9c4.5-2.9,9.4-5.7,14.5-7.4
		c13.3-4.4,10.3-10.5,3.3-18.8c-17.9-21.1-52-30.8-81.7-21.2c-30.6,9.9-46,32.5-50,63.8c-4.6,36.1,10.3,67.8,38.7,81.6
		c29.4,14.2,67,8.6,88.3-13.3C335.1,354,334.8,352.7,315.1,341.8z"/>
	<path class="st0" d="M431.9,276c11,14.2,19,10.2,29.9,3.3c4.6-2.9,9.6-5,14.7-7.7c-15.9-28.7-41.1-38.2-71.3-36.5
		c-30.6,1.6-52,16.8-63.3,45.6c-5.7,14.6-6.3,30.1-4.4,45.4c3.5,28.6,16.8,50.8,45.4,60.2c29.8,9.8,57.8,6.5,81.1-16.4
		c16.2-15.9,15.5-17.2-4.3-27.8c-8.7-4.7-13.8-7.2-21.6,3.6c-13.9,19.4-44.8,13.5-52.8-9c-5.6-15.8-5.6-32.3-0.1-48.1
		C392.3,268.4,419.5,260.1,431.9,276z"/>
	<path class="st0" d="M878.3,198.6c0.2-12.1-5.2-17.1-17-17c-22.3,0.2-44.5,0.3-66.8,0c-12.9-0.2-17.5,5.6-17.2,18.1
		c0.6,19.3,0.5,38.6,0,57.9c-0.2,8.8,0.9,14.4,11.6,12.4c7.7-1.5,10.5,1.9,10.1,9.8c-0.6,11.4-0.1,22.8-0.1,36.6
		c1.6,12.7-6.8,33.4,3.3,41.4c9.6,7.6,29.4,1.8,44.6,2.7c8.6,0.5,11-2.7,10.8-11.1c-0.5-22.8,0.1-45.6-0.3-68.4
		c-0.1-7.8,1.1-12.6,10.3-11.1c8.3,1.4,11.1-1.9,10.9-10.5C877.8,239.2,877.9,218.9,878.3,198.6z"/>
	<path class="st0" d="M826.4,172c14.9,0.6,27.2-10.1,28-24.6c0.8-14.4-10.5-26.8-25.1-27.3c-15.2-0.6-26.9,9.7-27.9,24.5
		C800.5,159.1,811.8,171.4,826.4,172z"/>
	<path class="st0" d="M1715.5,156.9c-50.1-34-115.6-13.1-132.3,41.7c-2.8,9.3-5.4,16.7-20.5,14.8c13,12.5,23.2,21.9,32.9,31.8
		c4.2,4.3,7.2,5.5,12,0.5c9.8-10.4,20.2-20.1,32.1-31.9c-6.3-0.6-9.9-1-14.1-1.4c4-17.4,13.2-26.9,29.2-29.9
		c15.6-3,29.9-1.1,40.8,11.3c19.4,22,17.4,76.1-3.2,97.2c-18.1,18.5-55.7,15-63-7.6c-4.5-14.1-11.8-15.1-23.1-14.2
		c-5.4,0.4-10.9,0.5-16.3,0c-9.6-0.9-12.8,0.9-9.9,11.9c12.9,49.7,64.1,74.5,115.7,55c36.6-13.8,55.9-41.9,60-79.7
		C1760.2,216.4,1750.5,180.6,1715.5,156.9z"/>
</g>
<g id="CC_x5F_BY_x5F_ND">
	<path class="st0" d="M20.3,671.9c313.1,0,626.2,0,939.3,0c313.6,0,627.2-0.1,940.7,0.3c14.6,0,19.7-3.2,19.7-18.7
		c-0.5-203.8-0.3-407.5-0.3-611.3c0-29.2-13.2-42.2-42.8-42.2C1265.6,0,654.3,0,43,0C12.6,0,0,12.7,0,43.4c0,202.8,0,405.5,0,608.3
		C0,671.9,0,671.9,20.3,671.9z M997.7,608c-3,13.2-13.7,19.1-26,21c-10.2,1.5-20.7,1.3-31,1.8c-31.4-0.5-31.4-0.5-31.4-31.8
		c0-21.8,0.4-43.5-0.2-65.3c-0.2-8.4,2.3-11.1,10.8-10.7c15.3,0.7,30.7-0.4,46,0.7c27.3,2,36.4,22,20.4,44.2
		c-2.5,3.5-3.5,4.5,0.9,7.2C999.5,582.9,1000.6,595.4,997.7,608z M1074.8,573c-11.5,15.2-9.8,31.6-9.5,48.2
		c0.1,7.2-2.3,10.6-9.2,8.9c-5.2-1.2-16.2,4.7-14.4-6.1c6-35.4-15.9-59.8-31.4-86.8c-2.2-3.8-4.4-7.6-7.4-12.6
		c18.7-5,30.7-0.3,37.4,17.1c2.8,7.3,8,13.6,12.7,21.2c6.7-5.8,10.4-13.2,13.5-20.5c7.1-16.2,17.7-24.3,37.6-17.4
		C1094.6,540.9,1086.1,558.1,1074.8,573z M1438.1,629.7c-8.3,0.7-18.5,5.3-25.1-6.1c-11.6-20-24.3-39.4-39.2-58.5
		c0,17.5-0.2,34.9,0.1,52.4c0.2,8.1,0.4,13.7-11.1,13.3c-10.2-0.3-12.2-3.4-12-12.7c0.5-27.2,0-54.5,0.4-81.8
		c0.1-4.5-3.8-12.6,4.8-12.7c7.6-0.1,16.7-4.7,22.7,5.3c10.4,17.4,21.3,34.5,32.1,51.7c1.7,2.7,2.3,6.4,7.7,7.7
		c0-17.5,0.5-34.6-0.2-51.6c-0.4-9.5,1-13.9,12.4-13.9c11.2,0,11.4,4.8,11.3,13.2c-0.4,26.8,0.1,53.5-0.3,80.3
		C1441.5,620.8,1445.2,629.1,1438.1,629.7z M1550.8,603.3c-7.4,17-21.3,25.7-39.5,26.7c-13.3,0.7-26.8-0.3-40.1,0.5
		c-9.2,0.6-10.4-3.5-10.3-11.2c0.4-27.2,0.7-54.5-0.1-81.7c-0.3-11.4,2.4-16.4,14.4-14.5c4.8,0.8,9.9,0.1,14.8,0.1c3,0,5.9,0,8.9,0
		C1545.3,523.3,1569.5,560.5,1550.8,603.3z M15.9,182.8c0-44.1,0-88.3,0-132.4c0-28.2,4.8-33.1,32.3-33.1c304.2,0,608.4,0,912.6,0
		s608.4,0,912.6,0c24.6,0,29.8,5.1,29.8,29.3c0,136.4-0.3,272.7,0.4,409.1c0.1,14.1-4.5,15.8-16.7,15.8
		c-429.3-0.3-858.6-0.2-1287.8-0.6c-12.5,0-19.2,3.8-25.9,14.3c-113.2,177.2-368.6,176-480.1-2.1c-5.3-8.5-10.7-12.8-21.1-12.1
		c-13.8,1-27.8-0.5-41.7,0.5c-11.9,0.9-14.9-3.2-14.8-14.9C16.1,365.3,15.9,274.1,15.9,182.8z"/>
	<path class="st1" d="M30.4,471.5c13.8-1,27.8,0.5,41.7-0.5c10.4-0.7,15.7,3.5,21.1,12.1c111.5,178.2,366.9,179.4,480.1,2.1
		c6.7-10.5,13.4-14.3,25.9-14.3c429.3,0.4,858.6,0.3,1287.8,0.6c12.2,0,16.8-1.7,16.7-15.8c-0.7-136.4-0.4-272.7-0.4-409.1
		c0-24.2-5.3-29.3-29.8-29.3c-304.2,0-608.4,0-912.6,0s-608.4,0-912.6,0c-27.5,0-32.3,4.9-32.3,33.1c0,44.1,0,88.3,0,132.4
		c0,91.2,0.2,182.5-0.3,273.7C15.5,468.2,18.5,472.3,30.4,471.5z M1474,54.5c89.8-2,189.9,78.7,179.1,204.6
		c-8.1,95-95.7,175.8-204.5,165.9c-87.2-8-170.8-87.6-167.1-191.4C1285.2,131.7,1371.9,48.6,1474,54.5z M1016,53.5
		c102.6,0.2,183,82.1,182.9,186.4c-0.1,103.9-81.9,185.2-186.2,185c-102.9-0.2-185-83.1-184.9-186.9C827.9,133.9,910,53.4,1016,53.5
		z M83.3,305.5C87,172.4,200,61.3,334.9,61.8c143.2,0.5,254,118.5,249.8,259.7c-3.9,133-115.2,242.4-251.5,241.6
		C196,564.8,79.4,443.6,83.3,305.5z"/>
	<path class="st1" d="M1441.9,535.8c0.1-8.3-0.1-13.2-11.3-13.2c-11.4,0-12.8,4.4-12.4,13.9c0.7,17.1,0.2,34.2,0.2,51.6
		c-5.4-1.3-6-5-7.7-7.7c-10.8-17.2-21.7-34.2-32.1-51.7c-5.9-10-15.1-5.4-22.7-5.3c-8.7,0.1-4.8,8.2-4.8,12.7
		c-0.4,27.3,0.2,54.5-0.4,81.8c-0.2,9.3,1.9,12.4,12,12.7c11.6,0.3,11.3-5.2,11.1-13.3c-0.3-17.5-0.1-34.9-0.1-52.4
		c14.9,19.1,27.6,38.5,39.2,58.5c6.6,11.4,16.8,6.8,25.1,6.1c7.1-0.6,3.4-8.9,3.5-13.6C1442,589.4,1441.5,562.6,1441.9,535.8z"/>
	<path class="st1" d="M987,575.1c-4.4-2.8-3.4-3.7-0.9-7.2c16-22.2,6.9-42.2-20.4-44.2c-15.3-1.1-30.7,0-46-0.7
		c-8.4-0.4-11,2.3-10.8,10.7c0.6,21.8,0.2,43.5,0.2,65.3c0,31.3,0,31.3,31.4,31.8c10.4-0.5,20.8-0.3,31-1.8c12.4-1.8,23-7.8,26-21
		C1000.6,595.4,999.5,582.9,987,575.1z M933.9,545.5c2.2-6.1,9.7-1.7,14.8-3.3c4.3,0.4,8.8,0.4,13.1,1.2c6.3,1.2,9.2,5.8,8.7,11.8
		c-0.4,5.4-3.7,9.3-9.2,10.1c-9.2,1.3-19.5,4.1-27.1-1.5C931.1,561.5,931.9,551.1,933.9,545.5z M974.2,600.3
		c-6,17.5-21.6,8.9-33.2,10.5c-11.1,1.5-7-7.5-8.1-13.1c-3.3-16.2,6.4-16.6,17.9-15.3c4.4,0.3,9,0,13.2,1.1
		C972.8,585.6,977,592.3,974.2,600.3z"/>
	<path class="st1" d="M1499,523.2c-3,0-5.9,0-8.9,0c-5,0-10,0.6-14.8-0.1c-12-1.9-14.8,3.2-14.4,14.5c0.8,27.2,0.5,54.4,0.1,81.7
		c-0.1,7.7,1,11.8,10.3,11.2c13.3-0.8,26.8,0.2,40.1-0.5c18.3-1,32.1-9.6,39.5-26.7C1569.5,560.5,1545.3,523.3,1499,523.2z
		 M1494.6,609.7c-8-0.2-10.3-2.7-9.8-10.2c0.6-7.9,0.1-15.8,0.1-23.8c0-3.5-0.7-7.1,0.2-10.4c2-7.1-6-18,5.7-21
		c17.5-4.5,32.2,2.4,37.7,15.6C1540.6,588.7,1525.5,610.5,1494.6,609.7z"/>
	<path class="st2" d="M1066.5,542.4c-3.2,7.2-6.9,14.7-13.5,20.5c-4.7-7.6-9.9-14-12.7-21.2c-6.7-17.4-18.7-22-37.4-17.1
		c3,5,5.2,8.8,7.4,12.6c15.5,27.1,37.4,51.5,31.4,86.8c-1.9,10.8,9.2,4.9,14.4,6.1c7,1.7,9.4-1.7,9.2-8.9
		c-0.3-16.6-1.9-33.1,9.5-48.2c11.3-15,19.8-32.1,29.3-48C1084.2,518.1,1073.6,526.2,1066.5,542.4z"/>
	<path class="st0" d="M333.2,563.1c136.4,0.8,247.7-108.7,251.5-241.6c4.1-141.2-106.6-259.3-249.8-259.7
		C200,61.3,87,172.4,83.3,305.5C79.4,443.6,196,564.8,333.2,563.1z M327.2,108.1c113.2-4.4,207.3,83.4,211.7,197.5
		c4.8,125.3-99.1,207.6-194,211.1c-117.1,4.3-213.6-85.4-215.7-202.2C127.4,206.5,218.6,109.7,327.2,108.1z"/>
	<path class="st0" d="M1012.7,425c104.3,0.2,186.1-81.1,186.2-185c0.1-104.4-80.3-186.3-182.9-186.4
		c-106-0.2-188.1,80.3-188.2,184.5C827.7,341.8,909.8,424.8,1012.7,425z M1015.3,87.7c89.3,2.8,152.3,70.7,149.5,161.2
		c-2.4,78.4-76.5,146.4-161.9,141.3c-77.8-4.6-144.1-77-141.3-158.2C864.3,153.1,936.6,85.2,1015.3,87.7z"/>
	<path class="st0" d="M1448.7,424.9c108.8,9.9,196.3-70.9,204.5-165.9C1664,133.2,1563.9,52.4,1474,54.5
		c-102.2-5.9-188.8,77.2-192.4,179.1C1278,337.3,1361.5,417,1448.7,424.9z M1467.4,88.3c84.2-0.3,152.1,67.2,152.5,151.4
		c0.4,83.3-68.2,151.3-152.6,151.2c-82.9-0.2-151.2-68.5-151.2-151.3C1316.2,157,1384.6,88.5,1467.4,88.3z"/>
	<path class="st0" d="M964.1,583.5c-4.2-1-8.8-0.8-13.2-1.1c-11.5-1.3-21.2-0.9-17.9,15.3c1.1,5.5-3,14.6,8.1,13.1
		c11.6-1.6,27.2,7,33.2-10.5C977,592.3,972.8,585.6,964.1,583.5z"/>
	<path class="st0" d="M961.3,565.3c5.5-0.8,8.8-4.7,9.2-10.1c0.4-6.1-2.4-10.6-8.7-11.8c-4.3-0.8-8.8-0.9-13.1-1.2
		c-5.1,1.6-12.6-2.8-14.8,3.3c-2,5.6-2.8,16,0.3,18.3C941.8,569.4,952.1,566.6,961.3,565.3z"/>
	<path class="st0" d="M1490.7,544.3c-11.7,3-3.7,14-5.7,21c-0.9,3.2-0.2,6.9-0.2,10.4c0,7.9,0.4,15.9-0.1,23.8
		c-0.5,7.6,1.8,10,9.8,10.2c31,0.8,46-20.9,33.9-49.8C1522.9,546.7,1508.2,539.8,1490.7,544.3z"/>
	<path class="st1" d="M345,516.7c94.9-3.5,198.8-85.7,194-211.1c-4.4-114.1-98.5-201.9-211.7-197.5
		c-108.7,1.6-199.8,98.5-197.9,206.4C131.4,431.3,227.9,521,345,516.7z M440.2,239.8c4.1,1.5,8.2,3.4,12,5.7
		c9.8,6.1,22.8,14.3,21.2,24.5c-1.5,9.5-17.8,11.1-27.2,16.8c-5.8,3.5-6.4-2.3-8.4-5c-7.2-10.1-16.5-15-29.2-12.9
		c-13.3,2.2-21.2,9.8-24.6,22.5c-4,14.6-4.3,29.4,0.6,43.8c8,23.5,38.6,30.2,53.2,10.3c8-10.8,13.5-8.7,22-3.3
		c5.4,3.4,11.2,6.1,16.8,9.1c-18.7,32.9-50.6,46.3-87.5,37.1c-31.9-8-51.3-33.9-52.6-70.3C334.3,255.7,382.9,219.1,440.2,239.8z
		 M304.5,243.6c9,4.5,16,11.4,22.1,19.4c4.3,5.7,5.8,10-2.8,12.9c-4.2,1.4-8.1,3.6-11.9,6c-8.1,5.1-13.4,7.7-21.2-3.1
		c-13.2-18.3-40.6-13-49,8.3c-6.2,15.7-5.7,31.9-1,48c3.3,11.5,10.9,18.7,22.7,20.9c12.6,2.3,24.7-0.5,31.4-11.6
		c5.8-9.6,10.4-8,18.5-3.5c21.8,12,22.5,13.7,3.8,30.7c-24.7,22.4-53.7,24.4-83.2,12.9c-31.9-12.5-41.8-39.7-42.4-71.6
		C190.8,244.6,254.4,218.8,304.5,243.6z"/>
	<path class="st1" d="M1002.9,390.2c85.4,5.1,159.5-62.9,161.9-141.3c2.8-90.5-60.2-158.5-149.5-161.2
		c-78.7-2.4-151,65.5-153.8,144.3C858.8,313.2,925.1,385.6,1002.9,390.2z M1013.1,119c14.4-0.1,26.6,11.9,26.6,26.2
		c0.1,14.4-12,26.6-26.3,26.7c-14.2,0.1-26.7-12.1-26.8-26.3C986.6,131.4,998.8,119.1,1013.1,119z M963,194
		c0.2-8.8,5.5-13.1,14.6-13c23.8,0.2,47.6,0.1,71.3,0c10.8,0,14.9,5.5,14.8,15.8c-0.2,20.8-0.4,41.6,0.1,62.4
		c0.2,8.3-2.1,12.1-10.6,10.6c-8.5-1.5-10.8,2.1-10.6,10.4c0.6,23.2-0.2,46.5,0.4,69.8c0.2,8-2.4,10.7-10,9.6c-1-0.1-2,0-3,0
		c-15.1-1-35.4,6.5-43.9-3.1c-7.3-8.4-1.5-28.2-1.5-43c-0.3,0-0.6,0-0.9,0c0-8.9-0.2-17.8,0.1-26.7c0.4-10.3,1.4-20.5-14.5-17.1
		c-5.3,1.1-6.5-2.8-6.4-7.4C962.9,239.5,962.6,216.7,963,194z"/>
	<path class="st1" d="M1467.4,390.8c84.3,0.2,153-67.8,152.6-151.2c-0.4-84.2-68.4-151.7-152.5-151.4
		c-82.8,0.3-151.2,68.7-151.2,151.3C1316.2,322.3,1384.4,390.6,1467.4,390.8z M1538.6,280.5c0.4,5.7-1.6,7.7-7.5,7.7
		c-40.6-0.2-81.2-0.2-121.8,0c-5,0-7.3-1.4-6.9-6.7c0.3-4.4,0.6-9,0-13.3c-1.5-10.3,2.1-13.6,12.7-13c18.3,0.9,36.6,0.3,54.9,0.3
		c19.3,0,38.6,0.4,57.9-0.2c8.2-0.2,11.9,1.8,10.7,10.5C1538,270.6,1538.2,275.6,1538.6,280.5z M1415.1,195.5
		c18.2,1.4,36.5,0.3,54.8,0.3c19.3,0,38.6,0.4,57.8-0.2c8.2-0.2,11,1.8,11,10.5c0,21.9,0.5,21.9-21.9,21.9
		c-34.1,0-68.2-0.8-102.3,0.4c-17.1,0.6-11.1-10.4-12-18.4C1401.4,200.7,1402.3,194.5,1415.1,195.5z"/>
	<path class="st0" d="M233.9,384.4c29.5,11.5,58.5,9.5,83.2-12.9c18.7-17,17.9-18.7-3.8-30.7c-8.1-4.4-12.6-6-18.5,3.5
		c-6.8,11.1-18.8,13.9-31.4,11.6c-11.7-2.1-19.4-9.3-22.7-20.9c-4.6-16.1-5.2-32.3,1-48c8.4-21.3,35.8-26.6,49-8.3
		c7.8,10.9,13.2,8.2,21.2,3.1c3.7-2.4,7.7-4.6,11.9-6c8.6-2.9,7.1-7.2,2.8-12.9c-6-8.1-13-14.9-22.1-19.4
		c-50.1-24.8-113.8,1-113.1,69.2C192.1,344.7,202,371.9,233.9,384.4z"/>
	<path class="st0" d="M389.1,388.3c36.9,9.2,68.8-4.1,87.5-37.1c-5.6-3-11.5-5.7-16.8-9.1c-8.5-5.4-14.1-7.5-22,3.3
		c-14.6,19.8-45.2,13.2-53.2-10.3c-4.9-14.4-4.6-29.2-0.6-43.8c3.4-12.6,11.3-20.3,24.6-22.5c12.8-2.1,22,2.7,29.2,12.9
		c2,2.8,2.6,8.5,8.4,5c9.4-5.7,25.7-7.3,27.2-16.8c1.6-10.1-11.5-18.4-21.2-24.5c-3.7-2.3-7.8-4.2-12-5.7
		c-57.3-20.7-105.8,15.9-103.7,78.2C337.8,354.4,357.2,380.3,389.1,388.3z"/>
	<path class="st0" d="M969.2,269.6c15.9-3.4,14.8,6.8,14.5,17.1c-0.3,8.9-0.1,17.8-0.1,26.7c0.3,0,0.6,0,0.9,0
		c0,14.8-5.8,34.6,1.5,43c8.5,9.7,28.8,2.1,43.9,3.1c1,0.1,2-0.1,3,0c7.6,1.2,10.2-1.6,10-9.6c-0.6-23.2,0.2-46.5-0.4-69.8
		c-0.2-8.3,2-11.9,10.6-10.4c8.5,1.5,10.9-2.3,10.6-10.6c-0.5-20.8-0.3-41.6-0.1-62.4c0.1-10.3-3.9-15.9-14.8-15.8
		c-23.8,0.1-47.6,0.2-71.3,0c-9.1-0.1-14.4,4.2-14.6,13c-0.4,22.8-0.1,45.5-0.2,68.3C962.8,266.8,963.9,270.8,969.2,269.6z"/>
	<path class="st0" d="M1013.5,171.9c14.3-0.1,26.3-12.3,26.3-26.7c-0.1-14.4-12.2-26.4-26.6-26.2c-14.3,0.1-26.5,12.4-26.4,26.6
		C986.7,159.8,999.2,172,1013.5,171.9z"/>
	<path class="st0" d="M1414.6,228.5c34.1-1.2,68.2-0.4,102.3-0.4c22.4,0,21.9,0,21.9-21.9c0-8.7-2.9-10.7-11-10.5
		c-19.3,0.5-38.5,0.2-57.8,0.2c-18.3,0-36.7,1-54.8-0.3c-12.8-1-13.7,5.2-12.6,14.6C1403.5,218.1,1397.5,229.1,1414.6,228.5z"/>
	<path class="st0" d="M1527.9,255.2c-19.3,0.6-38.6,0.2-57.9,0.2c-18.3,0-36.7,0.7-54.9-0.3c-10.6-0.5-14.2,2.8-12.7,13
		c0.7,4.4,0.4,8.9,0,13.3c-0.4,5.3,1.9,6.7,6.9,6.7c40.6-0.1,81.2-0.2,121.8,0c5.9,0,7.9-2,7.5-7.7c-0.4-4.9-0.6-10,0-14.8
		C1539.8,257,1536.1,255,1527.9,255.2z"/>
</g>
<g id="CC_x5F_BY_x5F_NC_x5F_ND">
	<path class="st0" d="M1875.8,0C1265.1,0,654.4,0,43.8,0C12.4,0,0,12.5,0,44.2C0,247.1,0,450,0,652.9c0,19.3,0,19.3,19.9,19.3
		c313,0,626,0,939.1,0c313.5,0,627,0,940.6,0c20.4,0,20.4,0,20.4-20.8c0-202.4,0-404.8,0-607.2C1920,13,1906.9,0,1875.8,0z
		 M807.9,605.4c-2.4,14.2-12.4,20.9-25.4,23.4c-19.1,3.8-38.5,0.9-57.7,1.8c-5.5,0.2-6.5-2.6-6.5-7.3c0.1-30.7,0.3-61.4-0.1-92
		c-0.1-7.1,3.1-8,8.9-7.9c15.3,0.3,30.7-0.3,46,0.3c11.5,0.5,23.2,2.4,28.3,15c5.2,13,2.2,24.2-10,33.6
		C806.5,580,810.2,591.4,807.9,605.4z M891.7,561.3c-12.2,17.6-20.2,36.1-16.5,58c1.9,11.3-4.6,11-12.9,11.6
		c-9.6,0.6-12.4-2.8-11-11.7c3.3-21.3-4-39.4-16.2-56.5c-8.4-11.9-15-25.1-22.7-38c18.2-4.5,30.7-0.7,37.4,17
		c2.7,7.3,7.9,13.6,12.4,21.2c7.5-5.8,11.4-13.9,14.5-21.6c7-17.6,19.3-21.4,37.1-16.5C906.5,537.1,899.8,549.7,891.7,561.3z
		 M1222.2,630.2c-8.5,0.6-18.3,4-24.7-7.3c-11.1-19.8-23.7-38.8-35.6-58.1c-1,0.3-2,0.5-2.9,0.8c0,18.7-0.5,37.4,0.2,56.1
		c0.3,9-4.1,9.4-10.7,9c-6.1-0.4-12.8,2.1-12.6-8.8c0.6-28.2,0-56.5,0.4-84.7c0.1-4.5-4-12.8,4.3-13.2c7.9-0.3,17.4-4.9,23.8,5.9
		c11.6,19.9,24.2,39.2,39.2,58.3c0-18,0.6-35.9-0.3-53.8c-0.5-10,3.7-11.1,12-11.1c8.5-0.1,12.1,1.1,11.8,11
		c-0.8,27.2,0.1,54.5-0.6,81.8C1226.5,620.6,1232,629.5,1222.2,630.2z M1336.9,605.5c-7.6,19.5-27.6,30-49.2,26.7
		c-26.2-3.9-42.8-20.9-45.6-46.8c-0.3-2.9,0-5.9,0-8.9c-0.1-40.1,33.3-65.3,69.7-52.8c10.1,3.5,18.7,9.3,23.4,19.3
		c2.3,4.9,8.1,13.3,2.8,15.1c-6.5,2.3-17,6.8-23.1-4.4c-5.2-9.5-14.1-13.8-25-12.1c-10.7,1.7-17.6,8.4-21.1,18.5
		c-4.5,12.7-4.2,25.2,1.7,37.4c4.8,9.9,12.9,14.6,23.7,14.7c10.7,0.1,18.7-5.2,21.4-15.1c3.7-14.1,15.1-9.3,21.4-7.5
		C1345.8,592.3,1338.8,600.6,1336.9,605.5z M1636.2,630c-8.4,0.9-18.5,4.7-25-6.5c-11.7-20-24.3-39.5-36.5-59.2
		c-0.9,0.2-1.7,0.4-2.6,0.6c0,18.7-0.6,37.5,0.3,56.2c0.5,9.9-4.4,9.6-11.5,9.8c-7.7,0.2-11.5-1-11.3-10.2c0.6-27.7,0-55.5,0.4-83.3
		c0.1-4.6-4-12.8,4.1-13.4c7.8-0.5,17.4-4.8,23.6,6c10.6,18.4,22.2,36.3,33.5,54.3c1.2,1.8,1.6,4.7,6.1,4.9
		c0-18.8,0.6-37.5-0.2-56.1c-0.4-9.8,4.5-9.8,11.7-9.9c7.2,0,11.9,0.1,11.7,9.9c-0.7,27.7,0,55.5-0.4,83.3
		C1639.9,621,1643.7,629.2,1636.2,630z M1710.8,630c-16.7,1.3-37.3,6.7-48.9-2c-9.5-7.1-1.9-28.7-2.8-43.8c-0.1-2.5,0-4.9,0-7.4
		c0-14.3,0.3-28.7-0.1-43c-0.2-7.2,1-10.9,9.5-10.5c13.8,0.7,27.7-0.4,41.5,0.5c27.3,1.7,43.6,20.5,43.9,49.6
		C1754.2,607.7,1739.5,627.7,1710.8,630z M1884.7,471.8c-428.1-0.5-856.2-0.3-1284.3-0.7c-12.6,0-20.1,3.1-27.2,14.5
		c-111,177-370.2,175.6-479.9-2.5c-5.3-8.7-10.8-12.6-21.1-12c-14.8,0.9-29.8-0.2-44.6,0.4c-8.6,0.3-11.1-2.9-10.9-11.2
		c0.4-23.8,0.2-47.6,0.2-71.4c0-113.6,0-227.2,0-340.8c0-26.9,4.3-31.3,30.9-31.3c304.1,0,608.1,0,912.2,0c303.1,0,606.2,0,909.2,0
		c29.6,0,33.6,3.9,33.6,33c0,134.4-0.2,268.9,0.4,403.3C1903.1,467.8,1900.1,471.9,1884.7,471.8z"/>
	<path class="st1" d="M1902.6,49.8c0-29-4-33-33.6-33c-303.1,0-606.2,0-909.2,0c-304.1,0-608.1,0-912.2,0
		c-26.5,0-30.9,4.4-30.9,31.3c0,113.6,0,227.2,0,340.8c0,23.8,0.3,47.6-0.2,71.4c-0.1,8.3,2.4,11.5,10.9,11.2
		c14.9-0.6,29.8,0.5,44.6-0.4c10.3-0.6,15.8,3.3,21.1,12c109.8,178.1,368.9,179.5,479.9,2.5c7.1-11.3,14.6-14.5,27.2-14.5
		c428.1,0.3,856.2,0.2,1284.3,0.7c15.4,0,18.4-4.1,18.3-18.7C1902.4,318.7,1902.6,184.3,1902.6,49.8z M333.3,563.4
		c-139.2-1-250.7-114.2-249.5-253.3C85,172.1,198,60.5,335.2,62c142,1.6,249.6,111.9,249.6,252.2
		C584.8,458.5,464.2,565.1,333.3,563.4z M1013.1,240.6c0,104.1-81.9,185.6-185.9,185c-102.6-0.5-184.9-83.1-185-185.5
		C642,136.5,724.2,53.4,827.6,53.7C943.4,53.9,1018,150.1,1013.1,240.6z M1243.6,425.9c-102.5,0.3-188.2-92.3-184.6-191.1
		c3.6-99.5,85.6-182,186.6-181.2c105.4,0.8,185.4,82,185,187.8C1430.3,345.2,1347.6,425.7,1243.6,425.9z M1661.6,425.6
		c-102.4-0.4-185.1-83.3-185.1-185.6c0-103.6,82.6-186.5,185.8-186.5c104.5,0.1,187,82.9,186.3,187.2
		C1848,344.6,1765.5,426.1,1661.6,425.6z"/>
	<path class="st1" d="M791.4,572.3c12.2-9.3,15.2-20.6,10-33.6c-5.1-12.6-16.7-14.6-28.3-15c-15.3-0.6-30.7,0-46-0.3
		c-5.8-0.1-9,0.9-8.9,7.9c0.3,30.7,0.2,61.4,0.1,92c0,4.7,0.9,7.6,6.5,7.3c19.2-0.9,38.6,2,57.7-1.8c13-2.6,23-9.2,25.4-23.4
		C810.2,591.4,806.5,580,791.4,572.3z M742.7,551.7c0.5-7,2.6-9.8,9.6-9.2c4.4,0.4,8.9,0,13.3,0.1c7.5,0.3,14.3,2.3,14.6,11.1
		c0.4,9.6-6.6,12.2-14.6,12.9c-2.4,0.2-4.9,0-8.6,0C745.1,569.9,741.9,563.7,742.7,551.7z M758.1,611.4
		c-12.6,1.9-14.9-3.6-15.6-15.5c-0.9-16,8.4-13.3,17.7-13c10.5,0.5,24.1-1.9,23.7,14.6C783.5,615.3,768.6,609.9,758.1,611.4z"/>
	<path class="st1" d="M1227.2,534.2c0.3-9.9-3.4-11.1-11.8-11c-8.4,0.1-12.5,1.1-12,11.1c0.9,17.9,0.3,35.9,0.3,53.8
		c-15-19.1-27.6-38.4-39.2-58.3c-6.3-10.8-15.9-6.2-23.8-5.9c-8.3,0.3-4.2,8.6-4.3,13.2c-0.4,28.2,0.2,56.5-0.4,84.7
		c-0.2,10.9,6.5,8.4,12.6,8.8c6.6,0.5,11.1,0.1,10.7-9c-0.7-18.7-0.2-37.4-0.2-56.1c1-0.3,2-0.5,2.9-0.8
		c11.9,19.3,24.5,38.3,35.6,58.1c6.4,11.3,16.2,7.9,24.7,7.3c9.8-0.7,4.3-9.6,4.4-14.3C1227.3,588.7,1226.4,561.4,1227.2,534.2z"/>
	<path class="st1" d="M1640.4,533.1c0.2-9.8-4.5-9.9-11.7-9.9c-7.2,0-12.1,0-11.7,9.9c0.8,18.6,0.2,37.2,0.2,56.1
		c-4.4-0.2-4.9-3.1-6.1-4.9c-11.3-18-23-35.8-33.5-54.3c-6.2-10.9-15.8-6.5-23.6-6c-8.1,0.5-4,8.8-4.1,13.4
		c-0.4,27.8,0.2,55.5-0.4,83.3c-0.2,9.2,3.7,10.4,11.3,10.2c7.1-0.1,12,0.1,11.5-9.8c-0.9-18.7-0.3-37.4-0.3-56.2
		c0.9-0.2,1.7-0.4,2.6-0.6c12.2,19.7,24.8,39.2,36.5,59.2c6.5,11.2,16.6,7.4,25,6.5c7.5-0.8,3.7-8.9,3.8-13.6
		C1640.4,588.6,1639.8,560.8,1640.4,533.1z"/>
	<path class="st1" d="M1709.9,523.7c-13.8-0.9-27.7,0.2-41.5-0.5c-8.5-0.4-9.7,3.3-9.5,10.5c0.5,14.3,0.1,28.7,0.1,43
		c0,2.5-0.1,5,0,7.4c0.8,15.1-6.7,36.7,2.8,43.8c11.6,8.7,32.3,3.3,48.9,2c28.7-2.3,43.4-22.2,43-56.6
		C1753.5,544.2,1737.2,525.4,1709.9,523.7z M1724.6,599c-7.4,12.2-19.9,10.5-31.8,10.9c-7.2,0.2-9.6-2.2-9.1-9.3
		c0.5-7.9,0.1-15.8,0.1-23.7c0-3.9-0.7-8.1,0.2-11.8c1.6-6.9-5.5-16.8,4.5-20.6c14.1-5.3,32,1.4,37.4,13.4
		C1732.1,571.6,1732.6,585.8,1724.6,599z"/>
	<path class="st1" d="M1336.9,589.7c-6.3-1.9-17.7-6.7-21.4,7.5c-2.6,9.9-10.7,15.2-21.4,15.1c-10.8-0.1-18.9-4.8-23.7-14.7
		c-5.9-12.2-6.2-24.7-1.7-37.4c3.6-10.1,10.4-16.9,21.1-18.5c10.9-1.7,19.8,2.6,25,12.1c6.1,11.3,16.6,6.7,23.1,4.4
		c5.3-1.9-0.5-10.2-2.8-15.1c-4.7-9.9-13.3-15.8-23.4-19.3c-36.4-12.5-69.7,12.7-69.7,52.8c0,3-0.3,6,0,8.9
		c2.8,25.9,19.4,42.9,45.6,46.8c21.6,3.2,41.6-7.2,49.2-26.7C1338.8,600.6,1345.8,592.3,1336.9,589.7z"/>
	<path class="st1" d="M876.7,541.3c-3.1,7.6-7,15.8-14.5,21.6c-4.5-7.6-9.7-14-12.4-21.2c-6.7-17.7-19.2-21.5-37.4-17
		c7.6,12.9,14.2,26.1,22.7,38c12.2,17.2,19.5,35.2,16.2,56.5c-1.4,8.8,1.4,12.3,11,11.7c8.2-0.5,14.8-0.2,12.9-11.6
		c-3.7-21.9,4.3-40.4,16.5-58c8.1-11.6,14.8-24.2,22.2-36.5C896.1,519.9,883.8,523.7,876.7,541.3z"/>
	<path class="st0" d="M335.2,62C198,60.5,85,172.1,83.8,310.1c-1.2,139.1,110.2,252.3,249.5,253.3
		c130.9,1.7,251.5-104.9,251.5-249.2C584.7,173.9,477.2,63.6,335.2,62z M321,516.9C212.7,510.8,124.6,412,130,302.5
		c5.4-110.6,102.8-199.7,212.6-194.4c116.6,5.6,201.7,99.9,196.2,217.3C533.6,436.5,434.8,523.3,321,516.9z"/>
	<path class="st0" d="M1245.6,53.6c-101-0.8-183,81.7-186.6,181.2c-3.6,98.8,82.1,191.4,184.6,191.1c104-0.3,186.7-80.8,187.1-184.5
		C1431.1,135.6,1351.1,54.4,1245.6,53.6z M1372.3,323.3c-51.4,78.2-162.9,91.1-230.6,26c-42.4-40.8-57.1-90-43.5-147.6
		c2-8.6,4.7-10.9,12.8-6.3c6.4,3.7,13.3,6.8,20.3,9c11.4,3.4,18,9.2,15.2,22.1c-1.7,8.1,3.2,9,9.5,8.3c5.3-0.6,8.2,0.8,8,7.2
		c-0.1,6.2-3.1,7.9-8.3,7.2c-12.1-1.8-8.3,6.9-9.3,13.1c-1.5,9.5,4.3,9.5,10.6,8.8c7.4-0.9,9.6,2.5,11.7,9.4
		c16.9,55.8,77.3,82.5,131.5,59.2c7.1-3,8.9-6.4,7.1-13.3c-2.2-8.1-3.8-16.3-6-25.8c-17.2,6.3-33.3,10.5-50.6,6.1
		c-13.7-3.5-24.2-10.7-30.7-23.6c-4.1-8.1-4-11.6,7.2-12.3c34.7-2,67.8,1.7,98.6,19.6c13.1,7.7,27.7,13.1,42,18.6
		C1376.5,312.1,1377.6,315.2,1372.3,323.3z M1394.3,268c-1.7,9.3-4.1,10.1-12.1,6.4c-25.5-11.7-51.3-23.2-77.2-34
		c-8.6-3.6-12.8-8.3-11.1-17.7c1.6-9.1-2.2-11.5-11.4-11.8c-18-0.6-36.4,4.1-54.1-4.5c-7.9-3.9-8.3-6.6-3.2-12.7
		c16.2-19.3,37.2-22,59.3-15c12.1,3.9,15.8,1.9,18.4-10.4c5-24,5.3-24.9-19.2-28.7c-41.3-6.4-76.8,3-101.8,39
		c-3.5,5.1-6.3,4.3-10.7,2.3c-14.3-6.6-28.6-13.4-43.3-19.1c-9.2-3.5-8.2-6.9-3.1-13.5c29.3-38.7,71.8-60.1,120.2-60.2
		C1340.5,88.2,1411.9,174.3,1394.3,268z"/>
	<path class="st0" d="M1662.3,53.6c-103.1-0.1-185.8,82.9-185.8,186.5c0,102.3,82.7,185.2,185.1,185.6
		c103.9,0.4,186.3-81.1,187-184.9C1849.2,136.4,1766.8,53.6,1662.3,53.6z M1662.6,391c-82.4,0-151.9-68.8-152.3-150.7
		c-0.4-82,69.8-152,152.5-151.9c84.6,0,151.5,67.4,151.2,152.2C1813.5,324,1746.1,391,1662.6,391z"/>
	<path class="st0" d="M827.6,53.7C724.2,53.4,642,136.5,642.1,240.2c0.1,102.4,82.5,185,185,185.5c104,0.5,185.9-81,185.9-185
		C1018,150.1,943.4,53.9,827.6,53.7z M827.7,391c-82.8-0.1-151.5-68.5-151.5-151c0-83.6,68.5-151.9,152.2-151.7
		c84.5,0.2,150.9,67.3,150.9,152.3C979.3,323.7,911.4,391.1,827.7,391z"/>
	<path class="st0" d="M760.2,582.9c-9.3-0.3-18.6-2.9-17.7,13c0.7,11.9,3,17.3,15.6,15.5c10.5-1.6,25.4,3.8,25.8-13.9
		C784.3,581,770.8,583.4,760.2,582.9z"/>
	<path class="st0" d="M757,566.7c3.6,0,6.1,0.2,8.6,0c8-0.7,15-3.3,14.6-12.9c-0.4-8.9-7.2-10.9-14.6-11.1
		c-4.4-0.2-8.9,0.3-13.3-0.1c-7-0.6-9.1,2.2-9.6,9.2C741.9,563.7,745.1,569.9,757,566.7z"/>
	<path class="st0" d="M1688.5,544.5c-10.1,3.8-2.9,13.7-4.5,20.6c-0.9,3.7-0.2,7.9-0.2,11.8c0,7.9,0.4,15.8-0.1,23.7
		c-0.5,7.1,1.9,9.5,9.1,9.3c11.9-0.3,24.4,1.3,31.8-10.9c8-13.3,7.5-27.5,1.3-41.1C1720.5,545.9,1702.7,539.2,1688.5,544.5z"/>
	<path class="st1" d="M342.5,108.1c-109.8-5.3-207.1,83.7-212.6,194.4c-5.4,109.5,82.7,208.3,191,214.4
		c113.8,6.4,212.6-80.5,217.8-191.4C544.2,208,459.1,113.8,342.5,108.1z M319.3,369.7c-21.2,22-59.8,27.8-89.5,13.5
		c-26.8-13-42.1-46-37.9-80.6c3.9-31.9,19.1-55.5,50.7-64.4c30.5-8.6,58.8-3.6,81.3,21.3c7.8,8.6,8,14.5-3.9,18.7
		c-5.1,1.8-9.9,4.5-14.6,7.2c-4.4,2.5-7.4,3.4-10.7-2.1c-8.2-13.7-20.5-18-35.6-13c-14.9,4.9-19.3,17.2-20.7,31.2
		c-0.3,3.4-0.1,6.9-0.1,10.4c-0.3,0-0.5,0-0.8,0.1c0.7,6.9,0.7,13.9,2.4,20.5c2.9,11.8,9.8,20.6,22.3,23.4
		c12.5,2.7,25.3,0.6,31.9-10.4c6.8-11.3,12.4-8.3,20.8-3.7C335.1,352.9,335.3,353.1,319.3,369.7z M387.2,341.1
		c9.1,19.2,39,22.2,50.9,4.2c7.3-11,12.6-8.7,20.8-3.6c5.4,3.4,11.2,6.2,18,9.8c-21.6,35.7-59,48.8-96.4,34.2
		c-33.9-13.1-51.2-51.5-42.2-93c6.2-28.6,22.3-48.4,51.2-55.3c30.4-7.3,57.9-1.9,79.6,22.9c6.6,7.6,8.2,13.2-3.5,16.6
		c-2.3,0.7-4.6,1.8-6.6,3.3c-9.6,7-16.5,9.9-25.7-3c-10.8-15.1-36.6-11.4-45.2,5.2C378.2,301.5,378,321.9,387.2,341.1z"/>
	<path class="st1" d="M1244.9,88.3c-48.5,0-90.9,21.5-120.2,60.2c-5,6.6-6,10,3.1,13.5c14.7,5.6,29,12.5,43.3,19.1
		c4.4,2,7.2,2.8,10.7-2.3c25-36,60.5-45.4,101.8-39c24.6,3.8,24.2,4.7,19.2,28.7c-2.6,12.4-6.3,14.3-18.4,10.4
		c-22.1-7-43.1-4.3-59.3,15c-5.1,6.1-4.7,8.8,3.2,12.7c17.7,8.6,36.1,3.9,54.1,4.5c9.2,0.3,13,2.7,11.4,11.8
		c-1.6,9.3,2.5,14.1,11.1,17.7c26,10.8,51.7,22.2,77.2,34c8,3.7,10.4,2.9,12.1-6.4C1411.9,174.3,1340.5,88.2,1244.9,88.3z"/>
	<path class="st1" d="M1367.7,308.8c-14.3-5.4-28.8-10.9-42-18.6c-30.8-18-63.9-21.7-98.6-19.6c-11.2,0.7-11.3,4.1-7.2,12.3
		c6.5,12.9,17,20.1,30.7,23.6c17.2,4.4,33.3,0.2,50.6-6.1c2.2,9.5,3.9,17.7,6,25.8c1.8,6.9,0,10.3-7.1,13.3
		c-54.2,23.3-114.6-3.4-131.5-59.2c-2.1-6.9-4.3-10.3-11.7-9.4c-6.3,0.7-12.1,0.8-10.6-8.8c1-6.1-2.8-14.9,9.3-13.1
		c5.2,0.8,8.2-0.9,8.3-7.2c0.2-6.4-2.8-7.7-8-7.2c-6.2,0.7-11.2-0.2-9.5-8.3c2.7-12.9-3.9-18.7-15.2-22.1c-7.1-2.1-13.9-5.3-20.3-9
		c-8.1-4.6-10.7-2.3-12.8,6.3c-13.6,57.6,1.1,106.8,43.5,147.6c67.7,65.1,179.2,52.3,230.6-26
		C1377.6,315.2,1376.5,312.1,1367.7,308.8z"/>
	<path class="st1" d="M1662.7,88.3c-82.7,0-152.9,70-152.5,151.9c0.4,82,69.9,150.7,152.3,150.7c83.6,0,151-67,151.3-150.5
		C1814.2,155.7,1747.3,88.3,1662.7,88.3z M1618.7,195.4c16.3,0,32.6,0,48.9,0c18.3,0,36.6,0.4,54.8-0.2c8.2-0.3,11.8,1.8,10.7,10.5
		c-0.6,4.4-0.5,8.9,0,13.3c0.7,7-1.7,9.4-9,9.3c-39-0.3-78.1-0.4-117.1,0c-8.6,0.1-9.4-3.7-9.6-10.6
		C1596.8,195.4,1596.6,195.4,1618.7,195.4z M1713,287.7c-15.8,0-31.7,0-47.5,0c-19.3,0-38.6-0.3-57.9,0.2c-7.8,0.2-10-2.3-10.2-10
		c-0.6-22.4-1-22.4,21.2-22.4c34.2,0,68.3,0.4,102.5-0.2c9.6-0.2,12.5,2.2,12.2,12.1C1732.6,287.7,1733.2,287.7,1713,287.7z"/>
	<path class="st1" d="M828.4,88.3c-83.7-0.2-152.2,68.1-152.2,151.7c0,82.5,68.7,150.9,151.5,151c83.7,0.1,151.6-67.2,151.6-150.3
		C979.4,155.6,912.9,88.5,828.4,88.3z M828.5,120c14.8,0.3,26.2,12.2,25.8,26.7c-0.4,14.4-12.5,25.7-27.2,25.4
		c-14.6-0.3-26.1-12.3-25.8-26.8C801.7,130.7,813.5,119.7,828.5,120z M867.3,270.3c-9.2-1.6-10.3,3.2-10.1,10.9
		c0.4,22.8-0.2,45.6,0.3,68.4c0.2,7.7-1.8,10.5-9.9,10.1c-12.9-0.6-25.8-0.7-38.7,0c-9,0.5-10.7-3.2-10.3-11.1
		c0.6-11.4,0.1-22.8,0.1-34.2c0-10.9-0.6-21.9,0.2-32.7c0.6-8.8-1.5-13.3-11.1-11.5c-8.5,1.6-10.8-2.1-10.6-10.5
		c0.6-20.3,0.5-40.7,0.1-61c-0.3-11.7,4.2-17.6,16.4-17.4c22.8,0.3,45.6,0.3,68.4,0c11.4-0.1,16.2,5,16.1,16.2
		c-0.2,20.8-0.5,41.7,0.2,62.5C878.6,269.1,875.3,271.7,867.3,270.3z"/>
	<path class="st0" d="M314.9,341.8c-8.5-4.6-14.1-7.6-20.8,3.7c-6.6,11-19.4,13.1-31.9,10.4c-12.5-2.7-19.4-11.6-22.3-23.4
		c-1.6-6.6-1.6-13.7-2.4-20.5c0.3,0,0.5,0,0.8-0.1c0-3.5-0.3-7,0.1-10.4c1.4-14,5.9-26.3,20.7-31.2c15.1-5,27.4-0.7,35.6,13
		c3.3,5.5,6.4,4.6,10.7,2.1c4.7-2.7,9.5-5.4,14.6-7.2c11.9-4.3,11.7-10.2,3.9-18.7c-22.6-24.9-50.9-29.9-81.3-21.3
		c-31.5,8.9-46.8,32.5-50.7,64.4c-4.2,34.7,11,67.7,37.9,80.6c29.7,14.3,68.2,8.5,89.5-13.5C335.3,353.1,335.1,352.9,314.9,341.8z"
		/>
	<path class="st0" d="M433.3,277.3c9.2,12.9,16.1,10,25.7,3c2-1.4,4.3-2.6,6.6-3.3c11.7-3.4,10.1-9.1,3.5-16.6
		c-21.7-24.8-49.1-30.2-79.6-22.9c-28.9,6.9-45,26.8-51.2,55.3c-9,41.4,8.3,79.8,42.2,93c37.4,14.5,74.7,1.5,96.4-34.2
		c-6.7-3.7-12.5-6.4-18-9.8c-8.2-5.1-13.4-7.3-20.8,3.6c-12,17.9-41.8,15-50.9-4.2c-9.2-19.3-9-39.6,0.8-58.6
		C396.7,265.9,422.5,262.2,433.3,277.3z"/>
	<path class="st0" d="M1721,255.3c-34.1,0.6-68.3,0.2-102.5,0.2c-22.2,0-21.8,0-21.2,22.4c0.2,7.7,2.4,10.2,10.2,10
		c19.3-0.5,38.6-0.2,57.9-0.2c15.8,0,31.7,0,47.5,0c20.2,0,19.6,0,20.2-20.4C1733.5,257.5,1730.6,255.1,1721,255.3z"/>
	<path class="st0" d="M1607,228.4c39-0.4,78.1-0.4,117.1,0c7.3,0.1,9.7-2.3,9-9.3c-0.4-4.4-0.6-8.9,0-13.3
		c1.2-8.6-2.5-10.7-10.7-10.5c-18.3,0.6-36.6,0.2-54.8,0.2c-16.3,0-32.6,0-48.9,0c-22.1,0-21.8,0-21.3,22.3
		C1597.6,224.7,1598.4,228.5,1607,228.4z"/>
	<path class="st0" d="M878.2,197.7c0.1-11.1-4.7-16.3-16.1-16.2c-22.8,0.3-45.6,0.3-68.4,0c-12.2-0.1-16.7,5.7-16.4,17.4
		c0.4,20.3,0.5,40.7-0.1,61c-0.2,8.3,2.1,12.1,10.6,10.5c9.6-1.8,11.8,2.7,11.1,11.5c-0.7,10.9-0.2,21.8-0.2,32.7
		c0,11.4,0.4,22.8-0.1,34.2c-0.4,7.9,1.3,11.7,10.3,11.1c12.8-0.7,25.8-0.7,38.7,0c8,0.4,10-2.4,9.9-10.1
		c-0.5-22.8,0.1-45.6-0.3-68.4c-0.1-7.7,1-12.5,10.1-10.9c8,1.4,11.4-1.3,11.1-10.2C877.7,239.3,878,218.5,878.2,197.7z"/>
	<path class="st0" d="M827.1,172.1c14.7,0.3,26.8-10.9,27.2-25.4c0.4-14.6-11-26.4-25.8-26.7c-15-0.3-26.9,10.6-27.2,25.3
		C800.9,159.8,812.5,171.8,827.1,172.1z"/>
</g>
<g id="CC_x5F_BY_x5F_NC" class="st3">
	<path class="st4" d="M1875.9,0C1265.2,0,654.6,0,43.9,0C12.8,0,0,12.9,0,44.4c0,202.4,0,404.8,0,607.2c0,20.6,0,20.7,20.2,20.7
		c313,0,626.1,0,939.1,0c313.5,0,627.1,0,940.6,0c20.1,0,20.1,0,20.1-19.4c0-202.9,0-405.8,0-608.7C1920,12.8,1907.2,0,1875.9,0z
		 M998.8,605c-2.6,14.8-13.1,21.9-26.7,24.1c-18.7,3.1-37.6,0.8-56.4,1.4c-5.7,0.2-6.3-3-6.3-7.5c0.1-30.8,0.2-61.5-0.1-92.3
		c0-6,2.3-7.6,7.9-7.5c15.9,0.3,31.8-0.3,47.6,0.4c11.6,0.5,22.9,3,27.6,16c4.6,12.7,1.3,23.3-9.9,32.5
		C996.5,579.8,1001.3,590.8,998.8,605z M1073.1,576.4c-10.5,14.6-7,30.3-7.2,45.7c-0.1,8-3.5,9.9-9.7,8.2c-5-1.3-16,5.3-14.1-6.2
		c6-35.3-16-59.6-31.7-86.5c-2.2-3.8-4.5-7.7-6.7-11.5c-0.2-0.3,0.2-0.9,0.4-1.6c16.5-4.3,29.2-1.5,35.9,16.5
		c2.9,7.6,8.4,14.2,13.7,23c5.2-8.4,10.6-14.8,13.5-22.3c6.7-17.6,18.8-22.1,37.1-16.7C1094.1,542.2,1084.8,560.1,1073.1,576.4z
		 M1445,630.1c-9,1.2-18.9,3.4-25.4-8.7c-10.5-19.5-23.2-37.9-37.8-56.4c0,18.3-0.4,36.6,0.2,54.9c0.3,8.3-1.9,11.4-10.5,10.8
		c-7.2-0.5-13.1,0.8-12.8-10.3c0.8-27.7,0.1-55.5,0.5-83.3c0.1-4.6-4-12.8,4.2-13.3c7.9-0.4,17.5-4.9,23.8,5.7
		c11.8,19.8,24.3,39.2,36.5,58.8c0.9-0.3,1.8-0.6,2.8-0.8c0-18.3,0.6-36.6-0.2-54.8c-0.5-10.4,5.3-9.4,12-9.5
		c6.7-0.1,12.1-1,11.8,9.4c-0.8,27.2,0.1,54.5-0.5,81.8C1449.3,619.7,1454.6,628.9,1445,630.1z M1560.3,604.3
		c-7.3,19.7-27.1,31-48.5,28.2c-26.8-3.4-44.1-20.8-47-47.2c-0.3-2.4,0-4.9,0-7.4c-0.5-41.2,32.6-66.8,69.8-54.1
		c9.6,3.3,17.9,8.8,22.6,18.1c2.6,5.3,9.5,13.4,3.2,16.3c-6,2.8-17,6.6-23-4.7c-4.8-9.1-13.3-13.1-23.6-12.1
		c-10.9,1.1-18.2,7.6-21.9,17.5c-5.1,13.5-5.1,27.2,2.2,40.1c5.4,9.6,13.9,13.7,24.7,13.1c10-0.6,17.3-5.9,19.7-15.3
		c3.6-14.3,15.1-8.6,21.6-7.2C1567.4,591.4,1562.1,599.4,1560.3,604.3z M1902.6,450.4c0,19.9,0,19.9-19.3,19.9
		c-427.6,0-855.3,0.1-1282.9-0.3c-12.3,0-19.2,3.3-25.9,14c-113.6,179.8-370.4,178-482.3-3.2c-5.2-8.4-10.7-11.2-20.1-10.7
		c-15.3,0.7-30.8,0-46.1,0.3c-6.3,0.1-9.4-1.8-8.6-8.4c0.1-1,0-2,0-3c0-139.9,0-279.8,0.1-419.7c0-15.3,6.5-21.6,21.5-22.4
		c4.5-0.2,8.9-0.1,13.4-0.1c302.6,0,605.2,0,907.8,0c303.1,0,606.2,0,909.3,0c30,0,33.2,3.2,33.2,33.2
		C1902.6,183.5,1902.6,316.9,1902.6,450.4z"/>
	<path class="st5" d="M1869.4,16.9c-303.1,0-606.2,0-909.3,0c-302.6,0-605.2,0-907.8,0c-4.5,0-8.9-0.2-13.4,0.1
		c-15,0.8-21.4,7.2-21.5,22.4c-0.1,139.9-0.1,279.8-0.1,419.7c0,1,0.1,2,0,3c-0.8,6.6,2.3,8.5,8.6,8.4c15.4-0.3,30.8,0.4,46.1-0.3
		c9.4-0.5,14.9,2.3,20.1,10.7c111.8,181.2,368.7,183,482.3,3.2c6.7-10.7,13.6-14,25.9-14c427.6,0.4,855.3,0.3,1282.9,0.3
		c19.3,0,19.3,0,19.3-19.9c0-133.4,0-266.9,0-400.3C1902.6,20,1899.5,16.9,1869.4,16.9z M323.8,563.5
		c-129.2-5.1-241.6-119.7-240-252.8C85.6,171.2,197.7,60.7,336.2,62C477,63.3,585.9,173.5,584.8,313.4
		C586.5,465.8,453.5,568.6,323.8,563.5z M1013.6,425.6c-102.7,0.1-186.4-83.6-186.1-186.3C827.8,136.3,911.4,53,1014,53.6
		c104.3,0.6,185.5,82.1,185.6,186.2C1199.7,343.6,1117.6,425.6,1013.6,425.6z M1467.3,425.6c-103-0.2-184.9-83.1-184.8-187
		c0.1-102.8,82.4-185.2,185.1-185.1c105.1,0,185.9,81.3,185.9,187C1653.4,344.5,1571.7,425.8,1467.3,425.6z"/>
	<path class="st5" d="M982.5,572.2c11.2-9.2,14.5-19.8,9.9-32.5c-4.7-13-16-15.5-27.6-16c-15.8-0.7-31.7-0.1-47.6-0.4
		c-5.6-0.1-7.9,1.5-7.9,7.5c0.2,30.8,0.1,61.5,0.1,92.3c0,4.5,0.6,7.7,6.3,7.5c18.8-0.7,37.8,1.7,56.4-1.4
		c13.6-2.3,24.1-9.3,26.7-24.1C1001.3,590.8,996.5,579.8,982.5,572.2z M946.4,542.6c9.4,1.4,23.5-4.3,24,11.9
		c0.4,14-12.1,11.2-20.9,12.2c-9,0.8-16.4,1.5-15.8-12.1C934.1,544.6,936.9,541.2,946.4,542.6z M958.6,611.2c-2.5,0.1-4.9,0-7.4,0
		c-15.6,0.1-22.5-10.3-17-25c1.5-4.1,4.3-3.3,7-3.3c5.9-0.1,11.9-0.2,17.8,0c9.7,0.3,16.1,4.4,15.9,15.2
		C974.6,608.8,967.1,610.8,958.6,611.2z"/>
	<path class="st5" d="M1449.9,532.7c0.3-10.3-5.1-9.4-11.8-9.4c-6.7,0.1-12.5-1-12,9.5c0.9,18.2,0.2,36.5,0.2,54.8
		c-0.9,0.3-1.8,0.6-2.8,0.8c-12.2-19.6-24.8-39-36.5-58.8c-6.3-10.6-15.9-6.1-23.8-5.7c-8.2,0.4-4.1,8.7-4.2,13.3
		c-0.4,27.8,0.3,55.5-0.5,83.3c-0.3,11.1,5.6,9.8,12.8,10.3c8.6,0.6,10.8-2.5,10.5-10.8c-0.6-18.3-0.2-36.6-0.2-54.9
		c14.7,18.5,27.3,36.9,37.8,56.4c6.5,12.1,16.4,9.9,25.4,8.7c9.6-1.3,4.3-10.4,4.4-15.7C1450,587.2,1449.2,559.9,1449.9,532.7z"/>
	<path class="st5" d="M1560.1,589.7c-6.5-1.4-18-7.1-21.6,7.2c-2.4,9.4-9.7,14.7-19.7,15.3c-10.8,0.6-19.3-3.5-24.7-13.1
		c-7.3-13-7.3-26.6-2.2-40.1c3.7-9.9,11-16.4,21.9-17.5c10.3-1.1,18.8,3,23.6,12.1c6,11.3,17,7.5,23,4.7c6.3-2.9-0.5-11.1-3.2-16.3
		c-4.7-9.3-12.9-14.8-22.6-18.1c-37.2-12.7-70.3,13-69.8,54.1c0,2.5-0.2,5,0,7.4c2.9,26.4,20.2,43.8,47,47.2
		c21.4,2.7,41.1-8.6,48.5-28.2C1562.1,599.4,1567.4,591.4,1560.1,589.7z"/>
	<path class="st5" d="M1067.3,541.8c-2.8,7.5-8.3,13.9-13.5,22.3c-5.4-8.8-10.9-15.4-13.7-23c-6.8-18-19.5-20.9-35.9-16.5
		c-0.2,0.6-0.6,1.2-0.4,1.6c2.2,3.9,4.5,7.7,6.7,11.5c15.7,26.9,37.7,51.2,31.7,86.5c-2,11.5,9.1,4.9,14.1,6.2
		c6.2,1.6,9.6-0.2,9.7-8.2c0.2-15.4-3.3-31.1,7.2-45.7c11.7-16.3,21-34.2,31.3-51.4C1086.2,519.6,1074,524.1,1067.3,541.8z"/>
	<path class="st4" d="M336.2,62C197.7,60.7,85.6,171.2,83.8,310.7c-1.6,133.1,110.8,247.7,240,252.8c129.7,5.1,262.7-97.8,261-250.1
		C585.9,173.5,477,63.3,336.2,62z M333.4,517c-111,0-202.9-93.1-202.9-205.4c0-111.9,92.1-203.4,204.7-203.4
		c114.3,0,203.6,90,203.6,205.2C538.8,426.9,447.9,517,333.4,517z"/>
	<path class="st4" d="M1467.6,53.6c-102.6,0-185,82.3-185.1,185.1c-0.1,103.9,81.8,186.8,184.8,187
		c104.3,0.2,186.1-81.1,186.1-185.1C1653.5,134.9,1572.7,53.6,1467.6,53.6z M1596.1,321.7c-30.4,49.9-98.3,78.8-157.5,66.7
		c-60.5-12.4-111.6-65.1-120.3-123c-3.1-20.4-1.9-40.3,1.7-60.5c2.3-13.1,7.8-13.7,17.7-8c5.1,2.9,10.5,5.7,16.1,7.4
		c11,3.4,18.4,8.8,15.5,21.9c-1.7,7.7,2.6,9.4,9.2,8.6c5-0.6,8.5,0.3,8.3,6.9c-0.2,6-2.7,8.3-8.1,7.4c-11.9-2-8.7,6.5-9.6,12.8
		c-1.3,9,3.7,9.9,10.4,9c7.1-0.9,9.7,2,11.9,9.1c17.4,55.6,75.1,81.8,129.9,60.2c8-3.1,11.2-6.8,8.6-15.2c-2.3-7.5-2-16.9-6.7-22.2
		c-2.3-2.6-13,2.3-20,3.6c-26.9,5-48.8-2.7-58.9-20.6c-7-12.4-5.7-14.8,8.3-14.9c7.4,0,14.9,0,26.2,0c22.7-5.9,44.1,8.5,66.7,18
		c15.9,6.7,31.5,14.2,47.4,20.9C1599.8,312.7,1599.8,315.6,1596.1,321.7z M1619.3,240.3c0.5,10-1.1,19.3-2.2,28.6
		c-1.1,8.9-4.3,9-11.5,5.7c-26-11.9-52.2-23.5-78.6-34.5c-8.2-3.4-11.8-8.1-10.3-16.7c1.7-10-2.8-12.1-12.3-12.4
		c-17.5-0.5-35.4,3.7-52.7-4.2c-9.3-4.3-7.9-7.9-2.8-13.8c16.5-19.3,37.6-20.4,59.7-14c10.1,3,14.2,3.2,16.7-8.8
		c5.7-26.6,6.1-27.1-21.1-30.8c-40.3-5.5-74.6,4.2-99.1,38.8c-3.1,4.3-5.4,5.6-10.7,3.1c-14.6-7-29.5-13.7-44.6-19.8
		c-6.8-2.8-7.9-4.9-3.5-11.4c32.7-48.1,93.9-71.1,156.2-58.2c54.8,11.3,103.9,61.7,113.9,116.5
		C1618.5,219.1,1620.1,229.9,1619.3,240.3z"/>
	<path class="st4" d="M1014,53.6C911.4,53,827.8,136.3,827.5,239.4c-0.3,102.6,83.4,186.3,186.1,186.3c104-0.1,186-82,186-185.8
		C1199.6,135.7,1118.3,54.2,1014,53.6z M1013.9,391c-82.9,0-151.8-68.2-152.2-150.5c-0.4-83.1,68.5-152.1,152-152.2
		c84-0.1,152.1,68.1,151.7,151.9C1165,323.5,1097.2,391,1013.9,391z"/>
	<path class="st4" d="M959,583c-5.9-0.2-11.8-0.1-17.8,0c-2.7,0.1-5.5-0.7-7,3.3c-5.5,14.7,1.4,25,17,25c2.5,0,4.9,0.1,7.4,0
		c8.5-0.4,16-2.4,16.2-13C975.1,587.4,968.7,583.3,959,583z"/>
	<path class="st4" d="M949.4,566.7c8.8-0.9,21.4,1.8,20.9-12.2c-0.5-16.1-14.6-10.5-24-11.9c-9.5-1.4-12.3,2-12.7,12
		C933.1,568.1,940.4,567.5,949.4,566.7z"/>
	<path class="st5" d="M335.2,108.1c-112.6,0-204.7,91.4-204.7,203.4c0,112.3,91.9,205.4,202.9,205.4c114.5,0,205.4-90,205.4-203.6
		C538.8,198.1,449.5,108.2,335.2,108.1z M317.4,371.4c-23,21.9-50.6,23.7-78.9,14.8c-27.7-8.8-42-29.9-45.4-58.4
		c-7.7-64.9,37.7-106.5,98-89.8c15.4,4.3,27.2,13.5,36.7,26.3c3.8,5.1,3.9,8.5-2.5,11.2c-4.5,1.9-9,4.2-13.1,6.8
		c-8.2,5.3-13.6,6.7-20.9-3.6c-12.6-17.6-39.8-12.9-48.7,7c-3.9,8.7-5.1,18.1-4.3,27c-0.3,7.6,0.5,14.4,2.4,21.2
		c3.4,12.1,10.9,20,23.2,22.3c12.5,2.3,24.5-0.5,31.5-11.5c5.8-9,10.2-8.4,18.5-3.6C335.6,353.4,336,353.7,317.4,371.4z
		 M462.7,371.1c-24.5,22.4-53.4,25-83.1,13.7c-32-12.2-42.2-39.5-43.1-70.8c0.4-31.4,10.3-57.7,39.5-71.7
		c27.8-13.2,55.7-10.9,81.7,6.5c2.1,1.4,4,2.9,5.8,4.6c15.4,14.6,14.8,16.8-3.6,26.6c-10.3,5.5-17.4,10-27.2-3.5
		c-11.1-15.2-36.3-10.7-44.8,6.6c-9.6,19.2-9.5,39.6,0.1,58.7c9.1,18.3,38.5,20.8,50.2,3.7c7.1-10.3,11.9-8.9,20.6-4.2
		C480,352.8,480.8,354.6,462.7,371.1z"/>
	<path class="st5" d="M1502.6,91.9c-62.3-12.9-123.5,10.1-156.2,58.2c-4.4,6.5-3.4,8.6,3.5,11.4c15.1,6.1,29.9,12.8,44.6,19.8
		c5.2,2.5,7.6,1.3,10.7-3.1c24.5-34.7,58.8-44.4,99.1-38.8c27.2,3.7,26.7,4.2,21.1,30.8c-2.5,12-6.6,11.8-16.7,8.8
		c-22-6.5-43.2-5.3-59.7,14c-5.1,6-6.5,9.6,2.8,13.8c17.3,7.9,35.1,3.8,52.7,4.2c9.5,0.3,14,2.4,12.3,12.4
		c-1.5,8.6,2.1,13.3,10.3,16.7c26.4,11,52.6,22.6,78.6,34.5c7.2,3.3,10.4,3.3,11.5-5.7c1.1-9.3,2.7-18.6,2.2-28.6
		c0.8-10.4-0.8-21.2-2.8-31.9C1606.5,153.5,1557.3,103.2,1502.6,91.9z"/>
	<path class="st5" d="M1592.8,309.8c-15.9-6.6-31.5-14.1-47.4-20.9c-22.6-9.5-44-23.9-66.7-18c-11.3,0-18.7,0-26.2,0
		c-13.9,0.1-15.3,2.5-8.3,14.9c10.1,17.8,32.1,25.5,58.9,20.6c7-1.3,17.7-6.2,20-3.6c4.6,5.3,4.4,14.7,6.7,22.2
		c2.6,8.4-0.6,12.1-8.6,15.2c-54.8,21.6-112.4-4.6-129.9-60.2c-2.2-7.1-4.8-10-11.9-9.1c-6.7,0.8-11.7,0-10.4-9
		c0.9-6.3-2.3-14.8,9.6-12.8c5.4,0.9,7.9-1.4,8.1-7.4c0.2-6.6-3.3-7.5-8.3-6.9c-6.7,0.8-10.9-0.8-9.2-8.6
		c2.9-13.1-4.4-18.5-15.5-21.9c-5.6-1.7-11-4.5-16.1-7.4c-9.9-5.7-15.3-5.1-17.7,8c-3.6,20.2-4.8,40.1-1.7,60.5
		c8.7,58,59.8,110.6,120.3,123c59.1,12.1,127-16.8,157.5-66.7C1599.8,315.6,1599.8,312.7,1592.8,309.8z"/>
	<path class="st5" d="M1013.7,88.3c-83.5,0.1-152.4,69.1-152,152.2c0.4,82.3,69.3,150.4,152.2,150.5c83.2,0,151.1-67.5,151.5-150.7
		C1165.8,156.4,1097.7,88.2,1013.7,88.3z M1014.2,120.1c15.2,0.3,25.5,11.2,25.1,26.7c-0.3,15.3-11.2,25.7-26.6,25.3
		c-15.3-0.3-25.2-11-25-26.8C988,130.1,998.8,119.7,1014.2,120.1z M1053.4,270.4c-9.5-1.7-11.5,2.6-11.3,11.5
		c0.6,22.3-0.3,44.6,0.5,66.8c0.4,9.6-2.8,11.9-11.7,11.1c-15.1-1.4-35.5,6.3-44-3.2c-7.3-8.2-1.5-28.2-1.5-43c-0.2,0-0.4,0-0.6,0
		c0-7.4,0.1-14.9,0-22.3c-0.2-11.1,4-25.4-16.4-21.2c-6.1,1.3-5.3-4.2-5.3-8c0-21.3,0-42.6,0-63.9c0-11.4,4.8-17.2,17.1-16.9
		c22.3,0.5,44.6,0.3,66.8,0.1c10.7-0.1,16.7,3.4,16.4,15.4c-0.5,21.3-0.5,42.6,0,63.9C1063.6,268.7,1061,271.7,1053.4,270.4z"/>
	<path class="st4" d="M313.8,340.9c-8.3-4.7-12.7-5.4-18.5,3.6c-7,11-19,13.9-31.5,11.5c-12.3-2.3-19.7-10.2-23.2-22.3
		c-1.9-6.8-2.7-13.6-2.4-21.2c-0.8-8.9,0.4-18.2,4.3-27c8.9-19.9,36.1-24.6,48.7-7c7.4,10.3,12.7,8.9,20.9,3.6
		c4.1-2.7,8.6-4.9,13.1-6.8c6.4-2.7,6.3-6.1,2.5-11.2c-9.4-12.7-21.3-22-36.7-26.3c-60.3-16.7-105.8,24.9-98,89.8
		c3.4,28.5,17.7,49.7,45.4,58.4c28.3,9,55.9,7.2,78.9-14.8C336,353.7,335.6,353.4,313.8,340.9z"/>
	<path class="st4" d="M458.7,341.4c-8.7-4.6-13.5-6.1-20.6,4.2c-11.8,17.2-41.2,14.6-50.2-3.7c-9.5-19.1-9.6-39.5-0.1-58.7
		c8.6-17.3,33.8-21.8,44.8-6.6c9.8,13.5,16.9,9,27.2,3.5c18.4-9.8,19-12,3.6-26.6c-1.8-1.7-3.7-3.3-5.8-4.6
		c-26-17.4-53.9-19.7-81.7-6.5c-29.2,13.9-39.1,40.2-39.5,71.7c0.9,31.3,11.2,58.5,43.1,70.8c29.6,11.3,58.6,8.8,83.1-13.7
		C480.8,354.6,480,352.8,458.7,341.4z"/>
	<path class="st4" d="M1063.3,196.9c0.3-12-5.7-15.5-16.4-15.4c-22.3,0.2-44.6,0.4-66.8-0.1c-12.3-0.3-17.1,5.5-17.1,16.9
		c0,21.3,0,42.6,0,63.9c0,3.8-0.8,9.2,5.3,8c20.4-4.2,16.3,10.1,16.4,21.2c0.1,7.4,0,14.9,0,22.3c0.2,0,0.4,0,0.6,0
		c0,14.8-5.8,34.8,1.5,43c8.5,9.5,28.9,1.8,44,3.2c8.8,0.8,12-1.5,11.7-11.1c-0.8-22.2,0.2-44.6-0.5-66.8
		c-0.3-8.9,1.8-13.2,11.3-11.5c7.6,1.3,10.2-1.7,10-9.6C1062.8,239.5,1062.8,218.2,1063.3,196.9z"/>
	<path class="st4" d="M1012.8,172.1c15.4,0.3,26.3-10.1,26.6-25.3c0.3-15.5-9.9-26.4-25.1-26.7c-15.4-0.3-26.2,10-26.5,25.3
		C987.5,161.1,997.5,171.8,1012.8,172.1z"/>
</g>
</svg>
