<?xml version="1.0" encoding="utf-8"?>
<!-- Generator: Adobe Illustrator 20.1.0, SVG Export Plug-In . SVG Version: 6.00 Build 0)  -->
<svg version="1.1" xmlns="http://www.w3.org/2000/svg" xmlns:xlink="http://www.w3.org/1999/xlink" x="0px" y="0px" width="1920px"
	 height="672.2px" viewBox="0 0 1920 672.2" style="enable-background:new 0 0 1920 672.2;" xml:space="preserve">
<style type="text/css">
	.st0{display:none;}
	.st1{display:inline;fill:#010101;}
	.st2{display:inline;fill:#ABB2AB;}
	.st3{display:inline;fill:#FFFFFF;}
	.st4{display:inline;fill:#FDFEFF;}
	.st5{display:inline;fill:#060606;}
	.st6{display:inline;fill:#0C0C0C;}
	.st7{display:inline;fill:#020202;}
	.st8{fill:#010101;}
	.st9{fill:#ABB2AB;}
	.st10{fill:#FFFFFF;}
	.st11{fill:#030303;}
	.st12{fill:#0B0B0B;}
	.st13{fill:#0F0F0F;}
</style>
<g id="Grid">
</g>
<g id="Layer_1" class="st0">
	<path class="st1" d="M20.9,672.2c312.5,0,625,0,937.5,0c314,0,627.9,0,941.9,0c19.4,0,19.7-0.2,19.7-20.1c0-202.4,0-404.7,0-607.1
		c0-32.5-12.5-45-44.7-45C1265.2,0,655.1,0,45,0C12.7,0,0,12.5,0,44.8c0,202.4,0,404.7,0,607.1C0,672.2,0.1,672.2,20.9,672.2z
		 M1219.2,606.2c-3,14.6-13.9,20.8-27.5,23c-18.2,2.9-36.5,0.6-54.8,1.4c-6.6,0.3-6.9-3.8-6.8-8.6c0.1-29.7,0.2-59.3-0.1-89
		c-0.1-7.1,2.1-9.5,9.2-9.2c13.8,0.5,27.7,0.3,41.5,0.1c12.8-0.2,25.6,0.8,31.8,13.9c6.2,13,3.1,25-9.3,34.3
		C1218.3,580,1222.1,591.9,1219.2,606.2z M1301.6,564.1c-11.5,16-17.2,33-14.7,52.6c1.2,9,0,14.6-12,14.3
		c-10.5-0.3-14.5-3.2-12.9-13.5c3.3-20.8-3.7-38.6-15.6-55.4c-8.1-11.6-14.6-24.3-22-36.7c18-5.2,30.3-1.2,37,16.5
		c2.8,7.3,8,13.6,12.5,21.2c6.3-5.3,10-12.3,12.8-19.2c7.1-17,18.4-24.7,38.1-18.5C1317.3,538.3,1310.4,551.9,1301.6,564.1z
		 M16.8,309c0-87.3,0-174.6,0-261.9c0-24.6,5.1-29.8,29.2-29.8c305.1,0,610.1,0,915.2,0c304.1,0,608.1,0,912.2,0
		c24.5,0,29.7,5.1,29.7,29.3c0,135.9-0.2,271.8,0.4,407.7c0.1,14.5-3.7,17.9-18,17.9c-429.6-0.4-859.1-0.3-1288.7-0.6
		c-13.5,0-20.7,4.2-28,15.7C457.5,663,201.9,662.2,90.5,486c-6.6-10.4-13.2-15.6-25.9-14.3c-11.8,1.3-23.8-0.3-35.7,0.4
		c-10,0.6-12.4-3.2-12.3-12.8C17.1,409.2,16.8,359.1,16.8,309z"/>
	<path class="st2" d="M29,472.1c11.9-0.7,23.9,0.8,35.7-0.4c12.7-1.3,19.3,3.9,25.9,14.3c111.4,176.3,367,177,478.4,1.3
		c7.2-11.4,14.4-15.7,28-15.7c429.6,0.4,859.1,0.2,1288.7,0.6c14.3,0,18-3.4,18-17.9c-0.6-135.9-0.4-271.8-0.4-407.7
		c0-24.2-5.2-29.3-29.7-29.3c-304.1,0-608.1,0-912.2,0c-305.1,0-610.1,0-915.2,0c-24.2,0-29.2,5.2-29.2,29.8c0,87.3,0,174.6,0,261.9
		c0,50.1,0.2,100.2-0.2,150.3C16.5,468.9,19,472.7,29,472.1z M1219.8,54.1c105.4,0,186.4,81.1,186.2,186.6
		c-0.1,103.5-82.7,185.2-186.8,185c-102.2-0.2-184.8-83.2-184.9-185.6C1034.4,135.7,1115.8,54.1,1219.8,54.1z M329.9,63
		C471,63,580.3,172.4,580.3,313.9c0,140.4-109.4,248.2-249.6,250.5C196.8,566.7,76.8,447,79.8,310.9C82.9,173.8,191.9,63,329.9,63z"
		/>
	<path class="st3" d="M1203.3,572.1c12.3-9.3,15.5-21.3,9.3-34.3c-6.3-13.1-19-14.1-31.8-13.9c-13.8,0.2-27.7,0.4-41.5-0.1
		c-7.1-0.2-9.3,2.1-9.2,9.2c0.4,29.7,0.2,59.3,0.1,89c0,4.9,0.2,8.9,6.8,8.6c18.2-0.8,36.6,1.6,54.8-1.4c13.6-2.2,24.5-8.3,27.5-23
		C1222.1,591.9,1218.3,580,1203.3,572.1z M1168.6,542.1c9.4,1,22.3-2.5,22.8,12.1c0.4,14.1-11.9,11.4-20.8,11.9
		c-8.5,0.4-16.5,2.3-16.1-11.7C1154.7,543,1159.1,541.1,1168.6,542.1z M1179.9,610.7c-2.5,0-4.9,0-7.4,0c-17.5,0-21.6-5.5-17.7-22.7
		c1.1-4.6,3.4-5.2,7.2-5.2c6.4,0.1,12.8,0,19.1,0.4c9.1,0.5,14.8,4.4,14.6,14.5C1195.5,608.4,1188.7,610.7,1179.9,610.7z"/>
	<path class="st4" d="M1286.9,543.9c-2.9,6.9-6.6,13.8-12.8,19.2c-4.6-7.6-9.8-13.9-12.5-21.2c-6.7-17.7-19-21.7-37-16.5
		c7.4,12.4,13.9,25.1,22,36.7c11.9,16.8,18.8,34.6,15.6,55.4c-1.6,10.2,2.3,13.2,12.9,13.5c12,0.3,13.2-5.3,12-14.3
		c-2.5-19.6,3.1-36.6,14.7-52.6c8.8-12.2,15.7-25.8,23.4-38.7C1305.2,519.2,1294,526.9,1286.9,543.9z"/>
	<path class="st1" d="M330.7,564.5c140.2-2.3,249.6-110.1,249.6-250.5C580.3,172.4,471,63,329.9,63c-137.9,0-247,110.8-250,247.9
		C76.8,447,196.8,566.7,330.7,564.5z M331.5,109.6c113.7,0,202.8,89.4,203.3,203.9C535.3,426.8,443.9,518,330,518
		c-111.8-0.1-203-92.7-204.3-204.4C124.4,209.1,218.7,104.6,331.5,109.6z"/>
	<path class="st1" d="M1219.3,425.7c104.1,0.2,186.6-81.5,186.8-185c0.1-105.5-80.8-186.6-186.2-186.6c-104,0-185.4,81.7-185.4,186
		C1034.4,342.5,1117.1,425.4,1219.3,425.7z M1220.1,88.1c84.5,0.1,151.4,67.5,151.2,152.4c-0.2,84.4-66.5,150-151.6,149.9
		c-83.7,0-151.2-67.5-151.1-151.1C1068.7,156.4,1137.2,88,1220.1,88.1z"/>
	<path class="st5" d="M1181.1,583.3c-6.4-0.3-12.7-0.2-19.1-0.4c-3.7-0.1-6.1,0.5-7.2,5.2c-3.9,17.2,0.2,22.7,17.7,22.7
		c2.5,0,4.9,0,7.4,0c8.8,0,15.5-2.3,15.8-12.9C1195.9,587.7,1190.2,583.8,1181.1,583.3z"/>
	<path class="st6" d="M1170.5,566.1c9-0.5,21.3,2.2,20.8-11.9c-0.4-14.6-13.4-11.1-22.8-12.1c-9.4-1-13.8,0.9-14.2,12.3
		C1154,568.4,1162,566.5,1170.5,566.1z"/>
	<path class="st3" d="M330,518c113.9,0.1,205.2-91.1,204.8-204.5c-0.4-114.5-89.5-203.9-203.3-203.9
		c-112.9-5.1-207.1,99.5-205.9,203.9C127,425.3,218.2,517.9,330,518z M361.3,249.8c24.5-18,51.7-18.1,79.1-7.4
		c14.2,5.5,24.8,15.9,31.6,30.4c-4.6,2.4-9,4.6-13.3,7c-11,6.1-19.7,12.2-31.1-3c-11.2-14.9-37.6-7.7-45.3,10.4
		c-7.3,17.1-7.4,34.9-0.4,52.1c8.7,21.3,39.1,26.2,52.2,7.3c7.4-10.6,12.5-8.5,20.9-3.9c20,10.9,20.7,13.2,4.1,29.1
		c-23.3,22.3-51.3,24.6-80.3,15.4c-29.4-9.3-42.8-32.4-45.7-61.7C330.1,295.8,335.8,268.5,361.3,249.8z M218.4,248.6
		c25.5-17.9,65.8-17.3,90.7,1.5c7.5,5.7,19,14.1,16.4,21.1c-3.6,9.8-18.1,11.7-27.9,17c-4.4,2.4-5.6-2.7-7.4-5.3
		c-7.9-11.7-18.7-15.3-32.2-12.5c-13.5,2.9-19.4,12.6-22.3,24.9c-3.3,13.7-2.9,27.5,1.3,41c3.3,10.6,10.2,18.3,21.4,20.4
		c12.3,2.3,25,1,31.9-10.3c6.4-10.4,11.5-9.1,20.5-4c20.8,11.9,20.9,11.2,4,28.7c-14.4,14.9-32.1,20.7-52.3,20.3
		c-35,0-60.5-16.9-70.1-46.4C180,307.8,190.8,267.9,218.4,248.6z"/>
	<path class="st3" d="M1219.7,390.4c85.1,0,151.4-65.5,151.6-149.9c0.2-84.9-66.7-152.4-151.2-152.4
		c-82.9-0.1-151.4,68.4-151.5,151.3C1068.6,322.9,1136.1,390.4,1219.7,390.4z M1220.5,119.6c14.6,0.4,26,12.5,25.7,27
		c-0.3,14.4-12.6,26.3-26.9,25.9c-14.5-0.3-26-12.4-25.7-27.1C1194.1,130.7,1206,119.1,1220.5,119.6z M1170,195
		c0.1-9,4.8-13.5,14-13.5c23.8,0.1,47.6,0.1,71.3,0c9.8-0.1,14.7,4.5,14.7,14.3c0,21.8-0.2,43.6,0.2,65.4c0.1,7-2,10.5-9.2,9.1
		c-11.1-2.1-12.8,3.3-12.5,13.1c0.7,22.3,0,44.6,0.4,66.9c0.1,7.4-1.4,10.6-9.6,10.1c-12.8-0.7-25.8-0.6-38.6,0
		c-7.5,0.3-10.6-1.5-10.1-9.7c0.7-11.8,0.2-23.8,0.2-35.7c0-9.4-0.4-18.9,0.1-28.2c0.6-10.3,0.6-19.1-14-16.5c-6.4,1.1-7-3.5-7-8.4
		C1169.9,239.6,1169.8,217.3,1170,195z"/>
	<path class="st1" d="M262.3,391.4c20.2,0.4,37.9-5.4,52.3-20.3c16.9-17.5,16.8-16.8-4-28.7c-9-5.1-14.1-6.4-20.5,4
		c-6.9,11.2-19.6,12.6-31.9,10.3c-11.2-2.1-18.1-9.8-21.4-20.4c-4.2-13.5-4.5-27.3-1.3-41c2.9-12.2,8.8-22,22.3-24.9
		c13.5-2.9,24.4,0.8,32.2,12.5c1.8,2.6,3,7.6,7.4,5.3c9.8-5.3,24.3-7.3,27.9-17c2.6-7-8.8-15.4-16.4-21.1
		c-24.9-18.8-65.2-19.4-90.7-1.5c-27.5,19.3-38.4,59.2-26.2,96.5C201.9,374.6,227.4,391.4,262.3,391.4z"/>
	<path class="st1" d="M378.7,387.1c29,9.2,57,6.8,80.3-15.4c16.6-15.9,15.9-18.2-4.1-29.1c-8.5-4.6-13.5-6.7-20.9,3.9
		c-13.2,18.9-43.5,14-52.2-7.3c-7-17.2-6.9-35,0.4-52.1c7.7-18.1,34.1-25.3,45.3-10.4c11.4,15.2,20.1,9.1,31.1,3
		c4.3-2.4,8.7-4.6,13.3-7c-6.7-14.5-17.4-24.8-31.6-30.4c-27.3-10.6-54.6-10.6-79.1,7.4c-25.5,18.7-31.2,46-28.3,75.6
		C335.9,354.7,349.4,377.8,378.7,387.1z"/>
	<path class="st1" d="M1176.9,270.3c14.6-2.6,14.6,6.2,14,16.5c-0.5,9.4-0.1,18.8-0.1,28.2c0,11.9,0.5,23.8-0.2,35.7
		c-0.5,8.1,2.6,10,10.1,9.7c12.9-0.5,25.8-0.7,38.6,0c8.3,0.5,9.8-2.7,9.6-10.1c-0.4-22.3,0.3-44.6-0.4-66.9
		c-0.3-9.8,1.3-15.2,12.5-13.1c7.2,1.4,9.3-2.1,9.2-9.1c-0.4-21.8-0.1-43.6-0.2-65.4c0-9.8-4.9-14.3-14.7-14.3
		c-23.8,0.2-47.6,0.1-71.3,0c-9.2,0-14,4.5-14,13.5c-0.2,22.3,0,44.6-0.1,66.9C1169.9,266.8,1170.5,271.4,1176.9,270.3z"/>
	<path class="st7" d="M1219.4,172.6c14.3,0.3,26.6-11.6,26.9-25.9c0.3-14.6-11.2-26.6-25.7-27c-14.5-0.4-26.5,11.2-26.8,25.9
		C1193.4,160.1,1204.9,172.2,1219.4,172.6z"/>
</g>
<g id="Layer_2">
	<path class="st8" d="M20.7,672.2c313.2,0,626.3,0,939.5,0s626.3,0,939.5,0c20.4,0,20.4,0,20.4-20.5c0-202.4,0-404.8,0-607.1
		c0-32.8-11.9-44.6-44.8-44.6C1264.8,0,654.4,0,43.9,0C12,0,0,12,0,43.8c0,202.4,0,404.8,0,607.1C0,672.2,0,672.2,20.7,672.2z
		 M997.8,608.3c-2.4,11-11,17.3-21.8,19.9c-20.1,4.8-40.5,1.6-60.7,2.3c-7,0.3-5.8-5.2-5.9-9.5c-0.1-14.9,0-29.7,0-44.6
		c0-11.9,1.2-23.9-0.3-35.6c-1.9-15.1,4.2-18.5,17.9-17.2c13.3,1.2,26.7,0,40.1,0.4c10.3,0.3,20.1,3.4,24.4,13.8
		c4.2,10.1,4.4,20.7-4,29c-4.5,4.4-4.4,6,0.9,9.4C1000.4,584,1000.4,596.5,997.8,608.3z M1084.7,557.4
		c-13.3,19.7-23.5,39.8-19.5,64.7c1.5,9.3-5.2,9-11.3,8.5c-5.2-0.5-14.1,2.8-12.3-7.2c5.8-32.1-12.4-55.5-27.8-80
		c-3.6-5.7-6.7-11.7-10.2-17.7c17.8-5.1,30.2-1.5,36.9,16.3c2.9,7.6,8.3,14.2,13.4,22.6c4.8-7.9,9.9-14.2,12.7-21.4
		c6.7-17.1,18.1-23.4,36.5-17.6C1099.2,536.9,1091.6,547.1,1084.7,557.4z M1417.7,630.8c-23.3,5.6-47.2-0.7-56.6-15.7
		c-3.9-6.2-10.4-15.6-2.2-20.2c5.5-3.1,17.6-6.4,22.2,8.1c3.7,11.6,27.3,14.8,36.3,6.3c7.1-6.8,5.8-13.6-2.9-17.6
		c-7.6-3.4-15.8-5.6-23.8-7.8c-24.1-6.7-33.8-17-31.7-34.1c2.1-17.3,18.5-28.9,44.5-28.7c12.3,0.7,27.2,3.8,35.1,19.7
		c2.2,4.3,6.8,12,0.6,14.2c-6.4,2.3-16.3,6.2-21.5-4c-5.9-11.6-15.5-12.6-26.4-9.6c-5.1,1.4-8.7,4.6-8.7,10.6c0,5.7,4.2,7.6,8.5,8.9
		c9.5,2.8,19.1,5.1,28.6,7.9c17.9,5.2,26.1,15.5,25.5,31.5C1444.4,615.3,1434.1,626.9,1417.7,630.8z M1520.7,613.2
		c-0.6-5.6-4.4-6.8-9.5-6.6c-7.9,0.3-15.9,0.4-23.8,0c-5.8-0.3-9.5,1.4-10.3,7.6c-2.4,17.5-14,18.8-29.7,14.9
		c7-18.6,14.1-37.3,21.1-56c4.5-12,9.6-23.8,13.4-36.1c3-9.7,7.4-13.7,18.5-13.8c11.3-0.1,13.6,5.5,16.6,13.9
		c11,30.6,22.7,60.9,34.4,92.1C1534.9,632.8,1522.6,632.1,1520.7,613.2z M15.9,176c0-42.7,0-85.3,0-128c0-25.3,5.3-30.6,30.2-30.6
		c304.8,0,609.5,0,914.3,0c303.8,0,607.5,0,911.3,0c27.8,0,32,4.1,32,31.5c0,135.4-0.2,270.9,0.3,406.3c0,13.3-2.9,17.2-16.8,17.2
		c-428.8-0.4-857.7-0.3-1286.5-0.6c-12.5,0-20.1,2.9-27.4,14.3c-113.5,177.9-369.7,175.9-480.9-3.5c-4.7-7.6-9.5-11.3-18.8-10.8
		c-14.4,0.8-28.8-0.6-43.2,0.4c-11.9,0.8-14.8-3.3-14.8-15C16.1,363.5,15.9,269.7,15.9,176z"/>
	<path class="st9" d="M30.4,472.2c14.3-1,28.8,0.3,43.2-0.4c9.2-0.5,14.1,3.2,18.8,10.8c111.2,179.4,367.4,181.4,480.9,3.5
		c7.2-11.4,14.8-14.3,27.4-14.3c428.8,0.3,857.7,0.2,1286.5,0.6c13.9,0,16.9-3.9,16.8-17.2c-0.5-135.4-0.3-270.9-0.3-406.3
		c0-27.4-4.2-31.5-32-31.5c-303.8,0-607.5,0-911.3,0c-304.8,0-609.5,0-914.3,0c-24.9,0-30.2,5.3-30.2,30.6c0,42.7,0,85.3,0,128
		c0,93.8,0.2,187.5-0.3,281.3C15.5,468.9,18.4,473,30.4,472.2z M1466.9,54.1c106.2,0,186.9,80,187.1,185.6
		c0.1,104-81.6,185.9-185.6,186c-102.4,0.1-186.7-83.9-186.7-186.1C1281.7,137.5,1365,54.1,1466.9,54.1z M1016.3,54.1
		c102.6,0.2,182.9,82.1,182.9,186.6c-0.1,103.9-82,185.2-186.3,185c-102.9-0.2-184.9-83.2-184.9-187
		C828.1,134.5,910.3,53.9,1016.3,54.1z M334.6,62.3c143.9,0.2,253.7,118.8,250.2,258c-3.3,134.2-113.9,244-251.2,243.6
		C195.4,565.7,80.1,443.8,83.3,308C86.4,173.5,198.7,62.1,334.6,62.3z"/>
	<path class="st10" d="M988.5,576.3c-5.3-3.5-5.4-5-0.9-9.4c8.4-8.3,8.2-19,4-29c-4.4-10.4-14.1-13.4-24.4-13.8
		c-13.4-0.4-26.8,0.8-40.1-0.4c-13.7-1.3-19.8,2-17.9,17.2c1.5,11.7,0.3,23.7,0.3,35.6c0,14.9,0,29.7,0,44.6c0,4.3-1.2,9.7,5.9,9.5
		c20.2-0.8,40.7,2.5,60.7-2.3c10.9-2.6,19.4-8.9,21.8-19.9C1000.4,596.5,1000.4,584,988.5,576.3z M945.2,542.2c1.4,0.2,2.9,0,4.4,0
		c9.2,0.4,20.9-1.1,20.9,12.2c0.1,13.7-11.8,11.5-20.9,11.8c-8.1-0.4-18,3.5-16.9-11.9C933.4,544.7,935.5,540.6,945.2,542.2z
		 M950.3,610.7c-16.6,0-21.7-6.9-17-23.1c0.3-0.9,0.3-2.4,0.8-2.6c9.9-4.1,20.1-2.2,30.1-1.2c5.7,0.6,9.5,4.5,10.5,10.7
		C976.6,606.4,970.1,610.7,950.3,610.7z"/>
	<path class="st10" d="M1419.5,568.6c-9.5-2.7-19.1-5.1-28.6-7.9c-4.3-1.3-8.4-3.2-8.5-8.9c0-6,3.6-9.2,8.7-10.6
		c10.9-3,20.5-2,26.4,9.6c5.2,10.2,15.1,6.3,21.5,4c6.2-2.2,1.6-9.9-0.6-14.2c-7.9-15.8-22.8-18.9-35.1-19.7
		c-26-0.1-42.4,11.4-44.5,28.7c-2.1,17.1,7.6,27.4,31.7,34.1c8.1,2.2,16.3,4.4,23.8,7.8c8.8,4,10.1,10.8,2.9,17.6
		c-9,8.6-32.6,5.4-36.3-6.3c-4.6-14.4-16.6-11.2-22.2-8.1c-8.2,4.6-1.7,13.9,2.2,20.2c9.4,15,33.3,21.3,56.6,15.7
		c16.4-4,26.7-15.5,27.3-30.8C1445.6,584.1,1437.3,573.7,1419.5,568.6z"/>
	<path class="st10" d="M1500.3,523.3c-11.1,0.1-15.5,4.1-18.5,13.8c-3.8,12.2-8.8,24.1-13.4,36.1c-7,18.7-14.1,37.4-21.1,56
		c15.7,3.9,27.2,2.5,29.7-14.9c0.9-6.3,4.5-7.9,10.3-7.6c7.9,0.4,15.9,0.3,23.8,0c5.1-0.2,9,1,9.5,6.6c1.9,18.8,14.2,19.6,30.7,16.1
		c-11.7-31.1-23.4-61.5-34.4-92.1C1513.9,528.8,1511.6,523.3,1500.3,523.3z M1485.9,588.2c4.5-12.3,8.4-23,13.3-36.4
		c2.5,6.8,4,10.6,5.4,14.5C1513.1,590.1,1513.1,590.1,1485.9,588.2z"/>
	<path class="st10" d="M1066.6,542.9c-2.8,7.2-7.9,13.5-12.7,21.4c-5.1-8.4-10.5-15-13.4-22.6c-6.7-17.8-19.1-21.4-36.9-16.3
		c3.5,6.1,6.6,12,10.2,17.7c15.4,24.5,33.6,47.9,27.8,80c-1.8,10,7.1,6.8,12.3,7.2c6.1,0.5,12.8,0.9,11.3-8.5
		c-4.1-24.8,6.2-44.9,19.5-64.7c6.9-10.3,14.5-20.6,18.4-32.1C1084.7,519.5,1073.3,525.9,1066.6,542.9z"/>
	<path class="st8" d="M333.6,563.9c137.3,0.4,247.9-109.4,251.2-243.6c3.5-139.2-106.3-257.8-250.2-258
		C198.7,62.1,86.4,173.5,83.3,308C80.1,443.8,195.4,565.7,333.6,563.9z M334,108.6c114-0.1,204.3,90.4,205.2,204.3
		c1,123.5-106.3,205.2-202.3,204.7c-113.5-0.6-208.3-93.3-207.8-204.7C129.6,201.7,222.8,108.8,334,108.6z"/>
	<path class="st8" d="M1012.8,425.7c104.3,0.2,186.2-81.1,186.3-185c0.1-104.4-80.3-186.4-182.9-186.6
		c-106-0.2-188.2,80.4-188.3,184.6C827.9,342.5,909.9,425.5,1012.8,425.7z M1014.1,88.5c85.1,0.2,151,66.8,150.9,152.6
		c-0.1,83.2-66.9,149.4-150.8,149.4c-83.6,0-152.4-67.7-152.5-150.1C861.6,156.6,930.2,88.3,1014.1,88.5z"/>
	<path class="st8" d="M1468.3,425.7c104-0.1,185.8-82,185.6-186c-0.2-105.6-80.8-185.7-187.1-185.6c-101.9,0-185.2,83.5-185.2,185.5
		C1281.6,341.8,1365.9,425.8,1468.3,425.7z M1470,88.6c83.5,0.8,151,69.6,150.3,152.2c-0.8,94.3-85.2,153.9-158.7,150.3
		c-78-3.8-145.6-71.9-145.2-152C1316.9,155.5,1386,87.8,1470,88.6z"/>
	<path class="st11" d="M964.2,583.9c-10-1.1-20.3-2.9-30.1,1.2c-0.5,0.2-0.5,1.7-0.8,2.6c-4.7,16.2,0.4,23.1,17,23.1
		c19.8,0,26.3-4.4,24.4-16.2C973.7,588.4,969.8,584.5,964.2,583.9z"/>
	<path class="st12" d="M949.6,566.2c9.1-0.3,21,1.9,20.9-11.8c-0.1-13.3-11.7-11.8-20.9-12.2c-1.5-0.1-3,0.2-4.4,0
		c-9.7-1.6-11.8,2.6-12.5,12.1C931.6,569.7,941.6,565.7,949.6,566.2z"/>
	<path class="st13" d="M1499.3,551.8c-4.9,13.4-8.8,24.2-13.3,36.4c27.1,1.8,27.1,1.8,18.7-21.9
		C1503.2,562.4,1501.8,558.6,1499.3,551.8z"/>
	<path class="st10" d="M336.9,517.6c96,0.5,203.3-81.2,202.3-204.7C538.3,199,448,108.5,334,108.6
		c-111.2,0.1-204.4,93.1-204.9,204.3C128.6,424.3,223.4,517,336.9,517.6z M381.8,240.1c30.5-11.4,66.4-3,86,19.2
		c8.3,9.4,8.8,15.3-4.1,19.6c-4.2,1.4-8.1,3.6-11.9,5.9c-6.2,3.8-10.5,4.7-15-3.2c-5.9-10.3-15.9-14-28-12.1
		c-12.6,2-20.7,8.9-24.3,20.9c-4.8,15.6-5,31.3,0.4,46.6c8.1,22.6,38.3,28.6,52.7,9.4c7.7-10.3,12.8-9,22-3.8
		c19.8,11.3,20.1,11.1,4,27.6c-20.8,21.3-55.3,27.4-85.4,15c-27.1-11.2-41.7-36.5-41.7-72.2C336.6,277,352.9,250.9,381.8,240.1z
		 M231.4,243c28.4-13.6,56.7-10.7,82.9,7.6c2,1.4,3.8,3.2,5.6,4.9c14.4,14.6,13.9,14.8-3.5,24.9c-11.2,6.4-18.2,9.4-28.6-3.6
		c-12.5-15.7-38.2-8.7-45.8,10.8c-6.4,16.2-6.4,33-0.6,49.4c8,22.6,38.2,28.8,52.3,9.4c8-10.9,13.3-8.5,22.1-3.6
		c19.3,10.7,19.5,10.9,3.8,27.3c-20.2,21.2-56.1,27.7-85.4,15.6c-27.4-11.3-42.4-36.7-42.6-71.9C191.7,282.7,202.3,256.9,231.4,243z
		"/>
	<path class="st10" d="M1014.2,390.4c83.9,0,150.7-66.2,150.8-149.4c0.1-85.8-65.8-152.4-150.9-152.6
		c-83.9-0.2-152.5,68.2-152.4,151.9C861.8,322.8,930.6,390.5,1014.2,390.4z M1013.2,119.6c14.4-0.2,26.6,11.8,26.8,26.1
		c0.1,14.4-11.8,26.6-26.2,26.8c-14.2,0.2-26.8-12-26.9-26.2C986.7,132.1,998.8,119.8,1013.2,119.6z M963.1,195.5
		c0.1-8.7,4.4-13.9,13.7-13.9c24.3,0,48.6,0,72.8,0c10,0,14.2,5.2,14.2,14.9c-0.1,20.8-0.4,41.6,0.2,62.4
		c0.2,8.7-1.5,13.4-11.2,11.6c-9.3-1.8-10.1,3.5-10,11c0.4,22.8-0.2,45.6,0.3,68.3c0.2,8.3-2,11.2-10.6,10.7
		c-12.3-0.7-24.8-0.7-37.1,0c-8.7,0.5-12.6-1.5-11.8-11.2c0.9-11.3,0.2-22.8,0.2-34.1c0-8.9-0.4-17.9,0.1-26.7
		c0.6-11.1,1.4-21.2-15.1-18c-5.6,1.1-5.9-3.7-5.9-7.9C963,240,962.9,217.8,963.1,195.5z"/>
	<path class="st10" d="M1461.6,391.1c73.5,3.6,158-56,158.7-150.3c0.7-82.6-66.8-151.4-150.3-152.2c-84-0.8-153.1,66.9-153.6,150.5
		C1315.9,319.2,1383.6,387.3,1461.6,391.1z M1387.1,205.6c12.2-43,38.9-63.6,79.6-64c42.7-0.5,76.5,22.9,89.9,62
		c20,58.2-7.1,118.1-60.7,134.3c-48.9,14.8-95-7.5-108.7-52.7c-5-16.3-4.7-16.7,11.6-16.7c5,0,9.9,0.3,14.9-0.1
		c10.4-0.7,17.1,0.1,20.7,13.5c6.1,22.2,42.9,27.8,61.7,11.1c22.7-20.3,25.3-78.3,4.5-100.3c-17.4-18.5-54.5-13.9-65.5,8
		c-4,8-4.5,13.7,9.3,14.4c-12,11.7-21.8,20.8-31,30.5c-4.5,4.8-7.2,4.6-11.6-0.1c-9.2-9.7-19-18.7-29.7-29.1
		C1377.7,212.6,1384.6,214.3,1387.1,205.6z"/>
	<path class="st8" d="M234.1,385.5c29.3,12.1,65.2,5.6,85.4-15.6c15.7-16.4,15.5-16.6-3.8-27.3c-8.8-4.9-14.1-7.3-22.1,3.6
		c-14.1,19.4-44.3,13.2-52.3-9.4c-5.8-16.4-5.8-33.2,0.6-49.4c7.7-19.5,33.3-26.5,45.8-10.8c10.3,13,17.4,10.1,28.6,3.6
		c17.4-10,17.9-10.3,3.5-24.9c-1.7-1.8-3.5-3.5-5.6-4.9c-26.2-18.3-54.4-21.2-82.9-7.6c-29,13.9-39.7,39.7-39.9,70.7
		C191.7,348.8,206.7,374.2,234.1,385.5z"/>
	<path class="st8" d="M378.2,385.2c30,12.4,64.6,6.3,85.4-15c16.1-16.5,15.8-16.4-4-27.6c-9.2-5.2-14.2-6.6-22,3.8
		c-14.4,19.2-44.6,13.2-52.7-9.4c-5.5-15.3-5.2-31.1-0.4-46.6c3.7-12,11.8-18.9,24.3-20.9c12.1-1.9,22.1,1.8,28,12.1
		c4.6,7.9,8.9,7,15,3.2c3.8-2.3,7.7-4.5,11.9-5.9c12.9-4.3,12.5-10.1,4.1-19.6c-19.6-22.2-55.5-30.6-86-19.2
		c-29,10.8-45.2,37-45.3,73C336.5,348.7,351.1,374,378.2,385.2z"/>
	<path class="st8" d="M968.8,270.2c16.5-3.2,15.7,7,15.1,18c-0.5,8.9-0.1,17.8-0.1,26.7c0,11.4,0.7,22.8-0.2,34.1
		c-0.8,9.7,3,11.7,11.8,11.2c12.3-0.7,24.8-0.7,37.1,0c8.5,0.5,10.8-2.4,10.6-10.7c-0.6-22.8,0-45.6-0.3-68.3
		c-0.1-7.5,0.6-12.8,10-11c9.7,1.8,11.5-2.9,11.2-11.6c-0.6-20.8-0.3-41.6-0.2-62.4c0.1-9.7-4.2-14.9-14.2-14.9
		c-24.3,0-48.6,0-72.8,0c-9.3,0-13.6,5.2-13.7,13.9c-0.2,22.3-0.1,44.6-0.1,66.8C963,266.5,963.2,271.3,968.8,270.2z"/>
	<path class="st11" d="M1013.8,172.5c14.3-0.2,26.3-12.5,26.2-26.8c-0.1-14.4-12.4-26.3-26.8-26.1c-14.3,0.2-26.5,12.6-26.3,26.8
		C987,160.5,999.5,172.7,1013.8,172.5z"/>
	<path class="st8" d="M1401.9,245.4c4.4,4.7,7.1,4.9,11.6,0.1c9.2-9.7,19-18.8,31-30.5c-13.8-0.7-13.3-6.4-9.3-14.4
		c11-21.9,48.1-26.5,65.5-8c20.8,22.1,18.2,80-4.5,100.3c-18.8,16.8-55.6,11.2-61.7-11.1c-3.7-13.4-10.3-14.2-20.7-13.5
		c-4.9,0.3-9.9,0-14.9,0.1c-16.3,0-16.6,0.5-11.6,16.7c13.8,45.2,59.8,67.5,108.7,52.7c53.6-16.2,80.6-76.1,60.7-134.3
		c-13.5-39.1-47.3-62.5-89.9-62c-40.7,0.4-67.4,21-79.6,64c-2.5,8.7-9.4,7-14.9,10.8C1382.9,226.7,1392.7,235.8,1401.9,245.4z"/>
</g>
</svg>
