<?xml version="1.0" encoding="utf-8"?>
<!-- Generator: Adobe Illustrator 20.1.0, SVG Export Plug-In . SVG Version: 6.00 Build 0)  -->
<svg version="1.1" xmlns="http://www.w3.org/2000/svg" xmlns:xlink="http://www.w3.org/1999/xlink" x="0px" y="0px" width="200px"
	 height="200px" viewBox="0 0 200 200" style="enable-background:new 0 0 200 200;" xml:space="preserve">
<style type="text/css">
	.st0{display:none;}
	.st1{display:inline;}
	.st2{fill:#115BAA;}
	.st3{fill:#FFFFFF;}
	.st4{fill:#5191CD;}
	.st5{fill:#1B3967;}
	.st6{display:inline;opacity:0.3;fill:#FFFFFF;}
	.st7{display:inline;opacity:0.1;fill:#010101;}
	.st8{fill:#B9CEEB;}
	.st9{fill:#E2EEF1;}
	.st10{display:inline;opacity:0.2;fill:#FFFFFF;}
	.st11{display:inline;opacity:0.1;fill:#FFFFFF;}
	.st12{display:inline;opacity:0.7;fill:#FFFFFF;}
	.st13{display:inline;fill:#E2EEF1;}
	.st14{display:inline;opacity:0.6;fill:#FFFFFF;}
	.st15{opacity:0.1;fill:#010101;}
	.st16{opacity:0.2;fill:#FFFFFF;}
	.st17{display:inline;fill:#5191CD;}
	.st18{display:inline;fill:#B9CEEB;}
	.st19{display:inline;fill:#FFFFFF;}
	.st20{display:inline;fill:#115BAA;}
	.st21{display:inline;fill:#1B3967;}
	.st22{display:inline;opacity:0.1;}
	.st23{fill:#010101;}
	.st24{fill:#F2F2F2;}
	.st25{opacity:0.3;fill:#FFFFFF;}
</style>
<g id="default">
</g>
<g id="Layer_1" class="st0">
	<g class="st1">
		<path class="st2" d="M144.3,130H125v7.9c0,1.8-1.9,2.1-3.7,2.1H78.6c-1.8,0-3.6-0.3-3.6-2.1V130H54.2l-10.3,23h110.5L144.3,130z
			 M108.2,150H91.7c-1.8,0-3.3-1.7-3.3-3.5c0-1.8,1.5-3.5,3.3-3.5h16.4c1.8,0,3.3,1.7,3.3,3.5C111.4,148.3,110,150,108.2,150z"/>
		<path class="st3" d="M82,134h36v-15.2c0-3.4,2.8-7.1,6.7-12.2c5.5-7.2,13-17.1,13-27.5c0-21-17.1-39.3-36.5-39.3
			c-18.3,0-38.8,16.8-38.8,39.3c0,10.3,7.5,20.3,12.9,27.5c3.9,5.1,6.7,8.9,6.7,12.2V134z M81.9,81.4c-1.8,0-3.3-1.5-3.3-3.3
			c0-4.9,3.5-14.5,16.9-15.9c1.8-0.2,3.4,1.1,3.6,2.9c0.2,1.8-1.1,3.4-2.9,3.6c-10.9,1.1-11,9-11,9.3C85.2,79.9,83.7,81.4,81.9,81.4
			z"/>
		<polygon class="st4" points="43,193 155.9,193 156.1,160 43,160 		"/>
		<path class="st5" d="M67.4,33.9c0.7,0.8,1.6,1.1,2.5,1.1c0.8,0,1.5-0.3,2.1-0.8c1.4-1.2,1.5-3.3,0.3-4.6L61,16.4
			c-1.2-1.4-3.3-1.5-4.6-0.3c-1.4,1.2-1.5,3.3-0.3,4.6L67.4,33.9z"/>
		<path class="st5" d="M134,35.4c0.7,0,1.3-0.2,1.9-0.6l14.7-10.6c1.5-1.1,1.8-3.1,0.8-4.6c-1.1-1.5-3.1-1.8-4.6-0.8L132,29.5
			c-1.5,1.1-1.8,3.1-0.8,4.6C131.9,34.9,132.9,35.4,134,35.4z"/>
		<path class="st5" d="M101.5,26.3c1.8,0,3.5-1.5,3.5-3.3V3.3c0-1.8-1.7-3.3-3.5-3.3C99.7,0,98,1.5,98,3.3V23
			C98,24.8,99.7,26.3,101.5,26.3z"/>
		<path class="st5" d="M162.2,155.7l-12.8-29.4c-0.5-1.2-1.7-2.3-3-2.3H125v-5.2c0-1.3,2.9-5.3,5.2-8.3c6-8,14.2-18.9,14.2-31.4
			c0-24.9-19.8-45.9-43.1-45.9c-21.4,0-45.4,19.6-45.4,45.9c0,12.5,8,23.5,14,31.4c2.2,3,5.2,7,5.2,8.3v5.2H52.1
			c-1.3,0-2.5,1.1-3,2.3l-12.8,28.9c-0.3,0.6-0.3,2.2-0.3,2.3V197c0,1.8,1.4,2,3.2,2h119.9c1.8,0,3.3-0.8,3.3-2.6l0.2-39.1
			c0-0.5-0.2-0.9-0.4-1.3C162.2,155.8,162.2,155.8,162.2,155.7z M75.3,106.5C69.9,99.3,62.4,89.4,62.4,79
			c0-22.5,20.5-39.3,38.8-39.3c19.5,0,36.5,18.4,36.5,39.3c0,10.3-7.5,20.2-13,27.5c-3.9,5.1-6.7,8.9-6.7,12.2V134H82v-15.2
			C82,115.4,79.2,111.7,75.3,106.5z M54.2,130H75v7.9c0,1.8,1.8,2.1,3.6,2.1h42.7c1.8,0,3.7-0.3,3.7-2.1V130h19.3l10.1,23H43.9
			L54.2,130z M155.9,193H43v-33h113.1L155.9,193z"/>
		<path class="st5" d="M108.2,143H91.7c-1.8,0-3.3,1.7-3.3,3.5c0,1.8,1.5,3.5,3.3,3.5h16.4c1.8,0,3.3-1.7,3.3-3.5
			C111.4,144.7,110,143,108.2,143z"/>
		<path class="st5" d="M85.2,78.1c0-0.3,0.1-8.2,11-9.3c1.8-0.2,3.1-1.8,2.9-3.6c-0.2-1.8-1.7-3.1-3.6-2.9
			c-13.4,1.3-16.9,11-16.9,15.9c0,1.8,1.5,3.3,3.3,3.3S85.2,79.9,85.2,78.1z"/>
	</g>
	<polygon class="st6" points="43,160 43,193 156,193 42.9,160 	"/>
	<polygon class="st7" points="43,166 42.9,166 156,160 43,160 	"/>
	<polygon class="st7" points="125,135.6 142.9,130 125,130 	"/>
	<path class="st7" d="M78.6,140c-1.8,0-3.6-0.3-3.6-2.1V130H54.2l-10.3,23h0.3l56.3-13H78.6z"/>
	<path class="st7" d="M82.1,106.5C76.6,99.3,69.8,89.4,69.8,79c0-21,17.9-37.1,35.1-39.1c-1.2-0.2-2.5-0.2-3.7-0.2
		c-18.3,0-38.8,16.8-38.8,39.3c0,10.3,7.5,20.3,12.9,27.5c3.9,5.1,6.7,8.9,6.7,12.2V134h6v-15.2C88,115.4,85.9,111.7,82.1,106.5z"/>
</g>
<g id="Layer_3" class="st0">
	<g class="st1">
		<path class="st8" d="M87.1,52.9c1.3,0,2.8-0.5,4.3-0.5c1.9,0,3.9-0.4,6.2-0.4h4.3c3.5,0,6.1,0.8,9.1,1V41H84v12
			C85,52.9,86,52.9,87.1,52.9z"/>
		<path class="st2" d="M113.2,34l21.2-27H111v7.8c0,1.9-1.1,3.4-3,3.4c-1.9,0-3-1.5-3-3.4V7H91v7.8c0,1.9-1.6,3.4-3.5,3.4
			c-1.9,0-3.5-1.5-3.5-3.4V7H62.6l20.2,27H113.2z"/>
		<path class="st2" d="M152.8,183H42.5l0-0.2L41.2,193h114.1l-1.6-10.4C153.4,182.7,153.1,183,152.8,183z"/>
		<path class="st2" d="M101.9,59h-4.3c-2.4,0-4.5,0.4-6.4,0.4c-1.5,0-2.9,0.2-4.2,0.2c-7.4,0-10.9,0.8-19.3,8.1
			C51.3,82,39,114.8,39,144.4c0,10.9,4.2,31.6,4.2,31.6h109.7c0.2,0,0.4,0.5,0.6,0.5l1.8-4.2c3.8-10.3,5-15.4,5-27.5
			c0-27.8-10.9-60-25.4-74.3C124.1,59.9,116.6,59,101.9,59z M94.7,117h9.8h0.2c9.5,0,13.3,5.2,13.3,14.6v4.2
			c0,9.4-3.9,12.2-13.3,12.2H101v8.2c0,1.9-1.6,3.4-3.5,3.4c-1.9,0-3.5-1.5-3.5-3.4V148h-6.7c-1.9,0-3.4-1.6-3.4-3.5
			c0-1.9,1.5-3.5,3.4-3.5h10.3h7.1c5.6,0,6.3,0.3,6.3-5.2v-4.2c0-5.5-0.6-7.6-6.3-7.6h-0.2h-9.8h-0.5c-0.1,0-0.3,0.5-0.4,0.5
			c-9.1-0.2-13.7-4.1-13.7-13.1v-4.2c0-11.4,8-13,14-13.1c0,0,0,0,0,0v-6.9c0-1.9,1.6-3.4,3.5-3.4c1.9,0,3.5,1.5,3.5,3.4V93h13.9
			c1.9,0,3.4,1.6,3.4,3.5c0,1.9-1.5,3.5-3.4,3.5H94.7c-6.5,0-7.7,2.4-7.7,7.2v4.2C87,116.8,88.9,117,94.7,117z"/>
		<path class="st5" d="M94.2,125.1h0.5c-0.3,0-0.5,0-0.8,0C94,125.1,94.1,125.1,94.2,125.1z"/>
		<path class="st9" d="M104.7,117h-0.2h-9.8c-5.8,0-7.7-0.2-7.7-5.6v-4.2c0-4.8,1.3-7.2,7.7-7.2h20.2c1.9,0,3.4-1.6,3.4-3.5
			c0-1.9-1.5-3.5-3.4-3.5H101v-5.8c0-1.9-1.6-3.4-3.5-3.4c-1.9,0-3.5,1.5-3.5,3.4v6.9c0,0,0,0,0,0c-6,0.1-14,1.7-14,13.1v4.2
			c0,9,4.7,12.9,13.7,13.1c0.3,0,0.7-0.5,1-0.5h9.8h0.2c5.7,0,6.3,2.1,6.3,7.6v4.2c0,5.5-0.7,5.2-6.3,5.2h-7.1H87.3
			c-1.9,0-3.4,1.6-3.4,3.5c0,1.9,1.5,3.5,3.4,3.5H94v8.2c0,1.9,1.6,3.4,3.5,3.4c1.9,0,3.5-1.5,3.5-3.4V148h3.7
			c9.4,0,13.3-2.9,13.3-12.2v-4.2C118,122.2,114.2,117,104.7,117z"/>
		<path class="st5" d="M167.1,144.8c0-25.6-9.6-61-27.6-78.9C132,58.4,126,55.2,118,53.8V40.1l26-33.6c0.8-1,1-3,0.4-4.1
			c-0.6-1.2-1.7-2.4-3-2.4H55.8c-1.3,0-2.5,1.2-3.1,2.4c-0.6,1.2-0.4,2.8,0.3,3.8L77,39.2v14.9c-4,1.3-8.3,3.7-13.8,8.5
			c-20.4,17.9-31.1,54.9-31.1,82.3c0,11.5,0.7,18.9,4.3,29.7l-2.5,22.5c-0.1,1,0.2,1.5,0.9,2.2c0.7,0.7,1.6,0.7,2.6,0.7h122
			c1,0,2,0.1,2.6-0.7c0.7-0.8,0.9-1.5,0.8-2.5l-2.7-17.9l1.6-4C165.7,163.8,167.1,157.9,167.1,144.8z M62.6,7H84v7.8
			c0,1.9,1.6,3.4,3.5,3.4c1.9,0,3.5-1.5,3.5-3.4V7h14v7.8c0,1.9,1.1,3.4,3,3.4c1.9,0,3-1.5,3-3.4V7h23.4l-21.2,27H82.8L62.6,7z
			 M111,41v12c-3-0.2-5.7-1-9.1-1h-4.3c-2.3,0-4.4,0.5-6.2,0.4c-1.6,0-2.9,0.3-4.3,0.3C86,52.7,85,52.9,84,53V41H111z M41.2,193
			l1.2-10.2l0,0.2h110.3c0.3,0,0.6-0.3,0.9-0.4l1.6,10.4H41.2z M155.1,172.5l-1.8,4c-0.2,0-0.4-0.5-0.6-0.5H43.2
			c0,0-4.2-20.6-4.2-31.5c0-29.6,12.4-62.5,28.8-76.9c8.4-7.3,11.9-7.9,19.3-7.9c1.3,0,2.7-0.3,4.2-0.3c1.9,0,4-0.3,6.4-0.3h4.3
			c14.7,0,22.3,0.9,32.9,11.5c14.5,14.4,25.4,46.5,25.4,74.2C160.2,156.9,159,162.2,155.1,172.5z"/>
	</g>
	<path class="st7" d="M101.9,52c3.5,0,6.1,0.8,9.1,1V41H98v11H101.9z"/>
	<path class="st10" d="M113.2,34l21.2-27H111v7.8c0,1.9-1.1,3.4-3,3.4c-1.9,0-3-1.5-3-3.4V7h-7v27H113.2z"/>
	<path class="st10" d="M153.7,182.6c-0.3,0.1-0.6,0.4-0.9,0.4H98v10h57.3L153.7,182.6z"/>
	<path class="st10" d="M101,87.2V93h13.9c1.9,0,3.4,1.6,3.4,3.5c0,1.9-1.5,3.5-3.4,3.5H98v17h6.5h0.2c9.5,0,13.3,5.2,13.3,14.6v4.2
		c0,9.4-3.9,12.2-13.3,12.2H101v8.2c0,1.9-1,3.4-3,3.4V176h54.8c0.2,0,0.4,0.5,0.6,0.5l1.8-4.2c3.8-10.3,5-15.4,5-27.5
		c0-27.8-10.9-60-25.4-74.3C124.1,59.9,116.6,59,101.9,59H98v24.8C100,83.8,101,85.3,101,87.2z"/>
	<polygon class="st7" points="82.8,34 113.2,34 118.5,28 77.7,28 	"/>
	<path class="st11" d="M84.2,66.9c1.6,0,3.3-0.4,5.2-0.4c2.3,0,4.9-0.5,7.8-0.5h5.2c17.7,0,26.9,1.3,39.5,13.5
		c-2.2-3.4-4.6-6.6-7.1-9.1C124.1,59.8,116.6,59,101.9,59h-4.3c-2.4,0-4.5,0.4-6.4,0.4c-1.5,0-2.9,0.2-4.2,0.2
		c-7.4,0-10.9,0.8-19.3,8.1c-3.6,3.1-7,7.3-10.1,12c1-1,1.9-1.9,2.9-2.8C70.8,67.9,75.2,66.9,84.2,66.9z"/>
	<path class="st7" d="M114.9,100H94.7c-6.5,0-7.7,2.4-7.7,7.2v3.4c0-4.8,1.3-7.7,7.7-7.7h20.2c1.9,0,3.4-0.8,3.4-2.7
		c0-0.6-0.2-1.3-0.5-1.9C117.2,99.4,116.1,100,114.9,100z"/>
	<path class="st7" d="M87.3,148c-1.3,0-2.3-0.1-2.9-1.1c-0.3,0.5-0.5,1-0.5,1.7c0,1.9,1.5,3.4,3.4,3.4H94v-4H87.3z"/>
	<path class="st7" d="M104.7,148H101v4h3.7c9.4,0,13.3-3.4,13.3-12.8v-3.4C118,145.1,114.1,148,104.7,148z"/>
	<path class="st7" d="M97.5,159.6c-1.9,0-3.5-1.5-3.5-3.4v3.4c0,1.9,1.6,3.4,3.5,3.4c1.9,0,3.5-1.5,3.5-3.4v-3.4
		C101,158.1,99.4,159.6,97.5,159.6z"/>
</g>
<g id="Layer_4" class="st0">
	<g class="st1">
		<path class="st2" d="M110.8,141.8c-11.4,3.8-25.1,5.7-40.5,5.7c-26.1,0-48-5.5-48.9-5.7c-1.6-0.4-2.8-1.9-2.8-3.6v-69
			c-4.4-0.7-8.3-1.4-11.1-1.9v86.9c10.9,2.3,51.2,9.8,82.4-0.6c2.4-0.7,53-15.6,83.7,2.8l0.3-18.3c-6.2-1.5-13.2-2.3-21.1-2.3
			C131,135.8,111,141.7,110.8,141.8z"/>
		<path class="st8" d="M174.5,130.6c6.7,1.5,12.7,3.8,17.8,6.8l0.1-24.8C178.8,116.9,175.3,127.4,174.5,130.6z"/>
		<path class="st8" d="M26.5,119.8c-0.2-0.1-0.4-0.2-0.6-0.3v15.7c3.9,0.9,11.8,2.4,21.6,3.5C46.2,134.1,41.5,123.6,26.5,119.8z"/>
		<path class="st8" d="M192.5,64.2l0-12.2c-5.8-4.4-13.2-7.4-22.1-9C175.9,59.1,188.7,63.3,192.5,64.2z"/>
		<path class="st8" d="M47.4,51.9c-9.3-1-16.9-2.4-21.5-3.4v22.7c0.3-0.1,0.6-0.3,1-0.3C27.5,70.8,41.8,68.6,47.4,51.9z"/>
		<path class="st9" d="M162.4,41.9c-3-0.3-6.2-0.4-9.5-0.4c-21.8,0-42,5.9-42.2,6c-11.4,3.8-25.1,5.7-40.5,5.7
			c-5.4,0-10.5-0.2-15.4-0.6c-6.5,22.8-26.2,25.5-27,25.7c-0.2,0-0.3,0-0.5,0c-0.5,0-1-0.1-1.4-0.3v35c0.7-0.3,1.5-0.5,2.3-0.2
			c22.3,5.6,26.4,23.4,27,26.9c4.7,0.4,9.8,0.6,14.9,0.6c14.7,0,27.5-1.8,38.3-5.4c1-0.3,21.4-6.3,44.2-6.3c5.1,0,9.9,0.3,14.5,0.9
			c1-4.6,5.6-19.5,25.1-24.4c0,0,0,0,0.1,0l0.1-33.3C190,71.3,169,67.4,162.4,41.9z M129.4,104.1c0,7.2-6.3,15.5-14.3,15.5h-0.5v3.7
			c0,2-1.7,3.7-3.7,3.7c-2,0-3.7-1.7-3.7-3.7v-3.7h-7.4c-2,0-3.7-1.7-3.7-3.7s1.7-3.7,3.7-3.7h15.3c3.3,0,6.9-4.2,6.9-8.1v-0.6
			c0-3.3-3.2-6.1-6.9-6.1h-0.5h-7h-0.4c-0.1,0-0.3-0.1-0.4-0.1c-7.6-0.4-14.4-6.9-14.4-14.1v-0.5c0-7.4,7.3-14.6,14.8-14.8v-7.4
			c0-2,1.7-3.7,3.7-3.7c2,0,3.7,1.7,3.7,3.7v7.4h7.4c2,0,3.7,1.7,3.7,3.7s-1.7,3.7-3.7,3.7h-14.4c-3.6,0-7.8,4-7.8,7.5v0.5
			c0,3.3,4,6.8,7.8,6.8h7h0.5c7.9,0,14.3,6.1,14.3,13.5V104.1z"/>
		<path class="st5" d="M115.1,90h-0.5h-7c-3.8,0-7.8-3.5-7.8-6.8v-0.5c0-3.5,4.1-7.5,7.8-7.5H122c2,0,3.7-1.7,3.7-3.7
			s-1.7-3.7-3.7-3.7h-7.4v-7.4c0-2-1.7-3.7-3.7-3.7c-2,0-3.7,1.7-3.7,3.7v7.4c-7.5,0.2-14.8,7.4-14.8,14.8v0.5
			c0,7.2,6.8,13.6,14.4,14.1c0.1,0,0.3,0.1,0.4,0.1h0.4h7h0.5c3.8,0,6.9,2.8,6.9,6.1v0.6c0,3.9-3.6,8.1-6.9,8.1H99.8
			c-2,0-3.7,1.7-3.7,3.7s1.7,3.7,3.7,3.7h7.4v3.7c0,2,1.7,3.7,3.7,3.7c2,0,3.7-1.7,3.7-3.7v-3.7h0.5c8.1,0,14.3-8.3,14.3-15.5v-0.6
			C129.4,96.1,123,90,115.1,90z"/>
		<path class="st5" d="M153,34.1c-22.9,0-43.4,6-44.4,6.3c-10.8,3.6-23.6,5.4-38.3,5.4c-25.1,0-46.9-5.4-47.1-5.5
			c-1.1-0.3-2.3,0-3.2,0.7c-0.9,0.7-1.4,1.8-1.4,2.9v17.8c-8-1.3-14-2.6-14-2.6c-1.1-0.2-2.2,0.1-3.1,0.7C0.5,60.6,0,61.6,0,62.7
			v94.4c0,1.7,1.1,3.2,2.8,3.6c2.1,0.5,51.1,12.7,89.3,0c0.6-0.2,56.2-16.5,82.7,5.6c0.7,0.6,1.5,0.9,2.4,0.9c0.5,0,1,0.1,1.5-0.2
			c1.3-0.6,2.1-1.7,2.2-3.1l0.4-23.5c4.8,1.8,8.9,4.2,12.4,7.1c0.7,0.6,1.5,0.9,2.4,0.9c0.5,0,1.1-0.1,1.6-0.3
			c1.3-0.6,2.1-1.9,2.1-3.3l0.3-94.4c0-1.1-0.5-2.1-1.3-2.9C188.1,38.5,172.7,34.1,153,34.1z M25.9,48.5c4.5,0.9,12.1,2.3,21.5,3.4
			c-5.5,16.7-19.9,18.9-20.5,19c-0.4,0-0.7,0.2-1,0.3V48.5z M25.9,119.5c0.2,0.1,0.3,0.2,0.6,0.3c15.1,3.8,19.7,14.3,21.1,19
			c-9.8-1.1-17.7-2.6-21.6-3.5V119.5z M173.6,156.4c-30.7-18.3-81.3-3.5-83.7-2.8c-31.2,10.4-71.6,2.9-82.4,0.6V67.2
			c2.8,0.5,6.7,1.2,11.1,1.9v69c0,1.7,1.1,3.2,2.8,3.6c0.9,0.2,22.9,5.7,48.9,5.7c15.5,0,29.1-1.9,40.5-5.7c0.2-0.1,20.3-6,42-6
			c7.9,0,14.9,0.8,21.1,2.3L173.6,156.4z M192.3,137.4c-5.1-3-11.1-5.3-17.8-6.8c0.8-3.3,4.3-13.8,17.9-18L192.3,137.4z M192.4,105
			C192.4,105,192.4,105,192.4,105c-19.6,4.9-24.2,19.8-25.2,24.4c-4.5-0.6-9.3-0.9-14.5-0.9c-22.9,0-43.3,6-44.2,6.3
			c-10.8,3.6-23.6,5.4-38.3,5.4c-5.2,0-10.2-0.2-14.9-0.6c-0.6-3.5-4.8-21.3-27-26.9c-0.8-0.2-1.6-0.1-2.3,0.2v-35
			c0.5,0.2,0.9,0.3,1.4,0.3c0.2,0,0.3,0,0.5,0c0.9-0.1,20.5-2.9,27-25.7c4.9,0.4,10,0.6,15.4,0.6c15.5,0,29.1-1.9,40.5-5.7
			c0.2-0.1,20.4-6,42.2-6c3.3,0,6.4,0.2,9.5,0.4c6.5,25.5,27.6,29.4,30.1,29.8L192.4,105z M192.5,64.2c-3.9-0.9-16.7-5-22.1-21.2
			c9,1.6,16.4,4.7,22.1,9L192.5,64.2z"/>
	</g>
	<path class="st7" d="M14.8,68.6c1.2,0.2,2.4,0.4,3.7,0.6v69c0,1.7,1.1,3.2,2.8,3.6c0.9,0.2,22.9,5.7,48.9,5.7
		c15.5,0,29.1-1.9,40.5-5.7c0.2-0.1,20.3-6,42-6c7.9,0,14.9,0.8,21.1,2.3l-0.1,4.2l-3.6-1c-6.2-1.5-13.2-2.3-21.1-2.3
		c-21.7,0-41.8,5.9-42,6c-11.4,3.8-25.1,5.7-40.5,5.7c-26.1,0-48-5.5-48.9-5.7c-1.6-0.4-2.8-1.9-2.8-3.6V71.5L14.8,68.6z"/>
	<path class="st12" d="M74,53.1l-38.4,62.1c8.9,4,13.8,10.3,16.5,15.5l50-80.9C93.7,51.8,84.3,52.9,74,53.1z"/>
	<path class="st12" d="M162.4,41.9c-3-0.3-6.2-0.4-9.5-0.4c-9.1,0-17.8,1-25,2.2l-13.3,21.5v2.6h7.4c2,0,3.7,1.7,3.7,3.7
		s-1.7,3.7-3.7,3.7h-13.6l-7.2,11.6c1.5,1.8,4,3.2,6.3,3.2h7h0.5c7.9,0,14.3,6.1,14.3,13.5v0.6c0,7.2-6.3,15.5-14.3,15.5h-0.5v3.7
		c0,2-1.7,3.7-3.7,3.7c-2,0-3.7-1.7-3.7-3.7v-3.7h-7.4c-2,0-3.7-1.7-3.7-3.7s1.7-3.7,3.7-3.7h15.3c3.3,0,6.9-4.2,6.9-8.1v-0.6
		c0-3.3-3.2-6.1-6.9-6.1h-0.5h-7h-0.4c-0.1,0-0.3-0.1-0.4-0.1c-3.6-0.2-6.9-1.8-9.5-4.1l-28.9,46.8c0.6,0,1.2,0,1.9,0
		c14.7,0,27.5-1.8,38.3-5.4c0.5-0.2,6.4-1.9,15.2-3.5l45.7-74C166.6,53.3,164,48.3,162.4,41.9z"/>
</g>
<g id="Layer_5" class="st0">
	<g class="st1">
		<path class="st3" d="M94.9,130.7c-4.7,0-9.6,3.7-9.6,8.4c0,0,0,0.1,0,0.1c0,1.1,0.3,1.7,0.5,1.9c0.7,0.7,4,0.6,6.4,0.6
			c0.8,0,1.7,0,2.6,0l23.2-0.1c0.6-0.2,1.2-0.4,1.7-0.6c1.9-0.7,4,0.3,4.7,2.2c0.7,1.9-0.3,4-2.2,4.7c-3.7,1.4-36.5,13.3-46.9,13.3
			c-4.5,0-13.5-3.7-27.9-9.7c-10-4.2-26.2-10.9-31.6-11.3l0,8.6c0,8.9,50.5,43.1,63.6,43.1c11.9,0,39.2-3.1,43.6-3.5l32-14.7v-31.6
			L129,130.7H94.9z"/>
		<rect x="162.2" y="130.7" class="st2" width="22" height="54.9"/>
		<path class="st3" d="M90.7,105.7c26.9,0,48.8-21.9,48.8-48.8C139.5,29.9,117.6,8,90.7,8S41.9,29.9,41.9,56.8
			C41.9,83.7,63.8,105.7,90.7,105.7z M70.7,44.1c0-9,6.1-15.6,14.6-15.8c0,0,0,0,0-0.1v-7.3c0-2,1.6-3.7,3.7-3.7
			c2,0,3.7,1.6,3.7,3.7v7.3h11c2,0,3.7,1.6,3.7,3.7s-1.6,3.7-3.7,3.7H85.9c-4.8,0-7.8,3.4-7.8,8.6v0.7c0,4.4,2.5,9,7.8,9h9.4h1.1
			c0.4,0,0.7,0.1,1.1,0.2c7.7,1.1,13.5,7.7,13.5,16.1v0.7c0,9.1-6.8,15.9-15.7,15.9h-2.6v7.3c0,2-1.6,3.7-3.7,3.7
			c-2,0-3.7-1.6-3.7-3.7v-7.3H78c-2,0-3.7-1.6-3.7-3.7s1.6-3.7,3.7-3.7h17.2c4.9,0,8.4-3.5,8.4-8.6v-0.7c0-5.2-3.6-9-8.4-9h-9.4
			h-0.5c-0.2,0-0.3-0.1-0.5-0.1c-8.2-0.5-14.1-7.2-14.1-16.3V44.1z"/>
		<path class="st5" d="M187.8,123.4h-29.3c-2,0-3.7,1.6-3.7,3.7v7.1l-23.7-10.4c-0.5-0.2-1-0.3-1.5-0.3H94.9
			c-8.6,0-15.7,6.5-16.6,15.2c-0.1,0.5-0.1,1.3-0.1,1.8c0,0.5,0.1,1,0.3,1.5c0.4,1.9,1.1,3.4,2.3,4.5c2.4,2.4,5.7,2.7,9.4,2.7
			c0.7,0,1.5,0,2.2,0c0.8,0,1.6,0,2.5,0l1.3,0c-8.7,2.7-17.1,4.9-20.9,4.9c-3.3,0-15.4-5-25.1-9.1c-23.7-9.9-34.6-13.9-39.4-10.7
			c-1.5,1-2.3,2.7-2.3,4.9c0,0.4-0.1,0.7-0.1,1.1v8.7c0,15.3,57,50.4,70.9,50.4c13.3,0,43.7-3.5,45-3.7c0.4,0,0.8-0.2,1.1-0.3
			l29.4-13.5v7.5c0,2,1.6,3.7,3.7,3.7h29.3c2,0,3.7-1.6,3.7-3.7V127C191.5,125,189.9,123.4,187.8,123.4z M154.9,173.7l-32,14.7
			c-4.3,0.5-31.7,3.5-43.6,3.5c-13.1,0-63.6-34.3-63.6-43.1l0-8.6c5.4,0.3,21.6,7.1,31.6,11.3c14.4,6,23.4,9.7,27.9,9.7
			c10.4,0,43.2-11.9,46.9-13.3c1.9-0.7,2.9-2.8,2.2-4.7c-0.7-1.9-2.8-2.9-4.7-2.2c-0.5,0.2-1.1,0.4-1.7,0.6l-23.2,0.1
			c-0.9,0-1.8,0-2.6,0c-2.4,0-5.7,0.1-6.4-0.6c-0.2-0.2-0.5-0.8-0.5-1.9c0,0,0-0.1,0-0.1c0-4.7,4.9-8.4,9.6-8.4h34l25.9,11.4V173.7z
			 M184.2,185.6h-22v-54.9h22V185.6z"/>
		<path class="st5" d="M90.7,113c31,0,56.1-25.2,56.1-56.1c0-30.9-25.2-56.1-56.1-56.1c-31,0-56.1,25.2-56.1,56.1
			C34.5,87.8,59.7,113,90.7,113z M90.7,8c26.9,0,48.8,21.9,48.8,48.8c0,26.9-21.9,48.8-48.8,48.8S41.9,83.7,41.9,56.8
			C41.9,29.9,63.8,8,90.7,8z"/>
		<path class="st5" d="M84.9,61.1c0.2,0,0.3,0.1,0.5,0.1h0.5h9.4c4.8,0,8.4,3.9,8.4,9v0.7c0,5-3.5,8.6-8.4,8.6H78
			c-2,0-3.7,1.6-3.7,3.7s1.6,3.7,3.7,3.7h7.3v7.3c0,2,1.6,3.7,3.7,3.7c2,0,3.7-1.6,3.7-3.7v-7.3h2.6c9,0,15.7-6.8,15.7-15.9v-0.7
			c0-8.4-5.8-15.1-13.5-16.1c-0.4-0.1-0.7-0.2-1.1-0.2h-1.1h-9.4c-5.4,0-7.8-4.7-7.8-9v-0.7c0-5.2,3.1-8.6,7.8-8.6h17.8
			c2,0,3.7-1.6,3.7-3.7s-1.6-3.7-3.7-3.7h-11v-7.3c0-2-1.6-3.7-3.7-3.7c-2,0-3.7,1.6-3.7,3.7v7.3c0,0,0,0,0,0.1
			c-8.5,0.3-14.6,6.8-14.6,15.8v0.7C70.7,53.9,76.6,60.5,84.9,61.1z"/>
	</g>
	<rect x="162.2" y="130.7" class="st10" width="22" height="14.6"/>
	<path class="st7" d="M79.4,181c-12,0-55.9-29.1-62.6-40.6c-0.3,0-0.6-0.1-0.9-0.1l0,8.6c0,8.9,50.5,43.1,63.6,43.1
		c11.9,0,39.2-3.1,43.6-3.5l32-14.7v-11l-32,14.7C118.6,177.9,91.3,181,79.4,181z"/>
	<path class="st13" d="M139.5,56.8c0-26.2-20.8-47.6-46.8-48.7v12.8v7.3h11c2,0,3.7,1.6,3.7,3.7s-1.6,3.7-3.7,3.7h-11v18.3h2.6h1.1
		c0.4,0,0.7,0.1,1.1,0.2c7.7,1.1,13.5,7.7,13.5,16.1v0.7c0,9.1-6.8,15.9-15.7,15.9h-2.6v7.3v11.5C118.7,104.5,139.5,83.1,139.5,56.8
		z"/>
</g>
<g id="Layer_6" class="st0">
	<g class="st1">
		<path class="st3" d="M100.9,66.7c16.2,0,29.4-13.2,29.4-29.4c0-16.2-13.2-29.4-29.4-29.4c-16.2,0-29.4,13.2-29.4,29.4
			C71.5,53.5,84.7,66.7,100.9,66.7z M87.5,23.3h29.4c2,0,3.7,1.6,3.7,3.7s-1.6,3.7-3.7,3.7H87.5c-2,0-3.7-1.6-3.7-3.7
			S85.5,23.3,87.5,23.3z M87.5,41.6h29.4c2,0,3.7,1.6,3.7,3.7s-1.6,3.7-3.7,3.7H87.5c-2,0-3.7-1.6-3.7-3.7S85.5,41.6,87.5,41.6z"/>
		<path class="st2" d="M129.1,62.3c-0.3-0.1-0.6-0.4-0.8-0.6c-6.7,7.5-16.5,12.3-27.4,12.3c-12,0-22.6-5.8-29.3-14.7
			c-3.8,0.9-7.8,2-11.2,3.7c-4.4,2.1-9.3-2.2-16.2-8.2c-1.2-1.1-2.8-2.4-4.4-3.7c0.6,1.8,1.4,3.6,1.9,5.2
			c4.4,11.5,5.4,14.2,3.1,16.6c-5.6,5.6-9.4,10.9-12,16.7c-0.2,1.8-1.7,3.3-3.7,3.3H10.4v33h13.7c1.9,0,3.5,1.5,3.7,3.4
			c1.4,20.4,19.6,28.8,37.2,37c0,0,3.9,1,4.1,4.1v21.6h18.3v-14.7h-3.7c-2,0-3.7-1.6-3.7-3.7s1.6-3.7,3.7-3.7h33
			c2,0,3.7,1.6,3.7,3.7s-1.6,3.7-3.7,3.7h-3.7v14.7h22v-25.7c0.1-1.1,1.4-3,2.3-3.6c16.9-10.7,27-28.6,27-47.8v-1.2
			C164.6,91.8,150.7,71.6,129.1,62.3z M52,98.1c-3.9,0-7-3.1-7-7c0-3.9,3.1-7,7-7c3.8,0,7,3.1,7,7C59,94.9,55.9,98.1,52,98.1z
			 M124.2,93h-44c-2,0-3.7-1.6-3.7-3.7s1.6-3.7,3.7-3.7h44c2,0,3.7,1.6,3.7,3.7S126.2,93,124.2,93z"/>
		<ellipse class="st3" cx="52" cy="91.1" rx="7" ry="7"/>
		<path class="st5" d="M193.9,111.3c-2,0-3.7,1.6-3.7,3.7v2.2c0,4.3-4.3,8.8-8.3,8.8h-5.8c-3.7,0-4.3-5.5-4.3-8.8V115v0
			c0,0,0-0.1,0-0.1v-1.2c0-24.7-15.4-47.3-39.3-57.9c3.2-5.4,5.1-11.8,5.1-18.5c0-20.3-16.5-36.7-36.7-36.7S64.2,17.1,64.2,37.3
			c0,5.5,1.3,10.8,3.5,15.5c-3.3,0.9-6.6,1.9-9.8,3.3c-1.9-0.7-6.2-4.5-8.9-6.8C41.9,43.2,36.3,38.4,32,42c-2.7,2.3-1.5,5.4,2.9,17
			c1.2,3.2,2.9,7.8,3.6,10c-5.3,5.5-9.1,10.8-11.9,16.6H6.8c-2,0-3.7,1.6-3.7,3.7v40.4c0,2,1.6,3.7,3.7,3.7h14.1
			c3.4,22.2,24.1,31.9,41,39.7v22.7c0,2,1.6,3.7,3.7,3.7h25.7c2,0,3.7-1.6,3.7-3.7v-18.3h11v18.3c0,2,1.6,3.7,3.7,3.7h29.4
			c2,0,3.7-1.6,3.7-3.7v-27.3c13.4-9,23.1-22.5,27.2-37.2c1.8,1.4,3.9,2.2,6.5,2.2h5.8c8,0,15.6-7.9,15.6-16.2V115
			C197.6,113,195.9,111.3,193.9,111.3z M100.9,7.9c16.2,0,29.4,13.2,29.4,29.4c0,16.2-13.2,29.4-29.4,29.4
			c-16.2,0-29.4-13.2-29.4-29.4C71.5,21.1,84.7,7.9,100.9,7.9z M164.6,114.9c0,19.2-10.1,37.1-27,47.8c-0.9,0.6-2.2,2.5-2.3,3.6
			v25.7h-22v-14.7h3.7c2,0,3.7-1.6,3.7-3.7s-1.6-3.7-3.7-3.7h-33c-2,0-3.7,1.6-3.7,3.7s1.6,3.7,3.7,3.7h3.7v14.7H69.1v-21.6
			c-0.2-3.1-4.1-4.1-4.1-4.1c-17.6-8.1-35.8-16.6-37.2-37c-0.1-1.9-1.7-3.4-3.7-3.4H10.4V93h18.8c1.9,0,3.5-1.4,3.7-3.3
			c2.6-5.8,6.4-11.1,12-16.7c2.3-2.3,1.3-5.1-3.1-16.6c-0.6-1.6-1.3-3.4-1.9-5.2c1.5,1.2,3.1,2.6,4.4,3.7c6.9,6,11.9,10.3,16.2,8.2
			c3.4-1.7,7.3-2.7,11.2-3.7c6.7,8.9,17.3,14.7,29.3,14.7c10.9,0,20.7-4.8,27.4-12.3c0.3,0.2,0.5,0.4,0.8,0.6
			c21.5,9.3,35.4,29.5,35.4,51.4V114.9z"/>
		<path class="st5" d="M87.5,49h29.4c2,0,3.7-1.6,3.7-3.7s-1.6-3.7-3.7-3.7H87.5c-2,0-3.7,1.6-3.7,3.7S85.5,49,87.5,49z"/>
		<path class="st5" d="M87.5,30.6h29.4c2,0,3.7-1.6,3.7-3.7s-1.6-3.7-3.7-3.7H87.5c-2,0-3.7,1.6-3.7,3.7S85.5,30.6,87.5,30.6z"/>
		<path class="st5" d="M124.2,85.7h-44c-2,0-3.7,1.6-3.7,3.7s1.6,3.7,3.7,3.7h44c2,0,3.7-1.6,3.7-3.7S126.2,85.7,124.2,85.7z"/>
	</g>
	<path class="st10" d="M129.1,62.3c-0.3-0.1-0.6-0.4-0.8-0.6c-3.8,4.2-8.5,7.5-13.8,9.7c4.1,4.5,7.8,9.3,11.1,14.5
		c1.3,0.5,2.3,1.8,2.3,3.4c0,0.1,0,0.2-0.1,0.3c9.6,16.5,15.2,36.1,15.2,57c0,4.3-0.3,8.5-0.7,12.7c14-10.9,22.3-27.1,22.3-44.4
		v-1.2C164.6,91.8,150.7,71.6,129.1,62.3z"/>
	<rect x="113.2" y="184.7" class="st7" width="22" height="7.3"/>
	<rect x="69.1" y="184.7" class="st7" width="18.3" height="7.3"/>
	<rect x="10.4" y="93" class="st11" width="7.3" height="33"/>
	<path class="st7" d="M129.1,62.3c-0.3-0.1-0.6-0.4-0.8-0.6c-6.7,7.5-16.5,12.3-27.4,12.3c-12,0-22.6-5.8-29.3-14.7
		c-3.8,0.9-7.8,2-11.2,3.7c-4.4,2.1-9.3-2.2-16.2-8.2c-1.2-1.1-2.8-2.4-4.4-3.7c0.6,1.8,1.4,3.6,1.9,5.2c0.3,0.8,0.6,1.5,0.9,2.3
		c0.5,0.5,1.1,0.9,1.5,1.3c6.9,6,11.9,10.3,16.2,8.2c3.4-1.7,7.3-2.7,11.2-3.6c6.7,8.9,17.3,14.7,29.3,14.7
		c10.9,0,20.7-4.8,27.4-12.3c0.3,0.2,0.5,0.4,0.8,0.6c20.9,9.1,34.6,28.4,35.3,49.6c0-0.7,0.1-1.5,0.1-2.2v-1.2
		C164.6,91.8,150.7,71.6,129.1,62.3z"/>
	<path class="st7" d="M124.2,93h-44c-1.3,0-2.5-0.8-3.1-1.8c-0.3,0.5-0.6,1.2-0.6,1.8c0,2,1.6,3.7,3.7,3.7h44c2,0,3.7-1.6,3.7-3.7
		c0-0.7-0.2-1.3-0.6-1.8C126.7,92.2,125.5,93,124.2,93z"/>
</g>
<g id="Layer_7" class="st0">
	<g class="st1">
		<path class="st9" d="M110.7,8.1c-34.4,0-62.4,28.2-62.4,63c0,0.5-0.1,1-0.3,1.4l-17.8,40h12.2c1.9,0,3.5,1.5,3.5,3.5v24.2h13.8
			c1.9,0,3.5,1.5,3.5,3.5s-1.5,3.5-3.5,3.5H45.8v11.8l51.9,0.3c1.9,0,3.4,1.6,3.4,3.5v28.9l53.1-6.2l-15.3-51
			c-0.5-1.5,0.2-3.2,1.6-4c1.4-0.8,33.2-19.4,32.1-60.2C171.6,31.3,148.5,8.1,110.7,8.1z M112.6,115.4c-27.7,0-50.2-22.5-50.2-50.2
			c0-27.7,22.5-50.2,50.2-50.2c27.7,0,50.2,22.5,50.2,50.2C162.8,92.9,140.3,115.4,112.6,115.4z"/>
		<path class="st2" d="M112.6,21.9c-23.9,0-43.3,19.4-43.3,43.3s19.4,43.3,43.3,43.3c23.9,0,43.3-19.4,43.3-43.3
			S136.5,21.9,112.6,21.9z M116.9,97.7c-0.7,0.7-1.5,1-2.4,1c-0.9,0-1.8-0.4-2.5-1c-0.7-0.6-1-1.5-1-2.5c0-0.9,0.4-1.8,1-2.4
			c1.2-1.3,3.6-1.3,4.9,0c0.7,0.6,1,1.5,1,2.4C117.9,96.2,117.5,97.1,116.9,97.7z M118.4,73.5v11.3c0,1.9-1.5,3.5-3.5,3.5
			c-1.9,0-3.5-1.5-3.5-3.5V70.5c0-1.9,1.5-3.5,3.5-3.5c5.3,0,14-7.1,14-14.6c0-7.9-6.5-14.5-14.2-14.5c-8,0-14,5.7-14,13.2
			c0,1.9-1.5,3.5-3.5,3.5c-1.9,0-3.5-1.5-3.5-3.5c0-11.3,9.2-20.2,21-20.2c11.5,0,21.1,9.8,21.1,21.4
			C135.9,62.4,126.8,71.5,118.4,73.5z"/>
		<path class="st5" d="M179.5,69.9c-1.1-42.4-27.4-68.7-68.8-68.7c-38,0-68.9,30.9-69.3,69.1l-19.7,44.2c-0.5,1.1-0.4,2.3,0.3,3.3
			c0.6,1,1.7,1.6,2.9,1.6h14v42.9c0,1.9,1.5,3.4,3.4,3.5l51.9,0.3v29.4c0,1,0.4,1.9,1.2,2.6c0.6,0.6,1.5,0.9,2.3,0.9
			c0.1,0,0.3,0,0.4,0l61.1-7.2c1-0.1,1.9-0.7,2.5-1.5c0.6-0.9,0.7-1.9,0.4-2.9l-15.8-52.4C154.4,129.3,180.5,108.8,179.5,69.9z
			 M140.5,130.3c-1.4,0.8-2.1,2.5-1.6,4l15.3,51l-53.1,6.2v-28.9c0-1.9-1.5-3.4-3.4-3.5l-51.9-0.3V147h13.8c1.9,0,3.5-1.5,3.5-3.5
			s-1.5-3.5-3.5-3.5H45.8v-24.2c0-1.9-1.5-3.5-3.5-3.5H30.2l17.8-40c0.2-0.4,0.3-0.9,0.3-1.4c0-34.7,28-63,62.4-63
			c37.8,0,61,23.2,61.9,62C173.6,110.9,141.8,129.5,140.5,130.3z"/>
		<path class="st5" d="M112.6,15c-27.7,0-50.2,22.5-50.2,50.2c0,27.7,22.5,50.2,50.2,50.2c27.7,0,50.2-22.5,50.2-50.2
			C162.8,37.5,140.3,15,112.6,15z M112.6,108.5c-23.9,0-43.3-19.4-43.3-43.3s19.4-43.3,43.3-43.3c23.9,0,43.3,19.4,43.3,43.3
			S136.5,108.5,112.6,108.5z"/>
		<path class="st3" d="M114.7,31c-11.7,0-21,8.9-21,20.2c0,1.9,1.5,3.5,3.5,3.5c1.9,0,3.5-1.5,3.5-3.5c0-7.5,6-13.2,14-13.2
			c7.7,0,14.2,6.7,14.2,14.5c0,7.5-8.7,14.6-14,14.6c-1.9,0-3.5,1.5-3.5,3.5v14.3c0,1.9,1.5,3.5,3.5,3.5c1.9,0,3.5-1.5,3.5-3.5V73.5
			c8.4-2,17.5-11.1,17.5-21C135.9,40.8,126.2,31,114.7,31z"/>
		<path class="st3" d="M112,92.8c-0.7,0.6-1,1.5-1,2.4c0,0.9,0.4,1.8,1,2.5c0.6,0.7,1.5,1,2.5,1c0.9,0,1.8-0.4,2.4-1
			c0.7-0.6,1-1.5,1-2.5c0-0.9-0.4-1.8-1-2.4C115.6,91.5,113.2,91.6,112,92.8z"/>
	</g>
	<path class="st7" d="M112.6,115.4c-26.7,0-48.6-21-50.1-47.4c-0.1,0.9-0.1,1.8-0.1,2.7c0,27.7,22.5,50.2,50.2,50.2
		c27.7,0,46.7-22.5,46.7-50.2c0-0.9-0.1-1.8-0.1-2.7C157.7,94.3,139.3,115.4,112.6,115.4z"/>
	<path class="st7" d="M111,95.3c0-0.6,0.2-1.2,0.5-1.7v-8.8V70.5V38.3c-6.3,1.3-10.8,6.4-10.8,12.9c0,1.9-1.5,3.5-3.5,3.5
		c-1.9,0-3.5-1.5-3.5-3.5c0-10.2,7.6-18.4,17.7-19.9V22c-23.3,0.6-42.2,19.7-42.2,43.2c0,23.5,18.8,42.6,42.2,43.2V97
		C111.2,96.4,111,95.9,111,95.3z"/>
	<path class="st14" d="M140.5,130.3c1.4-0.8,33.2-19.4,32.1-60.2c-1-38.8-24.1-62-61.9-62c-1.3,0-2.5,0.1-3.7,0.2
		c34.9,1.9,56,24.7,56.9,61.8c1,40.8-30.9,59.4-32.2,60.2c-1.4,0.8-2.3,2.5-1.8,4l14.9,51l-43.6,5v1.2l53.1-6.2l-15.3-51
		C138.4,132.7,139.1,131.1,140.5,130.3z"/>
</g>
<g id="Layer_8" class="st0">
	<g class="st1">
		<path class="st2" d="M30.9,191.6h52.7v-90.3H30.9V191.6z M64.7,139.8c1.4-1.4,3.9-1.4,5.3,0c0.7,0.7,1.1,1.7,1.1,2.7
			c0,1-0.4,2-1.1,2.7c-0.7,0.7-1.7,1.1-2.7,1.1c-1,0-2-0.4-2.7-1.1c-0.7-0.7-1.1-1.7-1.1-2.7C63.6,141.5,64,140.5,64.7,139.8z
			 M64.7,178.2c1.4-1.4,3.9-1.4,5.3,0c0.7,0.7,1.1,1.7,1.1,2.7c0,1-0.4,2-1.1,2.7c-0.7,0.7-1.7,1.1-2.7,1.1c-1,0-2-0.4-2.7-1.1
			c-0.7-0.7-1.1-1.7-1.1-2.7C63.6,179.9,64,178.9,64.7,178.2z M55.1,120.6c1.4-1.4,4-1.4,5.3,0c0.7,0.7,1.1,1.7,1.1,2.7
			c0,1-0.4,2-1.1,2.6c-0.7,0.7-1.7,1.1-2.7,1.1c-1,0-2-0.4-2.7-1.1c-0.7-0.7-1.1-1.7-1.1-2.6C54,122.3,54.5,121.3,55.1,120.6z
			 M55.1,159c1.4-1.4,3.9-1.4,5.3,0c0.7,0.7,1.1,1.7,1.1,2.7c0,1-0.4,2-1.1,2.6c-0.7,0.7-1.7,1.1-2.7,1.1c-1,0-2-0.4-2.7-1.1
			c-0.7-0.7-1.1-1.7-1.1-2.6C54,160.7,54.5,159.8,55.1,159z M45.5,139.8c1.4-1.4,3.9-1.4,5.3,0c0.7,0.7,1.1,1.7,1.1,2.7
			c0,1-0.4,2-1.1,2.7c-0.7,0.7-1.7,1.1-2.6,1.1c-1,0-2-0.4-2.7-1.1c-0.7-0.7-1.1-1.7-1.1-2.7C44.5,141.5,44.8,140.5,45.5,139.8z
			 M45.5,178.2c1.4-1.4,3.9-1.4,5.3,0c0.7,0.7,1.1,1.7,1.1,2.7c0,1-0.4,2-1.1,2.7c-0.7,0.7-1.7,1.1-2.6,1.1c-1,0-2-0.4-2.7-1.1
			c-0.7-0.7-1.1-1.7-1.1-2.7C44.5,179.9,44.8,178.9,45.5,178.2z"/>
		<rect x="91.1" y="75" class="st8" width="18.8" height="116.6"/>
		<path class="st2" d="M117.4,191.6h52.7v-90.3h-52.7V191.6z M151.2,139.8c1.4-1.4,3.9-1.4,5.3,0c0.7,0.7,1.1,1.7,1.1,2.7
			c0,1-0.4,2-1.1,2.7c-0.7,0.7-1.7,1.1-2.6,1.1c-1,0-2-0.4-2.7-1.1c-0.7-0.7-1.1-1.7-1.1-2.7C150,141.5,150.5,140.5,151.2,139.8z
			 M151.2,178.2c1.4-1.4,3.9-1.4,5.3,0c0.7,0.7,1.1,1.7,1.1,2.7c0,1-0.4,2-1.1,2.7c-0.7,0.7-1.7,1.1-2.7,1.1c-1,0-2-0.4-2.6-1.1
			c-0.7-0.7-1.1-1.7-1.1-2.7C150,179.9,150.5,178.9,151.2,178.2z M141.5,120.6c1.4-1.4,3.9-1.4,5.3,0c0.7,0.7,1.1,1.7,1.1,2.7
			c0,1-0.4,2-1.1,2.6c-0.7,0.7-1.7,1.1-2.7,1.1c-1,0-2-0.4-2.7-1.1c-0.7-0.7-1.1-1.7-1.1-2.6C140.4,122.3,140.9,121.3,141.5,120.6z
			 M141.5,159c1.4-1.4,3.9-1.4,5.3,0c0.7,0.7,1.1,1.7,1.1,2.7c0,1-0.4,2-1.1,2.7c-0.7,0.7-1.7,1.1-2.7,1.1c-1,0-2-0.4-2.7-1.1
			c-0.7-0.7-1.1-1.7-1.1-2.6C140.4,160.7,140.9,159.8,141.5,159z M131.9,139.9c1.4-1.4,4-1.4,5.3,0c0.7,0.7,1.1,1.7,1.1,2.7
			c0,1-0.4,2-1.1,2.7c-0.7,0.7-1.7,1.1-2.7,1.1c-1,0-2-0.4-2.7-1.1c-0.7-0.7-1.1-1.7-1.1-2.7C130.9,141.5,131.3,140.5,131.9,139.9z
			 M131.9,178.2c1.4-1.4,4-1.4,5.3,0c0.7,0.7,1.1,1.7,1.1,2.7c0,1-0.4,2-1.1,2.7c-0.7,0.7-1.7,1.1-2.7,1.1c-1,0-2-0.4-2.7-1.1
			c-0.7-0.7-1.1-1.7-1.1-2.7C130.9,179.9,131.3,178.9,131.9,178.2z"/>
		<rect x="12.1" y="75" class="st3" width="71.5" height="18.8"/>
		<rect x="117.4" y="75" class="st3" width="71.5" height="18.8"/>
		<path class="st5" d="M192.7,67.5h-63.8c7.1-2.7,14.3-6.9,19.8-13.4c7.2-8.6,12.1-18.2,14-27.1c2-9.7,0.1-17.6-5.4-22.2
			c-3-2.5-6.8-3.8-11.2-3.8c-11.2,0-24.9,8.1-35.7,21.1c-3.9,4.7-6.4,10-8,15.3c-1.6-5.3-4.1-10.6-7.9-15.2
			C83.4,9.1,69.7,0.9,58.5,0.9c-4.3,0-8.2,1.2-11.1,3.6c-5.5,4.5-7.4,12.2-5.5,22c1.8,8.9,6.7,18.3,13.8,26.9
			c6,7.3,14.1,11.5,21.9,14.1H8.3c-2.1,0-3.8,1.7-3.8,3.8v26.3c0,2.1,1.7,3.8,3.8,3.8h15v94c0,2.1,1.7,3.8,3.8,3.8h60.2h26.3h60.2
			c2.1,0,3.8-1.7,3.8-3.8v-94h15c2.1,0,3.8-1.7,3.8-3.8V71.2C196.4,69.2,194.7,67.5,192.7,67.5z M83.6,191.6H30.9v-90.3h52.7V191.6z
			 M83.6,93.8H12.1V75h71.5V93.8z M61.5,49.2C55.2,41.5,50.8,33,49.3,25.3c-1.4-6.8-0.3-12.2,2.9-14.8c1.6-1.3,3.7-2,6.3-2
			c8.7,0,20.8,7.5,29.9,18.6c9.9,12,9.2,30.3,8.5,37.7C89.5,64.1,71.5,61.3,61.5,49.2z M109.9,191.6H91.1V75h18.8V191.6z
			 M107.3,64.6c-0.7-7.4-1.3-25.7,8.7-37.7c9.2-11,21.2-18.4,29.9-18.4c2.6,0,4.8,0.7,6.4,2c3.2,2.7,4.2,8.1,2.8,14.9
			c-1.6,7.7-6,16.2-12.4,23.8C132.8,61.2,114.7,64,107.3,64.6z M170.1,191.6h-52.7v-90.3h52.7V191.6z M188.9,93.8h-71.5V75h71.5
			V93.8z"/>
		<path class="st5" d="M48.2,184.7c1,0,2-0.4,2.6-1.1c0.7-0.7,1.1-1.7,1.1-2.7c0-1-0.4-2-1.1-2.7c-1.4-1.4-3.9-1.4-5.3,0
			c-0.7,0.7-1.1,1.7-1.1,2.7c0,1,0.4,2,1.1,2.7C46.2,184.3,47.2,184.7,48.2,184.7z"/>
		<path class="st5" d="M57.8,165.5c1,0,2-0.4,2.7-1.1c0.7-0.7,1.1-1.7,1.1-2.6c0-1-0.4-2-1.1-2.7c-1.4-1.4-3.9-1.4-5.3,0
			c-0.7,0.7-1.1,1.7-1.1,2.7c0,1,0.4,2,1.1,2.6C55.9,165.1,56.8,165.5,57.8,165.5z"/>
		<path class="st5" d="M57.8,127.1c1,0,2-0.4,2.7-1.1c0.7-0.7,1.1-1.7,1.1-2.6c0-1-0.4-2-1.1-2.7c-1.4-1.4-3.9-1.4-5.3,0
			c-0.7,0.7-1.1,1.7-1.1,2.7c0,1,0.4,2,1.1,2.6C55.9,126.7,56.8,127.1,57.8,127.1z"/>
		<path class="st5" d="M67.4,184.7c1,0,2-0.4,2.7-1.1c0.7-0.7,1.1-1.7,1.1-2.7c0-1-0.4-2-1.1-2.7c-1.4-1.4-4-1.4-5.3,0
			c-0.7,0.7-1.1,1.7-1.1,2.7c0,1,0.4,2,1.1,2.7C65.4,184.3,66.4,184.7,67.4,184.7z"/>
		<path class="st5" d="M48.2,146.2c1,0,2-0.4,2.6-1.1c0.7-0.7,1.1-1.7,1.1-2.7c0-1-0.4-2-1.1-2.7c-1.4-1.4-3.9-1.4-5.3,0
			c-0.7,0.7-1.1,1.7-1.1,2.7c0,1,0.4,2,1.1,2.7C46.3,145.9,47.2,146.2,48.2,146.2z"/>
		<path class="st5" d="M67.4,146.2c1,0,2-0.4,2.7-1.1c0.7-0.7,1.1-1.7,1.1-2.7c0-1-0.4-2-1.1-2.7c-1.4-1.4-3.9-1.4-5.3,0
			c-0.7,0.7-1.1,1.7-1.1,2.7c0,1,0.4,2,1.1,2.7C65.4,145.9,66.4,146.2,67.4,146.2z"/>
		<path class="st5" d="M134.6,184.7c1,0,2-0.4,2.7-1.1c0.7-0.7,1.1-1.7,1.1-2.7c0-1-0.4-2-1.1-2.7c-1.4-1.4-4-1.4-5.3,0
			c-0.7,0.7-1.1,1.7-1.1,2.7c0,1,0.4,2,1.1,2.7C132.7,184.3,133.6,184.7,134.6,184.7z"/>
		<path class="st5" d="M153.8,184.7c1,0,2-0.4,2.7-1.1c0.7-0.7,1.1-1.7,1.1-2.7c0-1-0.4-2-1.1-2.7c-1.4-1.4-3.9-1.4-5.3,0
			c-0.7,0.7-1.1,1.7-1.1,2.7c0,1,0.4,2,1.1,2.7C151.8,184.3,152.8,184.7,153.8,184.7z"/>
		<path class="st5" d="M144.2,165.5c1,0,2-0.4,2.7-1.1c0.7-0.7,1.1-1.7,1.1-2.7c0-1-0.4-2-1.1-2.7c-1.4-1.4-3.9-1.4-5.3,0
			c-0.7,0.7-1.1,1.7-1.1,2.7c0,1,0.4,2,1.1,2.6C142.3,165.1,143.2,165.5,144.2,165.5z"/>
		<path class="st5" d="M144.2,127.1c1,0,2-0.4,2.7-1.1c0.7-0.7,1.1-1.7,1.1-2.6c0-1-0.4-2-1.1-2.7c-1.4-1.4-3.9-1.4-5.3,0
			c-0.7,0.7-1.1,1.7-1.1,2.7c0,1,0.4,2,1.1,2.6C142.3,126.7,143.2,127.1,144.2,127.1z"/>
		<path class="st5" d="M134.6,146.2c1,0,2-0.4,2.7-1.1c0.7-0.7,1.1-1.7,1.1-2.7c0-1-0.4-2-1.1-2.7c-1.4-1.4-4-1.4-5.3,0
			c-0.7,0.7-1.1,1.7-1.1,2.6c0,1,0.4,2,1.1,2.7C132.7,145.9,133.6,146.2,134.6,146.2z"/>
		<path class="st5" d="M153.8,146.2c1,0,1.9-0.4,2.6-1.1c0.7-0.7,1.1-1.7,1.1-2.7c0-1-0.4-2-1.1-2.7c-1.4-1.4-3.9-1.4-5.3,0
			c-0.7,0.7-1.1,1.7-1.1,2.7c0,1,0.4,2,1.1,2.7C151.8,145.9,152.8,146.2,153.8,146.2z"/>
	</g>
	<rect x="98.6" y="75" class="st7" width="11.3" height="116.6"/>
	<path class="st11" d="M150,142.5c0-1,0.4-2,1.1-2.7c0.5-0.5,1.3-0.8,2-0.9l16.9-23.5v-14.1H140l-22.6,31.4v55.9l32.7-45.5
		C150.1,142.9,150,142.7,150,142.5z M137.3,145.2c-0.7,0.7-1.7,1.1-2.7,1.1c-1,0-2-0.4-2.7-1.1c-0.7-0.7-1.1-1.7-1.1-2.7
		c0-1,0.4-2,1.1-2.6c1.4-1.4,4-1.4,5.3,0c0.7,0.7,1.1,1.7,1.1,2.7C138.4,143.5,138,144.4,137.3,145.2z M146.9,125.9
		c-0.7,0.7-1.7,1.1-2.7,1.1c-1,0-2-0.4-2.7-1.1c-0.7-0.7-1.1-1.7-1.1-2.6c0-1,0.4-2,1.1-2.7c1.4-1.4,3.9-1.4,5.3,0
		c0.7,0.7,1.1,1.7,1.1,2.7C148,124.3,147.6,125.3,146.9,125.9z"/>
	<path class="st11" d="M83.6,101.3H66.8l-35.9,49.9v40.4h16.6l36.1-50.2V101.3z M50.8,183.6c-0.7,0.7-1.7,1.1-2.6,1.1
		c-1,0-2-0.4-2.7-1.1c-0.7-0.7-1.1-1.7-1.1-2.7c0-1,0.4-2,1.1-2.7c1.4-1.4,3.9-1.4,5.3,0c0.7,0.7,1.1,1.7,1.1,2.7
		C52,181.9,51.6,182.8,50.8,183.6z M50.8,145.2c-0.7,0.7-1.7,1.1-2.6,1.1c-1,0-2-0.4-2.7-1.1c-0.7-0.7-1.1-1.7-1.1-2.7
		c0-1,0.4-2,1.1-2.7c1.4-1.4,3.9-1.4,5.3,0c0.7,0.7,1.1,1.7,1.1,2.7C52,143.5,51.6,144.4,50.8,145.2z M60.5,164.3
		c-0.7,0.7-1.7,1.1-2.7,1.1c-1,0-2-0.4-2.7-1.1c-0.7-0.7-1.1-1.7-1.1-2.6c0-1,0.4-2,1.1-2.7c1.4-1.4,3.9-1.4,5.3,0
		c0.7,0.7,1.1,1.7,1.1,2.7C61.6,162.7,61.2,163.7,60.5,164.3z M60.5,125.9c-0.7,0.7-1.7,1.1-2.7,1.1c-1,0-2-0.4-2.7-1.1
		c-0.7-0.7-1.1-1.7-1.1-2.6c0-1,0.4-2,1.1-2.7c1.4-1.4,4-1.4,5.3,0c0.7,0.7,1.1,1.7,1.1,2.7C61.6,124.3,61.2,125.3,60.5,125.9z
		 M67.4,146.2c-1,0-2-0.4-2.7-1.1c-0.7-0.7-1.1-1.7-1.1-2.7c0-1,0.4-2,1.1-2.7c1.4-1.4,3.9-1.4,5.3,0c0.7,0.7,1.1,1.7,1.1,2.7
		c0,1-0.4,2-1.1,2.7C69.4,145.9,68.4,146.2,67.4,146.2z"/>
	<rect x="117.4" y="101.3" class="st7" width="52.7" height="15"/>
	<rect x="30.9" y="101.3" class="st7" width="52.7" height="15"/>
	<rect x="117.4" y="82.5" class="st7" width="71.5" height="11.3"/>
	<rect x="12.1" y="82.5" class="st7" width="71.5" height="11.3"/>
</g>
<g id="Layer_9" class="st0">
	<g class="st1">
		<g>
			<path class="st3" d="M176.7,159.6l0-17.2l0-0.2c0,0,0,0,0-0.1l0.1-96.7c-19.6-1.2-133.5-1.7-153.1-0.6l-0.1,97.3
				c0,0.1,0,0.2,0,0.3l-0.9,17.3L176.7,159.6z M145.4,68.1c1.4-1.4,3.9-1.3,5.2,0c0.7,0.7,1.1,1.7,1.1,2.6c0,1-0.4,1.9-1.1,2.6
				c-0.7,0.7-1.6,1.1-2.6,1.1c-1,0-1.9-0.4-2.6-1.1c-0.7-0.7-1.1-1.6-1.1-2.6C144.4,69.7,144.7,68.8,145.4,68.1z M50.8,68.1
				c1.3-1.3,3.8-1.4,5.2,0c0.7,0.7,1.1,1.7,1.1,2.6c0,1-0.4,1.9-1.1,2.6c-0.7,0.7-1.6,1.1-2.6,1.1c-1,0-1.9-0.4-2.6-1.1
				c-0.7-0.7-1.1-1.6-1.1-2.6C49.7,69.7,50.1,68.8,50.8,68.1z M49,88.8c0-2,1.7-4.8,3.7-4.8c0,0,0.1,0,0.1,0c2.1,0,3.7,2.9,3.6,4.9
				c0,0.9-0.3,22.3,12.9,35.8c7.3,7.5,17.5,11.7,30.2,11.7c43.3,0,44.8-45.8,44.8-47.8c0-2,1.7-4.7,3.7-4.7c0,0,0.1,0,0.1,0
				c2,0,3.6,3,3.6,5c-0.4,18.6-11.8,54.6-52.1,54.6c-14.8,0-26.7-4.8-35.4-13.8C48.9,114.4,49,91.3,49,88.8z"/>
			<path class="st4" d="M81.9,36.9c23.1,0,47.9,0.2,66.3,0.5c13.4,0.2,21.8,0.3,27.1,0.6l-6.8-26.7C152.2,10,48.5,8.9,32,10
				l-6.9,27.5c3.2-0.1,7.4-0.2,13.3-0.3C49.4,37,64.4,36.9,81.9,36.9z"/>
			<polygon class="st8" points="22.3,166.6 20.9,191 179.2,191 178,166.2 			"/>
			<path class="st5" d="M184.1,42.2c0-1.3-0.1-1.5-0.5-3.3l-8.5-31.4c-2.4-4.3-1.5-4-41-4.7c-21.5-0.4-48-0.7-69.1-0.7
				c-38.2,0-38.9,0.3-39.6,4L17.3,38c-0.5,0.8-1,2.4-1,3.7l-0.1,100.8c0,0,0,0.1,0,0.1l-2.8,53c-0.1,1,0.3,1.3,1,2
				c0.7,0.7,1.7,0.4,2.7,0.4h166c1,0,2,0.3,2.7-0.4c0.7-0.7,1.1-1.4,1-2.4l-2.7-53.2L184.1,42.2z M32,10c16.5-1,120.1,0,136.4,1.3
				l6.8,26.7c-5.3-0.3-13.7-0.4-27.1-0.6c-18.4-0.3-43.2-0.5-66.3-0.5c-17.5,0-32.5,0.1-43.5,0.3c-5.9,0.1-10.1,0.2-13.3,0.3L32,10z
				 M23.5,142.2l0.1-97.3c19.6-1.1,133.6-0.7,153.1,0.6l-0.1,96.7c0,0,0,0,0,0.1l0,0.2l0,17.2l-154.1,0.2l0.9-17.3
				C23.6,142.4,23.5,142.3,23.5,142.2z M20.9,191l1.3-24.4l155.7-0.4l1.3,24.8H20.9z"/>
			<path class="st5" d="M99.4,144.1c40.3,0,51.7-36.5,52.1-55.1c0-2-1.6-5-3.6-5c0,0-0.1,0-0.1,0c-2,0-3.6,2.8-3.7,4.8
				c0,1.9-1.5,47.4-44.8,47.4c-12.7,0-22.8-3.7-30.2-11.2C56,111.5,56.3,89.7,56.3,88.8c0-2-1.6-4.8-3.6-4.8c0,0-0.1,0-0.1,0
				c-2,0-3.6,2.8-3.7,4.8c-0.1,2.5-0.1,25.8,14.9,41.3C72.7,139.1,84.6,144.1,99.4,144.1z"/>
			<path class="st5" d="M53.4,74.4c1,0,1.9-0.4,2.6-1.1c0.7-0.7,1.1-1.6,1.1-2.6c0-1-0.4-1.9-1.1-2.6c-1.4-1.4-3.9-1.3-5.2,0
				c-0.7,0.7-1.1,1.6-1.1,2.6c0,1,0.4,1.9,1.1,2.6C51.5,74,52.4,74.4,53.4,74.4z"/>
			<path class="st5" d="M148,74.4c1,0,1.9-0.4,2.6-1.1c0.7-0.7,1.1-1.6,1.1-2.6c0-1-0.4-1.9-1.1-2.6c-1.4-1.3-3.8-1.4-5.2,0
				c-0.7,0.7-1.1,1.7-1.1,2.6c0,1,0.4,1.9,1.1,2.6C146.1,74,147.1,74.4,148,74.4z"/>
		</g>
		<path class="st15" d="M23.7,44.9l-0.2,97.3c0,0.1,0,0.2,0,0.3l-0.8,17.3l77.3-0.1V144c0,0-0.4,0-0.5,0c-14.8,0-26.7-4.6-35.5-13.6
			C48.9,115,49,91.3,49,88.8c0-2,1.7-4.8,3.6-4.8c0,0,0.1,0,0.1,0c2.1,0,3.7,2.9,3.6,4.9c0,0.9-0.3,22.3,12.9,35.8
			c7.3,7.5,17.6,11.7,30.3,11.7c0.2,0,0.5,0.2,0.5,0.2V44.3C67,44.2,33.5,44.3,23.7,44.9z M56,73.3c-0.7,0.7-1.6,1.1-2.6,1.1
			c-1,0-1.9-0.4-2.6-1.1c-0.7-0.7-1.1-1.6-1.1-2.6c0-1,0.4-1.9,1.1-2.6c1.3-1.3,3.8-1.4,5.2,0c0.7,0.7,1.1,1.7,1.1,2.6
			C57,71.7,56.7,72.6,56,73.3z"/>
		<polygon class="st15" points="20.9,191 100,191 100,167 22.3,166.6 		"/>
		<path class="st16" d="M168.4,11.3C152.2,10,48.5,8.9,32,10l-1.5,6.1l140.1,4.1L168.4,11.3z"/>
	</g>
</g>
<g id="Layer_10" class="st0">
	<g class="st1">
		<path class="st3" d="M115.9,120.2c30.4,0,55.2-24.8,55.2-55.2c0-30.4-24.8-55.2-55.2-55.2C85.5,9.8,60.7,34.6,60.7,65
			C60.7,95.5,85.5,120.2,115.9,120.2z M80.8,64.4c1.4-1.4,3.7-1.4,5.1,0L104,82.5l40.4-40.4c1.4-1.4,3.7-1.4,5.1,0
			c1.4,1.4,1.4,3.7,0,5.1l-42.9,42.9c-0.7,0.7-1.6,1.1-2.5,1.1c-1,0-1.9-0.4-2.5-1.1L80.8,69.4C79.4,68,79.4,65.8,80.8,64.4z"/>
		<path class="st4" d="M157.6,110h28.2l5.4-43h-13C177.3,85,169.5,100,157.6,110z"/>
		<path class="st4" d="M74.3,110c-12-10-19.7-25-20.6-43H42.2l5.4,43H74.3z"/>
		<path class="st2" d="M180.5,139h1.7l2.7-21h-37.1c-9.3,7-20.2,8.9-31.9,8.9c-11.7,0-22.5-1.9-31.9-8.9H48.4l2.7,21H180.5z"/>
		<path class="st5" d="M180.5,146h4.9c1.8,0,3.3-0.7,3.6-2.5l9.8-78.8c0.1-1-0.2-2.4-0.9-3.2c-0.7-0.8-1.7-1.6-2.7-1.6h-17.1
			C176.1,28,149,1.6,115.9,1.6C82.9,1.6,55.8,28,53.7,60H41.1l-4.3-32.9C36.5,25.4,35,24,33.2,24H3.7c-1,0-2,1-2.7,1.7
			c-0.7,0.8-1,2-0.9,3l2.5,23.5c0.2,2,2,3.5,4,3.3c2-0.2,3.4-2.6,3.2-4.5l-2-20H30l5.4,42c0,0.2,0.1,0.8,0.2,1l8.5,68.2
			c-0.2,0.4-0.2,1.1-0.2,1.6v17.9c-8,2.5-13.4,9.6-13.4,18.1c0,10.5,8.5,19.1,19,19.1c10.5,0,19.1-8.6,19.1-19.1
			c0-5.1-2-9.6-5.3-13.1l99.6,0.4c-3,3.4-4.9,7.8-4.9,12.7c0,10.5,8.6,19.1,19.1,19.1s19.1-8.6,19.1-19.1s-8.6-19.1-19.1-19.1
			c-1.3,0-2.6,0.1-3.9,0.4L51,159.1V146H180.5z M177.3,167.8c6.6,0,11.9,5.3,11.9,11.9s-5.3,11.9-11.9,11.9s-11.9-5.3-11.9-11.9
			S170.7,167.8,177.3,167.8z M178.2,67h13l-5.4,43h-28.2C169.5,100,177.3,85,178.2,67z M115.9,9.8c30.4,0,55.2,24.8,55.2,55.2
			c0,30.4-24.8,55.2-55.2,55.2c-30.4,0-55.2-24.8-55.2-55.2C60.7,34.6,85.5,9.8,115.9,9.8z M42.2,67h11.5c0.9,18,8.6,33,20.6,43
			H47.5L42.2,67z M61.5,179.7c0,6.6-5.3,11.9-11.9,11.9c-6.6,0-11.9-5.3-11.9-11.9s5.3-11.9,11.9-11.9
			C56.2,167.8,61.5,173.2,61.5,179.7z M48.4,118h35.6c9.3,7,20.2,8.9,31.9,8.9c11.7,0,22.5-1.9,31.9-8.9h37.1l-2.7,21h-1.7H51.1
			L48.4,118z"/>
		<path class="st5" d="M101.5,90.2c0.7,0.7,1.6,1.1,2.5,1.1c1,0,1.9-0.4,2.5-1.1l42.9-42.9c1.4-1.4,1.4-3.7,0-5.1
			c-1.4-1.4-3.7-1.4-5.1,0L104,82.5L85.9,64.4c-1.4-1.4-3.7-1.4-5.1,0c-1.4,1.4-1.4,3.7,0,5.1L101.5,90.2z"/>
	</g>
	<path class="st17" d="M157.6,110h28.2l5.4-43h-13C177.3,85,169.5,100,157.6,110z"/>
	<path class="st17" d="M74.3,110c-12-10-19.7-25-20.6-43H42.2l5.4,43H74.3z"/>
	<path class="st7" d="M84.1,118H48.4l2.7,21H116v-11.6C104,127.4,93.4,125,84.1,118z"/>
	<path class="st10" d="M74.3,110c-12-10-19.7-25-20.6-43H42.2l5.4,43H74.3z"/>
	<path class="st7" d="M115.9,129.9c11.7,0,22.5-1.9,31.9-8.9h36.6l0.4-3h-37.1c-9.3,7-20.2,8.9-31.9,8.9c-11.7,0-22.5-1.9-31.9-8.9
		H48.4l0.4,3h35.2C93.4,128,104.3,129.9,115.9,129.9z"/>
	<path class="st7" d="M106.7,90.2c-0.7,0.7-1.7,1.1-2.6,1.1c-1,0-1.9-0.4-2.6-1.1L80.8,69.4c-1.4-1.4-1.4-3.7,0-5.1
		c1.4-1.4,3.7-1.4,5.1,0l18.3,18.2L116,70.8v-61C85,9.9,61,34.6,61,65c0,30.4,24,55.1,55,55.2V81L106.7,90.2z"/>
</g>
<g id="Layer_11" class="st0">
	<g class="st1">
		<path class="st8" d="M46.9,67H20v109h60V67H66.8H46.9z M37,164.9c0,1.8-1.7,3.3-3.5,3.3c-1.8,0-3.5-1.5-3.5-3.3V81.1
			c0-1.8,1.7-3.3,3.5-3.3c1.8,0,3.5,1.5,3.5,3.3V164.9z M54,164c0,1.8-1.7,3.3-3.5,3.3c-1.8,0-3.5-1.5-3.5-3.3V81.1
			c0-1.8,1.7-3.3,3.5-3.3c1.8,0,3.5,1.5,3.5,3.3V164z M70,81.1V164c0,1.8-1.2,3.3-3,3.3c-1.8,0-3-1.5-3-3.3V81.1
			c0-1.8,1.2-3.3,3-3.3C68.8,77.7,70,79.2,70,81.1z"/>
		<path class="st3" d="M133.2,73H113v103h67V73h-23.6H133.2z M139.8,156h-10c-1.8,0-3.3-1.2-3.3-3s1.5-3,3.3-3h10
			c1.8,0,3.3,1.2,3.3,3S141.6,156,139.8,156z M139.8,140h-10c-1.8,0-3.3-1.7-3.3-3.5s1.5-3.5,3.3-3.5h10c1.8,0,3.3,1.7,3.3,3.5
			S141.6,140,139.8,140z M139.8,123h-10c-1.8,0-3.3-1.2-3.3-3s1.5-3,3.3-3h10c1.8,0,3.3,1.2,3.3,3S141.6,123,139.8,123z M139.8,107
			h-10c-1.8,0-3.3-1.7-3.3-3.5s1.5-3.5,3.3-3.5h10c1.8,0,3.3,1.7,3.3,3.5S141.6,107,139.8,107z M139.8,90h-10
			c-1.8,0-3.3-1.7-3.3-3.5s1.5-3.5,3.3-3.5h10c1.8,0,3.3,1.7,3.3,3.5S141.6,90,139.8,90z M163,156h-10c-1.8,0-3.3-1.2-3.3-3
			s1.5-3,3.3-3h10c1.8,0,3.3,1.2,3.3,3S164.9,156,163,156z M163,140h-10c-1.8,0-3.3-1.7-3.3-3.5s1.5-3.5,3.3-3.5h10
			c1.8,0,3.3,1.7,3.3,3.5S164.9,140,163,140z M163,123h-10c-1.8,0-3.3-1.2-3.3-3s1.5-3,3.3-3h10c1.8,0,3.3,1.2,3.3,3
			S164.9,123,163,123z M163,107h-10c-1.8,0-3.3-1.7-3.3-3.5s1.5-3.5,3.3-3.5h10c1.8,0,3.3,1.7,3.3,3.5S164.9,107,163,107z
			 M166.4,86.5c0,1.8-1.5,3.5-3.3,3.5h-10c-1.8,0-3.3-1.7-3.3-3.5s1.5-3.5,3.3-3.5h10C164.9,83,166.4,84.7,166.4,86.5z"/>
		<path class="st4" d="M130,24H70v36h13.4c1.8,0,3.6,2.6,3.6,4.5V176h20V71.1c0-1.8,1.1-4.1,3-4.1h20V24z M80.1,40
			c-1.8,0-3.3-1.2-3.3-3s1.5-3,3.3-3h10c1.8,0,3.3,1.2,3.3,3s-1.5,3-3.3,3H80.1z M119.9,57H90c-1.8,0-3.3-1.7-3.3-3.5S88.2,50,90,50
			h29.9c1.8,0,3.3,1.7,3.3,3.5S121.7,57,119.9,57z M119.9,40h-13.3c-1.8,0-3.3-1.2-3.3-3s1.5-3,3.3-3h13.3c1.8,0,3.3,1.2,3.3,3
			S121.7,40,119.9,40z"/>
		<path class="st5" d="M196.2,176H186V71.1c0-1.8-1.2-4.1-3.1-4.1h-26.5H136V21.3c0-1.8-1-4.3-2.8-4.3H66.8C65,17,64,19.5,64,21.3
			V60H46.9H17.1c-1.8,0-3.1,2.6-3.1,4.5V176H3.8c-1.8,0-3.3,1.7-3.3,3.5S2,183,3.8,183h192.4c1.8,0,3.3-1.7,3.3-3.5
			S198,176,196.2,176z M80,176H20V67h26.9h19.9H80V176z M107,71.1V176H87V64.5c0-1.8-1.8-4.5-3.6-4.5H70V24h60v43h-20
			C108.1,67,107,69.3,107,71.1z M180,176h-67V73h20.2h23.2H180V176z"/>
		<path class="st5" d="M33.5,77.7c-1.8,0-3.5,1.5-3.5,3.3v83.8c0,1.8,1.7,3.3,3.5,3.3c1.8,0,3.5-1.5,3.5-3.3V81.1
			C37,79.2,35.3,77.7,33.5,77.7z"/>
		<path class="st5" d="M64,81.1V164c0,1.8,1.2,3.3,3,3.3c1.8,0,3-1.5,3-3.3V81.1c0-1.8-1.2-3.3-3-3.3C65.2,77.7,64,79.2,64,81.1z"/>
		<path class="st5" d="M50.5,77.7c-1.8,0-3.5,1.5-3.5,3.3V164c0,1.8,1.7,3.3,3.5,3.3c1.8,0,3.5-1.5,3.5-3.3V81.1
			C54,79.2,52.3,77.7,50.5,77.7z"/>
		<path class="st5" d="M139.8,83h-10c-1.8,0-3.3,1.7-3.3,3.5s1.5,3.5,3.3,3.5h10c1.8,0,3.3-1.7,3.3-3.5S141.6,83,139.8,83z"/>
		<path class="st5" d="M139.8,100h-10c-1.8,0-3.3,1.7-3.3,3.5s1.5,3.5,3.3,3.5h10c1.8,0,3.3-1.7,3.3-3.5S141.6,100,139.8,100z"/>
		<path class="st5" d="M139.8,117h-10c-1.8,0-3.3,1.2-3.3,3s1.5,3,3.3,3h10c1.8,0,3.3-1.2,3.3-3S141.6,117,139.8,117z"/>
		<path class="st5" d="M139.8,133h-10c-1.8,0-3.3,1.7-3.3,3.5s1.5,3.5,3.3,3.5h10c1.8,0,3.3-1.7,3.3-3.5S141.6,133,139.8,133z"/>
		<path class="st5" d="M139.8,150h-10c-1.8,0-3.3,1.2-3.3,3s1.5,3,3.3,3h10c1.8,0,3.3-1.2,3.3-3S141.6,150,139.8,150z"/>
		<path class="st5" d="M149.8,86.5c0,1.8,1.5,3.5,3.3,3.5h10c1.8,0,3.3-1.7,3.3-3.5S164.9,83,163,83h-10
			C151.2,83,149.8,84.7,149.8,86.5z"/>
		<path class="st5" d="M93.4,37c0-1.8-1.5-3-3.3-3h-10c-1.8,0-3.3,1.2-3.3,3s1.5,3,3.3,3h10C91.9,40,93.4,38.8,93.4,37z"/>
		<path class="st5" d="M119.9,50H90c-1.8,0-3.3,1.7-3.3,3.5S88.2,57,90,57h29.9c1.8,0,3.3-1.7,3.3-3.5S121.7,50,119.9,50z"/>
		<path class="st5" d="M119.9,34h-13.3c-1.8,0-3.3,1.2-3.3,3s1.5,3,3.3,3h13.3c1.8,0,3.3-1.2,3.3-3S121.7,34,119.9,34z"/>
		<path class="st5" d="M163,100h-10c-1.8,0-3.3,1.7-3.3,3.5s1.5,3.5,3.3,3.5h10c1.8,0,3.3-1.7,3.3-3.5S164.9,100,163,100z"/>
		<path class="st5" d="M163,117h-10c-1.8,0-3.3,1.2-3.3,3s1.5,3,3.3,3h10c1.8,0,3.3-1.2,3.3-3S164.9,117,163,117z"/>
		<path class="st5" d="M163,133h-10c-1.8,0-3.3,1.7-3.3,3.5s1.5,3.5,3.3,3.5h10c1.8,0,3.3-1.7,3.3-3.5S164.9,133,163,133z"/>
		<path class="st5" d="M163,150h-10c-1.8,0-3.3,1.2-3.3,3s1.5,3,3.3,3h10c1.8,0,3.3-1.2,3.3-3S164.9,150,163,150z"/>
	</g>
	<path class="st7" d="M180,76.1L163.5,101c1.7,0.1,3,1.2,3,3c0,1.8-1.6,3-3.4,3H159l-6.6,10.1c0.2-0.1,0.5-0.1,0.7-0.1h10
		c1.8,0,3.3,1.2,3.3,3s-1.5,3-3.3,3h-10c-1.6,0-2.9-0.6-3.2-2.1l-8.6,13.4c1.1,0.6,1.8,1.4,1.8,2.7c0,1.8-1.5,3.1-3.3,3.1h-2.6
		l-6.5,10h9.1c1.8,0,3.3,1.2,3.3,3s-1.5,3-3.3,3h-10c-1.1,0-2-0.5-2.6-1.3L113.4,176H180V76.1z M163,156h-10c-1.8,0-3.3-1.2-3.3-3
		s1.5-3,3.3-3h10c1.8,0,3.3,1.2,3.3,3S164.9,156,163,156z M163,140h-10c-1.8,0-3.3-1.7-3.3-3.5s1.5-3.5,3.3-3.5h10
		c1.8,0,3.3,1.7,3.3,3.5S164.9,140,163,140z"/>
	<path class="st6" d="M30,81.1c0-1.8,1.7-3.3,3.5-3.3c1.8,0,3.5,1.5,3.5,3.3v66.5l10-18V81.1c0-1.8,1.7-3.3,3.5-3.3
		c1.8,0,3.5,1.5,3.5,3.3v36.4l10-18V81.1c0-1.8,1.2-3.3,3-3.3c1.8,0,3,1.5,3,3.3v6.3l10-18V67H66.8H46.9H20v109h0.5l9.5-16.4V81.1z"
		/>
	<path class="st6" d="M90,57c-1.8,0-3.3-1.7-3.3-3.5S88.2,50,90,50h28.8l10.9-26H70v36h13.4c1.8,0,3.6,2.6,3.6,4.5v64.8L107,81v-9.9
		c0-1.8,1.1-4.1,3-4.1h2.1l4.1-10H90z M106.6,34h13.3c1.8,0,3.3,1.2,3.3,3s-1.5,3-3.3,3h-13.3c-1.8,0-3.3-1.2-3.3-3
		S104.8,34,106.6,34z M80.1,40c-1.8,0-3.3-1.2-3.3-3s1.5-3,3.3-3h10c1.8,0,3.3,1.2,3.3,3s-1.5,3-3.3,3H80.1z"/>
</g>
<g id="Layer_12" class="st0">
	<g class="st1">
		<rect x="145" y="61" class="st4" width="18" height="39"/>
		<rect x="89" y="42" class="st3" width="21" height="11"/>
		<rect x="36" y="42" class="st3" width="18" height="11"/>
		<rect x="89" y="61" class="st4" width="21" height="39"/>
		<rect x="36" y="61" class="st4" width="18" height="39"/>
		<rect x="145" y="42" class="st3" width="18" height="11"/>
		<path class="st4" d="M140.8,108h-28.7H86.9H58.2H33H7v82h185v-82h-26H140.8z M180.3,168H18.7c-2,0-3.6-1-3.6-3c0-2,1.6-3,3.6-3
			h161.7c2,0,3.6,1,3.6,3C183.9,167,182.3,168,180.3,168z M180.3,151H18.7c-2,0-3.6-2-3.6-4c0-2,1.6-4,3.6-4h161.7c2,0,3.6,2,3.6,4
			C183.9,149,182.3,151,180.3,151z M183.9,129.5c0,2-1.6,3.5-3.6,3.5H18.7c-2,0-3.6-1.5-3.6-3.5c0-2,1.6-3.5,3.6-3.5h161.7
			C182.3,126,183.9,127.5,183.9,129.5z"/>
		<path class="st5" d="M15.1,129.5c0,2,1.6,3.5,3.6,3.5h161.7c2,0,3.6-1.5,3.6-3.5c0-2-1.6-3.5-3.6-3.5H18.7
			C16.7,126,15.1,127.5,15.1,129.5z"/>
		<path class="st5" d="M180.3,143H18.7c-2,0-3.6,2-3.6,4c0,2,1.6,4,3.6,4h161.7c2,0,3.6-2,3.6-4C183.9,145,182.3,143,180.3,143z"/>
		<path class="st5" d="M180.3,162H18.7c-2,0-3.6,1-3.6,3c0,2,1.6,3,3.6,3h161.7c2,0,3.6-1,3.6-3C183.9,163,182.3,162,180.3,162z"/>
		<path class="st5" d="M194.7,100H169V40.1c0-2-1-5.1-3-5.1h-25.1c-2,0-4.8,3.1-4.8,5.1V100h-20V40.1c0-2-1.9-5.1-3.9-5.1H86.9
			c-2,0-3.9,3.1-3.9,5.1V100H63V40.1c0-2-2.8-5.1-4.8-5.1H33c-2,0-3,3.1-3,5.1V100H4.3c-2,0-3.3,2.8-3.3,4.8v89.8
			c0,2,1.3,3.4,3.3,3.4h190.4c2,0,3.3-1.4,3.3-3.4v-89.8C198,102.8,196.7,100,194.7,100z M145,42h18v11h-18V42z M145,61h18v39h-18
			V61z M89,42h21v11H89V42z M89,61h21v39H89V61z M36,42h18v11H36V42z M36,61h18v39H36V61z M192,190H7v-82h26h25.1h28.7h25.1h28.7
			H166h26V190z"/>
		<path class="st5" d="M127.4,24c5,0,9.7-3.9,14.7-8.1c3.5-2.9,7.8-6.4,10.1-6.4c4.3,0,8.8,6.1,10,8.3c1,1.7,3.2,2.3,4.9,1.3
			c1.7-1,2.3-3.2,1.3-4.9c-0.7-1.2-7.1-11.9-16.3-11.9c-5,0-9.7,3.9-14.7,8c-3.5,2.9-7.8,6.4-10.2,6.4c-4.6,0-6.3-3.8-6.5-4.2
			c-0.7-1.8-2.8-2.8-4.6-2.1c-1.8,0.7-2.8,2.8-2.1,4.6C114.4,15.6,117.7,24,127.4,24z"/>
		<path class="st5" d="M52,24c5,0,9.7-3.9,14.7-8.1c3.5-2.9,7.8-6.4,10.1-6.4c4.3,0,8.8,6.1,10,8.3c1,1.7,3.2,2.3,4.9,1.3
			c1.7-1,2.3-3.2,1.3-4.9C92.4,13,86.1,2.3,76.9,2.3c-5,0-9.7,3.9-14.7,8c-3.5,2.9-7.8,6.4-10.2,6.4c-4.6,0-6.3-3.8-6.5-4.2
			c-0.7-1.8-2.8-2.8-4.6-2.1c-1.8,0.7-2.8,2.8-2.1,4.6C38.9,15.6,42.3,24,52,24z"/>
	</g>
	<rect x="145" y="61" class="st7" width="11" height="39"/>
	<rect x="145" y="42" class="st7" width="11" height="11"/>
	<rect x="89" y="61" class="st7" width="11" height="39"/>
	<rect x="89" y="42" class="st7" width="11" height="11"/>
	<rect x="36" y="61" class="st7" width="11" height="39"/>
	<rect x="36" y="42" class="st7" width="11" height="11"/>
	<path class="st7" d="M18.7,168c-2,0-3.6-1-3.6-3c0-2,1.6-3,3.6-3H100v-11H18.7c-2,0-3.6-2-3.6-4c0-2,1.6-4,3.6-4H100v-10H18.7
		c-2,0-3.6-1.5-3.6-3.5c0-2,1.6-3.5,3.6-3.5H100v-18H86.9H58.2H33H7v82h93v-22H18.7z"/>
</g>
<g id="Layer_13" class="st0">
	<path class="st18" d="M67.6,9.2h-26c-15.6,0-27.3,11-27.3,25.6c0,13.9,11.3,28,24.2,30c2.4,0.4,3.9,2.6,7.2,7.5
		c0.6,0.9,1.5,2.2,2.2,3.2l8.3-7.4c0.7-0.6,1.6-1,2.6-1h8.9c14.6,0,27.4-13.5,27.4-29C94.9,22.7,82.1,9.2,67.6,9.2z M75,51.7H32.5
		c-2.1,0-3.9-1.7-3.9-3.9c0-2.1,1.7-3.9,3.9-3.9H75c2.1,0,3.9,1.7,3.9,3.9C78.9,50,77.1,51.7,75,51.7z M75,32.4H32.5
		c-2.1,0-3.9-1.7-3.9-3.9s1.7-3.9,3.9-3.9H75c2.1,0,3.9,1.7,3.9,3.9S77.1,32.4,75,32.4z"/>
	<path class="st19" d="M59.4,104.3c-11,0-19.9,8.9-19.9,19.9c0,11,8.9,19.9,19.9,19.9c11,0,19.9-8.9,19.9-19.9
		C79.3,113.2,70.4,104.3,59.4,104.3z"/>
	<path class="st20" d="M40.2,179.3v11.5h38.6v-11.5c0-7.7-1.9-25.5-19.3-25.5S40.2,171.7,40.2,179.3z"/>
	<path class="st18" d="M158.5,9.2h-26c-15.6,0-27.4,11-27.4,25.6c0,13.9,11.3,28,24.2,30c2.4,0.4,3.9,2.6,7.2,7.5
		c0.6,0.9,1.5,2.2,2.2,3.2l8.3-7.4c0.7-0.6,1.6-1,2.6-1h8.9c14.6,0,27.4-13.5,27.4-29C185.9,22.7,173.1,9.2,158.5,9.2z M167.8,51.7
		h-42.5c-2.1,0-3.9-1.7-3.9-3.9c0-2.1,1.7-3.9,3.9-3.9h42.5c2.1,0,3.9,1.7,3.9,3.9C171.6,50,169.9,51.7,167.8,51.7z M167.8,32.4
		h-42.5c-2.1,0-3.9-1.7-3.9-3.9s1.7-3.9,3.9-3.9h42.5c2.1,0,3.9,1.7,3.9,3.9S169.9,32.4,167.8,32.4z"/>
	<path class="st21" d="M75,24.6H32.5c-2.1,0-3.9,1.7-3.9,3.9s1.7,3.9,3.9,3.9H75c2.1,0,3.9-1.7,3.9-3.9S77.1,24.6,75,24.6z"/>
	<path class="st21" d="M75,44H32.5c-2.1,0-3.9,1.7-3.9,3.9c0,2.1,1.7,3.9,3.9,3.9H75c2.1,0,3.9-1.7,3.9-3.9C78.9,45.7,77.1,44,75,44
		z"/>
	<path class="st21" d="M158.5,1.4h-26c-15.7,0-28.3,8.8-33,21.8C93.9,10.5,81.5,1.4,67.6,1.4h-26c-20,0-35.1,14.3-35.1,33.3
		c0,17.4,13.5,34.3,29.7,37.5c0.8,0.9,2.1,3,3.1,4.4c3.8,5.6,5.5,8.1,8.4,8.1c0.9,0,1.9-0.3,2.6-1l10-8.9h7.4
		c15.2,0,28.4-10.7,33.2-25.1c5,11.2,15,20.2,26.4,22.5c0.8,0.9,2.1,3,3.1,4.4c3.8,5.6,5.5,8.1,8.4,8.1c0.9,0,1.9-0.3,2.6-1l10-8.9
		h7.4c19,0,35.1-16.8,35.1-36.7C193.6,18.3,177.5,1.4,158.5,1.4z M67.6,67.1h-8.9c-0.9,0-1.9,0.3-2.6,1l-8.3,7.4
		c-0.8-1.1-1.6-2.3-2.2-3.2c-3.3-4.9-4.8-7.1-7.2-7.5c-12.9-2.1-24.2-16.1-24.2-30c0-14.6,11.8-25.6,27.3-25.6h26
		c14.6,0,27.4,13.5,27.4,29C94.9,53.6,82.1,67.1,67.6,67.1z M158.5,67.1h-8.9c-0.9,0-1.9,0.3-2.6,1l-8.3,7.4
		c-0.8-1.1-1.6-2.3-2.2-3.2c-3.3-4.9-4.8-7.1-7.2-7.5c-12.9-2.1-24.2-16.1-24.2-30c0-14.6,11.8-25.6,27.4-25.6h26
		c14.6,0,27.4,13.5,27.4,29C185.9,53.6,173.1,67.1,158.5,67.1z"/>
	<path class="st21" d="M167.8,24.6h-42.5c-2.1,0-3.9,1.7-3.9,3.9s1.7,3.9,3.9,3.9h42.5c2.1,0,3.9-1.7,3.9-3.9S169.9,24.6,167.8,24.6
		z"/>
	<path class="st21" d="M167.8,44h-42.5c-2.1,0-3.9,1.7-3.9,3.9c0,2.1,1.7,3.9,3.9,3.9h42.5c2.1,0,3.9-1.7,3.9-3.9
		C171.6,45.7,169.9,44,167.8,44z"/>
	<path class="st21" d="M87.1,124.2c0-15.2-12.4-27.6-27.7-27.6c-15.3,0-27.7,12.4-27.7,27.6c0,10.9,6.3,20.3,15.5,24.8
		c-9.3,4.8-14.8,15.5-14.8,30.3v15.4c0,2.1,1.7,3.9,3.9,3.9h46.4c2.1,0,3.9-1.7,3.9-3.9v-15.4c0-14.9-5.5-25.6-14.9-30.4
		C80.8,144.4,87.1,135,87.1,124.2z M78.9,179.3v11.5H40.2v-11.5c0-7.7,1.9-25.5,19.3-25.5S78.9,171.7,78.9,179.3z M59.4,144.1
		c-11,0-19.9-8.9-19.9-19.9c0-11,8.9-19.9,19.9-19.9c11,0,19.9,8.9,19.9,19.9C79.3,135.2,70.4,144.1,59.4,144.1z"/>
	<g class="st22">
		<path class="st23" d="M40.2,179.3v11.5h19.3v-36.9C42.1,153.9,40.2,171.7,40.2,179.3z"/>
	</g>
	<path class="st7" d="M47.2,124.2c0-9.7,6.9-17.7,16.1-19.5c-1.3-0.2-2.5-0.4-3.9-0.4c-11,0-19.9,8.9-19.9,19.9
		c0,11,8.9,19.9,19.9,19.9c1.3,0,2.6-0.1,3.9-0.4C54.1,141.9,47.2,133.8,47.2,124.2z"/>
	<path class="st19" d="M136.7,104.3c11,0,19.9,8.9,19.9,19.9c0,11-8.9,19.9-19.9,19.9c-11,0-19.9-8.9-19.9-19.9
		C116.8,113.2,125.7,104.3,136.7,104.3z"/>
	<path class="st20" d="M156.2,179.3v11.5h-38.6v-11.5c0-7.7,1.9-25.5,19.3-25.5S156.2,171.7,156.2,179.3z"/>
	<path class="st21" d="M124.5,148.9c-9.4,4.8-14.8,15.5-14.8,30.4v15.4c0,2.1,1.5,3.9,3.6,3.9h46.4c2.1,0,4.1-1.7,4.1-3.9v-15.4
		c0-14.8-5.6-25.5-14.9-30.3c9.2-4.5,15.5-13.9,15.5-24.8c0-15.2-12.4-27.6-27.7-27.6c-15.3,0-27.6,12.4-27.6,27.6
		C109.1,135,115.4,144.4,124.5,148.9z M136.8,153.9c17.4,0,19.3,17.8,19.3,25.5v11.5h-38.6v-11.5
		C117.5,171.7,119.4,153.9,136.8,153.9z M116.8,124.2c0-11,8.9-19.9,19.9-19.9c11,0,19.9,8.9,19.9,19.9c0,11-8.9,19.9-19.9,19.9
		C125.7,144.1,116.8,135.2,116.8,124.2z"/>
	<g class="st22">
		<path class="st23" d="M156.2,179.3v11.5h-19.3v-36.9C152.3,153.9,156.2,171.7,156.2,179.3z"/>
	</g>
	<path class="st7" d="M148.9,124.2c0-9.7-6.9-17.7-16.1-19.5c1.3-0.2,2.5-0.4,3.9-0.4c11,0,19.9,8.9,19.9,19.9
		c0,11-8.9,19.9-19.9,19.9c-1.3,0-2.6-0.1-3.9-0.4C142,141.9,148.9,133.8,148.9,124.2z"/>
	<g class="st22">
		<path class="st23" d="M75,32.4H32.5c-1.4,0-2.6-0.8-3.3-1.9c-0.3,0.6-0.6,1.2-0.6,1.9c0,2.1,1.7,3.9,3.9,3.9H75
			c2.1,0,3.9-1.7,3.9-3.9c0-0.7-0.2-1.4-0.6-1.9C77.6,31.6,76.4,32.4,75,32.4z"/>
	</g>
	<g class="st22">
		<path class="st23" d="M167.8,51.7h-42.5c-1.4,0-2.6-0.8-3.3-1.9c-0.3,0.6-0.6,1.2-0.6,1.9c0,2.1,1.7,3.9,3.9,3.9h42.5
			c2.1,0,3.9-1.7,3.9-3.9c0-0.7-0.2-1.4-0.6-1.9C170.4,50.9,169.2,51.7,167.8,51.7z"/>
	</g>
	<path class="st7" d="M75,51.7H32.5c-1.4,0-2.6-0.8-3.3-1.9c-0.3,0.6-0.6,1.2-0.6,1.9c0,2.1,1.7,3.9,3.9,3.9H75
		c2.1,0,3.9-1.7,3.9-3.9c0-0.7-0.2-1.4-0.6-1.9C77.6,50.9,76.4,51.7,75,51.7z"/>
	<path class="st7" d="M167.8,32.4h-42.5c-1.4,0-2.6-0.8-3.3-1.9c-0.3,0.6-0.6,1.2-0.6,1.9c0,2.1,1.7,3.9,3.9,3.9h42.5
		c2.1,0,3.9-1.7,3.9-3.9c0-0.7-0.2-1.4-0.6-1.9C170.4,31.6,169.2,32.4,167.8,32.4z"/>
	<path class="st7" d="M43.7,13h26c9,0,17.3,5.1,22.3,12.7C87.5,16.1,78,9.2,67.6,9.2h-26c-15.6,0-27.3,11-27.3,25.6
		c0,7.2,3,14.5,7.8,20c-3.5-5-5.6-11-5.6-17C16.3,23.2,28.1,13,43.7,13z"/>
	<path class="st7" d="M129.6,13h26c14.6,0,27.4,13.5,27.4,29c0,5.6-1.7,11-4.6,15.6c4.6-5.2,7.5-12.1,7.5-19.4
		c0-15.4-12.8-29-27.4-29h-26c-10.1,0-18.5,4.6-23.3,11.8C114.2,16,121.3,13,129.6,13z"/>
</g>
<g id="Layer_14" class="st0">
	<path class="st19" d="M35.8,112.1c-9.4,0-17.1,7.7-17.1,17.1c0,9.4,7.7,17.1,17.1,17.1c9.4,0,17.1-7.7,17.1-17.1
		C52.9,119.8,45.2,112.1,35.8,112.1z"/>
	<path class="st20" d="M18,179.8V192h34v-12.2c0-0.8,0.4,0.2,0.3-3.8H18C17.9,180,18,179,18,179.8z"/>
	<path class="st20" d="M35.2,155.5c-9.9,0-14.3,5.5-16.2,13.5h32.3C49.5,161,45,155.5,35.2,155.5z"/>
	<path class="st21" d="M131.8,145.4L106,134.8v-26.4c0-2.1-1.9-3.8-4-3.8c-2.1,0-4,1.7-4,3.8v26.8l-27.3,10.4c-2,0.7-2.9,3-2.1,4.9
		c0.6,1.5,2.1,2.5,3.6,2.5c0.5,0,0.9-0.1,1.4-0.3l29.2-11l26.2,10.7c0.5,0.2,1,0.3,1.5,0.3c1.5,0,2.9-0.9,3.5-2.4
		C134.7,148.5,133.8,146.2,131.8,145.4z"/>
	<path class="st21" d="M60.6,129.2c0-13.7-11.1-24.8-24.8-24.8c-13.7,0-24.8,11.1-24.8,24.8c0,9.4,5.2,17.6,12.9,21.8
		c-8.8,4.4-13.9,14.5-13.9,28.8v16.7c0,2.1,2,2.4,4.1,2.4h42.2c2.1,0,3.8-0.3,3.8-2.4v-16.7c0-14-4.7-23.9-13.2-28.5
		C55,147.3,60.6,138.9,60.6,129.2z M52,179.8V192H18v-12.2c0-0.8-0.1,0.2,0-3.8h34.4C52.4,180,52,179,52,179.8z M51.3,169H19
		c1.8-8,6.3-13.5,16.2-13.5C45,155.5,49.5,161,51.3,169z M35.8,146.3c-9.4,0-17.1-7.7-17.1-17.1c0-9.4,7.7-17.1,17.1-17.1
		c9.4,0,17.1,7.7,17.1,17.1C52.9,138.6,45.2,146.3,35.8,146.3z"/>
	<path class="st7" d="M18,176c0,4,0,3,0,3.8V192h15v-16H18z"/>
	<path class="st7" d="M19,169h14v-12.6C25,157.2,20.7,165,19,169z"/>
	<path class="st7" d="M26.3,129.2c0-8.1,5.7-14.9,13.3-16.6c-1.2-0.3-2.5-0.5-3.8-0.5c-9.4,0-17.1,7.7-17.1,17.1
		c0,9.4,7.7,17.1,17.1,17.1c1.3,0,2.6-0.2,3.8-0.5C32,144.1,26.3,137.3,26.3,129.2z"/>
	<path class="st19" d="M101,8.6c-9.4,0-17.1,7.7-17.1,17.1c0,9.4,7.7,17.1,17.1,17.1c9.4,0,17.1-7.7,17.1-17.1
		C118.1,16.3,110.4,8.6,101,8.6z"/>
	<path class="st17" d="M83,76.4V88h35V76.4c0-0.8-0.5,0.6-0.5-3.4H83.1C83.1,77,83,75.6,83,76.4z"/>
	<path class="st17" d="M100.3,51.5C90.4,51.5,86,57,84.2,65h32.3C114.6,57,110.2,51.5,100.3,51.5z"/>
	<path class="st21" d="M125.7,25.7C125.7,12.1,114.6,1,101,1C87.3,1,76.2,12.1,76.2,25.7c0,9.4,5.1,17.6,12.8,21.8
		C80.2,51.9,75,62,75,76.4v16.7c0,2.1,2.1,2.9,4.2,2.9h42.2c2.1,0,3.6-0.8,3.6-2.9V76.4c0-14-4.7-23.9-13.1-28.5
		C120,43.8,125.7,35.4,125.7,25.7z M118,76.4V88H83V76.4c0-0.8,0.1,0.6,0.1-3.4h34.4C117.5,77,118,75.6,118,76.4z M116.5,65H84.2
		c1.8-8,6.3-13.5,16.2-13.5C110.2,51.5,114.6,57,116.5,65z M101,42.9c-9.4,0-17.1-7.7-17.1-17.1c0-9.4,7.7-17.1,17.1-17.1
		c9.4,0,17.1,7.7,17.1,17.1C118.1,35.2,110.4,42.9,101,42.9z"/>
	<path class="st7" d="M83.1,73c0,4-0.1,2.6-0.1,3.4V88h15V73H83.1z"/>
	<path class="st7" d="M84.2,65H98V52.9C90,53.7,85.8,61,84.2,65z"/>
	<path class="st7" d="M91.5,25.7c0-8.1,5.7-14.9,13.3-16.6c-1.2-0.3-2.5-0.5-3.8-0.5c-9.4,0-17.1,7.7-17.1,17.1
		c0,9.4,7.7,17.1,17.1,17.1c1.3,0,2.6-0.2,3.8-0.5C97.2,40.6,91.5,33.9,91.5,25.7z"/>
	<path class="st19" d="M166.1,112.1c-9.4,0-17.1,7.7-17.1,17.1c0,9.4,7.7,17.1,17.1,17.1c9.4,0,17.1-7.7,17.1-17.1
		C183.2,119.8,175.5,112.1,166.1,112.1z"/>
	<path class="st20" d="M148,179.8V192h35v-12.2c0-0.8-0.3,0.2-0.4-3.8h-34.4C148.2,180,148,179,148,179.8z"/>
	<path class="st20" d="M165.5,155.5c-9.9,0-14.3,5.5-16.2,13.5h32.3C179.8,161,175.3,155.5,165.5,155.5z"/>
	<path class="st21" d="M190.9,129.2c0-13.7-11.1-24.8-24.8-24.8c-13.7,0-24.8,11.1-24.8,24.8c0,9.4,5.5,17.6,13.3,21.8
		c-8.8,4.4-13.6,14.5-13.6,28.8v16.7c0,2.1,1.3,2.4,3.4,2.4h42.2c2.1,0,3.5-0.3,3.5-2.4v-16.7c0-14-4.6-23.9-13-28.5
		C185.1,147.3,190.9,138.9,190.9,129.2z M183,179.8V192h-35v-12.2c0-0.8,0.2,0.2,0.3-3.8h34.4C182.7,180,183,179,183,179.8z
		 M181.6,169h-32.3c1.8-8,6.3-13.5,16.2-13.5C175.3,155.5,179.8,161,181.6,169z M166.1,146.3c-9.4,0-17.1-7.7-17.1-17.1
		c0-9.4,7.7-17.1,17.1-17.1c9.4,0,17.1,7.7,17.1,17.1C183.2,138.6,175.5,146.3,166.1,146.3z"/>
	<path class="st7" d="M148.3,176c0,4-0.3,3-0.3,3.8V192h16v-16H148.3z"/>
	<path class="st7" d="M149.3,169H164v-12.6C155,157.2,151,165,149.3,169z"/>
	<path class="st7" d="M156.6,129.2c0-8.1,5.7-14.9,13.3-16.6c-1.2-0.3-2.5-0.5-3.8-0.5c-9.4,0-17.1,7.7-17.1,17.1
		c0,9.4,7.7,17.1,17.1,17.1c1.3,0,2.6-0.2,3.8-0.5C162.3,144.1,156.6,137.3,156.6,129.2z"/>
</g>
<g id="Layer_15" class="st0">
	<g class="st1">
		<path class="st4" d="M99.5,90.5c15,0,26.5-12,26.5-27.9V45H71v17.1c0,0-0.1,0.1-0.1,0.1C70.9,77.6,83.9,90.5,99.5,90.5z"/>
		<path class="st9" d="M35.6,97.9c-1.9,0-3.6-0.2-5.6-0.5V122h140V97.1c-2,0.4-4.4,0.6-6.6,0.6c-14.2,0-27.2-8.3-33.6-19.8
			c-5.2,12-16.7,20-30.6,20c-13.9,0-26.3-8.3-32.3-20C61.4,89.7,49.4,97.9,35.6,97.9z"/>
		<polygon class="st3" points="172.6,16 28.9,16 11.6,38 188.1,38 		"/>
		<path class="st4" d="M133,62.1c0,14.8,14.6,28.3,30.5,28.3c15.6,0,28.5-12.4,28.5-27.7V45h-59V62.1z"/>
		<rect x="30" y="162" class="st2" width="140" height="22"/>
		<polygon class="st3" points="29.2,129 12.8,155 188.9,155 172.5,129 		"/>
		<path class="st4" d="M63,62.6V45H8v17.6C8,78,20.3,90.5,35.5,90.5C50.7,90.5,63,78,63,62.6z"/>
		<path class="st5" d="M177.6,124.8c-0.2-0.3-0.6-0.5-0.6-0.8V95c13-5.3,22-17.8,22-32.4V42.4c0-1.2-0.6-2.1-1.4-2.8
			c-0.1-0.1-0.1-0.3-0.2-0.5l-19.9-28.9c-0.7-1-1.8-2.2-3-2.2H27.1C26,8,25,9.2,24.3,10.1l-22,28.3c-0.3,0.4-0.4,1.1-0.6,1.6
			C1.2,40.6,1,41.5,1,42.4v20.3c0,14.8,9,27.6,22,32.7v31.4L3.1,157.8c-0.7,1.1-0.8,1.8-0.2,3c0.6,1.2,1.8,1.2,3.2,1.2H23v27.2
			c0,2,1.4,2.8,3.5,2.8h146.8c2,0,3.7-0.8,3.7-2.8V162h18.6c0,0,0.1,0,0.1,0c2,0,3.7-0.9,3.7-2.9c0-1-0.4-1.5-1-2.1L177.6,124.8z
			 M192,62.6c0,15.3-12.9,27.7-28.5,27.7c-15.9,0-30.5-13.5-30.5-28.3V45h59V62.6z M99.2,97.9c13.9,0,25.3-8,30.5-20
			c6.4,11.5,19.5,19.8,33.7,19.8c2.2,0,4.6-0.2,6.6-0.6V122H30V97.4c2,0.3,3.7,0.5,5.6,0.5c13.8,0,25.8-8.2,31.4-20
			C73,89.6,85.3,97.9,99.2,97.9z M71,62.1V45h55v17.6c0,15.9-11.5,27.9-26.5,27.9c-15.6,0-28.6-13-28.6-28.3
			C70.9,62.2,71,62.1,71,62.1z M28.9,16h143.7l15.5,22H11.6L28.9,16z M8,62.6V45h55v17.6C63,78,50.7,90.5,35.5,90.5
			C20.3,90.5,8,78,8,62.6z M170,184H30v-22h140V184z M12.8,155l16.4-26h143.4l16.4,26H12.8z"/>
	</g>
	<rect x="71" y="45" class="st10" width="55" height="11"/>
	<rect x="133" y="45" class="st10" width="59" height="11"/>
	<rect x="8" y="45" class="st10" width="55" height="11"/>
	<path class="st7" d="M67,84.1c6,11.7,18.3,20,32.2,20c13.9,0,25.3-8,30.5-20c6.4,11.5,19.5,19.8,33.7,19.8c2.2,0,4.6-0.2,6.6-0.6
		v-6.2c-2,0.4-4.4,0.6-6.6,0.6c-14.2,0-27.2-8.3-33.6-19.8c-5.2,12-16.7,20-30.6,20c-13.9,0-26.3-8.3-32.2-20
		c-5.6,11.8-17.7,20-31.5,20c-1.9,0-3.6-0.2-5.6-0.5v6.2c2,0.3,3.7,0.5,5.6,0.5C49.4,104.1,61.4,95.9,67,84.1z"/>
	<rect x="30" y="162" class="st7" width="140" height="8"/>
</g>
<g id="Layer_16" class="st0">
	<g class="st1">
		<polygon class="st3" points="172.8,16 30.5,16 11.9,38 188.3,38 		"/>
		<path class="st3" d="M53,154h32v-36H53V154z M63.4,137.6l7.8-10.1c1.2-1.6,3.5-1.9,5.1-0.6c1.6,1.2,1.9,3.5,0.6,5.1l-7.8,10.1
			c-0.7,0.9-1.8,1.4-2.9,1.4c-0.8,0-1.6-0.2-2.2-0.8C62.4,141.5,62.1,139.2,63.4,137.6z"/>
		<path class="st4" d="M64,63V46H9v17c0,15.2,12.5,27.6,27.5,27.6C51.5,90.6,64,78.2,64,63z"/>
		<path class="st4" d="M101.6,90.6c15.1,0,27.4-12.4,27.4-27.6V46H71v16.3C71,76.8,85.8,90.6,101.6,90.6z"/>
		<rect x="115" y="118" class="st3" width="32" height="66"/>
		<path class="st4" d="M136,62.5c0,15.7,11.9,28,26.9,28c15.4,0,28.1-12.3,28.1-27.4V46h-55V62.5z"/>
		<path class="st9" d="M132.7,78.5C127,90,115.2,97.9,101.6,97.9c-14.1,0-27.4-8.7-33.8-20.4c-5.5,12-17.4,20.4-31.3,20.4
			c-1.9,0-3.5-0.2-5.5-0.5V184h76v-68.4c0-2,1.9-4.6,3.9-4.6h39.9c2,0,3.2,2.6,3.2,4.6V184h15V97.1c-2,0.3-4,0.6-6.1,0.6
			C149.5,97.7,138.2,90,132.7,78.5z M93,158.4c0,2-1.6,3.6-3.6,3.6H49.6c-2,0-3.6-1.6-3.6-3.6v-43.7c0-2,1.6-3.6,3.6-3.6h39.7
			c2,0,3.6,1.6,3.6,3.6V158.4z"/>
		<path class="st5" d="M197.1,39.3l-19.6-28.1c-0.7-1-1.8-2.2-3-2.2H28.8c-1.1,0-2.1,1.1-2.8,1.9l-23,27.3c-0.7,0.8-0.9,2.1-0.8,3.1
			C2.1,41.8,2,42.4,2,43V63c0,14.7,9,27.3,22,32.4v92.8c0,2,1.4,2.8,3.4,2.8h83.5h39.9h21.8c2,0,3.4-0.8,3.4-2.8V95.1
			c13-5.2,22-17.6,22-32.1V43c0-0.5-0.1-1-0.3-1.4C197.8,40.8,197.6,40,197.1,39.3z M30.5,16h142.3l15.5,22H11.9L30.5,16z M129,46
			v17c0,15.2-12.3,27.6-27.4,27.6C85.8,90.6,71,76.8,71,62.3V46H129z M9,63V46h55v17c0,15.2-12.5,27.6-27.5,27.6
			C21.5,90.6,9,78.2,9,63z M147,184h-32v-66h32V184z M169,184h-15v-68.4c0-2-1.2-4.6-3.2-4.6h-39.9c-2,0-3.9,2.6-3.9,4.6V184H31
			V97.4c2,0.3,3.6,0.5,5.5,0.5c13.9,0,25.9-8.4,31.3-20.4c6.4,11.7,19.6,20.4,33.8,20.4c13.6,0,25.4-7.9,31.1-19.4
			c5.5,11.5,16.8,19.2,30.2,19.2c2.1,0,4.1-0.2,6.1-0.6V184z M191,63c0,15.1-12.8,27.4-28.1,27.4c-14.9,0-26.9-12.3-26.9-28V46h55
			V63z"/>
		<path class="st5" d="M93,114.6c0-2-1.6-3.6-3.6-3.6H49.6c-2,0-3.6,1.6-3.6,3.6v43.7c0,2,1.6,3.6,3.6,3.6h39.7c2,0,3.6-1.6,3.6-3.6
			V114.6z M85,154H53v-36h32V154z"/>
		<path class="st5" d="M66.2,143.5c1.1,0,2.2-0.5,2.9-1.4l7.8-10.1c1.2-1.6,0.9-3.9-0.6-5.1c-1.6-1.2-3.9-0.9-5.1,0.6l-7.8,10.1
			c-1.2,1.6-0.9,3.9,0.6,5.1C64.7,143.2,65.5,143.5,66.2,143.5z"/>
	</g>
	<rect x="9" y="46" class="st10" width="55" height="10"/>
	<rect x="71" y="46" class="st10" width="58" height="10"/>
	<rect x="136" y="46" class="st10" width="55" height="10"/>
	<path class="st7" d="M132.7,78.5C127,90,115.2,97.9,101.6,97.9c-14.1,0-27.4-8.7-33.8-20.4c-5.5,12-17.4,20.4-31.3,20.4
		c-1.9,0-3.5-0.2-5.5-0.5v4.2c2,0.3,3.6,0.5,5.5,0.5c13.9,0,25.9-8.4,31.3-20.4c6.4,11.7,19.6,20.4,33.8,20.4
		c13.6,0,25.4-7.9,31.1-19.4c5.5,11.5,16.8,19.2,30.2,19.2c2.1,0,4.1-0.2,6.1-0.6v-4.2c-2,0.3-4,0.6-6.1,0.6
		C149.5,97.7,138.2,90,132.7,78.5z"/>
	<path class="st7" d="M93,163.8c0-1-0.8-1.8-1.8-1.8H47.8c-1,0-1.8,0.8-1.8,1.8v0.4c0,1,0.8,1.8,1.8,1.8h43.4c1,0,1.8-0.8,1.8-1.8
		V163.8z"/>
	<rect x="53" y="118" class="st7" width="32" height="4"/>
	<rect x="115" y="118" class="st7" width="32" height="7"/>
</g>
<g id="Layer_17" class="st0">
	<g class="st1">
		<rect x="86.7" y="168.5" class="st8" width="24.5" height="10.5"/>
		<rect x="93.7" y="186" class="st8" width="10.5" height="7"/>
		<path class="st3" d="M100.4,7c-35.8,0-65,29.3-65,65.2c0,28.3,16.1,51.6,41.9,60.8c1.4,0.5,2.3,1.8,2.3,3.3v25.1h38.5v-25.1
			c0-1.5,0.9-2.8,2.3-3.3c26.7-9.5,44-33.3,44-60.8C164.5,35.7,136.4,7,100.4,7z"/>
		<path class="st5" d="M100.4,0c-39.7,0-72,32.4-72,72.3c0,30.5,16.9,55.8,44.3,66.5V165c0,1.9,1.6,3.5,3.5,3.5h3.5v14
			c0,1.9,1.6,3.5,3.5,3.5h3.5v10.5c0,1.9,1.6,3.5,3.5,3.5h17.5c1.9,0,3.5-1.6,3.5-3.5V186h3.5c1.9,0,3.5-1.6,3.5-3.5v-14h3.5
			c1.9,0,3.5-1.6,3.5-3.5v-26.2c28.2-11,46.3-36.9,46.3-66.5C171.6,31.7,140.3,0,100.4,0z M104.2,193H93.7v-7h10.5V193z M111.2,179
			H86.7v-10.5h24.5V179z M120.6,133c-1.4,0.5-2.3,1.8-2.3,3.3v25.1H79.7v-25.1c0-1.5-0.9-2.8-2.3-3.3c-25.9-9.2-41.9-32.5-41.9-60.8
			c0-36,29.2-65.2,65-65.2c35.9,0,64.1,28.7,64.1,65.2C164.5,99.7,147.3,123.6,120.6,133z"/>
	</g>
	<g class="st1">
		<path class="st8" d="M109.7,28.5c0-0.2,0.1-0.4,0.2-0.6c0.7-1.8,2.8-2.6,4.6-1.9c0.3,0.1,31.3,13.2,29.8,49.8
			c-0.1,1.9-1.7,3.4-3.6,3.3c-1.9-0.1-3.4-1.7-3.4-3.6c1.3-31.6-24.3-42.6-25.4-43C110.2,31.8,109.3,30.1,109.7,28.5z"/>
	</g>
	<path class="st7" d="M98.4,133c-25.9-9.2-41.9-32.5-41.9-60.8C56.5,39.9,80.1,13,111,7.9c-3.4-0.6-7-0.9-10.6-0.9
		c-35.8,0-65,29.3-65,65.2c0,28.3,16.1,51.6,41.9,60.8c1.4,0.5,2.3,1.8,2.3,3.3v25.1h21v-25.1C100.7,134.9,99.8,133.5,98.4,133z"/>
</g>
<g id="Layer_18" class="st0">
	<g class="st1">
		<polygon class="st9" points="75.4,137.9 71.6,152.7 107.8,162 111.6,147.2 87.9,141.1 		"/>
		<path class="st2" d="M157.8,56.7c3.2-12.3-4.6-25.3-9.5-32C140.9,14.6,132,8,128.5,7.1c-0.4-0.1-1.2-0.2-2.6-0.2
			c-11.8,0-42.2,10-47.2,29.5l-7.5,28.5c0,0-0.5,0-0.5,0L59,107.6c0,0,0,0,0,0l-4,18.8l80.4,19.7c0,0,14.9-60.9,14.9-60.9
			L157.8,56.7z M141.4,68.2c-3.1,12.1-14,20.5-26.5,20.5c-2.3,0-4.6-0.3-6.9-0.9c-14.6-3.8-23.4-18.7-19.6-33.3
			C91.6,42.5,102.5,34,115,34c2.3,0,4.6,0.3,6.9,0.9C136.4,38.7,145.2,53.6,141.4,68.2z"/>
		<path class="st3" d="M120.1,41.5c-1.7-0.4-3.4-0.7-5.2-0.7c-9.4,0-17.5,6.3-19.9,15.4c-2.8,11,3.8,22.2,14.7,25
			c1.7,0.4,3.4,0.7,5.2,0.7c9.4,0,17.5-6.3,19.9-15.4C137.7,55.5,131.1,44.3,120.1,41.5z M106.4,64c-0.5,0.2-1,0.3-1.4,0.3
			c-1.3,0-2.5-0.7-3.1-2c-0.8-1.7-0.1-3.7,1.6-4.5l16.6-7.8c1.7-0.8,3.7-0.1,4.5,1.6c0.8,1.7,0.1,3.7-1.6,4.5L106.4,64z M125,67.7
			l-6.3,3.1c-0.5,0.2-1,0.3-1.5,0.3c-1.3,0-2.5-0.7-3.1-1.9c-0.8-1.7-0.1-3.7,1.6-4.6l6.3-3.1c1.7-0.8,3.7-0.1,4.6,1.6
			C127.4,64.8,126.7,66.9,125,67.7z"/>
		<polygon class="st4" points="44.2,82.1 35.5,115.6 54.2,104.6 62.8,71.1 		"/>
		<polygon class="st4" points="146.3,128.4 157.3,147 166,113.6 155,94.9 		"/>
		<path class="st5" d="M157.4,85.6l7-27.2c2.9-11.2-0.9-24.6-10.6-37.7c-7.3-10-17.5-18.7-23.6-20.3C129.1,0.2,127.6,0,126,0
			c-12.7,0-47.4,10.3-53.7,34.6l-7,27.2L39.5,76.9c-0.8,0.5-1.3,1.2-1.6,2.1l-11.1,42.8c-0.3,1.3,0.1,2.7,1.2,3.6
			c0.6,0.5,1.3,0.7,2,0.7c0.6,0,1.2-0.2,1.7-0.5l19.8-11.7l-3.5,13.4c-0.2,0.9-0.1,1.8,0.4,2.6c0.5,0.8,1.2,1.3,2.1,1.6l18.1,4.7
			l-4.7,18.1c-0.2,0.9-0.1,1.8,0.4,2.6c0.5,0.8,1.2,1.3,2.1,1.6l42.8,11.1c0.3,0.1,0.6,0.1,0.9,0.1c0.6,0,1.2-0.2,1.7-0.5
			c0.8-0.5,1.3-1.2,1.6-2.1l4.7-18.1l18.1,4.7c0.3,0.1,0.6,0.1,0.9,0.1c0.6,0,1.2-0.2,1.7-0.5c0.8-0.5,1.3-1.2,1.6-2.1l3.5-13.4
			l11.7,19.8c0.6,1,1.7,1.7,2.9,1.7c0.2,0,0.3,0,0.5,0c1.4-0.2,2.5-1.2,2.8-2.5l11.1-42.8c0.2-0.9,0.1-1.8-0.4-2.6L157.4,85.6z
			 M35.5,115.6l8.6-33.5l18.6-11l-8.6,33.5L35.5,115.6z M107.8,162l-36.2-9.4l3.8-14.8l12.5,3.2l23.7,6.1L107.8,162z M135.6,146.2
			L55,126.5l4-18.8c0,0,0,0,0,0l11.8-42.8c0,0,0.4,0,0.4,0l7.5-28.5c5-19.5,35.4-29.5,47.2-29.5c1.3,0,2.2,0.1,2.6,0.2
			c3.5,0.9,12.4,7.6,19.9,17.7c4.9,6.7,12.7,19.7,9.5,32l-7.4,28.5C150.5,85.3,135.6,146.2,135.6,146.2z M157.3,147l-11-18.6
			l8.6-33.5l11,18.6L157.3,147z"/>
		<path class="st5" d="M121.8,34.9c-2.2-0.6-4.6-0.9-6.9-0.9c-12.5,0-23.3,8.4-26.5,20.5c-3.8,14.6,5,29.5,19.6,33.3
			c2.2,0.6,4.6,0.9,6.9,0.9c12.5,0,23.3-8.4,26.5-20.5C145.2,53.6,136.4,38.7,121.8,34.9z M134.9,66.5c-2.3,9.1-10.5,15.4-19.9,15.4
			c-1.7,0-3.5-0.2-5.2-0.7c-11-2.8-17.6-14.1-14.7-25c2.3-9.1,10.5-15.4,19.9-15.4c1.7,0,3.5,0.2,5.2,0.7
			C131.1,44.3,137.7,55.5,134.9,66.5z"/>
		<path class="st5" d="M72.7,164.4c-1.8-0.5-3.7,0.6-4.1,2.4L63,188.2c-0.5,1.8,0.6,3.7,2.4,4.1c0.3,0.1,0.6,0.1,0.9,0.1
			c1.5,0,2.9-1,3.3-2.6l5.5-21.4C75.6,166.7,74.5,164.8,72.7,164.4z"/>
		<path class="st5" d="M101.2,171.7c-1.8-0.5-3.7,0.6-4.1,2.4l-5.5,21.4c-0.5,1.8,0.6,3.7,2.4,4.1c0.3,0.1,0.6,0.1,0.9,0.1
			c1.5,0,2.9-1,3.3-2.6l5.5-21.4C104.1,174.1,103,172.2,101.2,171.7z"/>
		<path class="st5" d="M86.9,168c-1.8-0.5-3.7,0.6-4.1,2.4l-5.5,21.4c-0.5,1.8,0.6,3.7,2.4,4.1c0.3,0.1,0.6,0.1,0.9,0.1
			c1.5,0,2.9-1,3.3-2.6l5.5-21.4C89.8,170.4,88.8,168.5,86.9,168z"/>
		<path class="st5" d="M124.6,51.7c-0.8-1.7-2.8-2.4-4.5-1.6l-16.6,7.8c-1.7,0.8-2.4,2.8-1.6,4.5c0.6,1.2,1.8,2,3.1,2
			c0.5,0,1-0.1,1.4-0.3l16.6-7.8C124.7,55.4,125.4,53.4,124.6,51.7z"/>
		<path class="st5" d="M122,61.6l-6.3,3.1c-1.7,0.8-2.4,2.9-1.6,4.6c0.6,1.2,1.8,1.9,3.1,1.9c0.5,0,1-0.1,1.5-0.3l6.3-3.1
			c1.7-0.8,2.4-2.9,1.6-4.6C125.8,61.5,123.7,60.7,122,61.6z"/>
	</g>
	<path class="st7" d="M88.5,54.5C91.6,42.5,102.5,34,115,34c1.9,0,3.8,0.2,5.7,0.7l7.1-27.8c-0.5-0.1-1-0.1-1.8-0.1
		c-11.8,0-42.2,10-47.2,29.5l-7.5,28.5c0,0-0.5,0-0.5,0L59,107.6c0,0,0,0,0,0l-4,18.8l39.7,9.7l12.4-48.6
		C93.1,83.4,84.8,68.8,88.5,54.5z"/>
	<path class="st7" d="M141.4,68.2c-3.1,12.1-14,20.5-26.5,20.5c-2.3,0-4.6-0.3-6.9-0.9c-11.9-3.1-19.9-13.5-20.5-25.1
		c-0.4,12.5,7.9,24.1,20.5,27.4c2.2,0.6,4.6,0.9,6.9,0.9c12.5,0,23.3-8.4,26.5-20.5c0.7-2.7,1-5.5,0.8-8.2
		C142.2,64.3,142,66.2,141.4,68.2z"/>
	<path class="st7" d="M115,43.1c1.7,0,3.5,0.2,5.2,0.7C129,46,135,53.8,135.5,62.5c0.5-9.6-5.7-18.6-15.4-21
		c-1.7-0.4-3.4-0.7-5.2-0.7c-9.4,0-17.5,6.3-19.9,15.4c-0.5,2.1-0.7,4.2-0.6,6.3c0.1-1.3,0.3-2.7,0.6-4
		C97.4,49.4,105.6,43.1,115,43.1z"/>
	<polygon class="st7" points="62.8,71.1 56.3,74.9 47.9,108.3 54.2,104.6 	"/>
	<polygon class="st7" points="155,94.9 146.3,128.4 149.3,133.4 158,100 	"/>
	<polygon class="st7" points="87.9,141.1 75.4,137.9 71.6,152.7 89.7,157.4 93.7,142.6 	"/>
</g>
<g id="Layer_19" class="st0">
	<g class="st1">
		<polygon class="st3" points="142,78.8 142,39.4 113.8,56.3 		"/>
		<path class="st9" d="M180,13H17v95h163V13z"/>
		<polygon class="st3" points="66.4,157 63.8,168 135.8,168 133.2,157 		"/>
		<path class="st4" d="M16.1,115l-7.4,72h182.2l-9.1-72H16.1z M143.5,174.9c-0.7,0.9-1.8,1.1-2.9,1.1H59.1c-1.1,0-2.2-0.2-3-1.1
			c-0.7-0.9-1-1.9-0.7-3l4.3-19.4c0.4-1.7,1.9-3.5,3.7-3.5h72.9c1.8,0,3.3,1.8,3.7,3.5l4.3,19C144.5,172.7,144.2,174,143.5,174.9z
			 M168.4,134H28.7c-2.1,0-3.8-1.9-3.8-4s1.7-4,3.8-4h139.7c2.1,0,3.8,1.9,3.8,4S170.5,134,168.4,134z"/>
		<path class="st5" d="M136.3,149H63.4c-1.8,0-3.3,1.8-3.7,3.5l-4.3,19.2c-0.3,1.1,0,2.1,0.7,3c0.7,0.9,1.8,1.3,3,1.3h81.4
			c1.1,0,2.2-0.2,2.9-1.1c0.7-0.9,1-1.9,0.7-3l-4.3-19.4C139.6,150.7,138,149,136.3,149z M63.8,168l2.6-11h66.8l2.6,11H63.8z"/>
		<path class="st5" d="M187,109.4V10.5c0-2.1-1.4-4.5-3.5-4.5H13.6C11.5,6,10,8.4,10,10.5V110c-1,0.6-0.9,1.2-1,2l-8.2,79.3
			c-0.1,1.1,0.2,1.4,0.9,2.2c0.7,0.8,1.7,0.5,2.8,0.5h190.7c1.1,0,2.1,0.3,2.8-0.5c0.7-0.8,1.1-1.5,0.9-2.6l-10.2-79.1
			C188.6,110.7,188,110,187,109.4z M17,13h163v95H17V13z M8.7,187l7.4-72h165.7l9.1,72H8.7z"/>
		<path class="st5" d="M168.4,126H28.7c-2.1,0-3.8,1.9-3.8,4s1.7,4,3.8,4h139.7c2.1,0,3.8-1.9,3.8-4S170.5,126,168.4,126z"/>
	</g>
	<path class="st7" d="M59.7,152.5c0.4-1.7,1.9-3.5,3.7-3.5h36.9l35.9-15H28.7c-2.1,0-3.8-1.9-3.8-4s1.7-4,3.8-4h125.4l26.9-11h-165
		l-7.4,72h1.9l45.5-19L59.7,152.5z"/>
	<path class="st14" d="M149.5,31.6L180,14.5V13H17v95h2l32-18.3"/>
	<path class="st19" d="M99.8,89.5c16,0,29-13,29-29c0-16-13-29-29-29s-29,13-29,29C70.8,76.5,83.8,89.5,99.8,89.5z"/>
	<path class="st21" d="M99.8,93.9c18.4,0,33.4-15,33.4-33.4c0-18.4-15-33.4-33.4-33.4c-18.4,0-33.4,15-33.4,33.4
		C66.4,78.9,81.4,93.9,99.8,93.9z M99.8,31.5c16,0,29,13,29,29c0,16-13,29-29,29s-29-13-29-29C70.8,44.5,83.8,31.5,99.8,31.5z"/>
	<path class="st13" d="M101,78.3v4.4v6.8c15.4-0.6,27.8-13.4,27.8-29c0-15.6-12.4-28.3-27.8-29v7.6v4.4"/>
	<path class="st21" d="M92.1,74.2c0.4,0.4,0.9,0.6,1.4,0.6c0.5,0,1.1-0.2,1.4-0.6l24.2-24.2c0.8-0.8,0.8-2.1,0-2.9
		c-0.8-0.8-2.1-0.8-2.9,0L93.6,70L83.3,59.7c-0.8-0.8-2.1-0.8-2.9,0c-0.8,0.8-0.8,2.1,0,2.9L92.1,74.2z"/>
</g>
<g id="Layer_20" class="st0">
	<g class="st1">
		<path class="st2" d="M96.4,128.3c-27.7,0-50.2-22.5-50.2-50.2C46.2,50.5,68.7,28,96.4,28c27.7,0,50.2,22.5,50.2,50.2
			c0,11.3-3.7,21.9-10.6,30.8c0,0-0.1,0.1-0.1,0.1l14.2,12.4c9.5-12.5,15.2-28.6,15.2-43.3c0-38-30.9-69-69-69c-38,0-69,30.9-69,69
			c0,36.3,33.3,68.2,71.7,69l-1.8-19C97,128.2,96.7,128.3,96.4,128.3z"/>
		<path class="st3" d="M111.2,78.2c0-8.2-6.6-14.8-14.8-14.8c-8.2,0-14.8,6.6-14.8,14.8c0,7.3,5.4,13.4,12.4,14.6l-1.3-13.5
			c-0.1-1.4,0.6-2.8,1.9-3.4c1.3-0.6,2.8-0.5,3.9,0.5l10.7,9.4C110.5,83.4,111.2,80.8,111.2,78.2z"/>
		<path class="st9" d="M130.7,104.5c5.8-7.6,8.9-16.7,8.9-26.3c0-23.9-19.4-43.3-43.3-43.3c-23.9,0-43.3,19.4-43.3,43.3
			c0,23.9,19.4,43.3,43.3,43.3c0.1,0,0.2,0,0.3,0.1l-2-21.6c-11.2-0.9-20-10.3-20-21.7c0-12,9.8-21.7,21.7-21.7
			c12,0,21.7,9.8,21.7,21.7c0,4.3-1.4,8.5-3.7,12.1L130.7,104.5z"/>
		<polygon class="st9" points="109.1,179 169.9,147.9 100.4,87.2 		"/>
		<path class="st5" d="M155.4,126c10.6-13.7,16.9-31.6,16.9-47.9c0-41.9-34.1-75.9-75.9-75.9c-41.9,0-75.9,34.1-75.9,75.9
			c0,40.9,36.2,75.5,79.3,75.9l2.9,30.6c0.1,1.1,0.8,2.2,1.8,2.7c0.5,0.3,1.1,0.4,1.7,0.4c0.5,0,1.1-0.1,1.6-0.4l30.9-15.8l14,25.3
			c0.6,1.1,1.8,1.8,3,1.8c0.6,0,1.1-0.1,1.7-0.4c1.7-0.9,2.3-3,1.3-4.7l-13.9-25.1l32.8-16.8c1-0.5,1.7-1.5,1.9-2.7
			c0.1-1.1-0.3-2.3-1.2-3L155.4,126z M27.4,78.2c0-38,30.9-69,69-69c38,0,69,30.9,69,69c0,14.7-5.7,30.9-15.2,43.3L135.9,109
			c0,0,0.1,0,0.1-0.1c6.9-8.9,10.6-19.5,10.6-30.8c0-27.7-22.5-50.2-50.2-50.2c-27.7,0-50.2,22.5-50.2,50.2
			c0,27.7,22.5,50.2,50.2,50.2c0.3,0,0.6-0.1,0.9-0.2l1.8,19C60.8,146.3,27.4,114.5,27.4,78.2z M96.4,56.4c-12,0-21.7,9.8-21.7,21.7
			c0,11.4,8.8,20.8,20,21.7l2,21.6c-0.1,0-0.2-0.1-0.3-0.1c-23.9,0-43.3-19.4-43.3-43.3c0-23.9,19.4-43.3,43.3-43.3
			c23.9,0,43.3,19.4,43.3,43.3c0,9.6-3.1,18.7-8.9,26.3l-16.3-14.3c2.4-3.6,3.7-7.8,3.7-12.1C118.2,66.2,108.4,56.4,96.4,56.4z
			 M98.4,76.3c-1.1-0.9-2.6-1.1-3.9-0.5c-1.3,0.6-2,2-1.9,3.4L94,92.7c-7-1.2-12.4-7.2-12.4-14.6c0-8.2,6.6-14.8,14.8-14.8
			c8.2,0,14.8,6.6,14.8,14.8c0,2.7-0.7,5.2-2.1,7.5L98.4,76.3z M109.1,179l-8.6-91.8l69.5,60.7L109.1,179z"/>
	</g>
	<path class="st7" d="M96.4,9.2c0,0-0.1,0-0.1,0V28c0,0,0.1,0,0.1,0c27.7,0,50.2,22.5,50.2,50.2c0,11.3-3.7,21.9-10.6,30.8
		c0,0-0.1,0.1-0.1,0.1l14.2,12.4c9.5-12.5,15.2-28.6,15.2-43.3C165.4,40.1,134.5,9.2,96.4,9.2z"/>
	<path class="st7" d="M98.4,76.3l10.7,9.4c1.3-2.3,2.1-4.8,2.1-7.5c0-8.2-6.6-14.8-14.8-14.8c0,0-0.1,0-0.1,0v12.1
		C97.1,75.5,97.8,75.7,98.4,76.3z"/>
	<path class="st7" d="M96.4,56.4c12,0,21.7,9.8,21.7,21.7c0,4.3-1.4,8.5-3.7,12.1l16.3,14.3c5.8-7.6,8.9-16.7,8.9-26.3
		c0-23.9-19.4-43.3-43.3-43.3c0,0-0.1,0-0.1,0v21.5C96.3,56.4,96.4,56.4,96.4,56.4z"/>
	<path class="st7" d="M135.9,109l14.2,12.4c8.3-10.9,13.7-24.6,15-37.7l-18.7-2.3C145.8,91.5,142.3,101,135.9,109
		C136,109,136,109,135.9,109z"/>
	<path class="st7" d="M109.2,85.6c1.3-2.3,2.1-4.8,2.1-7.5c0-0.3-0.1-0.6-0.1-0.9l-14.9-1.8c0.8,0,1.5,0.3,2.2,0.8L109.2,85.6z"/>
	<path class="st7" d="M114.6,89.9l15.8,14.6c5.3-6.9,8.5-14.7,9-23.4c0,0-21.1-2.8-21.1-2.7C118.4,82.7,117,86.4,114.6,89.9z"/>
	<polygon class="st19" points="100.7,87.5 141.1,162.6 169.9,147.9 	"/>
</g>
<g id="Layer_21" class="st0">
	<g class="st1">
		<path class="st2" d="M156.6,43.1c-1.6,14.5-11.5,21.3-18.2,24.3c5.8,5.3,14.6,16.1,16.9,34.9c1.2,9.6-0.6,17.4-5.3,23.3
			c-6.7,8.4-16.7,9.6-17.1,9.7c-0.1,0-0.2,0-0.4,0c-1,0-1.9-0.4-2.5-1.1c-0.7-0.8-1-1.9-0.7-3c0.7-2.6,1.6-10.2-1.6-13.6
			c-1.8-2-5.1-2.5-9.7-1.6c-22.3,4.2-38.9-9.8-39.6-10.4C69.5,97.5,66.2,90,68.2,83.4c3.6-12,23.4-15.5,25.6-15.8
			c4.9-1.2,10.9-4.2,11.2-6.5c0.1-1.1-1.5-3.3-6.6-6.2c-6.6-3.7-10.3-8.5-10.8-14.3c-0.6-6.5,2.9-12.6,6.3-17c-3.5,0.9-7,2-10.4,3.5
			c-15.4,6.9-27.2,19.3-33.2,35c-6,15.7-5.6,32.9,1.3,48.3c10.1,22.8,32.8,37.5,57.7,37.5c8.8,0,17.5-1.8,25.6-5.5
			c15.4-6.9,27.2-19.3,33.2-35c6-15.7,5.6-32.9-1.3-48.3C164.2,53.2,160.7,47.9,156.6,43.1z M91.1,133.2c-0.6,0.6-1.5,1-2.3,1
			c-0.8,0-1.7-0.3-2.3-1l-5.6-5.6c-1.3-1.3-1.3-3.4,0-4.7c1.3-1.3,3.4-1.3,4.7,0l5.6,5.6C92.4,129.8,92.4,131.9,91.1,133.2z
			 M110.3,134h-9.9c-1.8,0-3.3-2.2-3.3-4c0-1.8,1.5-4,3.3-4h9.9c1.8,0,3.3,2.2,3.3,4C113.6,131.8,112.1,134,110.3,134z M159.8,78.6
			c-0.5,0.3-1,0.4-1.6,0.4c-1.2,0-2.3-0.6-2.9-1.7l-4.8-8.7c-0.9-1.6-0.3-3.6,1.3-4.5c1.6-0.9,3.6-0.3,4.5,1.3l4.8,8.7
			C162,75.7,161.4,77.7,159.8,78.6z"/>
		<path class="st9" d="M101.6,49.1c2.7,1.5,10.9,6.1,10,12.9c-1.1,7.9-13.9,11.4-16.5,12.1c-4.9,0.8-18.5,4.4-20.6,11.3
			c-1.5,5,3.6,11.1,8.2,15.3c0,0,14.8,12.4,34,8.8c7-1.3,12.3-0.1,15.8,3.6c3.8,4.1,4.3,10.1,4,14.4c1.6-0.6,3.4-1.5,5.1-2.9
			c5.8-4.5,8.2-11.8,7-21.5c-3-24.8-18.7-33.8-18.9-33.9c-1.2-0.7-1.9-2.1-1.7-3.4c0.2-1.4,1.3-2.5,2.7-2.7
			c0.8-0.2,20.6-4.1,19.3-26.1c0,0,0-0.1,0-0.1c-11.2-9.5-25.6-15.1-40.9-15.1c-1.6,0-3.2,0.1-4.7,0.2c-0.2,0.2-0.3,0.5-0.6,0.7
			C101,25.2,93.5,33.1,94.2,40C94.5,43.5,97,46.5,101.6,49.1z"/>
		<path class="st5" d="M109.2,15.1c-6.4,0-12.6,0.9-18.7,2.6L85.3,2.3c-0.6-1.7-2.4-2.7-4.2-2.1c-46,15-71.1,65.1-56,111.7
			c7.3,22.4,22.6,40.7,43.4,51.6c10,5.3,20.5,8.4,31.5,9.5v19H70.5c-1.8,0-3.3,2.2-3.3,4c0,1.8,1.5,4,3.3,4h66.3
			c1.8,0,3.3-2.2,3.3-4c0-1.8-1.5-4-3.3-4H107v-18.6c1,0,1.4,0.1,2,0.1c9.1,0,18.2-1.4,27.1-4.3c0.8-0.3,1.5-0.9,1.9-1.7
			c0.4-0.8,0.5-1.7,0.2-2.5l-4.7-14.3c0-0.1-0.2-0.3-0.2-0.4c1.4-0.5,2.9-1.1,4.3-1.7c17-7.6,30.1-21.3,36.7-38.7
			c6.7-17.4,6.2-36.3-1.4-53.4C161.7,31.3,136.7,15.1,109.2,15.1z M103.9,22.7c0.2-0.2,0.4-0.5,0.6-0.7c1.6-0.1,3.1-0.2,4.7-0.2
			c15.3,0,29.7,5.6,40.9,15.1c0,0,0,0.1,0,0.1c1.3,22-18.5,26-19.3,26.1c-1.4,0.2-2.5,1.3-2.7,2.7c-0.2,1.4,0.4,2.8,1.7,3.4
			c0.2,0.1,15.9,9.1,18.9,33.9c1.2,9.7-1.2,16.9-7,21.5c-1.7,1.3-3.6,2.3-5.1,2.9c0.3-4.3-0.1-10.3-4-14.4
			c-3.5-3.7-8.8-4.9-15.8-3.6c-19.1,3.6-33.9-8.8-34-8.8c-4.6-4.2-9.7-10.3-8.2-15.3c2.1-6.8,15.7-10.5,20.6-11.3
			c2.6-0.6,15.4-4.2,16.5-12.1c0.9-6.8-7.3-11.4-10-12.9c-4.7-2.6-7.1-5.6-7.5-9.1C93.5,33.1,101,25.2,103.9,22.7z M71.8,157.6
			c-19.3-10.1-33.6-27-40.3-47.8c-13.7-42,8.1-87.2,48.6-102.2l4.1,12.2c-1.1,0.4-2.2,0.9-3.3,1.4c-17,7.6-30.1,21.3-36.7,38.7
			c-6.7,17.4-6.2,36.3,1.4,53.3c11.2,25.1,36.2,41.4,63.7,41.4c6.1,0,12.1-0.8,17.9-2.3c0,0.2,0,0.3,0.1,0.5l3.6,11.1
			C111,169.4,90.2,167.2,71.8,157.6z M168.1,107.4c-6,15.7-17.8,28.2-33.2,35c-8.2,3.6-16.8,5.5-25.6,5.5
			c-24.9,0-47.6-14.7-57.7-37.5c-6.9-15.4-7.3-32.5-1.3-48.3c6-15.7,17.8-28.2,33.2-35c3.4-1.5,6.8-2.6,10.4-3.5
			c-3.4,4.3-6.9,10.5-6.3,17c0.6,5.8,4.2,10.6,10.8,14.3c5.1,2.9,6.8,5.1,6.6,6.2c-0.3,2.2-6.3,5.2-11.2,6.5
			c-2.2,0.4-22,3.8-25.6,15.8c-2,6.6,1.4,14.1,10.1,22.2c0.7,0.6,17.3,14.5,39.6,10.4c4.6-0.9,7.9-0.3,9.7,1.6
			c3.2,3.4,2.2,11,1.6,13.6c-0.3,1.1,0,2.2,0.7,3c0.6,0.7,1.5,1.1,2.5,1.1c0.1,0,0.2,0,0.4,0c0.4,0,10.5-1.3,17.1-9.7
			c4.7-5.9,6.5-13.8,5.3-23.3c-2.3-18.8-11.1-29.6-16.9-34.9c6.8-3,16.7-9.8,18.2-24.3c4.1,4.7,7.7,10.1,10.3,16
			C173.7,74.5,174.2,91.7,168.1,107.4z"/>
		<path class="st5" d="M85.5,122.9c-1.3-1.3-3.4-1.3-4.7,0c-1.3,1.3-1.3,3.4,0,4.7l5.6,5.6c0.6,0.6,1.5,1,2.3,1c0.8,0,1.7-0.3,2.3-1
			c1.3-1.3,1.3-3.4,0-4.7L85.5,122.9z"/>
		<path class="st5" d="M110.3,126h-9.9c-1.8,0-3.3,2.2-3.3,4c0,1.8,1.5,4,3.3,4h9.9c1.8,0,3.3-2.2,3.3-4
			C113.6,128.2,112.1,126,110.3,126z"/>
		<path class="st5" d="M156.4,65.4c-0.9-1.6-2.9-2.2-4.5-1.3c-1.6,0.9-2.2,2.9-1.3,4.5l4.8,8.7c0.6,1.1,1.7,1.7,2.9,1.7
			c0.5,0,1.1-0.1,1.6-0.4c1.6-0.9,2.2-2.9,1.3-4.5L156.4,65.4z"/>
	</g>
	<path class="st10" d="M68.2,83.4c3.6-12,23.4-15.5,25.6-15.8c3.4-0.8,7.2-2.5,9.4-4.2l1.8-2.5c0-1.1-1.7-3.3-6.6-6
		c-3.7-2.1-6.5-4.5-8.3-7.3l-41.2,55.6c0.8,2.4,1.6,4.9,2.7,7.2c2,4.5,4.5,8.7,7.4,12.5l15.6-21.1C68.7,95.2,66.5,89,68.2,83.4z"/>
	<path class="st10" d="M101.6,49.1c1.6,0.9,5.3,3,7.7,6l21.8-29.4c-6.9-2.6-14.2-3.9-21.8-4l-14.8,20
		C95.4,44.5,97.7,46.9,101.6,49.1z"/>
	<path class="st10" d="M156.6,43.1c-1.6,14.5-11.5,21.3-18.2,24.3c3.4,3.1,7.9,8.2,11.4,15.7l5-6.8l-4.2-7.8
		c-0.9-1.6-0.3-3.6,1.3-4.5c1.6-0.9,3.6-0.3,4.5,1.3l2.8,5.1l8-10.7c-0.1-0.2-0.1-0.4-0.2-0.6C164.2,53.2,160.7,47.9,156.6,43.1z"/>
	<path class="st10" d="M110.3,134h-9.9c-1.8,0-3.3-2.2-3.3-4c0-1.8,1.5-4,3.3-4h9.9c1.8,0,3.3,2.3,3.3,4.1c0,0.7-0.2,1.6-0.6,2.1
		l12.2-16.3c-1.9-0.7-4.3-0.7-7.4-0.1c-15.3,2.9-27.9-2.7-34.5-6.8l-16.6,22.4c9.7,8.8,22,14.5,35.3,16l10.5-14.3
		C112,133.7,111.2,134,110.3,134z M91.1,133.2c-0.6,0.6-1.5,1-2.3,1c-0.8,0-1.7-0.3-2.3-1l-5.6-5.6c-1.3-1.3-1.3-3.4,0-4.7
		c1.3-1.3,3.4-1.3,4.7,0l5.6,5.6C92.4,129.8,92.4,131.9,91.1,133.2z"/>
	<path class="st10" d="M116.7,109.4c5.1-1,9.4-0.5,12.6,1.2l15.9-21.4c-5.6-14.4-15.3-20-15.4-20.1c-1.2-0.7-1.9-2.1-1.7-3.4
		c0.2-1.4,1.3-2.5,2.7-2.7c0.8-0.2,20.6-4.1,19.3-26.1c0,0,0-0.1,0-0.1c-2.7-2.3-5.6-4.3-8.6-6.1l-54.2,73.1
		C93.2,107.2,103.9,111.8,116.7,109.4z"/>
</g>
<g id="Layer_22" class="st0">
	<g class="st1">
		<path class="st4" d="M141,177h50v-15h-50V177z M154.8,166h21.4c2,0,3.6,1.5,3.6,3.5c0,2-1.6,3.5-3.6,3.5h-21.4
			c-2,0-3.6-1.5-3.6-3.5C151.2,167.5,152.8,166,154.8,166z"/>
		<path class="st3" d="M148,41H27v83h106V71.2c0-2,2-4.2,4-4.2h11V41z"/>
		<path class="st4" d="M89.8,151.8c-11,0-19.8,8.2-21.5,18.2h43C109.6,160,100.8,151.8,89.8,151.8z"/>
		<path class="st2" d="M19,128.3V39.1c0-2,1.8-4.1,3.8-4.1h128.4c2,0,2.8,2.1,2.8,4.1V67h11V24H8v118h125v-11H22.8
			C20.8,131,19,130.3,19,128.3z"/>
		<path class="st3" d="M141,155h50V96h-50V155z M146.6,126.1l23.7-24.9c1.4-1.4,3.6-1.5,5-0.1c1.4,1.4,1.5,3.6,0.1,5l-23.7,24.9
			c-0.7,0.7-1.6,1.1-2.6,1.1c-0.9,0-1.8-0.3-2.5-1C145.3,129.8,145.3,127.6,146.6,126.1z"/>
		<path class="st4" d="M141,88h50V74h-50V88z M162.3,78.9c1.3-1.3,3.7-1.3,5.1,0c0.6,0.7,1,1.6,1,2.5s-0.4,1.9-1,2.5
			c-0.7,0.6-1.6,1-2.5,1c-1,0-1.9-0.4-2.5-1c-0.7-0.7-1-1.6-1-2.5C161.2,80.4,161.6,79.5,162.3,78.9z"/>
		<path class="st5" d="M164.8,85c0.9,0,1.9-0.4,2.5-1c0.6-0.7,1-1.6,1-2.5s-0.4-1.9-1-2.5c-1.4-1.3-3.7-1.3-5.1,0
			c-0.7,0.7-1,1.6-1,2.5c0,0.9,0.4,1.9,1,2.5C163,84.6,163.9,85,164.8,85z"/>
		<path class="st5" d="M194,67h-22V21.3c0-2-1-4.3-2.9-4.3H5c-2,0-4,2.3-4,4.3v124.9c0,2,2,2.9,4,2.9h70.2
			c-8.6,6-14.2,13.9-14.2,24.7c0,2,1.6,3.3,3.6,3.3h50.6c2,0,3.6-1.3,3.6-3.3c0-10.8-5.7-18.7-14.2-24.7H133v32.8c0,2,2,2.2,4,2.2
			H194c2,0,4-0.2,4-2.2V71.2C198,69.2,196,67,194,67z M111.3,170h-43c1.7-10,10.5-18.2,21.5-18.2C100.8,151.8,109.6,160,111.3,170z
			 M133,142H8V24h157v43h-11V39.1c0-2-0.8-4.1-2.8-4.1H22.8c-2,0-3.8,2.1-3.8,4.1v89.2c0,2,1.8,2.7,3.8,2.7H133V142z M133,71.2V124
			H27V41h121v26h-11C135,67,133,69.2,133,71.2z M191,177h-50v-15h50V177z M191,155h-50V96h50V155z M191,88h-50V74h50V88z"/>
		<path class="st5" d="M154.8,173h21.4c2,0,3.6-1.5,3.6-3.5c0-2-1.6-3.5-3.6-3.5h-21.4c-2,0-3.6,1.5-3.6,3.5
			C151.2,171.5,152.8,173,154.8,173z"/>
		<path class="st5" d="M149.2,132.2c0.9,0,1.9-0.4,2.6-1.1l23.7-24.9c1.4-1.4,1.3-3.7-0.1-5c-1.4-1.4-3.7-1.3-5,0.1l-23.7,24.9
			c-1.4,1.4-1.3,3.7,0.1,5C147.4,131.8,148.3,132.2,149.2,132.2z"/>
	</g>
	<path class="st7" d="M89.8,156.6c8.4,0,15.8,4.6,20.5,10.7c-3-8.4-10.9-14.3-20.5-14.3c-9.6,0-17.5,5.9-20.5,14.3
		C74,161.1,81.4,156.6,89.8,156.6z"/>
	<polygon class="st7" points="27,54.9 27.2,123.9 147.5,41 27,41 	"/>
	<path class="st10" d="M8,24v113.2l11.2-7.5c-0.2-0.4-0.2-0.9-0.2-1.4V39.1c0-2,1.8-4.1,3.8-4.1h128.4c1.5,0,2.6,1.2,3.1,2.6
		l10.7-7.2V24H8z"/>
	<polygon class="st7" points="26.4,49.2 147.5,41 26.4,41 	"/>
	<path class="st10" d="M176.2,166c2,0,3.6,1.5,3.6,3.5c0,2-1.6,3.5-3.6,3.5H165v4h26v-15h-26v4H176.2z"/>
	<path class="st10" d="M167.1,78.9c0.6,0.7,1.2,1.6,1.2,2.5s-0.6,1.9-1.2,2.5c-0.5,0.5,0,0.8-2,0.9V88h26V74h-26v4
		C167,78.1,166.6,78.4,167.1,78.9z"/>
	<path class="st7" d="M191,96h-50v59h0.2L191,96.8V96z M151.8,131.1c-0.7,0.7-1.6,1.1-2.6,1.1c-0.9,0-1.8-0.3-2.5-1
		c-1.4-1.4-1.5-3.6-0.1-5l23.7-24.9c1.4-1.4,3.6-1.5,5-0.1c1.4,1.4,1.5,3.6,0.1,5L151.8,131.1z"/>
</g>
<g id="Layer_23" class="st0">
	<g class="st1">
		<path class="st24" d="M77.6,140.2c-0.6-1.5-1.9-2.9-3.6-4c-4.2-2.6-8.9-3.2-9.8-2.6c-0.3,0.6-0.8,0.9-1.4,1.2
			c-0.1,1.5-0.5,2.9-1.3,4.2l-4.6,8.1c-0.3,0.8-0.9,1.8-1.8,2.7c-0.3,1.4-0.4,4.9,4,7.6c4.9,3.1,7.2,2.6,7.7,2.4
			c0.1,0,0.1-0.1,0.2-0.1c0.2-0.2,0.3-0.3,0.5-0.4c0.1-0.1,0.2-0.2,0.2-0.2c0-0.1,0.2-0.2,0.2-0.4c0.1-0.1,0.1-0.3,0.2-0.4l9.5-15.4
			C78.2,142,77.8,140.8,77.6,140.2z"/>
		<path class="st24" d="M93.4,150.5c-4.5-2.8-8.9-3.8-10-3.4c0,0-0.1,0.1-0.1,0.1l-9,14.6c-0.2,0.5-0.6,1.2-1.2,2
			c0.2,1.8,1.2,5.3,5.4,8c5,3.1,7.2,2.6,7.7,2.4c0.6-0.2,0.9-0.7,0.9-0.8c0-0.1,0.2-0.2,0.2-0.4s0.1-0.3,0.2-0.4l9.5-15.4
			c0.4-0.6,0.3-1.4,0.2-1.9C96.8,153.6,95.4,151.7,93.4,150.5z"/>
		<path class="st24" d="M51.7,128.6c-1.5-0.9-3.2-1.5-4.7-1.5c-0.6,0-2.2,0.1-2.8,1.1l-4.7,8.3c-0.1,0.1-0.1,0.4-0.2,0.4h0
			c0,0-0.8,1.2-0.5,2.6c0.3,1.4,1.8,2.6,3,3.3c3.4,2.1,5.5,2.6,6.7,2.6c1.6,0,1.9-0.9,1.9-0.9c0.1-0.2,0.2-0.5,0.3-0.7l4.8-8.5
			C56.3,133.8,54.9,130.6,51.7,128.6z"/>
		<polygon class="st2" points="47.9,42.2 9,109.7 20.8,115.7 59.7,48.2 		"/>
		<path class="st24" d="M128.9,46.7L77.6,83.4c-1.4,1-2.3,2.6-2.6,4.3c-0.3,1.7,0.2,3.5,1.2,4.9c2.2,3,6.3,3.6,9.3,1.4l21.8-14.6
			c1-0.7,2.3-0.8,3.4-0.3l40.5,17.2c3.9,2,6.4,5.4,7.3,9.3c2.5-1.2,7-4.3,9.6-12.7l-38.3-47C129.5,46.2,129.3,46.5,128.9,46.7z"/>
		<path class="st3" d="M148.1,102.7l-38.5-16.3L89.5,99.9c-6,4.4-14.6,3-19.1-3.1c-2.2-3-3-6.6-2.5-10.2c0.6-3.6,2.5-6.8,5.5-9
			l10.9-7.8l-21.3-11c-0.4-0.2-0.7-0.5-0.9-0.7l-30.3,52.6c0.1,0.3,0.2,0.6,0.2,0.9c0.2,4.8,2,9.4,5.5,14l0.5-0.8
			c1.8-3,5.1-4.6,9-4.6c2.8,0,5.8,0.9,8.5,2.5c2.2,1.4,3.9,3.1,5.2,5c4.5-2.6,12.2-0.5,17.1,2.6c2.9,1.8,5.2,4.4,6.4,7.2
			c0.4,0.9,0.6,1.8,0.8,2.6c3.9,0.2,8.4,2.1,12.2,4.5c3.6,2.2,6.2,5.6,7,9.2c0.6,2.6,0.2,5.2-1.1,7.2l-1.2,1.9l12.5,6.2
			c1.6,0.8,3.4,1,5.1,0.4c1.7-0.5,3-1.7,3.8-3.3c1.7-3.3,0.3-7.3-2.9-8.9l-10.7-5.8c-1.7-0.9-2.4-3.1-1.4-4.8
			c0.9-1.7,3.1-2.3,4.8-1.4l10.6,5.8c1.5,0.8,3.3,0.9,5,0.4c1.7-0.6,3-1.7,3.8-3.3c1.7-3.3,0.3-7.3-2.9-8.9L107,127.5
			c-1.7-0.9-2.4-3-1.6-4.8c0.9-1.7,3-2.4,4.8-1.6l22.7,11.5c1.6,0.8,3.4,0.9,5.1,0.4c1.7-0.5,3-1.7,3.9-3.3c1.7-3.3,0.4-7.3-2.9-9
			l-22.7-11.6c-1.7-0.9-2.4-3.2-1.6-5c0.9-1.7,3-3.2,4.8-2.3l18.1,8.1h0l4.5,3.4c1.6,0.8,3.4,1.9,5.1,1.4c1.7-0.5,3-1.6,3.8-3.2
			C152.7,108.3,151.4,104.4,148.1,102.7z"/>
		<polygon class="st2" points="130.6,35.6 179.9,96.1 190.6,88.3 141.3,27.8 		"/>
		<path class="st5" d="M144.7,20.7c-1.2-1.5-3.3-1.7-4.8-0.6l-16.4,12c-0.8,0.6-1.3,1.4-1.4,2.4c-0.1,1,0.2,1.9,0.8,2.7l2.8,3.4
			c-0.3,0.1-0.5,0.2-0.7,0.3L90.9,65.2L66.3,52.5c-0.3-0.1-0.6-0.2-0.8-0.2l2.2-3.8c0.5-0.8,0.6-1.9,0.3-2.8
			c-0.3-0.9-0.9-1.7-1.8-2.2l-18.1-9.2c-1.7-0.9-3.7-0.2-4.7,1.4L1,109.4c-0.5,0.8-0.6,1.9-0.3,2.8c0.3,0.9,0.9,1.7,1.8,2.2
			l18.1,9.2c0.5,0.3,1.1,0.4,1.6,0.4c1.2,0,2.4-0.6,3.1-1.8l1.2-2.2c1.4,4.2,3.9,8.3,7.3,12.1l-0.5,0.9c-0.6,0.9-2.4,4-1.6,7.8
			c0.6,3.2,2.7,5.9,6.2,8.1c3.8,2.4,7.1,3.5,10.1,3.6c0.4,3.6,2.3,7.8,7.4,10.9c3.9,2.4,7.4,3.6,10.4,3.6c0.2,0,0.5,0,0.7-0.1
			c0.9,3.3,3,7.5,8.3,10.7c3.9,2.4,7.4,3.6,10.5,3.6c1.2,0,2.4-0.2,3.5-0.6c3.1-1.2,4.5-3.6,5-4.7l4.4-7.2l13.1,6.4
			c2,1,4.1,1.5,6.2,1.5c1.4,0,2.9-0.2,4.3-0.7c3.5-1.1,6.3-3.6,8-6.8c1.8-3.6,1.9-7.6,0.5-11.1c0.2-0.1,0.5-0.1,0.7-0.2
			c3.5-1.1,6.3-3.6,8-6.8c1.8-3.6,1.9-7.6,0.5-11.1c0.2-0.1,0.5-0.1,0.7-0.2c3.5-1.1,6.3-3.6,8-6.8c1.8-3.6,1.9-7.6,0.5-11.1
			c0.2-0.1,0.5-0.1,0.7-0.2c3.5-1.1,6.3-3.6,8-6.8c0.3-0.6,0.5-1.2,0.7-1.7c2.4-0.5,10.3-3.1,15.2-14l3.3,4c0.7,0.9,1.7,1.3,2.8,1.3
			c0.7,0,1.5-0.2,2.1-0.7l16.4-12c0.8-0.6,1.3-1.4,1.4-2.4c0.1-1-0.2-1.9-0.8-2.7L144.7,20.7z M20.8,115.7l-11.8-6l38.9-67.5l11.8,6
			L20.8,115.7z M50.5,143.9c-0.1,0.2-0.2,0.4-0.3,0.7c0,0-0.4,0.9-1.9,0.9c-1.2,0-3.3-0.4-6.7-2.6c-1.2-0.7-2.7-1.9-3-3.3
			c-0.3-1.3,0.5-2.6,0.5-2.6h0c0.1,0,0.2-0.2,0.2-0.4l4.7-8.3c0.6-1,2.2-1.1,2.8-1.1c1.5,0,3.2,0.5,4.7,1.5c3.2,2,4.6,5.2,3.6,6.8
			L50.5,143.9z M68.1,158.3c-0.1,0.1-0.1,0.3-0.2,0.4c-0.1,0.1-0.2,0.2-0.2,0.4c0,0-0.1,0.1-0.2,0.2c-0.2,0.1-0.4,0.2-0.5,0.4
			c-0.1,0-0.1,0.1-0.2,0.1c-0.6,0.2-2.8,0.6-7.7-2.4c-4.4-2.7-4.3-6.2-4-7.6c0.9-0.9,1.4-1.9,1.8-2.7l4.6-8.1
			c0.8-1.3,1.2-2.7,1.3-4.2c0.5-0.3,1-0.6,1.4-1.2c0.9-0.7,5.6,0,9.8,2.6c1.7,1,3,2.5,3.6,4c0.3,0.6,0.6,1.8,0.1,2.7L68.1,158.3z
			 M97.1,157.2l-9.5,15.4c-0.1,0.1-0.1,0.3-0.2,0.4s-0.2,0.2-0.2,0.4c0,0-0.3,0.5-0.9,0.8c-0.6,0.2-2.8,0.6-7.7-2.4
			c-4.2-2.6-5.2-6.1-5.4-8c0.6-0.8,1-1.5,1.2-2l9-14.6c0,0,0.1-0.1,0.1-0.1c1.1-0.5,5.5,0.6,10,3.4c2,1.2,3.5,3,3.9,4.8
			C97.4,155.8,97.4,156.6,97.1,157.2z M151.1,111.6c-0.8,1.6-2.2,2.8-3.8,3.3c-1.7,0.5-3.5-0.4-5.1-1.2l-22.7-11.5
			c-1.8-0.9-3.9,0.2-4.8,2c-0.9,1.7-0.2,4.1,1.6,5l22.7,11.6c3.3,1.7,4.6,5.7,2.9,9c-0.8,1.6-2.2,2.8-3.9,3.3
			c-1.7,0.5-3.5,0.4-5.1-0.4l-22.7-11.5c-1.8-0.9-3.9-0.2-4.8,1.6c-0.9,1.7-0.2,3.9,1.6,4.8l22.7,11.5c3.3,1.7,4.6,5.7,2.9,8.9
			c-0.8,1.6-2.2,2.8-3.8,3.3c-1.7,0.5-3.5,0.4-5-0.4l-10.6-5.8c-1.7-0.9-3.9-0.3-4.8,1.4c-0.9,1.7-0.3,3.9,1.4,4.8l10.7,5.8
			c3.3,1.7,4.6,5.7,2.9,8.9c-0.8,1.6-2.2,2.8-3.8,3.3c-1.7,0.5-3.5,0.4-5.1-0.4l-12.5-6.2l1.2-1.9c1.3-2.1,1.7-4.6,1.1-7.2
			c-0.8-3.6-3.4-6.9-7-9.2c-3.8-2.4-8.3-4.2-12.2-4.5c-0.1-0.9-0.4-1.8-0.8-2.6c-1.2-2.8-3.5-5.4-6.4-7.2c-4.9-3-12.6-5.2-17.1-2.6
			c-1.2-1.9-3-3.6-5.2-5c-2.6-1.6-5.6-2.5-8.5-2.5c-3.9,0-7.1,1.6-9,4.6l-0.5,0.8c-3.5-4.5-5.3-9.2-5.5-14c0-0.3-0.1-0.6-0.2-0.9
			l30.3-52.6c0.3,0.3,0.6,0.6,0.9,0.7l21.3,11l-10.9,7.8c-3,2.2-4.9,5.4-5.5,9c-0.6,3.6,0.3,7.2,2.5,10.2c4.5,6.1,13.1,7.4,19.1,3.1
			l20.1-13.5l38.5,16.3C151.4,104.4,152.7,108.4,151.1,111.6z M158.4,105.6c-0.9-3.8-3.4-7.3-7.3-9.3l-40.5-17.2
			c-1.1-0.5-2.4-0.3-3.4,0.3L85.4,94c-2.9,2.2-7.1,1.5-9.3-1.4c-1-1.4-1.5-3.2-1.2-4.9c0.3-1.8,1.2-3.3,2.6-4.3l51.3-36.6
			c0.4-0.3,0.6-0.6,0.9-0.9l38.3,47C165.4,101.2,161,104.4,158.4,105.6z M179.9,96.1l-49.2-60.4l10.7-7.8l49.2,60.4L179.9,96.1z"/>
	</g>
	<polygon class="st11" points="59.7,48.2 47.9,42.2 34.6,65.2 46.6,70.9 	"/>
	<polygon class="st11" points="141.3,27.8 130.6,35.6 144.3,52.5 155,44.6 	"/>
	<path class="st7" d="M103.7,159.7l1.2-1.9c1.3-2.1,1.7-4.6,1.1-7.2c-0.8-3.6-3.4-6.9-7-9.2c-3.8-2.4-8.3-4.2-12.2-4.5
		c-0.1-0.9-0.4-1.8-0.8-2.6c-1.2-2.8-3.5-5.4-6.4-7.2c-4.9-3-12.6-5.2-17.1-2.6c-1.2-1.9-3-3.6-5.2-5c-2.6-1.6-5.6-2.5-8.5-2.5
		c-3.9,0-7.1,1.6-9,4.6l-2.2,3.9l0.5-0.8c1.8-3,5.1-4.6,9-4.6c2.8,0,5.8,0.9,8.5,2.5c2.2,1.4,3.9,3.1,5.2,5
		c4.5-2.6,12.2-0.5,17.1,2.6c2.9,1.8,5.2,4.4,6.4,7.2c0.4,0.9,0.6,1.8,0.8,2.6c3.9,0.2,8.4,2.1,12.2,4.5c3.6,2.2,6.2,5.6,7,9.2"/>
	<path class="st7" d="M96.5,99.9l17.4-11.7l-4.3-1.8L89.5,99.9c-1.4,1-2.9,1.7-4.4,2.1C88.9,102.9,93.1,102.3,96.5,99.9z"/>
	<path class="st14" d="M138.1,63c2.1,0,4.2,0.2,6.2,0.6l-14.5-17.8c-0.2,0.3-0.5,0.7-0.9,0.9L77.6,83.4c-1.4,1-2.3,2.6-2.6,4.3
		c-0.3,1.7,0.2,3.5,1.2,4.9c2.2,3,6.3,3.6,9.3,1.4L107,79.6C113.8,69.6,125.2,63,138.1,63z"/>
</g>
<g id="Layer_24" class="st0">
	<g class="st1">
		<path class="st4" d="M50,96.1c8.6,0,16.7,2.1,23.7,5.8l5.7-21.1l-58.2-0.5l0.2,29.6C29.2,101.6,39.1,96.1,50,96.1z"/>
		<path class="st2" d="M152.8,107.6L126,22.5l-17.6,9.3l19.5,50.4c0.3,0.9,0.3,1.9,0,2.8l-18.1,46.7c-0.4,1.1-1.4,2-2.6,2.3
			l-13.5,3.6c-1.8,0.5-3.7-0.4-4.5-2.1l-8.8-18.7c-7.1-8.3-18.2-13-30.5-13c-11.5,0-21.7,7.9-28.8,18.6c-0.3,0.7-0.7,0.8-1.3,1.3
			c-5.1,8.5-8.3,20.2-8.7,27.2H118C118.7,132,128.1,109.3,152.8,107.6z"/>
		<path class="st3" d="M54,163.6c0,2.1-1.4,3.8-3.5,3.8c-2.1,0-3.5-1.7-3.5-3.8V159H27.6c1.3,11,10.4,19.1,22.7,19.1
			s22-8.1,23.6-19.1H54V163.6z"/>
		<path class="st3" d="M153,49V28c-5,1.6-13.4,6.4-13.4,10.5C139.6,42.6,148,47.4,153,49z"/>
		<path class="st3" d="M162,163.6c0,2.1-2.4,3.8-4.5,3.8c-2.1,0-4.5-1.7-4.5-3.8V159h-21.7c1.5,11,13.1,19.1,24.4,19.1
			c12.1,0,21.9-8.1,23.5-19.1H162V163.6z"/>
		<path class="st2" d="M155.7,114.5c-26.2,0-29.6,29.5-30,36.5H186C185.9,144,183.4,114.5,155.7,114.5z"/>
		<path class="st5" d="M195.8,151h-2.1c-0.3-19-9.1-40.5-32.8-43.3l-17.3-54.9c4.8,2.6,10.5,4.2,14.3,4.2c2.1,0,4.2-1.6,4.2-3.7
			V23.7c0-2.1-2.1-3.8-4.2-3.8c-6,0-16.2,3.6-21.5,9.8L132,16.1c-0.3-1.1-1.2-2-2.2-2.4c-1-0.4-2.2-0.4-3.3,0.1l-24.8,12.8
			c-1.7,0.9-2.5,2.5-1.8,4.4l5.2,13H88.5c-2.1,0-3.8,1.4-3.8,3.5c0,2.1,1.7,3.5,3.8,3.5h19.2c0.2,0,0.3,0.7,0.4,0.7l12.1,31.5
			l-16.8,43.7l-8.5,2.4l-7.7-16.2c-0.1-0.3-0.3-0.5-0.5-0.8c-1.8-2.2-3.9-4.1-6.2-5.9L88.1,78c0.3-1.1,0.1-2.4-0.7-3.3
			c-0.7-0.9-1.8-1.5-3-1.5l-67.1-0.6c-1,0-2,0.5-2.7,1.2c-0.7,0.7-1.1,1.9-1.1,2.9l0.3,42.9c-6.1,9.8-9.8,21.5-10.2,32.6
			c-1.8,0.3-3.2,1.4-3.2,3.3c0,2.1,1.7,3.4,3.8,3.4h15.7c1.4,16,14,26.8,30.4,26.8c16.6,0,29.7-10.8,31.3-26.8h42
			c1.4,16,15,26.8,32.1,26.8c16.5,0,29.6-10.8,31.3-26.8h8.8c2.1,0,3.8-1.9,3.8-4C199.6,152.9,197.9,151,195.8,151z M153,28V49
			c-5-1.6-13.4-6.4-13.4-10.5C139.6,34.4,148,29.6,153,28z M79.4,80.8l-5.7,21.1c-7-3.7-15.1-5.8-23.7-5.8
			c-10.9,0-20.8,5.5-28.6,13.7l-0.2-29.6L79.4,80.8z M50.3,178.1c-12.2,0-21.3-8.1-22.7-19.1H47v4.6c0,2.1,1.4,3.8,3.5,3.8
			c2.1,0,3.5-1.7,3.5-3.8V159h19.9C72.3,170,62.5,178.1,50.3,178.1z M118,151H11.2c0.4-7,3.5-18.8,8.7-27.2c0.5-0.5,1-0.9,1.3-1.6
			c7.1-10.8,17.4-18.5,28.8-18.5c12.3,0,23.3,4.8,30.5,13.1l8.8,18.7c0.8,1.7,2.6,2.6,4.5,2.1l13.5-3.6c1.2-0.3,2.1-1.2,2.6-2.3
			L127.9,85c0.3-0.9,0.3-1.9,0-2.8l-19.5-50.3l17.6-9.1l26.8,84.8C128.1,109.3,118.7,132,118,151z M155.7,178.1
			c-11.3,0-23-8.1-24.4-19.1H153v4.6c0,2.1,2.4,3.8,4.5,3.8c2.1,0,4.5-1.7,4.5-3.8V159h17.2C177.6,170,167.8,178.1,155.7,178.1z
			 M125.7,151c0.4-7,3.8-36.5,30-36.5c27.7,0,30.2,29.5,30.3,36.5H125.7z"/>
	</g>
	<polygon class="st10" points="21.1,79.8 21.2,86 77.7,86 79.4,80 	"/>
	<path class="st7" d="M140.5,35H153v-7C148,29.5,141.8,33,140.5,35z"/>
	<path class="st7" d="M125.7,151H153v-35.2C130,117.2,126.1,144,125.7,151z"/>
	<polygon class="st11" points="108.1,31.9 145.7,85.6 126,22.8 	"/>
	<path class="st7" d="M50.4,103.8c-11.5,0-21.9,7.9-29,18.6c-0.3,0.7-0.8,0.8-1.4,1.3c-5.1,8.5-8.4,20.2-8.8,27.2H51v-47.2
		C51,103.8,50.5,103.8,50.4,103.8z"/>
</g>
<g id="Layer_25" class="st0">
	<g class="st1">
		<path class="st4" d="M103.4,123.7c-11.8-14.7-14.8-35.6-7.8-52l-12.3-0.1v106h30.3v-44.9C109.9,130.1,106.2,127.2,103.4,123.7z"/>
		<path class="st2" d="M151.5,39.4V22.4h-30.3v21.5C130,39.2,139.3,37.8,151.5,39.4z"/>
		<path class="st2" d="M121.2,137.8v39.8h30.3v-35.4C139.5,143.8,130.2,142.4,121.2,137.8z"/>
		<rect x="7.6" y="136" class="st4" width="30.3" height="41.7"/>
		<rect x="45.4" y="109.5" class="st2" width="30.3" height="68.2"/>
		<path class="st3" d="M178.5,63c-6.4-7.9-15.2-13.2-25.5-15.4c-0.3-0.1-0.6-0.2-0.8-0.4c-3.6-0.5-6.8-0.8-9.8-0.8
			c-8.7,0-15.7,2.3-22.8,7.3c-0.2,0.1-0.4,0.2-0.6,0.3c-0.2,0.3-0.5,0.7-0.9,0.9c-0.4,0.3-0.8,0.5-1.2,0.8c-0.3,0.2-0.6,0.3-0.9,0.6
			c-4.3,3.4-7.8,7.7-10.6,12.6c-0.1,0.4-0.2,0.8-0.4,1.1c-8.8,14.3-7,34.9,4.3,49c2.4,3,6,5.8,9.6,8.3c0.3,0.2,0.5,0.5,0.8,0.8
			c9.7,6.7,18.9,8.5,32.6,6.4c0.3-0.1,0.5-0.3,0.8-0.3c7.1-1.5,13.5-4.4,18.8-8.7c9.2-7.4,15-18,16.3-29.8
			C189.4,83.8,186,72.2,178.5,63z M144,64C144,64,143.9,64,144,64L144,64c-0.4,0-13,0.1-20.1,8.1c-4.3,4.8-5.9,11.6-4.9,20.3
			c0.2,2.1-1.2,4-3.3,4.2c-0.2,0-0.3,0-0.5,0c-1.9,0-3.5-1.4-3.8-3.3c-1.3-11,1-19.9,6.8-26.3c9.6-10.6,25-10.6,25.8-10.6
			c2.1,0,3.8,1.7,3.7,3.8C147.7,62.4,146,64,144,64z"/>
		<path class="st5" d="M182,126.2c7.6-8.2,12.4-18.5,13.6-29.7c1.5-13.8-2.5-27.4-11.2-38.2c-6.5-8.1-15.2-13.9-25.4-16.9V18.6
			c0-2.1-1.7-3.8-3.8-3.8h-37.9c-2.1,0-3.8,1.7-3.8,3.8v30.2c-0.2,0.1-0.4,0.2-0.5,0.3c-0.6,0.4-1.2,0.7-1.8,1.2
			c-4.7,3.8-8.7,8.5-11.9,13.8L79.5,64c0,0,0,0,0,0c-1,0-2,0.4-2.7,1.1c-0.7,0.7-1.1,1.7-1.1,2.7v34.1H41.7c-2.1,0-3.8,1.7-3.8,3.8
			v22.7H3.8c-2.1,0-3.8,1.7-3.8,3.8v49.2c0,2.1,1.7,3.8,3.8,3.8h37.9h37.9h37.9h37.9c2.1,0,3.8-1.7,3.8-3.8v-41.1
			c6.5-1.9,12.4-4.9,17.5-9l16.8,20c0.8,0.9,1.8,1.3,2.9,1.3c0.9,0,1.7-0.3,2.4-0.9c1.6-1.3,1.8-3.7,0.5-5.3L182,126.2z M37.9,177.6
			H7.6V136h30.3V177.6z M75.7,177.6H45.4v-68.2h30.3V177.6z M121.2,22.4h30.3v17.1c-12.2-1.6-21.4-0.3-30.3,4.4V22.4z M113.6,177.6
			H83.3v-106l12.3,0.1c-6.9,16.4-4,37.3,7.8,52c2.8,3.5,6.5,6.4,10.2,9V177.6z M151.5,177.6h-30.3v-39.8c9,4.7,18.4,6,30.3,4.5
			V177.6z M171.8,125.4c-5.3,4.3-11.6,7.2-18.8,8.7c-0.3,0.1-0.5,0.2-0.8,0.3c-13.7,2.1-22.9,0.3-32.6-6.4c-0.2-0.3-0.4-0.6-0.8-0.8
			c-3.5-2.5-7.1-5.2-9.6-8.3c-11.3-14.1-13.1-34.7-4.3-49c0.2-0.4,0.3-0.7,0.4-1.1c2.8-4.9,6.4-9.1,10.6-12.6
			c0.3-0.2,0.6-0.4,0.9-0.6c0.4-0.2,0.8-0.5,1.2-0.8c0.4-0.3,0.6-0.6,0.9-0.9c0.2-0.1,0.4-0.2,0.6-0.3c7.1-5.1,14.1-7.3,22.8-7.3
			c3,0,6.2,0.3,9.8,0.8c0.3,0.1,0.5,0.3,0.8,0.4c10.3,2.2,19.1,7.5,25.5,15.4c7.4,9.2,10.8,20.8,9.6,32.6
			C186.8,107.4,181,118,171.8,125.4z"/>
		<path class="st5" d="M144,56.4c-0.7,0-16.2-0.1-25.8,10.6c-5.8,6.5-8.1,15.3-6.8,26.3c0.2,1.9,1.9,3.3,3.8,3.3c0.1,0,0.3,0,0.5,0
			c2.1-0.2,3.6-2.1,3.3-4.2c-1-8.7,0.6-15.6,4.9-20.3c7.2-8,19.7-8.1,20.1-8.1h0c0,0,0,0,0,0c2.1,0,3.8-1.7,3.8-3.7
			C147.8,58.2,146.1,56.5,144,56.4z"/>
	</g>
	<path class="st10" d="M121.2,22.4v21.5c4.8-2.5,9.7-4,15.1-4.7V22.4H121.2z"/>
	<path class="st10" d="M121.2,137.8v39.8h15.1v-35.2C131,141.8,126,140.3,121.2,137.8z"/>
	<path class="st10" d="M95.6,71.7l-12.3-0.1v106h15.1v-61.4C90.9,102.4,89.8,85.5,95.6,71.7z"/>
	<rect x="45.4" y="109.5" class="st10" width="15.1" height="68.2"/>
	<rect x="7.6" y="136" class="st10" width="15.1" height="41.7"/>
	<path class="st13" d="M152.3,134.4c0.3-0.1,0.5-0.3,0.8-0.3c7.1-1.5,13.5-4.4,18.8-8.7c9.2-7.4,15-18,16.3-29.8
		c1.3-11.8-2.1-23.4-9.6-32.6c-0.3-0.3-0.5-0.6-0.8-0.9c-28.3,8.3-49,34.4-49,65.4c0,1.9,0.1,3.7,0.3,5.5
		C135.7,135.5,143,135.9,152.3,134.4z"/>
</g>
<g id="Layer_26">
	<g>
		<path class="st4" d="M173.4,54.1c-2.8-8.4-7.4-16.2-13.2-22.9c-7.1,6.4-17.8,7.8-26.4,2.8c-8.6-4.9-12.8-14.9-10.7-24.3
			c-8.7-1.7-17.8-1.7-26.5,0c2,9.4-2.2,19.3-10.7,24.2c-8.5,4.9-19.2,3.6-26.3-2.8c-5.9,6.7-10.4,14.5-13.3,22.9
			c8.8,2.8,15.1,10.9,15.5,20.3c5.8-2.1,11.9-3.4,18.3-3.7c2.1-15.3,15.2-26.7,30.6-26.7c17.1,0,30.9,13.9,30.9,30.9
			c0,7.5-2.7,14.7-7.6,20.3c0,0,0,0,0,0c4.4,5.6,7.9,12,10.3,18.9c5.8-0.2,11.5,1.9,15.8,5.8c5.9-6.7,10.4-14.5,13.3-22.9
			c-9.1-2.9-15.6-11.5-15.6-21.4C157.8,65.6,164.3,57,173.4,54.1z"/>
		<path class="st2" d="M83.7,77.2c-31.7,0-57.4,25.8-57.4,57.4c0,31.7,25.8,57.4,57.4,57.4c31.7,0,57.4-25.8,57.4-57.4
			C141.1,102.9,115.3,77.2,83.7,77.2z M66.3,133.1c1.5,1.4,5.7,0.7,9.2,0.6c1.1,0,2.4-0.7,3.5-0.7h0.1H89h0.2c0,0,0,0,0,0
			c6.7,0,12.8,2.8,12.8,13.9v5.5c0,11.1-6.1,11.6-13,11.6h-3v7.2c0,1.9-1.6,3.4-3.5,3.4c-1.9,0-3.5-1.5-3.5-3.4V164H65.7
			c-1.9,0-3.4-2.1-3.4-4c0-1.9,1.5-4,3.4-4H89c6.8,0,7,1,7-3.6v-5.5c0-4.9-0.7-6.9-7-6.9h-9.9h-0.1c-1,0-2.1,0.5-3.1,0.5
			c-1.1,0-2.2,0.3-3.4,0.3c-3.9,0-7.8-0.4-10.6-3c-2-1.9-3-4.6-3-8.2v-10.4c0-3.5,1-6.9,3-8.9c3.8-3.8,9.9-4.3,15.4-4.3H79v-5.5
			c0-1.9,1.6-3.4,3.5-3.4c1.9,0,3.5,1.5,3.5,3.4v6.7l13.4,0c1.9,0,3.3,1.5,3.3,3.4c0,1.9-1.5,3.4-3.4,3.4l-22,0
			c-4.1,0-9.1-0.1-10.9,1.8c-0.3,0.3-1.4,1.1-1.4,3.6v10.4C65,131.3,65.7,132.4,66.3,133.1z"/>
		<path class="st3" d="M66.4,115.7c1.8-1.8,6.6-1.8,10.8-1.8l22.1,0c1.9,0,3.4-1.5,3.4-3.4c0-1.9-1.4-3.4-3.3-3.4l-13.4,0v-6.7
			c0-1.9-1.6-3.4-3.5-3.4c-1.9,0-3.5,1.5-3.5,3.4v5.5h-1.6c-5.4,0-11.5,0.5-15.4,4.3c-2,2-3,5.4-3,8.9v10.4c0,3.6,1,6.4,3,8.3
			c2.8,2.7,6.7,3.1,10.6,3.1c1.1,0,2.3-0.5,3.4-0.5c1.1,0,2.1-0.5,3.1-0.5h0.1H89c6.3,0,7,2,7,6.9v5.5c0,4.5-0.2,3.6-7,3.6H65.7
			c-1.9,0-3.4,2.1-3.4,4c0,1.9,1.5,4,3.4,4H79v7.2c0,1.9,1.6,3.4,3.5,3.4c1.9,0,3.5-1.5,3.5-3.4V164h3c6.9,0,13-0.5,13-11.6v-5.5
			c0-11.1-6.1-13.9-12.8-13.9c0,0,0,0,0,0H89h-9.9h-0.1c-1.1,0-2.2,0.6-3.4,0.7c-3.6,0.1-7.9,0.6-9.4-0.9c-0.7-0.6-1.3-1.5-1.3-3.2
			v-10.4C65,116.8,66.2,116,66.4,115.7z"/>
		<path class="st5" d="M178.2,59.9c1-0.1,1.8-0.7,2.4-1.5c0.5-0.8,0.7-1.8,0.4-2.8c-3.3-11.9-9.7-22.9-18.3-31.8
			c-0.7-0.7-1.6-1-2.6-1c-1,0.1-1.9,0.5-2.5,1.3c-4.8,6.2-13.5,7.9-20.3,4c-6.8-3.9-9.7-12.4-6.7-19.6c0.4-0.9,0.3-1.9-0.1-2.8
			c-0.4-0.9-1.2-1.5-2.2-1.8c-12-3.1-24.7-3.1-36.7,0c-0.9,0.2-1.7,0.9-2.2,1.7c-0.4,0.9-0.5,1.9-0.1,2.8c3,7.3,0.1,15.7-6.7,19.6
			c-6.8,3.9-15.5,2.2-20.3-4c-0.6-0.8-1.5-1.2-2.5-1.3c-1,0-1.9,0.3-2.6,1c-8.7,8.9-15.1,19.9-18.4,31.8c-0.3,0.9-0.1,1.9,0.4,2.8
			c0.5,0.8,1.4,1.4,2.4,1.5c7.8,1.1,13.6,7.8,13.6,15.6c0,0.6,0.2,1.1,0.4,1.5c-21.3,10.4-36.1,32.3-36.1,57.6
			c0,35.4,28.8,64.2,64.2,64.2c35.4,0,64.2-28.8,64.2-64.2c0-4.7-0.6-9.4-1.5-13.8c4.5,0.4,8.5,2.5,11.2,6c0.6,0.8,1.5,1.2,2.5,1.3
			c0.1,0,0.1,0,0.2,0c0.9,0,1.8-0.4,2.4-1c8.7-8.8,15-19.8,18.4-31.8c0.3-0.9,0.1-1.9-0.4-2.8c-0.5-0.8-1.4-1.4-2.4-1.5
			c-7.8-1.1-13.6-7.8-13.6-15.6C164.5,67.6,170.4,60.9,178.2,59.9z M83.7,192c-31.7,0-57.4-25.8-57.4-57.4
			c0-31.7,25.8-57.4,57.4-57.4c31.7,0,57.4,25.8,57.4,57.4C141.1,166.3,115.3,192,83.7,192z M87,70.6c2-11.5,12.1-20,23.8-20
			c13.3,0,24.2,10.8,24.2,24.2c0,5.5-1.9,10.9-5.4,15.2C118.7,78.7,103.7,71.5,87,70.6z M173.4,96.9c-2.8,8.4-7.4,16.3-13.3,22.9
			c-4.3-3.9-10-6-15.8-5.8c-2.4-6.9-5.8-13.3-10.3-18.9c0,0,0,0,0,0c4.9-5.6,7.6-12.8,7.6-20.3c0-17-13.9-30.9-30.9-30.9
			c-15.4,0-28.6,11.5-30.6,26.7c-6.4,0.3-12.5,1.6-18.3,3.7c-0.5-9.4-6.8-17.5-15.5-20.3c2.8-8.4,7.4-16.3,13.3-22.9
			c7.1,6.4,17.8,7.8,26.3,2.8C94.5,29,98.7,19.1,96.7,9.7c8.7-1.7,17.8-1.7,26.5,0c-2,9.4,2.2,19.3,10.7,24.3
			c8.5,4.9,19.2,3.6,26.4-2.8c5.9,6.7,10.4,14.5,13.2,22.9c-9.1,2.9-15.6,11.6-15.6,21.4C157.8,85.3,164.3,93.9,173.4,96.9z"/>
	</g>
	<path class="st15" d="M83.4,77.2c-0.4,0-0.4,0-1.4,0.1v19.9c3,0,4,1.5,4,3.4v6.7l13.4,0c1.9,0,3.3,1.5,3.3,3.4
		c0,1.9-1.8,3.4-3.6,3.4l-17.1,0V133h7h0.2c0,0,0,0,0,0c6.7,0,12.8,2.8,12.8,13.9v5.5c0,11.1-6.1,11.6-13,11.6h-3v7.2
		c0,1.9-1,3.4-4,3.4V192c1,0,1,0.1,1.4,0.1c31.7,0,57.4-25.8,57.4-57.4C140.8,102.9,115.1,77.2,83.4,77.2z"/>
	<path class="st25" d="M96.7,9.7c2,9.4-2.2,19.3-10.7,24.2c-0.7,0.4-1.4,0.7-2.1,1l-19,38.4c4.9-1.5,10-2.5,15.3-2.8
		c1.6-11.9,10-21.5,20.9-25.1L119,9.1C111.6,8.1,104,8.2,96.7,9.7z"/>
	<path class="st25" d="M133.8,34c-4.2-2.4-7.4-6.1-9.2-10.3l-10.1,20.4c7.1,0.9,13.4,4.1,18.2,8.9l8.1-16.4
		C138.4,36.1,136,35.2,133.8,34z"/>
</g>
</svg>
