<?xml version="1.0" encoding="utf-8"?>
<!-- Generator: Adobe Illustrator 20.1.0, SVG Export Plug-In . SVG Version: 6.00 Build 0)  -->
<svg version="1.1" id="Layer_1" xmlns="http://www.w3.org/2000/svg" xmlns:xlink="http://www.w3.org/1999/xlink" x="0px" y="0px"
	 width="672.7px" height="378.4px" viewBox="0 0 672.7 378.4" style="enable-background:new 0 0 672.7 378.4;" xml:space="preserve"
	>
<style type="text/css">
	.st0{fill:#676967;}
	.st1{font-family:'Myriad-Bold';}
	.st2{font-size:13.0548px;}
	.st3{fill:#669F5C;}
</style>
<g>
	<path class="st0" d="M616.9,274.2c0-0.8,0-1.6-0.1-2.4c-0.5-5.5-2.4-10.4-6.3-14.3c-2.6-2.6-5.7-4.3-9.3-4.8
		c-1.4-0.2-2.9-0.3-4.3-0.3c-6.3,0-12.6,0-18.9,0c-6.3,0-12.6,0-18.9,0c-1.1,0-2.3,0-3.4,0.1c-2.5,0.3-4.1,1.7-4.8,4.2
		c-0.6,1.8-0.4,3.5,0.3,5.2c0.8,1.7,2.1,2.9,4,3.1c1.4,0.1,2.9,0.2,4.3,0.2c12,0,23.9,0,35.9,0c1.3,0,2.6,0,3.9,0.1
		c2.6,0.2,4.5,1.6,5.7,3.9c1.2,2.2,1.5,4.6,1,7c-0.1,0.5-0.6,0.8-1,0.8c-1.3,0.1-2.6,0.1-3.9,0.1c-10,0-20,0-30,0
		c-1.5,0-2.9,0-4.4,0.1c-1.3,0-2.5,0.3-3.8,0.8c-4.5,1.6-7.7,4.7-10,8.8c-2.7,4.8-3.5,10.1-2.6,15.5c0.7,4.7,2.7,8.9,6.2,12.4
		c2.7,2.7,6,4.4,9.8,4.8c1.3,0.1,2.6,0.2,3.9,0.2c8.9,0,17.8,0,26.7,0c1.4,0,2.9-0.1,4.3-0.2c3.2-0.3,5.9-1.7,8.3-3.7
		c2.5-2.1,4.4-4.7,5.6-7.8c1.3-3.2,1.9-6.5,1.9-9.9C616.9,290,616.9,282.1,616.9,274.2z M606.1,299.4c-0.1,1.8-0.8,3.4-2,4.8
		c-1.2,1.4-2.7,2.3-4.6,2.4c-1,0-1.9,0.1-2.9,0.1c-8.7,0-17.4,0-26.2,0c-1.1,0-2.3,0-3.4-0.1c-1-0.1-1.9-0.4-2.7-1
		c-4.2-3.1-5-10-0.5-14c1.1-1,2.4-1.6,4-1.6c1.1,0,2.3,0,3.4,0c5,0,10,0,15,0c5.5,0,11,0,16.5,0c0.8,0,1.6,0,2.4,0.2
		c0.4,0.1,0.8,0.6,0.9,1C606.1,293.9,606.2,296.6,606.1,299.4z"/>
	<path class="st0" d="M76.2,294.8c1.5,0,2.9-0.1,4.4-0.1c10.2,0,20.3,0,30.5,0c1.6,0,3.2,0,4.8-0.4c5.4-1.1,9.3-4.3,12-9
		c3.7-6.6,4.1-13.5,1.5-20.6c-1.4-3.9-3.8-7.1-7.2-9.5c-3.3-2.3-7-3.1-11-3.1c-9.2,0.1-18.4,0-27.6,0c-0.5,0-1,0-1.5,0
		c-4.8,0.1-8.8,1.9-12,5.3c-1.8,1.9-3.2,4.1-4.2,6.5c-1.2,3-1.9,6.2-1.9,9.4c0,8.2,0,16.5,0,24.7c0,0.6,0,1.3,0.1,1.9
		c0.4,4.3,1.7,8.2,4.2,11.7c2.2,3.1,5.1,5.4,8.7,6.7c1.9,0.7,3.8,0.8,5.7,0.8c6.6,0,13.2,0,19.9,0c6.3,0,12.6,0,18.9,0
		c1.3,0,2.6,0,3.9-0.1c1.6,0,2.8-0.8,3.7-2c1.7-2.2,1.8-5.9,0.2-8.2c-1-1.4-2.3-2.2-4-2.4c-1.3-0.1-2.6-0.1-3.9-0.1
		c-11.8,0-23.6,0-35.4,0c-1.3,0-2.6,0-3.9,0c-2.9,0-4.9-1.6-6.2-4c-1.1-2.1-1.3-4.3-1-6.6C75,295.4,75.5,294.8,76.2,294.8z
		 M76.3,268.4c1.3-2,3.1-3.2,5.5-3.5c0.8-0.1,1.6,0,2.4,0c8.7,0,17.5,0,26.2,0c0.6,0,1.3,0,1.9,0c4.8,0.2,8.3,4.5,7.7,9.3
		c-0.2,1.3-0.6,2.5-1.1,3.7c-1.1,2.3-3.1,3.7-5.7,3.9c-1,0.1-1.9,0.1-2.9,0.1c-5.3,0-10.7,0-16,0c-5.2,0-10.3,0-15.5,0
		c-1,0-1.9,0-2.9-0.2c-0.4-0.1-0.9-0.4-0.9-1c0-2.7-0.1-5.5-0.1-8.2C74.9,271,75.6,269.7,76.3,268.4z"/>
	<path class="st0" d="M385.8,252.2c-5.2,0-10.3,0-15.5,0c-4.8,0-9.7,0-14.5,0c-5.5,0-9.9,2.3-13.4,6.6c-1.7,2-2.8,4.3-3.7,6.8
		c-1,2.8-1.2,5.7-1.2,8.6c0,7.7,0,15.5,0,23.2c0,1.1,0,2.3,0.1,3.4c0.4,4.3,1.8,8.2,4.5,11.6c2.2,2.9,5,5,8.5,6.2
		c1.9,0.7,3.8,0.7,5.7,0.7c6.6,0,13.2,0,19.9,0c6.3,0,12.6,0,18.9,0c1.3,0,2.6,0,3.9-0.1c1.2,0,2.1-0.6,3-1.4c2.5-2.3,2.5-7,0.3-9.3
		c-1-1.1-2.3-1.8-3.8-1.9c-1.3-0.1-2.6,0-3.9,0c-11.8,0-23.6,0-35.4,0c-1.3,0-2.6,0-3.9,0c-2.3,0-4-1.1-5.3-2.9
		c-1.1-1.5-1.7-3.1-1.7-5c0-3.8-0.5-4,3.9-4c2.1,0,4.2,0,6.3,0c8.9,0,17.8,0,26.6,0c7.6,0,12.8-3.6,16.4-10c1.6-2.9,2.4-6,2.7-9.2
		c0.5-6.2-1-11.9-5-16.7C395.8,254.5,391.3,252.2,385.8,252.2z M392,278.3c-1.2,2.1-3.1,3.3-5.5,3.6c-1.1,0.1-2.3,0.1-3.4,0.1
		c-5.2,0-10.3,0-15.5,0c-5.2,0-10.3,0-15.5,0c-1,0-1.9,0-2.9-0.2c-0.4-0.1-0.9-0.4-0.9-1c0-2.9-0.2-5.8,0-8.7c0.3-4.2,3.5-7,7.7-7.2
		c2.4-0.1,4.8,0,7.3,0c6.5,0,12.9,0,19.4,0c1.1,0,2.3,0,3.4,0c2.8,0.2,4.9,1.5,6.2,4C393.8,272.1,393.7,275.2,392,278.3z"/>
	<path class="st0" d="M482.9,266.9c-1-3.5-2.7-6.6-5.3-9.1c-2.7-2.7-5.9-4.5-9.7-5c-1.4-0.2-2.9-0.3-4.3-0.3c-11.3,0-22.6,0-33.9,0
		c-1,0-1.9,0-2.9,0.1c-2.5,0.3-4.1,1.7-4.9,4.1c-0.5,1.6-0.5,3.2-0.5,4.8c0,8.1,0,16.2,0,24.2c0,7.9,0,15.8,0,23.8
		c0,1.1-0.1,2.3,0,3.4c0.1,1.1,0.3,2.3,0.7,3.3c0.8,1.9,2.2,3.2,4.3,3.4c2.1,0.2,3.8-0.8,4.9-2.6c0.7-1.1,1.1-2.3,1.1-3.7
		c0-1.3,0-2.6,0-3.9c0-12.8,0-25.5,0-38.3c0-1.3,0-2.6,0-3.9c0-1,0.6-1.5,1.4-1.6c0.5,0,1-0.1,1.5-0.1c9.5,0,19.1,0,28.6,0
		c0.8,0,1.6,0,2.4,0.1c1.4,0,2.5,0.6,3.5,1.5c1.3,1.1,2.2,2.4,2.6,4c0.5,1.6,0.6,3.2,0.6,4.8c0,6,0,12,0,17.9c0,5.8,0,11.6,0,17.4
		c0,1.4,0.1,2.9,0.4,4.3c0.4,2.1,2.3,3.7,4.4,4c2,0.3,4.1-0.9,5.1-2.9c0.7-1.3,0.9-2.7,0.9-4.2c0-12.8,0-25.5,0-38.3
		C484,271.6,483.5,269.2,482.9,266.9z"/>
	<path class="st0" d="M210.7,275.4c0-1.5,0-2.9-0.1-4.4c-0.6-5.1-2.5-9.7-6.2-13.4c-2.7-2.7-5.9-4.5-9.7-5c-1.3-0.2-2.6-0.3-3.9-0.3
		c-11.6,0-23.3,0-34.9,0c-0.8,0-1.6,0-2.4,0.1c-2.7,0.4-4.7,2.4-5,5.1c-0.1,1.4-0.1,2.9-0.1,4.4c0,8.1,0,16.2,0,24.2
		c0,7.9,0,15.8,0,23.7c0,1.5,0.1,2.9,0.1,4.4c0.1,1.3,0.7,2.5,1.6,3.5c1.8,2,4.9,2.2,6.9,0.4c1.4-1.3,2.2-2.8,2.2-4.7
		c0-1.3,0-2.6,0-3.9c0-12.8,0-25.5,0-38.3c0-1.5,0-2.9,0.1-4.4c0-0.8,0.7-1.4,1.6-1.5c1,0,1.9,0,2.9,0c8.7,0,17.4,0,26.2,0
		c1,0,1.9,0,2.9,0c2.3,0.1,4,1.2,5.3,3c1.1,1.5,1.7,3.1,1.7,5c0,1.3,0,2.6,0,3.9c0,10.8,0,21.7,0,32.5c0,1.3,0,2.6,0,3.9
		c0,1.5,0.7,2.8,1.6,4c1.4,1.7,3.7,2.1,5.2,1.6c2.2-0.8,3.4-2.4,3.8-4.6c0.2-1.3,0.2-2.6,0.2-3.9C210.7,299,210.7,287.2,210.7,275.4
		z"/>
	<path class="st0" d="M287.8,252.1c-2.5-0.4-4.2,0.5-5.5,2.9c-0.7,1.3-1.3,2.6-1.9,3.9c-6.4,13.6-12.8,27.1-19.3,40.7
		c-0.7,1.5-1.4,2.9-2.2,4.3c-0.2,0.4-0.9,0.3-1.1,0c-0.4-0.7-0.8-1.4-1.2-2.1c-3.7-7.9-7.5-15.7-11.2-23.6c-3.3-7-6.6-14-9.9-21
		c-0.5-1-1-2-1.6-3c-1.9-2.9-6.5-3.1-8.5,0.3c-1.3,2.2-1.6,4.5-0.5,6.9c0.9,1.9,1.7,3.8,2.6,5.7c7.6,15.9,15.2,31.7,22.6,47.6
		c1.7,3.6,4,5.4,6.8,5c2.2-0.1,3.3-0.1,4.5-0.2c1.7-0.2,3.1-1.1,4-2.5c0.8-1.2,1.4-2.5,2-3.9c7.7-16.4,15.3-32.7,23-49.1
		c0.4-0.9,0.9-1.7,1.2-2.6c0.6-1.5,0.7-3.1,0.4-4.8C291.7,254.4,289.9,252.4,287.8,252.1z"/>
	<path class="st0" d="M528.5,306.6c-2.1-0.1-4.2,0-6.3,0c-1.1,0-2.3,0-3.4,0c-2.1,0-3.7-1-5-2.5c-0.7-0.9-1.3-1.8-1.6-3
		c-0.4-1.4-0.6-2.8-0.6-4.3c0-9.7,0-19.4,0-29.1c0-0.5,0-1,0.2-1.4c0.2-0.4,0.6-0.8,1-0.9c0.8-0.2,1.6-0.2,2.4-0.2
		c3.9,0,7.8,0,11.6,0c1.1,0,2.3-0.1,3.4-0.2c1.5-0.2,2.7-1,3.5-2.3c1.5-2.2,1.5-5.6,0-7.8c-0.9-1.4-2.3-2.3-4-2.5
		c-1-0.1-1.9-0.1-2.9-0.1c-3.9,0-7.8,0-11.6,0c-0.8,0-1.6-0.1-2.4-0.1c-0.6,0-1.2-0.6-1.2-1.3c0-0.8-0.1-1.6-0.1-2.4
		c0-3.4,0-6.8,0-10.2c0-1.1-0.1-2.3-0.2-3.4c-0.1-1.5-0.9-2.7-2-3.8c-2.1-2-5.5-1.8-7.3,0.5c-0.9,1.2-1.5,2.5-1.5,4
		c0,1.3,0,2.6,0,3.9c0,9.4,0,18.7,0,28.1c0,9.1,0,18.1,0,27.1c0,1.1,0,2.3,0,3.4c-0.1,2.5,0.4,4.8,1.1,7.2c1.1,3.6,2.9,6.8,5.7,9.4
		c2.7,2.5,5.7,4.2,9.4,4.6c4.3,0.5,8.7,0.3,13.1,0.1c0.2,0,0.3-0.1,0.5-0.1c1.9-0.4,3.3-1.5,4-3.2c0.4-1,0.7-2.2,0.6-3.3
		C534.9,309.1,532.4,306.7,528.5,306.6z"/>
	<path class="st0" d="M317,253.9c-1.6-1.4-3.4-1.8-5.4-0.9c-1.7,0.8-2.9,2.1-3.2,4c-0.2,1.4-0.3,2.9-0.3,4.3c0,8.2,0,16.5,0,24.7
		c0,7.8,0,15.5,0,23.3c0,1.3,0,2.6,0,3.9c0,0.8,0.1,1.6,0.4,2.4c0.7,2,1.9,3.3,4,3.8c2.1,0.4,3.8-0.3,5.1-2c0.8-1,1.4-2.2,1.4-3.5
		c0-1.1,0.1-2.3,0.1-3.4c0-16.3,0-32.6,0-48.9c0-1.1,0-2.3-0.1-3.4C319,256.4,318.3,255,317,253.9z"/>
	<path class="st0" d="M314.1,229.7c-3.1-0.1-5.9,2.1-5.9,5.6c0,3.1,2.3,5.5,5.4,5.5c3.1,0,5.5-2.3,5.7-5.3
		C319.5,232.3,316.7,229.8,314.1,229.7z"/>
</g>
<text transform="matrix(1 0 0 1 617.4598 238.4315)" class="st0 st1 st2">TM</text>
<g>
	<path class="st3" d="M584.2,335.7c-0.2,0-0.3,0-0.5,0c-0.8,0.1-1.5,0.7-1.5,1.5c0,1.8,0,3.5,0,5.3c0,1.9,0,3.9-0.1,5.8
		c0,0.1-0.1,0.4-0.2,0.4c-0.3,0-0.7,0.1-0.8-0.1c-1.5-2.5-2.8-5.1-4.3-7.6c-3.8-6.5-1.6-5.2-9.2-5.4c-0.3,0-0.6,0-1,0.1
		c-0.8,0-1.4,0.7-1.5,1.6c0,0.5,0,1-0.1,1.4c0,2.7,0,5.5,0,8.2c0,0,0,0,0,0c0,3.1,0,6.1,0,9.2c0,0.6,0.1,1.3,0.3,1.9
		c0.1,0.3,0.4,0.6,0.6,0.7c1.4,0.3,2.9,0.3,4.3-0.1c0.3-0.1,0.6-0.4,0.6-0.7c0.1-0.8,0.2-1.6,0.2-2.4c0-3.2,0-6.4,0-9.7
		c0-0.1,0.1-0.3,0.2-0.4c0.4-0.2,0.6-0.1,0.8,0.2c1.6,2.8,3.1,5.6,4.7,8.5c3.1,5.6,1.6,4.6,8.1,4.7c0.6,0,1.3,0,1.9-0.1
		c0.4-0.1,0.9-0.5,1-0.9c0.2-0.9,0.3-1.9,0.3-2.9c0-5.2,0-10.3,0-15.5C588.3,335.7,588.1,335.5,584.2,335.7z"/>
	<path class="st3" d="M167.1,338.5c0-0.6-0.1-1.3-0.2-1.9c-0.1-0.3-0.4-0.6-0.6-0.7c-1.4-0.4-2.9-0.3-4.3-0.1
		c-0.3,0-0.6,0.4-0.7,0.7c-0.2,0.4-0.2,0.9-0.2,1.4c0,2.4,0.1,4.8,0.1,7.3c0,1,0,1.9,0,2.9c0,0.9-0.3,1.3-0.6,1.1
		c-0.3-0.2-0.6-0.3-0.7-0.5c-1.4-2.5-2.8-5.1-4.2-7.6c-3.7-6.5-1.8-5.2-9.2-5.4c-0.3,0-0.6,0-1,0c-0.8,0.1-1.5,0.7-1.5,1.6
		c0,6.6,0,13.2,0,19.8c0,0.3,0.1,0.7,0.2,0.9c0.1,0.3,0.4,0.6,0.7,0.7c1.4,0.4,2.9,0.3,4.3,0.1c0.2,0,0.5-0.4,0.6-0.7
		c0.2-0.6,0.3-1.3,0.3-1.9c0-2.4-0.1-4.8-0.1-7.3c0-0.8,0-1.6,0-2.4c0-0.8,0.3-1.3,0.6-1.1c0.3,0.1,0.6,0.3,0.8,0.5
		c1.4,2.5,2.8,5.1,4.2,7.6c3.6,6.6,1.8,5.2,9.2,5.4c0.3,0,0.6,0,1,0c0.8-0.1,1.5-0.7,1.5-1.6c0-3.2,0-6.4,0-9.7c0,0,0,0,0.1,0
		C167.1,344.6,167.1,341.5,167.1,338.5z"/>
	<path class="st3" d="M615.5,345.9c-1.4-0.1-2.9-0.2-4.3-0.2c0,0,0,0,0,0.1c-1,0-1.9,0-2.9,0c-0.6,0-1.3,0.1-1.9,0.1
		c-0.5,0-1.2,0.8-1.3,1.3c0,0.5-0.1,1-0.1,1.4c0,1.3,0.5,1.9,1.6,2c1,0.1,1.9,0,2.9,0.2c0.4,0.1,0.9,0.5,1,0.9
		c0.1,0.4-0.1,1-0.4,1.3c-0.3,0.4-0.7,0.7-1.2,0.8c-1.9,0.4-3.8,0.3-5.8-0.1c-1-0.2-1.7-1-1.8-2c0-2.9,0-5.8,0-8.7
		c0-1.2,1-2.1,2.2-2.1c1.4-0.1,2.9-0.1,4.3-0.1c1.2,0,2.2,0.5,2.7,1.7c0.4,1.1,1.2,1.4,2.3,1.4c0.8,0,1.6,0,2.4-0.1
		c0.8-0.1,1.5-0.8,1.5-1.6c-0.2-4.1-2.1-6.3-6.2-6.6c-2.7-0.1-5.5,0-8.2,0c-0.8,0-1.6,0.2-2.4,0.4c-2.5,0.8-4.2,2.5-4.6,5.1
		c-0.6,4.2-0.7,8.3,0,12.5c0.4,2,1.6,3.5,3.4,4.4c1,0.5,2.1,0.9,3.2,0.9c2.6,0,5.2,0,7.7,0c1.3,0,2.5-0.5,3.7-1
		c1.2-0.5,2.1-1.5,2.6-2.7c0.2-0.6,0.5-1.2,0.5-1.9c0.1-2.1,0.1-4.2,0.1-6.3C616.8,346.6,616.1,345.9,615.5,345.9z"/>
	<path class="st3" d="M294,342.4c-0.2-4.2-2.1-6.5-6.7-6.7c-4-0.1-8.1,0-12.1,0c-1.1,0-1.7,0.7-1.7,1.9c0,3.1,0,6.1,0,9.2
		c0,0,0,0,0,0c0,3.1,0,6.1,0,9.2c0,0.6,0,1.3,0.2,1.9c0.1,0.4,0.4,0.9,1,0.9c0.6,0.1,1.3,0.1,1.9,0.1c2.6,0,2.9-0.3,2.9-2.6
		c0-1.1,0-2.3,0.1-3.4c0.1-0.4,0.4-0.8,1-0.9c1.8-0.2,3.5-0.2,5.3,0c0.6,0.1,1.3,0.7,1.3,1.2c0.1,1.1,0.1,2.3,0.2,3.4
		c0,0.5,0.1,1,0.3,1.4c0.1,0.3,0.4,0.6,0.7,0.6c4.9,0.7,5.5,0.6,5.4-3.8c0-1.8-0.4-3.5-1.2-5.1c-0.3-0.6-0.4-0.7,0.2-1.7
		C293.9,346.2,294.1,344.4,294,342.4z M287.2,345.8c-0.1,0.2-0.5,0.5-0.8,0.5c-1.1,0.1-2.2,0.2-3.3,0.3c0,0,0-0.1,0-0.1
		c-0.6,0-1.3,0-1.9,0c-1,0-1.5-0.5-1.6-1.4c0-1,0-1.9,0-2.9c0-0.7,0.6-1.3,1.2-1.3c1.4-0.1,2.9-0.1,4.3-0.1c0.8,0,1.7,0.1,2.1,0.9
		C288,343,287.9,344.4,287.2,345.8z"/>
	<path class="st3" d="M460.4,336c-0.5-0.1-1-0.2-1.4-0.2c-4.3,0-8.7,0-13,0c-0.6,0-1.3,0.6-1.3,1.2c0,0.5-0.1,1-0.1,1.4
		c0,2.9,0,5.8,0,8.7c0,0,0,0,0,0c0,3.4,0,6.8,0,10.2c0,0.9,0.6,1.6,1.4,1.6c1.1,0,2.3,0.1,3.4,0c0.4,0,0.8-0.5,1-0.9
		c0.2-0.4,0.2-0.9,0.3-1.4c0.1-1.1,0.1-2.3,0.1-3.4c0-0.5,0.8-1.2,1.3-1.2c1.1,0,2.3-0.1,3.4-0.1c2.6,0,3.1,0.6,3.3,3.1
		c0,0.6,0,1.3,0,1.9c0.1,1.4,0.4,2,2.1,2c3.9,0.1,4-0.1,4-4c0-2-0.2-3.9-1.3-5.6c-0.3-0.5,0-0.9,0.2-1.3c0.7-1,1-2,1-3.2
		c0-1.3,0.1-2.6,0-3.9C464.5,338.4,463,336.6,460.4,336z M458.7,344.9c-0.1,0.7-1,1.5-1.7,1.5c-1,0-1.9,0-2.9,0c0,0,0,0.1,0,0.1
		c-0.8,0-1.6-0.1-2.4-0.1c-0.5,0-1-0.4-1.1-0.8c-0.2-1.3-0.3-2.6,0.1-3.8c0.1-0.4,0.5-0.9,1-0.9c1.6,0,3.2-0.1,4.8,0
		c1.3,0,2.1,0.9,2.2,2.1C458.8,343.6,458.8,344.2,458.7,344.9z"/>
	<path class="st3" d="M207.8,345.4c-3.2-0.3-6.4-0.6-9.6-1c-0.4,0-0.9-0.3-1.2-0.6c-0.5-0.5-0.7-1.1-0.4-1.8
		c0.2-0.6,0.6-1.2,1.3-1.3c1.6-0.1,3.2-0.1,4.8-0.1c0.7,0,1.2,0.5,1.3,1.2c0.2,1.2,0.9,1.6,2,1.7c1.3,0,2.6,0,3.9,0
		c0.4-1.3,0.2-2.5,0-3.8c-0.2-1-0.7-1.8-1.4-2.4c-0.8-0.8-1.8-1.3-3-1.5c-3.4-0.4-6.7-0.4-10.1,0.1c-0.3,0-0.6,0.1-0.9,0.2
		c-1.6,0.6-2.8,1.6-3.4,3.2c-0.7,2-0.7,4.1-0.1,6.2c0.5,1.6,1.6,2.7,3.2,3.5c0.1,0.1,0.2,0.2,0.4,0.3c2.7,0.2,5.4,0.3,8.1,0.5
		c1.3,0.1,2.1,1,1.9,2.3c-0.1,1.2-0.9,2-2.2,2c-1.1,0-2.2,0.1-3.4,0c-1.6-0.1-2.1-0.4-2.6-2.2c-0.3-1.2-1-1.5-2-1.8
		c-0.8,0.1-1.6,0.1-2.4,0.2c-0.9,0.1-1.5,0.7-1.5,1.5c0,0.8,0,1.6,0.1,2.4c0.3,1.9,1.4,3.3,3.1,4c0.9,0.4,1.8,0.6,2.8,0.7
		c2.6,0.1,5.1,0,7.7,0c1.3,0,2.6-0.3,3.7-1c0.7-0.4,1.3-1,1.7-1.7c1.2-2,1.4-4.3,1-6.5C210.3,347.9,209.3,346.5,207.8,345.4z"/>
	<path class="st3" d="M85.6,341.8c-0.4-3.5-2.4-5.5-5.9-6c-0.3,0-0.6-0.1-1-0.1c-2.4,0-4.8-0.1-7.2,0c-0.9,0-1.9,0.2-2.8,0.5
		c-1.8,0.6-3,1.8-3.6,3.6c-0.9,3-0.9,11.8,0,14.8c0.6,1.8,1.8,3,3.5,3.7c0.6,0.2,1.2,0.5,1.8,0.5c2.9,0.1,5.8,0.1,8.7,0
		c0.8,0,1.6-0.4,2.3-0.6c1.5-0.4,2.5-1.4,3.2-2.7c0.6-1,1-2,1-3.2c0-1.6,0-3.2,0-4.8c0,0,0,0-0.1,0
		C85.7,345.6,85.9,343.7,85.6,341.8z M79.5,351.9c-0.1,0.8-0.8,1.4-1.6,1.7c-1.9,0.6-3.8,0.6-5.7,0c-0.6-0.2-1.1-0.7-1.2-1.4
		c-0.2-0.9-0.3-1.9-0.3-2.9c0-2.1,0-4.2,0.1-6.3c0.1-1.4,1.1-2.3,2.6-2.4c1.4,0,2.9,0,4.3,0.1c0.9,0.1,1.9,1.1,1.9,1.9
		c0.1,1.6,0.2,3.2,0.2,5C79.7,349,79.7,350.5,79.5,351.9z"/>
	<path class="st3" d="M237.8,347.4c0-1.8,0.1-3.6,0-5.3c-0.4-3.8-2.4-5.9-6.1-6.4c-1.6-0.2-3.2-0.3-4.8-0.2c-1.6,0-3.2,0.1-4.8,0.3
		c-2.6,0.4-4.4,1.9-5,4.5c-0.1,0.6-0.4,1.3-0.4,1.9c0,3.2-0.1,6.4,0,9.6c0,1.1,0.4,2.2,0.8,3.3c0.4,1.3,1.3,2.2,2.5,2.8
		c1,0.5,2,1,3.2,1c2.6,0,5.1,0,7.7,0c0.8,0,1.6-0.3,2.3-0.5c1.8-0.5,3.1-1.7,3.8-3.4c0.4-0.9,0.7-1.8,0.7-2.8
		C238,350.7,237.9,349,237.8,347.4C237.9,347.4,237.9,347.4,237.8,347.4z M231.6,351.7c-0.1,1-0.9,1.7-1.9,2c-1.7,0.5-3.5,0.4-5.2,0
		c-0.8-0.2-1.4-0.9-1.5-1.7c-0.4-3-0.4-6.1-0.1-9.1c0-0.2,0.1-0.3,0.2-0.5c0.3-0.8,0.9-1.4,1.7-1.5c1.6-0.1,3.2-0.1,4.8-0.1
		c1.1,0,2.1,1.1,2.1,2.3c0.1,1.4,0,2.9,0,4.3c0.1,0,0.1,0,0.2,0C231.8,348.9,231.8,350.3,231.6,351.7z"/>
	<path class="st3" d="M265.8,337.3c0-0.9-0.7-1.6-1.5-1.6c-1,0-1.9,0-2.9,0c-1,0-1.6,0.6-1.6,1.4c-0.1,1.1-0.1,2.3-0.1,3.4
		c0,3.4,0,6.8,0,10.2c0,2.2-0.5,3.2-3.2,3.3c-1.1,0-2.3-0.1-3.4-0.2c-1-0.1-1.8-0.9-1.9-1.9c0-1-0.1-1.9-0.1-2.9c0-3.2,0-6.5,0-9.7
		c0-0.8,0-1.6-0.2-2.4c-0.1-0.4-0.3-0.9-0.9-1c-1.4-0.3-2.9-0.4-4.3,0.1c-0.3,0.1-0.5,0.4-0.7,0.6c-0.2,0.3-0.2,0.6-0.2,0.9
		c0,4.8-0.1,9.7,0,14.5c0,1.1,0.4,2.2,0.7,3.3c0.5,1.5,1.5,2.5,3,3c0.8,0.3,1.5,0.6,2.3,0.6c3.1,0.1,6.1,0.2,9.2-0.1
		c3.4-0.3,5.5-2.6,5.8-6.1c0.1-0.8,0.1-1.6,0.1-2.4c0-1.8,0-3.5,0-5.3c0,0,0,0-0.1,0C265.8,342.5,265.8,339.9,265.8,337.3z"/>
	<path class="st3" d="M543.2,337.3c-0.1-0.9-0.6-1.5-1.5-1.6c-0.8,0-1.6-0.1-2.4,0c-1.5,0-2,0.5-2.1,2c0,0.5,0,1,0,1.4
		c0,6.1,0.5,5.3-5.5,5.4c-0.6,0-1.3,0-1.9,0c-1.1,0-1.6-0.6-1.7-1.9c0-1.6,0-3.2-0.1-4.8c0-1.5-0.6-2-2-2c-1,0-1.9,0.1-2.9,0.1
		c-0.6,0-0.8,0.5-1,0.9c-0.1,0.3-0.2,0.6-0.2,0.9c0,6.4,0,12.9,0,19.3c0,0.3,0,0.7,0.2,0.9c0.2,0.4,0.5,0.9,1,0.9
		c0.5,0,1,0.1,1.4,0.1c3.3,0.1,3.4-0.1,3.5-3.6c0-1.3,0-2.6,0-3.9c0-0.3,0.1-0.7,0.2-0.9c0.1-0.3,0.4-0.6,0.7-0.6
		c1.3-0.1,2.6-0.2,3.8-0.3c4.7-0.1,4.4,0.1,4.4,4.1c0,1.1,0,2.3,0,3.4c0,0.3,0.1,0.7,0.2,0.9c0.1,0.3,0.4,0.6,0.7,0.6
		c1.3,0.1,2.6,0.1,3.8,0.1c0.6,0,1.2-0.7,1.2-1.3c0-3.4,0-6.8,0-10.1c0,0,0.1,0,0.1,0c0-3.2,0-6.4,0-9.7
		C543.3,337.6,543.2,337.4,543.2,337.3z"/>
	<path class="st3" d="M135.5,353.9c-1.3-0.1-2.6-0.2-3.8-0.2c-1.8-0.1-3.5-0.1-5.3-0.2c-0.6,0-0.8-0.5-0.9-1c-0.1-0.3-0.1-0.6-0.1-1
		c0-1.3,0.5-1.8,1.7-1.8c2.1,0,4.2,0,6.3-0.1c0.6,0,1.3-0.1,1.9-0.3c0.3-0.1,0.6-0.4,0.7-0.6c0.2-1.1,0.3-2.2-0.1-3.3
		c-0.1-0.3-0.4-0.5-0.7-0.6c-0.4-0.1-0.9-0.2-1.4-0.2c-1.9,0-3.9,0-5.8,0c-0.6,0-1.3-0.1-1.9-0.3c-0.2-0.1-0.5-0.4-0.5-0.7
		c-0.4-2,0.2-2.7,2.2-2.8c2.3,0,4.5,0,6.8,0c0.5,0,1-0.1,1.4-0.3c0.3-0.1,0.6-0.4,0.6-0.7c0.1-0.9,0.1-1.9,0.1-2.9
		c0-0.6-0.7-1.2-1.3-1.3c-0.2,0-0.3-0.1-0.5-0.1c-4.5,0-9,0-13.5,0c-0.3,0-0.6,0.1-0.9,0.1c-0.5,0.1-0.9,0.5-1,0.9
		c-0.2,0.6-0.2,1.3-0.2,1.9c0,2.7,0,5.5,0,8.2c0,0,0,0,0,0c0,2.1,0,4.2,0,6.3c0,1.1,0,2.3,0,3.4c0.1,1.8,0.6,2.4,2.2,2.4
		c4.4,0,8.7,0,13.1,0c0.5,0,1-0.1,1.4-0.2c0.3-0.1,0.5-0.4,0.7-0.7c0.4-0.9,0.3-1.9,0.2-2.9C136.6,354.6,136.1,353.9,135.5,353.9z"
		/>
	<path class="st3" d="M109.6,336.7c-1.2-0.6-2.4-0.9-3.7-0.9c-1.9,0-3.9,0-5.8,0c0,0,0,0,0,0c-2.1,0-4.2,0-6.3,0
		c-0.6,0-1.2,0.7-1.2,1.2c0,0.3-0.1,0.6-0.1,1c0,6.1,0,12.2,0,18.3c0,0.5,0.1,1,0.1,1.4c0.1,0.6,0.7,1.2,1.3,1.2c1.1,0,2.2,0,3.4,0
		c0.5,0,1.2-0.7,1.2-1.3c0.1-1.3,0.1-2.6,0.2-3.8c0-0.9,0.6-1.6,1.4-1.6c1.4,0,2.9-0.1,4.3-0.1c1.6,0,3.2-0.4,4.7-0.9
		c1.3-0.4,2.2-1.4,2.7-2.6c1.2-3.1,1.2-6.3,0-9.4C111.4,338,110.7,337.2,109.6,336.7z M106.4,345.2c-0.1,0.7-0.7,1.2-1.3,1.3
		c-1,0.1-1.9,0.2-2.8,0.2c-0.9-0.1-1.7-0.1-2.5-0.2c-0.6-0.1-1.1-0.7-1.1-1.3c0-1,0-1.9,0-2.9c0-0.8,0.7-1.5,1.6-1.5
		c1.4,0,2.9,0,4.3,0.1c1,0.1,1.7,0.8,1.8,1.9C106.5,343.6,106.4,344.4,106.4,345.2z"/>
	<path class="st3" d="M385,353.8c-0.5,0-1-0.1-1.4-0.1c-2.3,0-4.5,0-6.8-0.1c-1.6,0-2.4-1.7-1.5-3.2c0.2-0.3,0.4-0.6,0.7-0.6
		c0.6-0.1,1.3-0.2,1.9-0.2c2.1,0,4.2,0,6.3-0.1c0.8,0,1.5-0.7,1.5-1.6c0.3-3.4-0.7-3.5-3.1-3.5c-0.6,0-1.3,0-1.9,0
		c-1.6,0-3.2-0.1-4.8-0.1c-0.3,0-0.9-0.6-0.9-1c0-0.5-0.1-1,0.1-1.4c0.2-0.4,0.5-0.9,0.9-1c0.6-0.2,1.3-0.1,1.9-0.2
		c2.3,0,4.5,0,6.8-0.1c0.9,0,1.5-0.6,1.5-1.5c0-0.6,0-1.3,0-1.9c0-0.9-0.7-1.6-1.5-1.6c-1.9,0-3.9-0.1-5.8-0.1c-2.7,0-5.5,0-8.2,0
		c-1.4,0-2,0.6-2,2.2c0,3.1,0,6.1,0,9.2c0,0,0,0,0,0c0,1.6,0,3.2,0,4.8c0,1.8,0,3.5,0,5.3c0,1,0.8,1.8,1.9,1.8c4.7,0,9.3,0,14,0
		c0.9,0,1.5-0.6,1.6-1.5c0-0.8,0-1.6,0-2.4C386.2,354.4,385.6,353.9,385,353.8z"/>
	<path class="st3" d="M344.2,353.8c-1.9-0.1-3.9-0.1-5.8-0.2c-1.1,0-2.2-0.1-3.4-0.2c-0.3,0-0.6-0.3-0.7-0.6
		c-0.7-1.9-0.1-3.1,1.6-3.2c1,0,1.9,0,2.9,0c1.5,0,2.9,0,4.4-0.1c1.1,0,1.6-0.7,1.6-1.9c0-0.5,0-1,0-1.5c-0.1-0.8-0.7-1.6-1.5-1.6
		c-0.5,0-1-0.1-1.5-0.1c-2.3,0-4.5-0.1-6.8-0.1c-0.6,0-1-0.7-1-1.4c0-1.6,0.5-2.1,1.9-2.2c2.3,0,4.5,0,6.8,0c0.6,0,1.3-0.1,1.9-0.3
		c0.3-0.1,0.6-0.4,0.6-0.7c0.1-1,0.1-1.9,0.1-2.9c0-0.6-0.6-1.2-1.3-1.2c-4.8,0-9.7-0.1-14.5-0.1c-0.9,0-1.5,0.6-1.6,1.5
		c0,3.2,0,6.5,0,9.7c0,0,0,0-0.1,0c0,0.8,0,1.6,0,2.4c0,2.7,0.1,5.5,0.1,8.2c0,0.6,0.6,1.2,1.2,1.3c0.3,0,0.6,0.1,1,0.1
		c4.4,0,8.7,0,13.1,0c0.3,0,0.6-0.1,1-0.1c0.6-0.1,1.1-0.7,1.2-1.3c0-0.8,0-1.6,0-2.4C345.4,354.5,344.7,353.9,344.2,353.8z"/>
	<path class="st3" d="M318.3,349.4c-0.5,0-1,0-1.4,0.1c-0.7,0.1-1.2,0.5-1.4,1.2c-0.1,0.3-0.1,0.6-0.1,1c-0.4,1.6-1.1,2.2-2.7,2.2
		c-1,0-1.9,0-2.9,0c-2.1-0.1-3-1-3-3c0-1.1,0-2.3,0-3.4c0,0,0,0,0,0c0-1.4,0-2.9,0-4.3c0-1.4,1.1-2.3,2.5-2.4c1.1-0.1,2.3-0.1,3.4,0
		c1.1,0,2.2,0.3,2.4,1.9c0.2,1.3,0.8,2,2.2,1.9c0.8-0.1,1.6,0,2.4-0.1c0.9,0,1.6-0.7,1.5-1.6c-0.1-1.1-0.2-2.2-0.5-3.3
		c-0.6-2.3-2.2-3.5-4.5-3.8c-3.2-0.4-6.4-0.4-9.6,0.1c-3.2,0.5-5.3,2.6-5.6,5.8c-0.5,3.9-0.4,7.7,0,11.6c0.3,3.1,2.2,5,5.2,5.6
		c0.5,0.1,1,0.2,1.4,0.2c2.6,0,5.2,0,7.7-0.1c0.9,0,1.9-0.4,2.8-0.7c1.9-0.6,2.8-2.1,3.2-3.9c0.1-0.5,0.1-1,0.2-1.4
		C321.6,349.9,321.1,349.4,318.3,349.4z"/>
	<path class="st3" d="M435.8,353.8c-2.3-0.1-4.5,0-6.8-0.1c-0.8,0-1.6-0.1-2.4-0.3c-0.2-0.1-0.5-0.4-0.6-0.7c-0.5-2.3,0.2-3,1.8-3
		c1.9-0.1,3.9,0,5.8,0c0.6,0,1.3-0.1,1.9-0.2c0.3-0.1,0.7-0.3,0.8-0.5c0.4-1.2,0.5-2.5-0.1-3.7c-0.1-0.2-0.5-0.5-0.8-0.5
		c-1-0.1-1.9-0.1-2.9-0.2c-1.9-0.1-3.9-0.1-5.8-0.2c-0.4,0-0.8-0.5-0.8-1c-0.1-1.8,0.3-2.5,2-2.5c1.9,0,3.9,0,5.8,0
		c0.8,0,1.6,0,2.4-0.2c0.4-0.1,0.7-0.6,1-0.9c0.2-0.2,0.1-0.6,0.2-0.9c0.1-2.4-0.4-3-2.6-3c-1.9,0-3.9,0-5.8,0c-2.6,0-5.2,0-7.7,0.1
		c-0.6,0-1.2,0.6-1.3,1.2c0,0.5-0.1,1-0.1,1.4c0,2.9,0,5.8,0,8.7c0,0,0,0,0,0c0,2.3,0,4.5,0,6.8c0,1,0,1.9,0,2.9
		c0,1.2,0.5,2.2,2,2.2c4.5,0,9,0,13.5,0c0.3,0,0.7,0,0.9-0.2c0.4-0.3,0.8-0.6,0.9-1c0.2-0.8,0.2-1.6,0.1-2.4
		C437.3,354.6,436.6,353.8,435.8,353.8z"/>
	<path class="st3" d="M413.7,335.9c-1.4-0.4-2.9-0.3-4.3-0.1c-0.4,0.1-0.8,0.5-1.1,0.8c-0.3,0.5-0.6,1.2-0.8,1.8
		c-1.2,3.5-2.4,7-3.6,10.5c-0.2,0.5-0.3,0.9-0.5,1.4c-0.1,0.1-0.2,0.4-0.3,0.4c-0.3-0.2-0.7-0.3-0.8-0.5c-1.2-3.2-2.3-6.3-3.4-9.5
		c-0.5-1.4-0.9-2.7-1.5-4.1c-0.1-0.3-0.4-0.5-0.7-0.6c-1.6-0.4-3.2-0.5-4.7,0.1c-0.2,0.1-0.4,0.5-0.4,0.7c0,0.5,0.1,1,0.3,1.4
		c2.1,6.3,4.2,12.5,6.4,18.8c0.1,0.3,0.3,0.6,0.4,0.9c0.3,0.6,0.7,1.1,1.4,1.1c0.8,0,1.6,0,2.4,0c0,0,0,0,0,0.1c0.8,0,1.6,0,2.4,0
		c1.5,0,2-0.4,2.5-1.8c2.2-6.4,4.4-12.8,6.6-19.2c0.2-0.4,0.2-1,0.1-1.4C414.2,336.3,413.9,336,413.7,335.9z"/>
	<path class="st3" d="M491.9,335.8c-1.4,0-2.9-0.1-4.3-0.1c-0.7,0-1.2,0.3-1.6,0.9c-0.9,1.4-1.7,2.7-2.6,4.1c-0.5,0.8-1,1.6-1.6,2.4
		c-0.1,0.1-0.7,0.1-0.8-0.1c-1.1-1.6-2.2-3.2-3.1-4.9c-1-2-2.5-2.8-4.3-2.5c-0.7,0-1,0-1.3,0c-0.2,0-0.3,0-0.5,0
		c-1.2,0-1.8,1-1.2,1.9c1.6,2.6,3.2,5.2,4.8,7.8c0.9,1.5,2.1,2.9,2.6,4.6c0.5,1.6,0.2,3.5,0.3,5.3c0,1,0.1,1.9,0.2,2.9
		c0,0.3,0.4,0.6,0.7,0.6c1.4,0.4,2.9,0.3,4.3,0c0.3-0.1,0.5-0.4,0.6-0.7c0.2-0.4,0.2-0.9,0.2-1.4c0.2-2.2-0.5-4.6,0.4-6.7
		c0.9-2,2.3-3.9,3.5-5.8c1.4-2.3,2.9-4.6,4.3-6.9C492.9,336.7,492.5,335.8,491.9,335.8z"/>
	<path class="st3" d="M514.6,335.7c-2.7,0-5.5,0-8.2,0c0,0,0,0,0,0c-2.7,0-5.5,0-8.2,0c-0.9,0-1.5,0.6-1.6,1.5c0,0.6,0,1.3,0,1.9
		c0,1,0.5,1.6,1.4,1.6c1.4,0.1,2.9,0.2,4.3,0.3c0.3,0,0.6,0.4,0.7,0.6c0.2,0.6,0.3,1.3,0.3,1.9c0,4,0,8.1,0,12.1
		c0,0.8,0.1,1.6,0.2,2.4c0,0.3,0.4,0.7,0.6,0.7c1.4,0.3,2.9,0.3,4.3,0c0.3-0.1,0.6-0.4,0.7-0.6c0.2-0.6,0.2-1.3,0.3-1.9
		c0-3.7,0-7.4,0-11.1c0-1,0-1.9,0.1-2.9c0-0.6,0.6-1.2,1.2-1.2c1.3-0.1,2.6-0.1,3.9-0.2c0.9,0,1.5-0.7,1.5-1.5c0-0.6,0-1.3,0-1.9
		C516,336.4,515.4,335.7,514.6,335.7z"/>
	<path class="st3" d="M557.4,338.4c0-0.6-0.2-1.3-0.3-1.9c-0.1-0.3-0.4-0.6-0.6-0.6c-1.4-0.4-2.9-0.4-4.3,0
		c-0.3,0.1-0.5,0.3-0.7,0.6c-0.2,0.3-0.3,0.6-0.3,0.9c0,6.6,0,13.2,0,19.8c0,0.3,0.1,0.6,0.3,0.9c0.1,0.3,0.4,0.6,0.7,0.6
		c1.4,0.4,2.9,0.4,4.3,0c0.3-0.1,0.6-0.3,0.7-0.6c0.2-0.6,0.4-1.2,0.4-1.9c0-2.9,0-5.8,0-8.7l0,0
		C557.4,344.5,557.4,341.5,557.4,338.4z"/>
</g>
<path class="st3" d="M374.6,69.5c-7.4-4.6-15.5-7.4-24.1-8.7c-1.8-0.3-3-1-3.9-2.5c-1.7-2.8-3.1-5.7-3.8-8.9
	c-1.3-5.8-0.5-11.3,3.5-16c0.4-0.5,0.9-1,1.2-1.5c1-1.3,1.5-2.9,1.5-4.5c0.1-5.3-5.3-9.3-10.4-7.7c-5.5,1.8-7.5,7.9-4.1,12.5
	c0.4,0.5,0.8,1,1.3,1.5c3.8,4.6,4.6,9.9,3.4,15.5c-0.7,3.2-2.1,6.1-3.7,8.9c-0.9,1.5-2,2.4-3.8,2.6c-2.4,0.3-4.8,0.8-7.1,1.4
	c-12.2,3.2-22.6,9.5-31.3,18.7c-1.1,1.2-2.2,2.4-3.3,3.6c-1.4,1.3-3,1.8-4.9,1.4c-2.7-0.6-5.4-1.2-8-1.9c-5.9-1.7-11.6-4.1-16.8-7.5
	c-4.5-2.9-7.8-6.8-9.9-11.7c-0.6-1.3-0.9-2.8-1.3-4.1c-2.1-6.8-9.1-10.5-15.7-8.7c-6.6,1.8-9.7,8.2-9.3,13.2
	c0.7,7.6,7.5,12.8,15.1,11.5c1.3-0.2,2.6-0.4,3.8-0.6c5.8-0.9,11.3,0.1,16.5,2.8c8.2,4.3,14.9,10.3,20.8,17.3
	c1.1,1.2,1.2,2.6,0.7,4.1c-0.3,1.1-0.8,2.1-1.1,3.2c-4.6,13.6-4.8,27.3-0.5,41c0.3,1.1,0.7,2.1,1.1,3.2c0.7,2.4,0.3,4.4-1.4,6.2
	c-4.3,4.5-8.7,8.7-13.8,12.3c-3.7,2.7-7.6,5-11.8,6.8c-3,1.3-6.1,2.2-9.3,2.5c-4.6,0.5-9,0.3-13.5-0.9c-3.5-1-7-1-10.5,0.3
	c-6.4,2.3-11.8,8.8-11.1,17.5c0.8,9.7,10.8,18.1,22.4,14.2c5.1-1.7,8.5-5.2,10.3-10.2c0.3-0.8,0.5-1.5,0.7-2.3
	c2.5-7.8,6.9-14.2,13.7-18.9c2.5-1.8,5.2-3.3,7.9-4.7c6.9-3.4,14.1-5.7,21.6-7.3c1.6-0.4,2.9,0.2,4,1.2c1,0.9,1.8,1.9,2.6,2.9
	c4.6,5.3,10,9.7,16.1,13.2c0.6,0.3,1.1,0.6,1.7,0.9c0.6,0.3,1.4-0.1,1.4-0.8c0-7.4,0-14.9,0-22.3c0-1-0.3-1.9-1.1-2.6
	c-1.9-2-3.8-4-5.2-6.4c-0.3-0.4-0.1-0.9,0.3-1.2c0.8-0.5,1.6-1.1,2.5-1.5c8.8-5.1,17.8-10,26.5-15.3c4.5-2.7,8.7-2.7,13.2,0
	c8.6,5.2,17.4,10,26.1,15.1c4.6,2.7,4.8,1.8,1.1,6.4c-0.9,1.1-1.9,2.2-3,3.2c-0.7,0.7-1,1.6-1,2.6c0,3.6,0,7.1,0,10.7c0,0,0,0,0,0
	c0,2.8,0,5.5,0,8.3c0,1,0,1.9,0,2.9c0,0.9,0.8,1.3,1.8,0.8c0.4-0.2,0.8-0.5,1.3-0.7c23-13.5,36.3-40.3,30.8-68
	C400.9,93.9,390.7,79.6,374.6,69.5z M381.6,141.4c-0.2,0.4-0.4,0.9-0.6,1.3c-0.3,0.6-1.1,0.9-1.6,0.6c-1.3-0.7-2.6-1.4-3.8-2.1
	c-8.4-4.8-16.9-9.6-25.2-14.6c-6.3-3.8-12.4-3.8-18.8,0c-8.8,5.2-17.7,10.2-26.5,15.3c-0.8,0.5-1.7,0.9-2.6,1.3
	c-0.2,0.1-0.7,0-0.8-0.2c-0.4-0.5-0.7-1.1-1-1.6c-2.3-5.5-3.3-10.5-3.3-16.5c-0.2-19.2,12.5-37.1,32.3-42.3
	c25.5-6.8,48.4,9.3,53.9,31.3C385.9,123.3,385.3,132.4,381.6,141.4z"/>
<path class="st3" d="M336.3,173c-4,0-8,0-12.1,0c-0.6,0-1.2,0.7-1.2,1.3c0,3.9,0,7.7,0,11.5c0,0.9,0.6,1.6,1.4,1.6
	c1.9,0,3.9,0,5.8,0c0,0,0,0,0,0c1.8,0,3.5,0,5.3,0c1.4,0,2-0.6,2-2c0-3.7,0-7.4-0.1-11.1C337.5,173.7,336.9,173,336.3,173z"/>
<path class="st3" d="M336.3,152.3c-4,0-8,0-12.1,0c-0.6,0-1.2,0.7-1.2,1.3c0,3.8,0,7.7,0,11.5c0,0.9,0.6,1.6,1.4,1.6
	c1.9,0,3.9,0,5.8,0c0,0,0,0,0,0c1.8,0,3.5,0,5.3,0c1.4,0,2-0.6,2-2c0-3.7,0-7.4-0.1-11.1C337.5,153,336.9,152.3,336.3,152.3z"/>
<path class="st3" d="M357.8,152.3c-4,0-8,0-12.1,0c-0.6,0-1.2,0.7-1.2,1.3c0,3.8,0,7.7,0,11.5c0,0.9,0.6,1.6,1.4,1.6
	c1.9,0,3.9,0,5.8,0c0,0,0,0,0,0c1.8,0,3.5,0,5.3,0c1.5,0,2-0.6,2-2c0-3.7,0-7.4-0.1-11.1C358.9,153,358.3,152.3,357.8,152.3z"/>
<path class="st3" d="M357.8,173c-4,0-8,0-12.1,0c-0.6,0-1.2,0.7-1.2,1.3c0,3.9,0,7.7,0,11.5c0,0.9,0.6,1.6,1.4,1.6
	c1.9,0,3.9,0,5.8,0c0,0,0,0,0,0c1.8,0,3.5,0,5.3,0c1.5,0,2-0.6,2-2c0-3.7,0-7.4-0.1-11.1C358.9,173.7,358.3,173,357.8,173z"/>
</svg>
