<?xml version="1.0" encoding="utf-8"?>
<!-- Generator: Adobe Illustrator 20.1.0, SVG Export Plug-In . SVG Version: 6.00 Build 0)  -->
<svg version="1.1" id="Layer_1" xmlns="http://www.w3.org/2000/svg" xmlns:xlink="http://www.w3.org/1999/xlink" x="0px" y="0px"
	 width="200px" height="200px" viewBox="0 0 200 200" style="enable-background:new 0 0 200 200;" xml:space="preserve">
<style type="text/css">
	.st0{fill:#115BAA;}
	.st1{fill:#FFFFFF;}
	.st2{fill:#5191CD;}
	.st3{fill:#1B3967;}
	.st4{opacity:0.3;fill:#FFFFFF;}
	.st5{opacity:0.1;fill:#010101;}
</style>
<g>
	<path class="st0" d="M144.3,130H125v7.9c0,1.8-1.9,2.1-3.7,2.1H78.6c-1.8,0-3.6-0.3-3.6-2.1V130H54.2l-10.3,23h110.5L144.3,130z
		 M108.2,150H91.7c-1.8,0-3.3-1.7-3.3-3.5c0-1.8,1.5-3.5,3.3-3.5h16.4c1.8,0,3.3,1.7,3.3,3.5C111.4,148.3,110,150,108.2,150z"/>
	<path class="st1" d="M82,134h36v-15.2c0-3.4,2.8-7.1,6.7-12.2c5.5-7.2,13-17.1,13-27.5c0-21-17.1-39.3-36.5-39.3
		c-18.3,0-38.8,16.8-38.8,39.3c0,10.3,7.5,20.3,12.9,27.5c3.9,5.1,6.7,8.9,6.7,12.2V134z M81.9,81.4c-1.8,0-3.3-1.5-3.3-3.3
		c0-4.9,3.5-14.5,16.9-15.9c1.8-0.2,3.4,1.1,3.6,2.9c0.2,1.8-1.1,3.4-2.9,3.6c-10.9,1.1-11,9-11,9.3C85.2,79.9,83.7,81.4,81.9,81.4z
		"/>
	<polygon class="st2" points="43,193 155.9,193 156.1,160 43,160 	"/>
	<path class="st3" d="M67.4,33.9c0.7,0.8,1.6,1.1,2.5,1.1c0.8,0,1.5-0.3,2.1-0.8c1.4-1.2,1.5-3.3,0.3-4.6L61,16.4
		c-1.2-1.4-3.3-1.5-4.6-0.3c-1.4,1.2-1.5,3.3-0.3,4.6L67.4,33.9z"/>
	<path class="st3" d="M134,35.4c0.7,0,1.3-0.2,1.9-0.6l14.7-10.6c1.5-1.1,1.8-3.1,0.8-4.6c-1.1-1.5-3.1-1.8-4.6-0.8L132,29.5
		c-1.5,1.1-1.8,3.1-0.8,4.6C131.9,34.9,132.9,35.4,134,35.4z"/>
	<path class="st3" d="M101.5,26.3c1.8,0,3.5-1.5,3.5-3.3V3.3c0-1.8-1.7-3.3-3.5-3.3C99.7,0,98,1.5,98,3.3V23
		C98,24.8,99.7,26.3,101.5,26.3z"/>
	<path class="st3" d="M162.2,155.7l-12.8-29.4c-0.5-1.2-1.7-2.3-3-2.3H125v-5.2c0-1.3,2.9-5.3,5.2-8.3c6-8,14.2-18.9,14.2-31.4
		c0-24.9-19.8-45.9-43.1-45.9c-21.4,0-45.4,19.6-45.4,45.9c0,12.5,8,23.5,14,31.4c2.2,3,5.2,7,5.2,8.3v5.2H52.1
		c-1.3,0-2.5,1.1-3,2.3l-12.8,28.9c-0.3,0.6-0.3,2.2-0.3,2.3V197c0,1.8,1.4,2,3.2,2h119.9c1.8,0,3.3-0.8,3.3-2.6l0.2-39.1
		c0-0.5-0.2-0.9-0.4-1.3C162.2,155.8,162.2,155.8,162.2,155.7z M75.3,106.5C69.9,99.3,62.4,89.4,62.4,79c0-22.5,20.5-39.3,38.8-39.3
		c19.5,0,36.5,18.4,36.5,39.3c0,10.3-7.5,20.2-13,27.5c-3.9,5.1-6.7,8.9-6.7,12.2V134H82v-15.2C82,115.4,79.2,111.7,75.3,106.5z
		 M54.2,130H75v7.9c0,1.8,1.8,2.1,3.6,2.1h42.7c1.8,0,3.7-0.3,3.7-2.1V130h19.3l10.1,23H43.9L54.2,130z M155.9,193H43v-33h113.1
		L155.9,193z"/>
	<path class="st3" d="M108.2,143H91.7c-1.8,0-3.3,1.7-3.3,3.5c0,1.8,1.5,3.5,3.3,3.5h16.4c1.8,0,3.3-1.7,3.3-3.5
		C111.4,144.7,110,143,108.2,143z"/>
	<path class="st3" d="M85.2,78.1c0-0.3,0.1-8.2,11-9.3c1.8-0.2,3.1-1.8,2.9-3.6c-0.2-1.8-1.7-3.1-3.6-2.9
		c-13.4,1.3-16.9,11-16.9,15.9c0,1.8,1.5,3.3,3.3,3.3S85.2,79.9,85.2,78.1z"/>
</g>
<polygon class="st4" points="43,160 43,193 156,193 42.9,160 "/>
<polygon class="st5" points="43,166 42.9,166 156,160 43,160 "/>
<polygon class="st5" points="125,135.6 142.9,130 125,130 "/>
<path class="st5" d="M78.6,140c-1.8,0-3.6-0.3-3.6-2.1V130H54.2l-10.3,23h0.3l56.3-13H78.6z"/>
<path class="st5" d="M82.1,106.5C76.6,99.3,69.8,89.4,69.8,79c0-21,17.9-37.1,35.1-39.1c-1.2-0.2-2.5-0.2-3.7-0.2
	c-18.3,0-38.8,16.8-38.8,39.3c0,10.3,7.5,20.3,12.9,27.5c3.9,5.1,6.7,8.9,6.7,12.2V134h6v-15.2C88,115.4,85.9,111.7,82.1,106.5z"/>
</svg>
