<?xml version="1.0" encoding="utf-8"?>
<!-- Generator: Adobe Illustrator 20.1.0, SVG Export Plug-In . SVG Version: 6.00 Build 0)  -->
<svg version="1.1" xmlns="http://www.w3.org/2000/svg" xmlns:xlink="http://www.w3.org/1999/xlink" x="0px" y="0px" width="800px"
	 height="600px" viewBox="0 0 800 600" style="enable-background:new 0 0 800 600;" xml:space="preserve">
<style type="text/css">
	.st0{display:none;}
	.st1{display:inline;fill:#94BAA8;}
	.st2{fill:#F2F2F2;}
	.st3{fill:#FDDBBB;}
	.st4{fill:#F5F5F5;}
	.st5{fill:#424242;}
	.st6{fill:#808080;}
	.st7{fill:#B35730;}
	.st8{fill:#4F423A;}
	.st9{fill:#EB7D86;}
	.st10{fill:#D65E2F;}
	.st11{fill:#E6E6E6;}
	.st12{fill:#A14723;}
</style>
<g id="Layer_2" class="st0">
	<rect class="st1" width="800" height="600"/>
</g>
<g id="Layer_1">
	<g>
		<ellipse class="st2" cx="111" cy="585.8" rx="92.4" ry="11.7"/>
		<g>
			<g>
				<g>
					<g>
						<g>
							<g>
								<g>
									<path class="st3" d="M250.1,305.6c0,0,5.3-12.9-3.9-14.7c-9.2-1.8-9.2,11.5-9.2,11.5L250.1,305.6z"/>
								</g>
							</g>
						</g>
					</g>
				</g>
			</g>
			<g>
				<g>
					<g>
						<g>
							<g>
								<g>
									<g>
										<g>
											<g>
												<polygon class="st4" points="235.5,304.2 236.2,300.7 251.1,304.8 250.1,308.3 												"/>
											</g>
										</g>
									</g>
								</g>
							</g>
						</g>
					</g>
					<g>
						<g>
							<g>
								<g>
									<g>
										<g>
											<g>
												<path class="st5" d="M163.5,406.5c0,0,66.9-11.6,87.9-99.1l-16.3-5.2c0,0-15,71.1-73.3,87.2L163.5,406.5z"/>
											</g>
										</g>
									</g>
								</g>
							</g>
						</g>
					</g>
					<g>
						<g>
							<g>
								<g>
									<g>
										<g>
											<g>
												
													<ellipse transform="matrix(0.1395 -0.9902 0.9902 0.1395 -100.6817 514.0317)" class="st6" cx="245.4" cy="314.9" rx="1.6" ry="1.6"/>
											</g>
										</g>
									</g>
								</g>
							</g>
						</g>
					</g>
					<g>
						<g>
							<g>
								<g>
									<g>
										<g>
											<g>
												
													<ellipse transform="matrix(0.1399 -0.9902 0.9902 0.1399 -94.304 511.1501)" class="st6" cx="247.1" cy="309.9" rx="1.6" ry="1.6"/>
											</g>
										</g>
									</g>
								</g>
							</g>
						</g>
					</g>
				</g>
			</g>
		</g>
		<g>
			<g>
				<g>
					<g>
						<g>
							<g>
								<g>
									<g>
										<g>
											<g>
												<path class="st3" d="M35,415.9c0,0-29.2-108.6,37.3-128.2c84.7-24.9,88.3,107.5,88.3,107.5L35,415.9z"/>
											</g>
										</g>
									</g>
								</g>
							</g>
						</g>
					</g>
					<g>
						<g>
							<g>
								<path class="st5" d="M161.7,389.4l-11.3,1.9l-29.1,57.9L72.9,405l-41.5,8c8.6,29.9,19.3,80.2,19.3,125.6l-7.1,44
									c0,0,40.3,12.1,33.7-1c-9.2-18.4-26.4-6.5-26.4-6.5l12.1-34.6l6.8-25c51.8,4,79.7-3,79.7-3l1,27l-8.4,42.8
									c0,0,46.8,12.5,31.7-5.6c-11.6-13.9-24.8-0.9-24.8-0.9l14.8-35.9C171.2,484.1,174.5,442,161.7,389.4z"/>
								<g>
									<g>
										<g>
											<g>
												<g>
													<g>
														<g>
															<g>
																<g>
																	<polygon class="st4" points="150.5,391.3 121.4,449.2 72.9,405 																	"/>
																</g>
															</g>
														</g>
													</g>
												</g>
											</g>
										</g>
										<g>
											<g>
												<g>
													<g>
														<g>
															<g>
																<g>
																	<polygon class="st6" points="150.5,391.3 154.8,413.1 142.9,417.8 147.5,434.2 121.4,449.2 																	"/>
																</g>
															</g>
														</g>
													</g>
												</g>
											</g>
										</g>
										<g>
											<g>
												<g>
													<g>
														<g>
															<g>
																<g>
																	<polygon class="st6" points="121.4,449.2 92.1,440.8 90.9,428.5 77.1,426 72.9,405 																	"/>
																</g>
															</g>
														</g>
													</g>
												</g>
											</g>
										</g>
										<g>
											<g>
												<g>
													<g>
														<g>
															<g>
																<g>
																	<polygon class="st7" points="125.4,406.8 120.2,401.4 109.6,402.8 107,410.9 112.1,415.1 110.4,439.3 121.4,449.2 
																		129.1,433.8 121.5,413.7 																	"/>
																</g>
															</g>
														</g>
													</g>
												</g>
											</g>
										</g>
									</g>
								</g>
								<g>
									<g>
										<g>
											<g>
												<g>
													<g>
														<g>
															
																<ellipse transform="matrix(0.9277 -0.3734 0.3734 0.9277 -162.5575 78.5404)" class="st6" cx="121.5" cy="458.9" rx="3.6" ry="3.6"/>
														</g>
													</g>
												</g>
											</g>
										</g>
									</g>
								</g>
								<g>
									<g>
										<g>
											<g>
												<g>
													<g>
														<g>
															
																<ellipse transform="matrix(0.9277 -0.3734 0.3734 0.9277 -168.1337 79.2673)" class="st6" cx="120.6" cy="473.7" rx="3.6" ry="3.6"/>
														</g>
													</g>
												</g>
											</g>
										</g>
									</g>
								</g>
							</g>
						</g>
					</g>
					<g>
						<g>
							<g>
								<g>
									<g>
										<g>
											<g>
												<g>
													<g>
														<path class="st8" d="M142.6,233.6c0,0,37.8,80.8-92.3,90.9l2.4,28c0,0-12.9-8.4-13.8,4.4c-1,14.8,12.2,6.2,12.2,6.2
															s-6.2,34.9-17,49.3c-2-1.8-64.5-119.4-7.2-122.3c-0.1-3.4,3-26.9,34.3-37.6C108.6,236.3,116.3,274.9,142.6,233.6z"/>
													</g>
												</g>
											</g>
										</g>
									</g>
								</g>
							</g>
						</g>
					</g>
					
						<ellipse transform="matrix(0.9631 -0.2691 0.2691 0.9631 -90.8507 34.4662)" class="st8" cx="80.3" cy="348.6" rx="4.7" ry="9"/>
					
						<ellipse transform="matrix(0.9631 -0.269 0.269 0.9631 -84.8336 47.9751)" class="st8" cx="132.6" cy="333.5" rx="4.7" ry="9"/>
					<g>
						<g>
							<path class="st9" d="M131.4,361.8c0,0-23.7,3.2-37.4,10.2c0,0,1.9,19.4,23.9,14.1C139.7,380.9,131.4,361.8,131.4,361.8z"/>
						</g>
					</g>
				</g>
			</g>
		</g>
		<g>
			<g>
				<g>
					<g>
						<path class="st3" d="M42.4,505.2c0,0,11.6,9.2,16.6-0.6c4.9-9.9-9.9-11.1-9.9-11.1L42.4,505.2z"/>
					</g>
				</g>
			</g>
			<g>
				<polygon class="st4" points="47.6,491.8 50.8,493.1 43,506 39.9,504.2 				"/>
			</g>
			<g>
				<path class="st5" d="M31.4,413.1c0,0-77.2,45.5,8.9,92.8l9.4-14.4c0,0-68.6-29-13.4-64.4L31.4,413.1z"/>
			</g>
			<g>
				
					<ellipse transform="matrix(0.3993 -0.9168 0.9168 0.3993 -435.8535 331.0601)" class="st6" cx="34.7" cy="498.1" rx="1.6" ry="1.6"/>
			</g>
			<g>
				
					<ellipse transform="matrix(0.3997 -0.9166 0.9166 0.3997 -435.822 336.6887)" class="st6" cx="39.1" cy="501.1" rx="1.6" ry="1.6"/>
			</g>
		</g>
	</g>
	<path class="st10" d="M783.4,397.1c-3-22.6-6.3-45.1-10.7-67.5c-4.1-20.7-8.7-41.3-13.9-61.9l-1-3.9c-7.9-31.2-17-62.1-27.2-92.6
		l-1.2-3.7c-10.5-31.3-22.2-62.2-34.9-92.5c-9.2-22-18.4-46.2-32.8-65.6c-10.6-14.3-27.5-10.2-40.9-2.2c-1.2,0.7-2.3,1.4-3.4,2.1
		l2,3.1c12.8,20,21.3,43.3,30,65.3c11.9,29.7,22.9,59.8,33.6,89.9c7.1,20,14.3,40.2,20.3,60.6c9.5,32.9,17.4,66.3,24.9,99.7
		c8.5,37.7,17.2,76,20.9,114.6l0.4,4.3c3.6,0.7,7.2,1.3,10.7,1.4c5.9,0.2,11.9-1.3,16.2-5.4C788.2,431.7,785.2,411.3,783.4,397.1z"
		/>
	<path class="st2" d="M749.1,442.6c-3.8-38.6-12.5-76.9-20.9-114.6c-7.5-33.4-15.3-66.8-24.9-99.7c-5.9-20.4-13.2-40.5-20.3-60.6
		c-10.6-30.2-21.7-60.2-33.6-89.9c-8.8-21.9-17.2-45.3-30-65.3l-2-3.1c-14.6,9.5-26.5,22.6-38.5,35.1
		C519.4,106.6,457.4,169,381.6,211c-9.5,5.3-19.3,10.1-29.2,14.6l1,3.7c13.6,54.9,29.2,109.3,45.3,163.6l1.1,3.6
		c46.2-6.1,93-8.3,139.4-2.5c41,5.1,80.9,16.4,120.5,27.8c22.8,6.6,45.5,13.1,68.4,19.2c6.9,1.8,14.1,4.3,21.4,5.8L749.1,442.6z"/>
	<path class="st10" d="M398.7,392.9c-16.1-54.2-31.7-108.6-45.3-163.6l-1-3.7c-0.6,0.3-1.2,0.6-1.8,0.8
		c-33.7,8.1-67.3,16.6-100.8,25.7c-12.2,3.3-27.6,5.4-37.6,13.9c-10,8.5-9.3,22.3-8.7,34.3c1.6,27.6,9.2,54.7,22,79.1
		c6.5,12.5,14.5,24.3,23.6,35.1c3.3,3.9,6.7,8.3,11.9,9.4c6.4,1.3,14.3-1.3,20.5-2.4c0.1,0,0.3,0,0.4-0.1l3.8-0.7
		c28.3-4.9,56.3-10.8,84.2-17.6l3.7-0.9c6.7-1.7,13.4-3.4,20.1-5.1c2-0.3,3.9-0.5,5.9-0.8L398.7,392.9z"/>
	<path class="st2" d="M762.4,581.2c0,10.4-104.2,18.8-234.6,18.8s-236.1-8.4-236.1-18.8c0-10.4,105.7-18.8,236.1-18.8
		S762.4,570.9,762.4,581.2z"/>
	<path class="st2" d="M793.2,194.7c4.8,12.6,10.8,28.4,3.4,41.2c-7.7,13.3-25.8,19.3-37.9,27.5c-0.2,0.1-0.6,0.4-0.8,0.5
		c-7.9-31.2-17-62.1-27.2-92.6c11.5-1.1,22.9-2.6,34.4-2.8c5.6-0.1,10.7-0.3,15,3.7C786.5,178.3,790.1,186.5,793.2,194.7z"/>
	<path class="st11" d="M754.5,251.1c1.1,4.3,2.2,8.5,3.3,12.8c0.2-0.2,0.7-0.4,0.8-0.5c12.2-8.2,30.3-14.2,37.9-27.5
		c6.3-10.8,2.9-23.8-1.2-35.2C792.2,227,771.4,242.6,754.5,251.1z"/>
	<g>
		<g id="XMLID_2_">
			<g>
				<path class="st12" d="M302.9,280.1c-6.7-8.2-26.1,1.1-33.3,3.5c-6.9,2-17.2,4-22.1,9.8c-3.4,3.9-2.3,10.2,3.5,11
					c3.1,0.4,6.9-1,9.9-1.6c6.6-1.5,13.1-3.2,19.6-5.1C285.2,296.3,310.5,289.5,302.9,280.1z"/>
				<path class="st12" d="M281.7,310.6c-7.1,2.3-14.4,4.1-21.3,6.9c-3.8,1.6-6.8,3.3-7.2,7.8c-1.1,13.4,20.4,4.6,26.3,2.9
					c7.3-2.2,14.8-4.5,21.9-7.3c4-1.6,8.7-3.8,9.7-8.5C313.9,298.3,286.3,309.1,281.7,310.6z"/>
			</g>
		</g>
	</g>
	<path class="st2" d="M429.1,503.1c-25.2-29.1-41.6-65-55.3-100.6l-3.7,0.9c-27.9,6.8-55.9,12.7-84.2,17.6l-3.8,0.7
		c7.9,25.8,16.7,50.9,28.4,75.2c11.1,23.1,21.4,46.3,36.2,67.3c5.9,8.4,11.7,16.3,23.3,14.5c14.6-2.3,27.2-13.8,39.7-21
		c9.8-5.6,23.8-12,29.8-22.2C446.9,522.8,436.9,512.2,429.1,503.1z"/>
	<g>
		<path class="st11" d="M318.7,454.7c-0.9-20.1,33.4-32.7,56.3-38.8l0,0l0,0l3.6-1c-1.7-4.1-3.3-8.3-4.9-12.4l-3.7,0.9
			c-27.9,6.8-55.9,12.7-84.2,17.6l-3.8,0.7c7.9,25.8,16.7,50.9,28.4,75.2c11.1,23.1,21.4,46.3,36.2,67.3
			c5.9,8.4,11.7,16.3,23.3,14.5c3.9-0.6,7.7-1.9,11.4-3.6l-2.2-3.5C359.1,540.6,319.7,477.1,318.7,454.7z"/>
	</g>
	<path class="st11" d="M229.6,386.9c5.7,9.8,12.2,19.1,19.6,27.8c3.3,3.9,6.7,8.3,11.9,9.4c6.4,1.3,14.3-1.3,20.5-2.4
		c0.1,0,0.3,0,0.4-0.1l3.8-0.7c28.3-4.9,56.3-10.8,84.2-17.6l3.7-0.9c6.7-1.7,13.4-3.4,20.1-5.1c2-0.3,3.9-0.5,5.9-0.8
		c46.2-6.1,93-8.3,139.4-2.5c41,5.1,80.9,16.4,120.5,27.8c22.8,6.6,45.5,13.1,68.4,19.2c6.9,1.8,14.1,4.3,21.4,5.8
		c3.6,0.7,7.2,1.3,10.7,1.4c5.9,0.2,11.9-1.3,16.2-5.4c11.8-11.1,8.8-31.5,6.9-45.7c-1.4-10.5-2.8-20.9-4.4-31.3
		C610.8,293.8,326.1,360.7,229.6,386.9z"/>
</g>
</svg>
