<?xml version="1.0" encoding="utf-8"?>
<!-- Generator: Adobe Illustrator 20.1.0, SVG Export Plug-In . SVG Version: 6.00 Build 0)  -->
<svg version="1.1" xmlns="http://www.w3.org/2000/svg" xmlns:xlink="http://www.w3.org/1999/xlink" x="0px" y="0px" width="800px"
	 height="180px" viewBox="0 0 800 180" enable-background="new 0 0 800 180" xml:space="preserve">
<g id="Default" display="none">
	<rect display="inline" fill="#40413F" stroke="#000000" stroke-miterlimit="10" width="800" height="180"/>
</g>
<g id="Guest">
</g>
<g id="Guest_x5F_2">
	<g>
		<path fill="#454545" d="M778.953,88.505c-0.001-0.834,0.019-1.675-0.063-2.505c-0.552-5.655-2.47-10.72-6.558-14.804
			c-2.679-2.674-5.847-4.44-9.639-4.916c-1.487-0.188-2.994-0.287-4.491-0.294c-6.52-0.032-13.038-0.013-19.556-0.015
			c-6.518,0-13.036-0.004-19.556,0.004c-1.168,0.001-2.351-0.051-3.502,0.107c-2.553,0.354-4.201,1.81-5.007,4.295
			c-0.604,1.863-0.441,3.648,0.352,5.363c0.808,1.757,2.128,3.017,4.152,3.208c1.496,0.139,3.001,0.181,4.503,0.182
			c12.368,0.014,24.736,0.005,37.104,0.011c1.336,0,2.681-0.036,4.007,0.086c2.711,0.248,4.677,1.703,5.922,4.078
			c1.199,2.291,1.53,4.747,1.024,7.293c-0.109,0.554-0.595,0.835-1.077,0.87c-1.331,0.098-2.668,0.131-4.003,0.132
			c-10.361,0.009-20.725,0.003-31.087,0.008c-1.505,0-3.009,0.017-4.511,0.065c-1.344,0.043-2.627,0.343-3.904,0.802
			c-4.642,1.664-7.948,4.825-10.301,9.055c-2.787,5.003-3.599,10.41-2.733,16.007c0.756,4.892,2.778,9.26,6.365,12.795
			c2.829,2.788,6.166,4.549,10.151,4.948c1.327,0.132,2.667,0.188,4,0.19c9.192,0.015,18.386,0.019,27.58-0.003
			c1.498-0.004,3.003-0.105,4.496-0.255c3.266-0.33,6.072-1.74,8.555-3.831c2.606-2.197,4.52-4.907,5.812-8.05
			c1.352-3.282,1.997-6.695,1.979-10.258C778.93,104.884,778.958,96.695,778.953,88.505z M767.736,114.527
			c-0.097,1.846-0.859,3.561-2.078,5.017c-1.232,1.476-2.749,2.424-4.714,2.515c-1.001,0.047-2.006,0.065-3.008,0.067
			c-9.026,0.004-18.053,0.006-27.081-0.005c-1.168,0-2.338-0.049-3.504-0.128c-1.02-0.068-1.926-0.457-2.763-1.068
			c-4.37-3.188-5.128-10.305-0.468-14.466c1.139-1.017,2.507-1.651,4.098-1.646c1.169,0.002,2.34-0.023,3.509-0.024
			c5.184-0.002,10.365,0,15.547,0c5.685,0,11.368-0.006,17.051,0.009c0.832,0.002,1.688,0.001,2.482,0.201
			c0.37,0.094,0.874,0.655,0.886,1.018C767.781,108.853,767.882,111.698,767.736,114.527z"/>
		<path fill="#454545" d="M219.572,109.795c1.501-0.044,3.003-0.087,4.505-0.089c10.525-0.007,21.05,0.012,31.573-0.021
			c1.662-0.004,3.356-0.052,4.977-0.375c5.602-1.116,9.674-4.454,12.396-9.341c3.789-6.801,4.264-13.942,1.56-21.262
			c-1.484-4.019-3.902-7.36-7.409-9.859c-3.398-2.421-7.221-3.212-11.358-3.172c-9.522,0.092-19.044,0.028-28.567,0.03
			c-0.501,0-1.002,0.001-1.504,0.005c-4.946,0.058-9.063,2.008-12.461,5.531c-1.871,1.941-3.292,4.193-4.304,6.701
			c-1.265,3.133-1.94,6.367-1.928,9.759c0.028,8.52,0.009,17.04,0.012,25.56c0.001,0.667-0.001,1.339,0.061,2.004
			c0.405,4.402,1.712,8.499,4.303,12.119c2.293,3.206,5.251,5.538,9.007,6.882c1.942,0.696,3.919,0.783,5.921,0.787
			c6.849,0.021,13.7,0.01,20.548,0.011c6.516,0,13.031,0.002,19.547-0.001c1.335-0.003,2.672-0.018,4.007-0.056
			c1.617-0.045,2.855-0.828,3.829-2.067c1.803-2.291,1.879-6.085,0.181-8.445c-1.03-1.432-2.409-2.322-4.174-2.455
			c-1.33-0.097-2.671-0.061-4.007-0.061c-12.195-0.004-24.391,0-36.586-0.002c-1.337-0.002-2.672-0.014-4.008-0.026
			c-3.003-0.026-5.022-1.632-6.374-4.139c-1.143-2.124-1.344-4.449-1.082-6.824C218.304,110.368,218.86,109.816,219.572,109.795z
			 M219.699,82.536c1.312-2.121,3.255-3.317,5.731-3.591c0.827-0.092,1.669-0.051,2.504-0.051c9.027-0.003,18.053-0.002,27.08-0.001
			c0.668,0,1.339-0.02,2.006,0.013c4.92,0.245,8.602,4.632,7.94,9.597c-0.173,1.299-0.594,2.623-1.173,3.8
			c-1.189,2.414-3.241,3.776-5.921,4.086c-0.99,0.117-2.001,0.068-3.004,0.068c-5.517,0.006-11.033,0.002-16.548,0.002
			c-5.349,0-10.699,0.01-16.046-0.008c-1-0.002-2.01-0.031-2.991-0.191c-0.437-0.072-0.953-0.4-0.962-1.005
			c-0.041-2.834-0.117-5.671-0.079-8.506C218.254,85.216,218.902,83.821,219.699,82.536z"/>
		<path fill="#454545" d="M539.836,65.704c-5.346,0.015-10.69,0-16.034,0c-5.011,0-10.022-0.001-15.033,0.006
			c-5.736,0.006-10.296,2.428-13.881,6.813c-1.709,2.092-2.886,4.473-3.81,7.001c-1.05,2.879-1.225,5.866-1.224,8.885
			c0.005,8.016-0.003,16.034,0.006,24.051c0.001,1.169,0.013,2.342,0.111,3.503c0.382,4.435,1.911,8.451,4.605,11.987
			c2.28,2.99,5.181,5.15,8.773,6.391c1.945,0.673,3.933,0.711,5.935,0.716c6.847,0.016,13.694,0.007,20.543,0.008
			c6.514,0,13.027,0.004,19.542-0.004c1.336,0,2.67-0.035,4.006-0.067c1.242-0.03,2.218-0.647,3.1-1.451
			c2.558-2.333,2.546-7.205,0.309-9.594c-1.067-1.141-2.364-1.854-3.938-1.93c-1.335-0.062-2.671-0.039-4.008-0.039
			c-12.192-0.002-24.386,0-36.579-0.004c-1.335,0-2.672-0.02-4.007-0.028c-2.373-0.015-4.141-1.172-5.495-3.006
			c-1.114-1.51-1.753-3.219-1.764-5.121c-0.022-3.949-0.534-4.17,4.031-4.124c2.172,0.024,4.344,0.005,6.514,0.005
			c9.188,0,18.373-0.034,27.56,0.009c7.819,0.036,13.289-3.714,17.012-10.356c1.661-2.965,2.507-6.214,2.771-9.554
			c0.506-6.399-1.054-12.285-5.142-17.325C550.181,68.089,545.582,65.69,539.836,65.704z M546.308,92.678
			c-1.228,2.203-3.181,3.392-5.638,3.693c-1.154,0.142-2.335,0.084-3.503,0.086c-5.344,0.006-10.687,0.002-16.03,0.002
			c-5.344,0-10.686,0.008-16.029-0.006c-1-0.002-2.01-0.008-2.994-0.162c-0.431-0.064-0.97-0.38-0.977-0.986
			c-0.039-2.997-0.245-6.009-0.037-8.99c0.305-4.339,3.574-7.26,7.994-7.401c2.502-0.08,5.007-0.021,7.512-0.021
			c6.68-0.002,13.359-0.002,20.039,0c1.168,0,2.34-0.04,3.505,0.036c2.895,0.19,5.085,1.578,6.383,4.171
			C548.139,86.306,548.06,89.535,546.308,92.678z"/>
		<path fill="#454545" d="M640.282,80.919c-1.032-3.574-2.812-6.78-5.459-9.452c-2.785-2.812-6.069-4.695-10.042-5.188
			c-1.488-0.186-2.995-0.293-4.493-0.296c-11.701-0.024-23.401-0.015-35.103-0.008c-1.001,0-2.013-0.029-3.001,0.105
			c-2.549,0.349-4.246,1.739-5.059,4.233c-0.528,1.63-0.511,3.29-0.511,4.96c-0.002,8.357,0,16.714-0.002,25.07
			c0,8.192,0,16.382,0.002,24.573c0,1.17-0.079,2.348,0.043,3.505c0.124,1.153,0.317,2.338,0.732,3.409
			c0.781,2.014,2.311,3.294,4.499,3.496c2.207,0.201,3.88-0.861,5.024-2.685c0.714-1.139,1.125-2.43,1.167-3.794
			c0.043-1.336,0.039-2.673,0.04-4.01c0.002-13.205,0-26.411,0.003-39.615c0-1.336,0.012-2.674,0.046-4.01
			c0.024-0.983,0.588-1.602,1.453-1.65c0.5-0.028,0.999-0.065,1.501-0.065c9.861-0.006,19.724-0.008,29.584-0.003
			c0.836,0,1.67,0.05,2.506,0.078c1.401,0.046,2.581,0.646,3.632,1.513c1.317,1.089,2.24,2.448,2.732,4.107
			c0.481,1.623,0.616,3.27,0.612,4.953c-0.021,6.184-0.009,12.369-0.009,18.554c0,6.017-0.024,12.036,0.019,18.051
			c0.01,1.497,0.095,3.019,0.393,4.476c0.446,2.162,2.427,3.823,4.562,4.103c2.07,0.269,4.269-0.977,5.307-3.032
			c0.691-1.366,0.963-2.816,0.961-4.356c-0.022-13.204-0.028-26.409-0.003-39.613C641.425,85.788,640.976,83.319,640.282,80.919z"/>
		<path fill="#454545" d="M358.692,89.731c0-1.503,0.024-3.019-0.146-4.508c-0.603-5.305-2.633-9.987-6.408-13.827
			c-2.777-2.825-6.101-4.642-10.067-5.141c-1.324-0.166-2.663-0.269-3.995-0.271c-12.036-0.021-24.071-0.014-36.105-0.008
			c-0.835,0-1.677,0.004-2.5,0.115c-2.811,0.378-4.884,2.477-5.168,5.312c-0.149,1.491-0.145,3.003-0.146,4.506
			c-0.012,8.357-0.006,16.716-0.006,25.074c0,8.189-0.007,16.38,0.006,24.57c0.002,1.505,0.052,3.01,0.134,4.508
			c0.076,1.396,0.727,2.577,1.634,3.581c1.898,2.101,5.096,2.311,7.19,0.389c1.413-1.298,2.244-2.893,2.276-4.847
			c0.023-1.335,0.035-2.673,0.035-4.009c0.003-13.208,0-26.41,0.004-39.617c0.001-1.503,0.029-3.008,0.067-4.511
			c0.021-0.84,0.721-1.486,1.627-1.514c1.003-0.033,2.005-0.041,3.009-0.042c9.027-0.003,18.052-0.003,27.079,0.001
			c1.003,0,2.005,0.022,3.007,0.048c2.361,0.06,4.129,1.217,5.466,3.073c1.092,1.521,1.759,3.223,1.805,5.122
			c0.034,1.337,0.031,2.674,0.031,4.011c0.003,11.2-0.001,22.398,0.005,33.599c0,1.336,0.017,2.674,0.052,4.012
			c0.042,1.564,0.679,2.911,1.629,4.119c1.403,1.788,3.837,2.179,5.413,1.634c2.31-0.802,3.512-2.499,3.906-4.771
			c0.226-1.306,0.168-2.666,0.169-4.002C358.702,114.137,358.702,101.934,358.692,89.731z"/>
		<path fill="#454545" d="M438.46,65.59c-2.612-0.379-4.361,0.515-5.722,3.032c-0.714,1.32-1.324,2.694-1.967,4.051
			c-6.645,14.02-13.285,28.044-19.935,42.063c-0.714,1.504-1.479,2.985-2.227,4.474c-0.196,0.389-0.919,0.359-1.154-0.052
			c-0.41-0.72-0.841-1.43-1.196-2.179c-3.865-8.138-7.716-16.281-11.57-24.425c-3.425-7.239-6.839-14.483-10.278-21.715
			c-0.499-1.052-1.028-2.103-1.671-3.07c-1.983-2.986-6.768-3.238-8.777,0.301c-1.312,2.312-1.654,4.702-0.505,7.188
			c0.907,1.969,1.811,3.939,2.742,5.896c7.819,16.419,15.708,32.804,23.417,49.273c1.72,3.679,4.125,5.539,7.074,5.143
			c2.293-0.101,3.465-0.093,4.625-0.216c1.764-0.191,3.173-1.087,4.091-2.581c0.783-1.275,1.432-2.64,2.067-3.996
			c7.928-16.921,15.841-33.847,23.761-50.77c0.425-0.906,0.908-1.787,1.285-2.711c0.645-1.585,0.757-3.233,0.45-4.918
			C442.53,67.955,440.613,65.903,438.46,65.59z"/>
		<path fill="#454545" d="M687.448,122.013c-2.172-0.055-4.347-0.009-6.519-0.016c-1.171-0.004-2.339-0.025-3.51-0.027
			c-2.17,0-3.84-1.01-5.19-2.615c-0.755-0.896-1.343-1.896-1.665-3.053c-0.404-1.461-0.61-2.934-0.607-4.452
			c0.017-10.029,0.008-20.06,0.021-30.087c0-0.496,0.004-1.045,0.212-1.469c0.195-0.395,0.619-0.841,1.02-0.938
			c0.799-0.19,1.652-0.204,2.483-0.208c4.01-0.018,8.022,0.004,12.035-0.018c1.165-0.007,2.336-0.059,3.499-0.177
			c1.598-0.16,2.787-1.025,3.669-2.344c1.509-2.257,1.512-5.807,0.026-8.078c-0.979-1.494-2.373-2.347-4.103-2.588
			c-0.986-0.138-2.001-0.102-3.002-0.105c-4.012-0.01-8.024,0.003-12.036-0.01c-0.831-0.003-1.663-0.061-2.496-0.118
			c-0.628-0.043-1.209-0.67-1.242-1.337c-0.04-0.833-0.074-1.669-0.075-2.504c-0.01-3.51,0.008-7.021-0.015-10.53
			c-0.007-1.168-0.064-2.338-0.157-3.503c-0.123-1.578-0.909-2.84-2.026-3.915c-2.167-2.086-5.697-1.831-7.523,0.565
			c-0.93,1.218-1.517,2.595-1.562,4.15c-0.04,1.337-0.04,2.674-0.04,4.011c-0.003,9.695-0.002,19.39-0.002,29.085
			c0,9.36,0,18.722,0.001,28.082c0,1.171,0.042,2.343-0.002,3.513c-0.096,2.543,0.426,5.005,1.144,7.403
			c1.119,3.733,3.021,7.057,5.89,9.759c2.749,2.588,5.928,4.325,9.737,4.727c4.499,0.478,9.009,0.289,13.518,0.142
			c0.165-0.004,0.328-0.062,0.492-0.092c1.964-0.374,3.365-1.532,4.091-3.332c0.428-1.059,0.684-2.27,0.668-3.409
			C694.122,124.603,691.496,122.106,687.448,122.013z"/>
		<path fill="#454545" d="M468.704,67.508c-1.642-1.456-3.523-1.846-5.57-0.915c-1.788,0.813-2.962,2.204-3.275,4.134
			c-0.238,1.474-0.284,2.991-0.288,4.489c-0.025,8.522-0.014,17.042-0.014,25.566c0,8.019-0.002,16.041,0.002,24.06
			c0,1.336-0.022,2.676,0.048,4.01c0.044,0.828,0.125,1.687,0.39,2.464c0.685,2.018,1.984,3.443,4.173,3.9
			c2.207,0.457,3.94-0.324,5.28-2.046c0.831-1.07,1.422-2.268,1.468-3.658c0.038-1.171,0.064-2.339,0.064-3.508
			c0.005-16.878,0.005-33.753,0-50.629c0-1.17,0.012-2.343-0.072-3.508C470.783,70.123,469.997,68.655,468.704,67.508z"/>
		<path fill="#454545" d="M465.668,42.448c-3.166-0.135-6.095,2.211-6.085,5.775c0.007,3.229,2.405,5.656,5.634,5.701
			c3.22,0.044,5.682-2.34,5.85-5.501C471.241,45.122,468.354,42.564,465.668,42.448z"/>
		<path fill="#669B41" d="M138.17,54.38c-6.105-3.802-12.779-6.144-19.893-7.194c-1.45-0.215-2.519-0.854-3.26-2.062
			c-1.408-2.295-2.562-4.729-3.132-7.354c-1.043-4.807-0.45-9.321,2.886-13.206c0.348-0.406,0.707-0.808,1.024-1.236
			c0.822-1.112,1.22-2.395,1.253-3.751c0.102-4.397-4.405-7.723-8.601-6.384c-4.566,1.457-6.213,6.51-3.367,10.35
			c0.317,0.43,0.702,0.81,1.044,1.221c3.158,3.802,3.797,8.168,2.771,12.848c-0.576,2.629-1.728,5.053-3.057,7.392
			c-0.706,1.243-1.678,1.963-3.163,2.163c-1.987,0.269-3.973,0.648-5.912,1.159c-10.11,2.671-18.727,7.85-25.848,15.494
			c-0.913,0.98-1.79,1.996-2.743,2.935c-1.126,1.11-2.517,1.53-4.07,1.181c-2.222-0.497-4.458-0.964-6.64-1.607
			c-4.903-1.445-9.587-3.391-13.898-6.193c-3.714-2.415-6.413-5.656-8.22-9.648c-0.492-1.086-0.753-2.279-1.104-3.427
			c-1.733-5.654-7.488-8.713-13.016-7.173c-5.483,1.528-8.059,6.759-7.687,10.923c0.561,6.267,6.224,10.561,12.478,9.504
			c1.056-0.179,2.117-0.34,3.178-0.504c4.802-0.741,9.309,0.082,13.618,2.342c6.764,3.55,12.287,8.552,17.206,14.296
			c0.87,1.016,0.976,2.174,0.607,3.392c-0.272,0.895-0.644,1.758-0.944,2.644c-3.809,11.261-3.949,22.565-0.405,33.914
			c0.279,0.893,0.595,1.773,0.873,2.666c0.608,1.949,0.272,3.639-1.188,5.167c-3.528,3.688-7.234,7.168-11.383,10.159
			c-3.053,2.199-6.275,4.116-9.727,5.624c-2.464,1.076-5.021,1.803-7.724,2.097c-3.778,0.411-7.471,0.253-11.157-0.743
			c-2.897-0.785-5.816-0.785-8.713,0.234c-5.289,1.86-9.774,7.259-9.203,14.466c0.633,7.985,8.939,15.001,18.545,11.749
			c4.191-1.419,7.03-4.3,8.52-8.471c0.224-0.627,0.38-1.279,0.586-1.914c2.077-6.44,5.732-11.74,11.337-15.641
			c2.094-1.457,4.289-2.737,6.571-3.878c5.67-2.832,11.673-4.678,17.839-6.056c1.323-0.295,2.407,0.142,3.326,0.964
			c0.795,0.709,1.446,1.577,2.156,2.38c3.845,4.351,8.242,8.039,13.278,10.954c0.461,0.267,0.946,0.493,1.426,0.725
			c0.532,0.259,1.148-0.07,1.149-0.631c0.015-6.155,0.019-12.311,0.038-18.467c0.002-0.85-0.276-1.534-0.881-2.148
			c-1.601-1.622-3.15-3.292-4.325-5.264c-0.21-0.352-0.118-0.762,0.262-1.007c0.674-0.436,1.341-0.883,2.037-1.281
			c7.318-4.206,14.701-8.307,21.94-12.645c3.754-2.249,7.16-2.271,10.915-0.02c7.124,4.27,14.398,8.29,21.58,12.467
			c3.835,2.231,3.934,1.514,0.903,5.302c-0.752,0.939-1.601,1.804-2.452,2.657c-0.614,0.617-0.842,1.33-0.84,2.17
			c0.008,2.943,0.004,5.888,0.004,8.833c-0.002,0-0.005,0-0.009,0c0,2.274-0.001,4.55,0.001,6.825
			c0.001,0.803,0.006,1.605,0.027,2.408c0.02,0.749,0.684,1.041,1.446,0.641c0.355-0.186,0.704-0.384,1.05-0.587
			c19.046-11.139,29.99-33.288,25.467-56.25C159.919,74.528,151.499,62.68,138.17,54.38z M143.95,113.819
			c-0.153,0.368-0.328,0.728-0.505,1.086c-0.247,0.505-0.887,0.771-1.33,0.533c-1.06-0.569-2.121-1.138-3.164-1.736
			c-6.966-3.999-13.975-7.929-20.875-12.036c-5.243-3.12-10.281-3.112-15.527,0.007c-7.247,4.311-14.606,8.435-21.922,12.629
			c-0.693,0.398-1.411,0.757-2.146,1.066c-0.177,0.074-0.566-0.044-0.688-0.202c-0.321-0.414-0.604-0.876-0.804-1.358
			c-1.871-4.514-2.692-8.702-2.709-13.67c-0.197-15.868,10.332-30.666,26.673-35.001c21.101-5.598,40.064,7.695,44.605,25.896
			C147.497,98.806,146.992,106.4,143.95,113.819z"/>
		<path fill="#669B41" d="M106.535,139.933c-3.321-0.021-6.644-0.027-9.967-0.02c-0.491,0.002-1.007,0.543-1.009,1.043
			c-0.022,3.184-0.036,6.367-0.034,9.549c0,0.774,0.466,1.287,1.178,1.298c1.595,0.023,3.192,0.008,4.786,0.008
			c0,0.013,0,0.026,0,0.039c1.465,0,2.93,0.02,4.393-0.006c1.197-0.021,1.677-0.495,1.677-1.677c0.002-3.052-0.02-6.104-0.046-9.154
			C107.509,140.506,107.006,139.936,106.535,139.933z"/>
		<path fill="#669B41" d="M106.535,122.829c-3.321-0.02-6.644-0.025-9.967-0.018c-0.491,0.002-1.007,0.542-1.009,1.043
			c-0.022,3.184-0.036,6.365-0.034,9.549c0,0.774,0.466,1.287,1.178,1.298c1.595,0.023,3.192,0.008,4.786,0.008
			c0,0.013,0,0.025,0,0.038c1.465,0,2.93,0.02,4.393-0.005c1.197-0.021,1.677-0.495,1.677-1.678c0.002-3.051-0.02-6.103-0.046-9.154
			C107.509,123.403,107.006,122.833,106.535,122.829z"/>
		<path fill="#669B41" d="M124.235,122.829c-3.322-0.02-6.643-0.025-9.966-0.018c-0.491,0.002-1.007,0.542-1.011,1.043
			c-0.023,3.184-0.035,6.365-0.033,9.549c0,0.774,0.466,1.287,1.178,1.298c1.596,0.023,3.192,0.008,4.786,0.008
			c0,0.013,0,0.025,0,0.038c1.465,0,2.929,0.02,4.393-0.005c1.197-0.021,1.678-0.495,1.678-1.678
			c0.002-3.051-0.021-6.103-0.046-9.154C125.209,123.403,124.707,122.833,124.235,122.829z"/>
		<path fill="#669B41" d="M124.235,139.933c-3.322-0.021-6.643-0.027-9.966-0.02c-0.491,0.002-1.007,0.543-1.011,1.043
			c-0.023,3.184-0.035,6.367-0.033,9.549c0,0.774,0.466,1.287,1.178,1.298c1.596,0.023,3.192,0.008,4.786,0.008
			c0,0.013,0,0.026,0,0.039c1.465,0,2.929,0.02,4.393-0.006c1.197-0.021,1.678-0.495,1.678-1.677
			c0.002-3.052-0.021-6.104-0.046-9.154C125.209,140.506,124.707,139.936,124.235,139.933z"/>
	</g>
</g>
<g id="Guest_x5F_3">
	<text transform="matrix(1 0 0 1 779.5127 51.4819)" fill="#454545" font-family="'Myriad-Bold'" font-size="13.5058px">TM</text>
</g>
<g id="Guest_x5F_4">
	<g>
		<path fill="#669B41" d="M745.111,152.086c-0.167,0.005-0.334,0.014-0.5,0.025c-0.881,0.055-1.595,0.718-1.605,1.564
			c-0.021,1.834-0.002,3.669-0.008,5.504c-0.011,1.997-0.027,3.996-0.059,5.994c-0.002,0.136-0.119,0.38-0.195,0.385
			c-0.283,0.021-0.745,0.062-0.829-0.083c-1.505-2.596-2.938-5.232-4.442-7.828c-3.914-6.758-1.613-5.425-9.479-5.569
			c-0.331-0.006-0.663,0.039-0.996,0.061c-0.81,0.053-1.457,0.76-1.51,1.664c-0.031,0.499-0.051,0.999-0.054,1.499
			c-0.004,2.837,0,5.676,0,8.514c0,0,0,0,0.005,0c0,3.171-0.018,6.344,0.012,9.515c0.006,0.656,0.119,1.328,0.29,1.964
			c0.075,0.281,0.39,0.657,0.649,0.705c1.482,0.278,2.984,0.355,4.455-0.067c0.274-0.077,0.618-0.416,0.666-0.682
			c0.148-0.814,0.218-1.65,0.227-2.477c0.027-3.335,0.017-6.668,0.036-10.002c0-0.135,0.095-0.334,0.204-0.395
			c0.369-0.199,0.646-0.092,0.822,0.234c1.613,2.917,3.227,5.835,4.846,8.748c3.217,5.782,1.615,4.715,8.398,4.835
			c0.665,0.012,1.358,0.032,1.983-0.148c0.405-0.118,0.93-0.543,1.016-0.917c0.221-0.961,0.294-1.971,0.3-2.962
			c0.025-5.341,0.03-10.683,0.007-16.023C749.332,152.067,749.18,151.944,745.111,152.086z"/>
		<path fill="#669B41" d="M313.612,154.973c-0.005-0.657-0.076-1.332-0.233-1.969c-0.066-0.273-0.396-0.603-0.67-0.678
			c-1.471-0.408-2.976-0.332-4.459-0.073c-0.265,0.047-0.58,0.403-0.676,0.684c-0.159,0.463-0.219,0.981-0.215,1.475
			c0.017,2.503,0.069,5.006,0.108,7.51c0.014,1.003,0.03,2.003,0.033,3.005c0.003,0.881-0.271,1.346-0.63,1.104
			c-0.26-0.176-0.613-0.304-0.752-0.549c-1.483-2.608-2.925-5.24-4.392-7.858c-3.779-6.737-1.851-5.398-9.509-5.547
			c-0.333-0.006-0.665,0.025-0.998,0.048c-0.854,0.06-1.529,0.729-1.533,1.65c-0.025,6.841-0.033,13.684-0.031,20.525
			c0,0.322,0.079,0.681,0.234,0.957c0.151,0.274,0.41,0.595,0.685,0.675c1.47,0.431,2.973,0.343,4.455,0.073
			c0.254-0.046,0.561-0.436,0.636-0.721c0.167-0.636,0.281-1.308,0.279-1.963c-0.005-2.503-0.064-5.007-0.104-7.511
			c-0.014-0.834-0.04-1.668-0.047-2.502c-0.008-0.85,0.263-1.305,0.639-1.098c0.274,0.152,0.646,0.268,0.779,0.507
			c1.462,2.622,2.868,5.274,4.32,7.899c3.763,6.799,1.884,5.42,9.48,5.577c0.332,0.006,0.666-0.028,0.997-0.053
			c0.855-0.059,1.538-0.729,1.543-1.644c0.024-3.336,0.009-6.673,0.009-10.01c0.021,0,0.041,0,0.061,0
			C313.622,161.317,313.634,158.145,313.612,154.973z"/>
		<path fill="#669B41" d="M777.531,162.621c-1.494-0.097-2.991-0.159-4.484-0.237c-0.003,0.022-0.003,0.044-0.005,0.067
			c-0.999,0-2.002-0.014-3.001,0.005c-0.665,0.015-1.329,0.075-1.993,0.117c-0.498,0.031-1.285,0.807-1.329,1.331
			c-0.04,0.498-0.076,0.998-0.071,1.498c0.013,1.333,0.5,1.957,1.622,2.04c0.997,0.074,2.014,0.012,2.99,0.187
			c0.401,0.071,0.909,0.555,1.018,0.949c0.111,0.395-0.105,0.989-0.373,1.354c-0.271,0.372-0.749,0.732-1.194,0.821
			c-1.976,0.401-3.971,0.305-5.95-0.055c-0.99-0.179-1.805-1.062-1.817-2.096c-0.038-2.998-0.047-5.996,0.002-8.993
			c0.022-1.191,1.012-2.123,2.299-2.207c1.493-0.097,2.995-0.098,4.493-0.111c1.278-0.013,2.27,0.487,2.744,1.74
			c0.413,1.098,1.249,1.488,2.337,1.483c0.831-0.005,1.666-0.013,2.495-0.065c0.871-0.055,1.571-0.819,1.54-1.619
			c-0.166-4.287-2.204-6.557-6.376-6.78c-2.822-0.15-5.666-0.033-8.495,0.033c-0.822,0.019-1.67,0.177-2.449,0.439
			c-2.558,0.86-4.309,2.54-4.732,5.288c-0.671,4.311-0.724,8.637,0.018,12.943c0.363,2.11,1.606,3.614,3.556,4.523
			c1.068,0.499,2.17,0.893,3.357,0.904c2.665,0.026,5.331,0.03,7.998,0.014c1.36-0.009,2.617-0.472,3.845-1.008
			c1.289-0.563,2.185-1.512,2.661-2.829c0.225-0.623,0.497-1.27,0.523-1.914c0.08-2.162,0.071-4.328,0.069-6.49
			C778.828,163.402,778.092,162.658,777.531,162.621z"/>
		<path fill="#669B41" d="M444.883,159.041c-0.231-4.33-2.168-6.741-6.88-6.897c-4.168-0.138-8.345-0.042-12.517-0.019
			c-1.123,0.006-1.709,0.683-1.72,1.98c-0.024,3.172-0.008,6.345-0.008,9.517c-0.009,0-0.017,0-0.026,0
			c0,3.174-0.011,6.347,0.012,9.518c0.004,0.661,0.05,1.341,0.215,1.977c0.117,0.46,0.44,0.898,1.01,0.951
			c0.665,0.058,1.329,0.122,1.993,0.123c2.65,0.001,2.961-0.291,3.047-2.744c0.038-1.167,0.008-2.343,0.151-3.495
			c0.055-0.431,0.444-0.863,1.031-0.937c1.829-0.233,3.651-0.254,5.477,0.031c0.619,0.098,1.301,0.709,1.343,1.285
			c0.082,1.162,0.111,2.327,0.206,3.49c0.04,0.486,0.13,0.989,0.31,1.438c0.109,0.273,0.416,0.625,0.674,0.66
			c5.063,0.685,5.667,0.573,5.576-3.977c-0.038-1.865-0.371-3.636-1.251-5.304c-0.353-0.668-0.365-0.746,0.205-1.787
			C444.733,163.021,444.991,161.071,444.883,159.041z M437.871,162.529c-0.133,0.257-0.5,0.511-0.786,0.546
			c-1.144,0.14-2.3,0.194-3.449,0.28c-0.002-0.035-0.004-0.072-0.006-0.107c-0.66,0-1.322,0.019-1.982-0.005
			c-1.043-0.037-1.599-0.52-1.618-1.436c-0.021-0.989-0.008-1.98,0.027-2.969c0.027-0.693,0.591-1.32,1.213-1.344
			c1.484-0.057,2.97-0.089,4.456-0.101c0.842-0.008,1.731,0.114,2.183,0.891C438.716,159.672,438.603,161.134,437.871,162.529z"/>
		<path fill="#669B41" d="M616.977,152.405c-0.483-0.118-0.984-0.229-1.479-0.232c-4.499-0.015-9-0.014-13.5,0.005
			c-0.646,0.002-1.306,0.641-1.364,1.224c-0.051,0.495-0.126,0.991-0.126,1.488c-0.013,3.004-0.007,6.006-0.007,9.008
			c0.018,0,0.034,0,0.049,0c0,3.502-0.013,7.004,0.011,10.505c0.004,0.938,0.662,1.68,1.479,1.703
			c1.164,0.034,2.335,0.073,3.486-0.051c0.382-0.042,0.829-0.513,1.035-0.899c0.222-0.415,0.239-0.96,0.267-1.452
			c0.065-1.164,0.073-2.332,0.126-3.499c0.019-0.468,0.862-1.254,1.363-1.27c1.166-0.036,2.332-0.084,3.499-0.064
			c2.641,0.045,3.213,0.598,3.37,3.207c0.04,0.664,0,1.335,0.045,2c0.096,1.418,0.379,2.064,2.126,2.114
			c4.017,0.11,4.181-0.074,4.176-4.126c-0.004-2.032-0.186-3.995-1.295-5.768c-0.319-0.511-0.046-0.936,0.237-1.337
			c0.693-0.984,1.064-2.073,1.076-3.272c0.012-1.334,0.079-2.673-0.033-3.995C621.28,154.902,619.668,153.075,616.977,152.405z
			 M615.264,161.611c-0.099,0.736-1.006,1.576-1.717,1.601c-0.999,0.034-2.002,0.008-3.001,0.008
			c-0.002,0.039-0.002,0.076-0.002,0.115c-0.831-0.048-1.662-0.093-2.493-0.146c-0.563-0.034-1.018-0.415-1.104-0.859
			c-0.255-1.312-0.346-2.664,0.088-3.959c0.15-0.449,0.501-0.89,1.082-0.9c1.667-0.032,3.333-0.091,4.997-0.053
			c1.316,0.03,2.173,0.909,2.239,2.206C615.387,160.283,615.35,160.955,615.264,161.611z"/>
		<path fill="#669B41" d="M355.698,162.126c-3.298-0.333-6.598-0.646-9.892-1.024c-0.448-0.052-0.919-0.358-1.273-0.669
			c-0.533-0.468-0.686-1.146-0.451-1.811c0.223-0.629,0.613-1.265,1.352-1.302c1.651-0.08,3.307-0.1,4.958-0.059
			c0.725,0.018,1.222,0.547,1.325,1.254c0.177,1.214,0.907,1.702,2.035,1.713c1.328,0.012,2.656-0.025,3.983-0.04
			c0.452-1.316,0.247-2.632,0.013-3.949c-0.182-1.03-0.747-1.857-1.497-2.533c-0.875-0.788-1.875-1.388-3.082-1.527
			c-3.491-0.404-6.98-0.399-10.465,0.076c-0.326,0.045-0.649,0.147-0.962,0.258c-1.663,0.577-2.874,1.628-3.477,3.323
			c-0.753,2.115-0.768,4.238-0.102,6.369c0.531,1.694,1.704,2.812,3.26,3.584c0.143,0.071,0.251,0.216,0.374,0.327
			c2.806,0.182,5.614,0.333,8.416,0.559c1.363,0.109,2.123,1.072,1.989,2.328c-0.137,1.276-0.94,2.048-2.299,2.11
			c-1.156,0.054-2.317,0.069-3.472,0.03c-1.704-0.057-2.209-0.371-2.676-2.266c-0.296-1.201-1.046-1.558-2.03-1.815
			c-0.827,0.07-1.658,0.124-2.484,0.214c-0.929,0.102-1.597,0.759-1.587,1.589c0.01,0.831-0.006,1.676,0.135,2.49
			c0.338,1.936,1.398,3.391,3.243,4.124c0.912,0.363,1.908,0.665,2.879,0.7c2.661,0.094,5.329,0.045,7.994,0.025
			c1.357-0.011,2.669-0.335,3.803-1.072c0.678-0.442,1.352-1.031,1.761-1.715c1.257-2.088,1.411-4.41,1.068-6.771
			C358.257,164.73,357.213,163.274,355.698,162.126z"/>
		<path fill="#669B41" d="M229.324,158.382c-0.419-3.616-2.469-5.65-6.093-6.208c-0.329-0.051-0.662-0.096-0.993-0.098
			c-2.492-0.018-4.985-0.076-7.477-0.007c-0.979,0.026-1.986,0.239-2.919,0.553c-1.836,0.613-3.089,1.847-3.684,3.756
			c-0.979,3.144-0.978,12.189,0.02,15.306c0.602,1.88,1.823,3.132,3.633,3.832c0.615,0.239,1.259,0.546,1.897,0.56
			c2.988,0.066,5.979,0.087,8.967,0.021c0.804-0.019,1.606-0.38,2.398-0.621c1.512-0.459,2.571-1.459,3.325-2.828
			c0.57-1.032,1.009-2.104,1.021-3.299c0.019-1.662,0.004-3.325,0.004-4.988c-0.02,0-0.039,0-0.059,0
			C229.365,162.365,229.553,160.35,229.324,158.382z M222.949,168.886c-0.13,0.845-0.782,1.479-1.628,1.736
			c-1.958,0.597-3.938,0.602-5.893-0.001c-0.653-0.2-1.16-0.689-1.279-1.399c-0.165-0.98-0.353-1.974-0.358-2.961
			c-0.013-2.161,0.016-4.327,0.154-6.482c0.095-1.481,1.119-2.406,2.648-2.456c1.49-0.049,2.987,0.008,4.476,0.111
			c0.882,0.062,1.929,1.133,1.993,1.997c0.125,1.657,0.173,3.32,0.258,5.129C223.212,165.911,223.176,167.412,222.949,168.886z"/>
		<path fill="#669B41" d="M386.776,164.251c0-1.829,0.153-3.673-0.031-5.482c-0.396-3.917-2.505-6.128-6.273-6.587
			c-1.645-0.203-3.318-0.26-4.978-0.248c-1.659,0.011-3.337,0.065-4.971,0.326c-2.695,0.429-4.544,1.944-5.195,4.698
			c-0.153,0.645-0.368,1.297-0.378,1.95c-0.049,3.324-0.109,6.65-0.01,9.973c0.033,1.132,0.444,2.274,0.815,3.367
			c0.445,1.309,1.396,2.246,2.606,2.898c1.032,0.556,2.116,1.005,3.308,1.016c2.658,0.023,5.319,0.05,7.977-0.02
			c0.811-0.02,1.62-0.32,2.419-0.535c1.898-0.51,3.218-1.717,3.94-3.515c0.366-0.913,0.699-1.888,0.773-2.855
			c0.125-1.653,0.035-3.323,0.035-4.986C386.8,164.251,386.789,164.251,386.776,164.251z M380.322,168.705
			c-0.145,1.086-0.904,1.754-1.954,2.025c-1.808,0.468-3.632,0.452-5.428-0.037c-0.86-0.233-1.432-0.898-1.554-1.775
			c-0.439-3.143-0.382-6.298-0.076-9.45c0.016-0.16,0.109-0.312,0.167-0.469c0.316-0.843,0.928-1.475,1.791-1.539
			c1.648-0.122,3.312-0.13,4.965-0.068c1.119,0.042,2.152,1.154,2.213,2.352c0.075,1.493,0.018,2.992,0.018,4.489
			c0.07,0.001,0.14,0.003,0.211,0.005C380.564,165.729,380.516,167.225,380.322,168.705z"/>
		<path fill="#669B41" d="M415.722,153.757c-0.007-0.893-0.712-1.617-1.544-1.642c-1.001-0.03-2.003-0.028-3.003-0.003
			c-0.982,0.026-1.646,0.585-1.702,1.46c-0.077,1.162-0.13,2.33-0.136,3.498c-0.021,3.505,0.002,7.011-0.021,10.517
			c-0.015,2.3-0.507,3.296-3.26,3.367c-1.164,0.029-2.335-0.058-3.493-0.165c-1.067-0.1-1.879-0.952-1.932-1.951
			c-0.05-1.001-0.074-2.001-0.077-3.002c-0.011-3.339,0.005-6.679-0.012-10.017c-0.005-0.832-0.024-1.677-0.181-2.488
			c-0.085-0.445-0.338-0.95-0.927-1.062c-1.484-0.286-2.971-0.37-4.433,0.073c-0.272,0.082-0.527,0.39-0.681,0.656
			c-0.158,0.273-0.254,0.625-0.256,0.943c-0.023,5.008-0.072,10.017,0.002,15.022c0.015,1.139,0.382,2.299,0.743,3.396
			c0.493,1.505,1.564,2.55,3.059,3.097c0.777,0.283,1.587,0.649,2.39,0.667c3.168,0.065,6.351,0.193,9.5-0.059
			c3.545-0.282,5.646-2.673,5.988-6.287c0.077-0.828,0.055-1.668,0.059-2.503c0.009-1.836,0.002-3.673,0.002-5.508
			c-0.023,0-0.051,0-0.073,0C415.732,159.096,415.747,156.427,415.722,153.757z"/>
		<path fill="#669B41" d="M702.728,153.751c-0.062-0.955-0.633-1.58-1.527-1.62c-0.831-0.039-1.664-0.06-2.495-0.045
			c-1.584,0.027-2.103,0.528-2.164,2.043c-0.021,0.501-0.023,1-0.025,1.499c-0.008,6.361,0.466,5.454-5.683,5.539
			c-0.666,0.008-1.333-0.004-2-0.03c-1.134-0.044-1.702-0.664-1.733-1.942c-0.04-1.665-0.021-3.332-0.067-4.998
			c-0.04-1.523-0.615-2.101-2.115-2.107c-0.994-0.003-1.987,0.087-2.983,0.141c-0.594,0.031-0.833,0.51-1.051,0.936
			c-0.142,0.283-0.16,0.65-0.16,0.979c-0.009,6.664-0.007,13.328,0.002,19.992c0.002,0.325,0.036,0.692,0.181,0.973
			c0.225,0.426,0.471,0.889,1.062,0.935c0.496,0.038,0.989,0.136,1.482,0.145c3.379,0.066,3.567-0.131,3.618-3.677
			c0.019-1.332,0.015-2.666,0.048-3.997c0.009-0.329,0.053-0.689,0.205-0.968c0.151-0.274,0.438-0.631,0.697-0.659
			c1.317-0.148,2.642-0.254,3.967-0.276c4.83-0.085,4.503,0.154,4.528,4.259c0.009,1.166,0.011,2.332,0.046,3.497
			c0.011,0.327,0.076,0.685,0.231,0.963c0.152,0.274,0.441,0.646,0.689,0.662c1.32,0.082,2.647,0.085,3.973,0.075
			c0.586-0.005,1.217-0.688,1.221-1.34c0.015-3.494,0.007-6.991,0.007-10.485c0.029,0,0.061-0.002,0.09-0.002
			c0-3.331,0-6.664-0.002-9.994C702.769,154.08,702.739,153.915,702.728,153.751z"/>
		<path fill="#669B41" d="M280.913,170.925c-1.324-0.097-2.65-0.159-3.977-0.216c-1.826-0.074-3.656-0.113-5.482-0.204
			c-0.578-0.029-0.805-0.539-0.955-1.005c-0.1-0.306-0.072-0.66-0.061-0.994c0.036-1.303,0.534-1.866,1.759-1.891
			c2.167-0.044,4.336-0.023,6.503-0.075c0.657-0.017,1.324-0.132,1.958-0.309c0.282-0.079,0.648-0.389,0.703-0.651
			c0.24-1.149,0.324-2.325-0.113-3.448c-0.108-0.276-0.423-0.564-0.707-0.658c-0.463-0.154-0.978-0.203-1.473-0.209
			c-2.002-0.026-4.005,0-6.004-0.036c-0.654-0.012-1.32-0.101-1.95-0.266c-0.237-0.064-0.518-0.42-0.563-0.681
			c-0.363-2.059,0.233-2.819,2.234-2.85c2.336-0.036,4.671-0.012,7.006-0.048c0.491-0.009,1.002-0.104,1.457-0.28
			c0.278-0.11,0.639-0.428,0.665-0.684c0.1-0.98,0.124-1.975,0.089-2.96c-0.022-0.64-0.707-1.241-1.301-1.297
			c-0.165-0.016-0.329-0.067-0.493-0.067c-4.67-0.008-9.342-0.014-14.011-0.008c-0.328,0-0.656,0.08-0.982,0.134
			c-0.556,0.091-0.892,0.496-1.017,0.965c-0.168,0.634-0.242,1.31-0.25,1.97c-0.025,2.836-0.01,5.672-0.01,8.507
			c-0.003,0-0.004,0-0.007,0c0,2.169-0.003,4.336,0.001,6.507c0.001,1.167-0.009,2.334,0.03,3.501
			c0.061,1.864,0.621,2.498,2.309,2.508c4.504,0.026,9.008,0.017,13.511,0.002c0.493-0.001,1.009-0.068,1.469-0.233
			c0.277-0.099,0.551-0.412,0.675-0.694c0.413-0.945,0.359-1.947,0.232-2.949C282.08,171.692,281.486,170.967,280.913,170.925z"/>
		<path fill="#669B41" d="M254.129,153.129c-1.201-0.633-2.477-0.965-3.827-0.98c-1.994-0.021-3.988-0.006-5.981-0.006
			c0,0.014-0.001,0.027-0.001,0.041c-2.156,0-4.314-0.013-6.472,0.009c-0.61,0.005-1.239,0.675-1.292,1.276
			c-0.029,0.329-0.095,0.657-0.095,0.987c-0.009,6.316-0.014,12.632-0.009,18.948c0.001,0.496,0.079,0.991,0.134,1.485
			c0.065,0.598,0.704,1.204,1.365,1.216c1.158,0.026,2.319,0.017,3.478-0.017c0.568-0.015,1.196-0.713,1.23-1.354
			c0.069-1.326,0.096-2.653,0.16-3.979c0.045-0.962,0.64-1.65,1.478-1.673c1.495-0.043,2.991-0.076,4.486-0.06
			c1.693,0.02,3.303-0.39,4.874-0.925c1.318-0.451,2.272-1.408,2.765-2.707c1.231-3.237,1.227-6.502,0-9.745
			C255.996,154.52,255.204,153.695,254.129,153.129z M250.756,161.958c-0.07,0.68-0.684,1.249-1.315,1.311
			c-0.995,0.099-1.992,0.166-2.928,0.24c-0.895-0.065-1.725-0.117-2.552-0.189c-0.6-0.055-1.174-0.71-1.186-1.384
			c-0.018-0.998-0.027-2.001,0.012-2.999c0.035-0.848,0.761-1.536,1.647-1.536c1.499-0.002,3.001,0.016,4.499,0.097
			c1.017,0.056,1.804,0.872,1.897,1.987C250.897,160.303,250.84,161.14,250.756,161.958z"/>
		<path fill="#669B41" d="M538.979,170.847c-0.498-0.047-0.994-0.114-1.492-0.119c-2.334-0.025-4.67-0.008-7.005-0.057
			c-1.633-0.034-2.441-1.789-1.533-3.296c0.162-0.266,0.447-0.576,0.724-0.635c0.643-0.137,1.315-0.164,1.978-0.177
			c2.166-0.043,4.335-0.045,6.503-0.098c0.846-0.021,1.527-0.74,1.6-1.608c0.292-3.517-0.674-3.605-3.171-3.607
			c-0.669-0.001-1.335,0.012-2.002-0.005c-1.666-0.038-3.331-0.085-4.997-0.141c-0.349-0.012-0.896-0.639-0.89-1.031
			c0.004-0.492-0.058-1.029,0.122-1.462c0.169-0.414,0.549-0.9,0.943-1.029c0.613-0.201,1.315-0.155,1.979-0.167
			c2.336-0.034,4.671-0.034,7.003-0.081c0.939-0.019,1.54-0.636,1.583-1.553c0.029-0.665,0.037-1.334,0.015-1.998
			c-0.032-0.903-0.676-1.609-1.518-1.629c-2.001-0.049-4-0.079-6-0.085c-2.838-0.009-5.673-0.007-8.508,0.032
			c-1.43,0.019-2.016,0.66-2.028,2.225c-0.028,3.169-0.008,6.339-0.008,9.51c-0.009,0-0.015,0-0.022,0
			c0,1.667-0.004,3.335,0.002,5.004c0.006,1.835,0.006,3.67,0.043,5.505c0.021,1.075,0.793,1.817,1.938,1.819
			c4.837,0.008,9.674-0.007,14.51-0.033c0.898-0.006,1.578-0.667,1.611-1.547c0.031-0.829-0.002-1.662-0.044-2.492
			C540.287,171.502,539.618,170.908,538.979,170.847z"/>
		<path fill="#669B41" d="M496.768,170.885c-2-0.076-4.001-0.101-5.999-0.177c-1.16-0.043-2.322-0.111-3.477-0.248
			c-0.261-0.029-0.611-0.341-0.708-0.602c-0.736-1.959-0.055-3.216,1.624-3.266c1.002-0.028,2.006-0.026,3.008-0.039
			c1.501-0.02,3.008-0.018,4.51-0.069c1.132-0.039,1.671-0.689,1.704-1.994c0.013-0.5,0.007-1.004-0.031-1.503
			c-0.063-0.876-0.764-1.616-1.538-1.663c-0.5-0.028-0.999-0.061-1.5-0.071c-2.336-0.048-4.674-0.078-7.011-0.138
			c-0.6-0.015-1.04-0.677-1.029-1.44c0.025-1.668,0.475-2.212,1.975-2.237c2.339-0.037,4.68-0.009,7.018-0.048
			c0.659-0.01,1.333-0.103,1.97-0.273c0.274-0.073,0.645-0.424,0.671-0.676c0.093-0.99,0.09-1.992,0.069-2.988
			c-0.013-0.627-0.662-1.26-1.297-1.265c-5.01-0.031-10.02-0.054-15.026-0.054c-0.939,0-1.6,0.639-1.605,1.544
			c-0.021,3.34-0.011,6.68-0.011,10.021c-0.023,0-0.049,0-0.073,0c0,0.836-0.009,1.672,0.002,2.507
			c0.033,2.837,0.065,5.675,0.117,8.513c0.013,0.642,0.65,1.292,1.234,1.354c0.331,0.034,0.663,0.107,0.992,0.107
			c4.511,0.007,9.022,0.007,13.534-0.001c0.332,0,0.663-0.078,0.991-0.119c0.579-0.07,1.175-0.711,1.205-1.393
			c0.035-0.83,0.021-1.662-0.011-2.493C498.054,171.594,497.378,170.909,496.768,170.885z"/>
		<path fill="#669B41" d="M469.967,166.312c-0.497,0.005-0.998,0.049-1.496,0.089c-0.693,0.058-1.195,0.482-1.398,1.218
			c-0.087,0.318-0.069,0.664-0.152,0.985c-0.416,1.607-1.157,2.248-2.757,2.31c-0.998,0.041-2.004,0.045-2.999-0.012
			c-2.123-0.122-3.059-1.039-3.137-3.064c-0.045-1.165-0.007-2.335-0.007-3.503c0.015,0,0.029,0,0.045,0
			c0-1.5-0.045-3.002,0.013-4.499c0.052-1.402,1.113-2.415,2.602-2.504c1.162-0.07,2.333-0.081,3.497-0.035
			c1.167,0.045,2.246,0.351,2.498,1.939c0.217,1.381,0.811,2.106,2.267,2.015c0.829-0.056,1.664-0.022,2.495-0.064
			c0.898-0.045,1.616-0.762,1.525-1.607c-0.122-1.15-0.251-2.316-0.546-3.432c-0.623-2.358-2.312-3.638-4.646-3.957
			c-3.317-0.455-6.665-0.462-9.977,0.061c-3.324,0.528-5.434,2.684-5.83,5.966c-0.483,3.986-0.467,7.995-0.015,11.984
			c0.358,3.174,2.229,5.141,5.336,5.825c0.487,0.106,0.99,0.193,1.485,0.193c2.666-0.004,5.339,0.025,8.001-0.094
			c0.97-0.043,1.942-0.415,2.888-0.722c1.945-0.633,2.906-2.129,3.339-4.029c0.109-0.482,0.128-0.989,0.164-1.489
			C473.38,166.832,472.895,166.289,469.967,166.312z"/>
		<path fill="#669B41" d="M591.568,170.816c-2.335-0.061-4.673-0.051-7.006-0.116c-0.824-0.024-1.65-0.14-2.457-0.314
			c-0.244-0.054-0.544-0.42-0.601-0.689c-0.498-2.398,0.175-3.061,1.893-3.108c1.999-0.056,4.003-0.013,6.004-0.051
			c0.663-0.012,1.331-0.088,1.978-0.227c0.293-0.064,0.691-0.306,0.778-0.558c0.44-1.279,0.482-2.589-0.152-3.823
			c-0.129-0.25-0.517-0.482-0.807-0.513c-0.993-0.107-1.992-0.136-2.99-0.164c-1.998-0.062-3.997-0.062-5.99-0.18
			c-0.464-0.027-0.789-0.481-0.829-1.057c-0.133-1.895,0.299-2.561,2.084-2.586c2.004-0.028,4.008,0.003,6.007-0.031
			c0.829-0.014,1.677-0.039,2.471-0.242c0.398-0.101,0.753-0.571,1.009-0.954c0.166-0.249,0.146-0.642,0.159-0.972
			c0.097-2.493-0.422-3.12-2.665-3.153c-2.002-0.03-4.004-0.022-6.008-0.008c-2.668,0.018-5.337,0.05-8.007,0.096
			c-0.61,0.009-1.247,0.658-1.312,1.27c-0.052,0.494-0.138,0.991-0.14,1.486c-0.011,3.005-0.004,6.01-0.004,9.013
			c-0.004,0-0.007,0-0.011,0c0,2.337-0.002,4.672,0.002,7.009c0.002,1.001,0.002,2.004,0.036,3.004
			c0.047,1.291,0.511,2.248,2.055,2.241c4.673-0.017,9.347-0.008,14.018-0.021c0.327-0.002,0.724-0.009,0.966-0.18
			c0.38-0.27,0.846-0.642,0.935-1.045c0.18-0.798,0.169-1.646,0.154-2.47C593.121,171.632,592.374,170.838,591.568,170.816z"/>
		<path fill="#669B41" d="M568.69,152.342c-1.459-0.457-2.966-0.341-4.443-0.132c-0.414,0.058-0.874,0.477-1.121,0.856
			c-0.354,0.548-0.569,1.199-0.784,1.824c-1.255,3.623-2.491,7.251-3.738,10.875c-0.161,0.473-0.331,0.941-0.518,1.403
			c-0.057,0.144-0.242,0.381-0.258,0.372c-0.288-0.157-0.717-0.284-0.808-0.532c-1.217-3.273-2.385-6.562-3.561-9.85
			c-0.508-1.412-0.979-2.837-1.527-4.23c-0.104-0.267-0.458-0.543-0.745-0.609c-1.637-0.38-3.291-0.482-4.904,0.1
			c-0.217,0.08-0.437,0.504-0.435,0.766c0.004,0.485,0.123,0.988,0.281,1.453c2.19,6.472,4.396,12.94,6.602,19.408
			c0.107,0.314,0.276,0.608,0.405,0.916c0.275,0.66,0.738,1.114,1.472,1.148c0.833,0.038,1.666,0.008,2.5,0.008
			c0,0.024,0,0.048,0,0.072c0.835,0,1.668,0.016,2.501-0.006c1.523-0.036,2.121-0.422,2.612-1.831
			c2.303-6.612,4.59-13.229,6.858-19.852c0.157-0.455,0.191-0.982,0.145-1.464C569.201,152.782,568.927,152.414,568.69,152.342z"/>
		<path fill="#669B41" d="M649.605,152.221c-1.491-0.05-2.979-0.087-4.472-0.088c-0.7-0.001-1.268,0.321-1.649,0.931
			c-0.88,1.407-1.749,2.825-2.645,4.223c-0.536,0.836-1.087,1.666-1.702,2.442c-0.106,0.133-0.745,0.094-0.848-0.059
			c-1.106-1.652-2.296-3.271-3.182-5.038c-1.048-2.086-2.562-2.94-4.47-2.561c-0.688,0-1.021-0.003-1.352,0.001
			c-0.167,0.002-0.334,0.02-0.498,0.026c-1.22,0.044-1.853,0.988-1.255,1.981c1.628,2.706,3.312,5.376,4.957,8.069
			c0.951,1.557,2.208,3.031,2.71,4.727c0.502,1.695,0.222,3.618,0.31,5.44c0.048,0.992,0.103,1.987,0.251,2.968
			c0.038,0.259,0.403,0.6,0.677,0.67c1.468,0.381,2.963,0.343,4.438,0.037c0.26-0.055,0.543-0.423,0.644-0.707
			c0.162-0.461,0.217-0.969,0.252-1.46c0.17-2.314-0.51-4.758,0.396-6.918c0.891-2.117,2.353-3.996,3.58-5.971
			c1.491-2.396,3.01-4.777,4.496-7.175C650.613,153.168,650.217,152.241,649.605,152.221z"/>
		<path fill="#669B41" d="M673.09,152.156c-2.834-0.023-5.669-0.008-8.506-0.008c0-0.009,0-0.016,0-0.024
			c-2.835,0-5.672-0.013-8.51,0.009c-0.924,0.006-1.572,0.645-1.617,1.523c-0.033,0.666-0.037,1.334-0.012,2
			c0.037,1.031,0.55,1.613,1.441,1.677c1.494,0.105,2.991,0.17,4.477,0.325c0.266,0.026,0.635,0.37,0.709,0.636
			c0.173,0.63,0.27,1.301,0.272,1.956c0.027,4.173,0.006,8.345,0.031,12.519c0.005,0.826,0.096,1.662,0.245,2.476
			c0.053,0.285,0.363,0.688,0.616,0.743c1.479,0.306,2.983,0.352,4.457-0.036c0.272-0.071,0.605-0.398,0.677-0.67
			c0.167-0.634,0.26-1.306,0.264-1.962c0.023-3.839,0.006-7.679,0.018-11.517c0.005-0.999,0.053-1.998,0.104-2.997
			c0.031-0.629,0.655-1.257,1.28-1.286c1.33-0.064,2.665-0.094,3.996-0.161c0.906-0.044,1.536-0.683,1.578-1.586
			c0.031-0.666,0.04-1.334,0.015-1.999C674.595,152.873,673.949,152.164,673.09,152.156z"/>
		<path fill="#669B41" d="M717.336,154.899c-0.007-0.648-0.168-1.313-0.359-1.939c-0.08-0.265-0.392-0.571-0.66-0.648
			c-1.464-0.419-2.955-0.387-4.427-0.033c-0.277,0.066-0.552,0.354-0.716,0.611c-0.168,0.263-0.285,0.612-0.287,0.927
			c-0.018,6.844-0.02,13.688-0.011,20.529c0,0.32,0.101,0.671,0.261,0.945c0.153,0.266,0.411,0.574,0.686,0.655
			c1.461,0.43,2.955,0.39,4.425,0.033c0.27-0.062,0.6-0.36,0.685-0.62c0.208-0.621,0.391-1.282,0.4-1.929
			c0.038-3.006,0.018-6.011,0.018-9.016c0,0,0,0,0.002,0C717.352,161.243,717.371,158.073,717.336,154.899z"/>
	</g>
</g>
</svg>
