<?xml version="1.0" encoding="utf-8"?>
<!-- Generator: Adobe Illustrator 20.1.0, SVG Export Plug-In . SVG Version: 6.00 Build 0)  -->
<svg version="1.1" id="Layer_1" xmlns="http://www.w3.org/2000/svg" xmlns:xlink="http://www.w3.org/1999/xlink" x="0px" y="0px"
	 width="1070.5px" height="762.1px" viewBox="0 0 1070.5 762.1" style="enable-background:new 0 0 1070.5 762.1;"
	 xml:space="preserve">
<style type="text/css">
	.st0{fill:#669F5B;}
</style>
<g>
	<path class="st0" d="M671.2,203c-29.9-18.6-62.5-30.1-97.3-35.2c-7.1-1-12.3-4.2-16-10.1c-6.9-11.2-12.5-23.1-15.3-36
		c-5.1-23.5-2.2-45.6,14.1-64.6c1.7-2,3.5-3.9,5-6.1c4-5.4,6-11.7,6.1-18.4c0.5-21.5-21.6-37.8-42.1-31.2
		c-22.3,7.1-30.4,31.9-16.5,50.6c1.6,2.1,3.4,4,5.1,6c15.5,18.6,18.6,40,13.6,62.9c-2.8,12.9-8.5,24.7-15,36.2
		c-3.5,6.1-8.2,9.6-15.5,10.6c-9.7,1.3-19.4,3.2-28.9,5.7c-49.5,13.1-91.6,38.4-126.5,75.8c-4.5,4.8-8.8,9.8-13.4,14.4
		c-5.5,5.4-12.3,7.5-19.9,5.8c-10.9-2.4-21.8-4.7-32.5-7.9c-24-7.1-46.9-16.6-68-30.3c-18.2-11.8-31.4-27.7-40.2-47.2
		c-2.4-5.3-3.7-11.1-5.4-16.8c-8.5-27.7-36.6-42.6-63.7-35.1c-26.8,7.5-39.4,33.1-37.6,53.5c2.7,30.7,30.5,51.7,61,46.5
		c5.2-0.9,10.4-1.7,15.6-2.5c23.5-3.6,45.5,0.4,66.6,11.5c33.1,17.4,60.1,41.8,84.2,70c4.3,5,4.8,10.6,3,16.6
		c-1.3,4.4-3.1,8.6-4.6,12.9c-18.6,55.1-19.3,110.4-2,165.9c1.4,4.4,2.9,8.7,4.3,13.1c3,9.5,1.3,17.8-5.8,25.3
		c-17.3,18-35.4,35.1-55.7,49.7c-14.9,10.8-30.7,20.1-47.6,27.5c-12.1,5.3-24.6,8.8-37.8,10.3c-18.5,2-36.6,1.2-54.6-3.6
		c-14.2-3.8-28.5-3.8-42.6,1.1c-25.9,9.1-47.8,35.5-45,70.8C3.3,739.7,44,774,91,758.1c20.5-6.9,34.4-21,41.7-41.4
		c1.1-3.1,1.9-6.3,2.9-9.4c10.2-31.5,28-57.5,55.5-76.5c10.2-7.1,21-13.4,32.2-19c27.7-13.9,57.1-22.9,87.3-29.6
		c6.5-1.4,11.8,0.7,16.3,4.7c3.9,3.5,7.1,7.7,10.5,11.6c18.8,21.3,40.3,39.3,65,53.6c2.3,1.3,4.6,2.4,7,3.6c2.6,1.3,5.6-0.3,5.6-3.1
		c0.1-30.1,0.1-60.2,0.2-90.4c0-4.2-1.3-7.5-4.3-10.5c-7.8-7.9-15.4-16.1-21.2-25.8c-1-1.7-0.6-3.7,1.3-4.9c3.3-2.1,6.6-4.3,10-6.3
		c35.8-20.6,71.9-40.6,107.4-61.9c18.4-11,35-11.1,53.4-0.1c34.9,20.9,70.5,40.6,105.6,61c18.8,10.9,19.3,7.4,4.4,25.9
		c-3.7,4.6-7.8,8.8-12,13c-3,3-4.1,6.5-4.1,10.6c0,14.4,0,28.8,0,43.2c0,0,0,0,0,0c0,11.1,0,22.3,0,33.4c0,3.9,0,7.9,0.1,11.8
		c0.1,3.7,3.3,5.1,7.1,3.1c1.7-0.9,3.4-1.9,5.1-2.9c93.2-54.5,146.8-162.9,124.6-275.2C777.6,301.6,736.4,243.6,671.2,203z
		 M699.5,493.9c-0.7,1.8-1.6,3.6-2.5,5.3c-1.2,2.5-4.3,3.8-6.5,2.6c-5.2-2.8-10.4-5.6-15.5-8.5c-34.1-19.6-68.4-38.8-102.1-58.9
		c-25.7-15.3-50.3-15.2-76,0c-35.5,21.1-71.5,41.3-107.3,61.8c-3.4,1.9-6.9,3.7-10.5,5.2c-0.9,0.4-2.8-0.2-3.4-1
		c-1.6-2-3-4.3-3.9-6.6c-9.2-22.1-13.2-42.6-13.3-66.9c-1-77.6,50.6-150.1,130.5-171.3c103.2-27.4,196,37.7,218.3,126.7
		C716.9,420.4,714.4,457.6,699.5,493.9z"/>
	<path class="st0" d="M516.4,621.6c-16.3-0.1-32.5-0.1-48.8-0.1c-2.4,0-4.9,2.7-4.9,5.1c-0.1,15.6-0.2,31.2-0.2,46.7
		c0,3.8,2.3,6.3,5.8,6.4c7.8,0.1,15.6,0,23.4,0c0,0.1,0,0.1,0,0.2c7.2,0,14.3,0.1,21.5,0c5.9-0.1,8.2-2.4,8.2-8.2
		c0-14.9-0.1-29.9-0.2-44.8C521.2,624.5,518.7,621.7,516.4,621.6z"/>
	<path class="st0" d="M516.4,538c-16.3-0.1-32.5-0.1-48.8-0.1c-2.4,0-4.9,2.7-4.9,5.1c-0.1,15.6-0.2,31.2-0.2,46.7
		c0,3.8,2.3,6.3,5.8,6.4c7.8,0.1,15.6,0,23.4,0c0,0.1,0,0.1,0,0.2c7.2,0,14.3,0.1,21.5,0c5.9-0.1,8.2-2.4,8.2-8.2
		c0-14.9-0.1-29.9-0.2-44.8C521.2,540.8,518.7,538,516.4,538z"/>
	<path class="st0" d="M603,538c-16.3-0.1-32.5-0.1-48.8-0.1c-2.4,0-4.9,2.7-4.9,5.1c-0.1,15.6-0.2,31.2-0.2,46.7
		c0,3.8,2.3,6.3,5.8,6.4c7.8,0.1,15.6,0,23.4,0c0,0.1,0,0.1,0,0.2c7.2,0,14.3,0.1,21.5,0c5.9-0.1,8.2-2.4,8.2-8.2
		c0-14.9-0.1-29.9-0.2-44.8C607.8,540.8,605.3,538,603,538z"/>
	<path class="st0" d="M603,621.6c-16.3-0.1-32.5-0.1-48.8-0.1c-2.4,0-4.9,2.7-4.9,5.1c-0.1,15.6-0.2,31.2-0.2,46.7
		c0,3.8,2.3,6.3,5.8,6.4c7.8,0.1,15.6,0,23.4,0c0,0.1,0,0.1,0,0.2c7.2,0,14.3,0.1,21.5,0c5.9-0.1,8.2-2.4,8.2-8.2
		c0-14.9-0.1-29.9-0.2-44.8C607.8,624.5,605.3,621.7,603,621.6z"/>
</g>
</svg>
