<?xml version="1.0" encoding="utf-8"?>
<!-- Generator: Adobe Illustrator 20.1.0, SVG Export Plug-In . SVG Version: 6.00 Build 0)  -->
<svg version="1.1" id="Layer_1" xmlns="http://www.w3.org/2000/svg" xmlns:xlink="http://www.w3.org/1999/xlink" x="0px" y="0px"
	 width="800px" height="180px" viewBox="0 0 800 180" style="enable-background:new 0 0 800 180;" xml:space="preserve">
<style type="text/css">
	.st0{fill:#FFFFFF;}
	.st1{font-family:'MyriadPro-Light';}
	.st2{font-size:13.5058px;}
</style>
<g id="Guest">
</g>
<g id="Guest_x5F_2">
	<g>
		<path class="st0" d="M779,88.5c0-0.8,0-1.7-0.1-2.5c-0.6-5.7-2.5-10.7-6.6-14.8c-2.7-2.7-5.8-4.4-9.6-4.9c-1.5-0.2-3-0.3-4.5-0.3
			c-6.5,0-13,0-19.6,0c-6.5,0-13,0-19.6,0c-1.2,0-2.4-0.1-3.5,0.1c-2.6,0.4-4.2,1.8-5,4.3c-0.6,1.9-0.4,3.6,0.4,5.4
			c0.8,1.8,2.1,3,4.2,3.2c1.5,0.1,3,0.2,4.5,0.2c12.4,0,24.7,0,37.1,0c1.3,0,2.7,0,4,0.1c2.7,0.2,4.7,1.7,5.9,4.1
			c1.2,2.3,1.5,4.7,1,7.3c-0.1,0.6-0.6,0.8-1.1,0.9c-1.3,0.1-2.7,0.1-4,0.1c-10.4,0-20.7,0-31.1,0c-1.5,0-3,0-4.5,0.1
			c-1.3,0-2.6,0.3-3.9,0.8c-4.6,1.7-7.9,4.8-10.3,9.1c-2.8,5-3.6,10.4-2.7,16c0.8,4.9,2.8,9.3,6.4,12.8c2.8,2.8,6.2,4.5,10.2,4.9
			c1.3,0.1,2.7,0.2,4,0.2c9.2,0,18.4,0,27.6,0c1.5,0,3-0.1,4.5-0.3c3.3-0.3,6.1-1.7,8.6-3.8c2.6-2.2,4.5-4.9,5.8-8.1
			c1.4-3.3,2-6.7,2-10.3C778.9,104.9,779,96.7,779,88.5z M767.7,114.5c-0.1,1.8-0.9,3.6-2.1,5c-1.2,1.5-2.7,2.4-4.7,2.5
			c-1,0-2,0.1-3,0.1c-9,0-18.1,0-27.1,0c-1.2,0-2.3,0-3.5-0.1c-1-0.1-1.9-0.5-2.8-1.1c-4.4-3.2-5.1-10.3-0.5-14.5
			c1.1-1,2.5-1.7,4.1-1.6c1.2,0,2.3,0,3.5,0c5.2,0,10.4,0,15.5,0c5.7,0,11.4,0,17.1,0c0.8,0,1.7,0,2.5,0.2c0.4,0.1,0.9,0.7,0.9,1
			C767.8,108.9,767.9,111.7,767.7,114.5z"/>
		<path class="st0" d="M219.6,109.8c1.5,0,3-0.1,4.5-0.1c10.5,0,21.1,0,31.6,0c1.7,0,3.4-0.1,5-0.4c5.6-1.1,9.7-4.5,12.4-9.3
			c3.8-6.8,4.3-13.9,1.6-21.3c-1.5-4-3.9-7.4-7.4-9.9c-3.4-2.4-7.2-3.2-11.4-3.2c-9.5,0.1-19,0-28.6,0c-0.5,0-1,0-1.5,0
			c-4.9,0.1-9.1,2-12.5,5.5c-1.9,1.9-3.3,4.2-4.3,6.7c-1.3,3.1-1.9,6.4-1.9,9.8c0,8.5,0,17,0,25.6c0,0.7,0,1.3,0.1,2
			c0.4,4.4,1.7,8.5,4.3,12.1c2.3,3.2,5.3,5.5,9,6.9c1.9,0.7,3.9,0.8,5.9,0.8c6.8,0,13.7,0,20.5,0c6.5,0,13,0,19.5,0
			c1.3,0,2.7,0,4-0.1c1.6,0,2.9-0.8,3.8-2.1c1.8-2.3,1.9-6.1,0.2-8.4c-1-1.4-2.4-2.3-4.2-2.5c-1.3-0.1-2.7-0.1-4-0.1
			c-12.2,0-24.4,0-36.6,0c-1.3,0-2.7,0-4,0c-3,0-5-1.6-6.4-4.1c-1.1-2.1-1.3-4.4-1.1-6.8C218.3,110.4,218.9,109.8,219.6,109.8z
			 M219.7,82.5c1.3-2.1,3.3-3.3,5.7-3.6c0.8-0.1,1.7-0.1,2.5-0.1c9,0,18.1,0,27.1,0c0.7,0,1.3,0,2,0c4.9,0.2,8.6,4.6,7.9,9.6
			c-0.2,1.3-0.6,2.6-1.2,3.8c-1.2,2.4-3.2,3.8-5.9,4.1c-1,0.1-2,0.1-3,0.1c-5.5,0-11,0-16.5,0c-5.3,0-10.7,0-16,0c-1,0-2,0-3-0.2
			c-0.4-0.1-1-0.4-1-1c0-2.8-0.1-5.7-0.1-8.5C218.3,85.2,218.9,83.8,219.7,82.5z"/>
		<path class="st0" d="M539.8,65.7c-5.3,0-10.7,0-16,0c-5,0-10,0-15,0c-5.7,0-10.3,2.4-13.9,6.8c-1.7,2.1-2.9,4.5-3.8,7
			c-1,2.9-1.2,5.9-1.2,8.9c0,8,0,16,0,24.1c0,1.2,0,2.3,0.1,3.5c0.4,4.4,1.9,8.5,4.6,12c2.3,3,5.2,5.2,8.8,6.4
			c1.9,0.7,3.9,0.7,5.9,0.7c6.8,0,13.7,0,20.5,0c6.5,0,13,0,19.5,0c1.3,0,2.7,0,4-0.1c1.2,0,2.2-0.6,3.1-1.5
			c2.6-2.3,2.5-7.2,0.3-9.6c-1.1-1.1-2.4-1.9-3.9-1.9c-1.3-0.1-2.7,0-4,0c-12.2,0-24.4,0-36.6,0c-1.3,0-2.7,0-4,0
			c-2.4,0-4.1-1.2-5.5-3c-1.1-1.5-1.8-3.2-1.8-5.1c0-3.9-0.5-4.2,4-4.1c2.2,0,4.3,0,6.5,0c9.2,0,18.4,0,27.6,0
			c7.8,0,13.3-3.7,17-10.4c1.7-3,2.5-6.2,2.8-9.6c0.5-6.4-1.1-12.3-5.1-17.3C550.2,68.1,545.6,65.7,539.8,65.7z M546.3,92.7
			c-1.2,2.2-3.2,3.4-5.6,3.7c-1.2,0.1-2.3,0.1-3.5,0.1c-5.3,0-10.7,0-16,0c-5.3,0-10.7,0-16,0c-1,0-2,0-3-0.2c-0.4-0.1-1-0.4-1-1
			c0-3-0.2-6,0-9c0.3-4.3,3.6-7.3,8-7.4c2.5-0.1,5,0,7.5,0c6.7,0,13.4,0,20,0c1.2,0,2.3,0,3.5,0c2.9,0.2,5.1,1.6,6.4,4.2
			C548.1,86.3,548.1,89.5,546.3,92.7z"/>
		<path class="st0" d="M640.3,80.9c-1-3.6-2.8-6.8-5.5-9.5c-2.8-2.8-6.1-4.7-10-5.2c-1.5-0.2-3-0.3-4.5-0.3c-11.7,0-23.4,0-35.1,0
			c-1,0-2,0-3,0.1c-2.5,0.3-4.2,1.7-5.1,4.2c-0.5,1.6-0.5,3.3-0.5,5c0,8.4,0,16.7,0,25.1c0,8.2,0,16.4,0,24.6c0,1.2-0.1,2.3,0,3.5
			c0.1,1.2,0.3,2.3,0.7,3.4c0.8,2,2.3,3.3,4.5,3.5c2.2,0.2,3.9-0.9,5-2.7c0.7-1.1,1.1-2.4,1.2-3.8c0-1.3,0-2.7,0-4
			c0-13.2,0-26.4,0-39.6c0-1.3,0-2.7,0-4c0-1,0.6-1.6,1.5-1.7c0.5,0,1-0.1,1.5-0.1c9.9,0,19.7,0,29.6,0c0.8,0,1.7,0.1,2.5,0.1
			c1.4,0,2.6,0.6,3.6,1.5c1.3,1.1,2.2,2.4,2.7,4.1c0.5,1.6,0.6,3.3,0.6,5c0,6.2,0,12.4,0,18.6c0,6,0,12,0,18.1c0,1.5,0.1,3,0.4,4.5
			c0.4,2.2,2.4,3.8,4.6,4.1c2.1,0.3,4.3-1,5.3-3c0.7-1.4,1-2.8,1-4.4c0-13.2,0-26.4,0-39.6C641.4,85.8,641,83.3,640.3,80.9z"/>
		<path class="st0" d="M358.7,89.7c0-1.5,0-3-0.1-4.5c-0.6-5.3-2.6-10-6.4-13.8c-2.8-2.8-6.1-4.6-10.1-5.1c-1.3-0.2-2.7-0.3-4-0.3
			c-12,0-24.1,0-36.1,0c-0.8,0-1.7,0-2.5,0.1c-2.8,0.4-4.9,2.5-5.2,5.3c-0.1,1.5-0.1,3-0.1,4.5c0,8.4,0,16.7,0,25.1
			c0,8.2,0,16.4,0,24.6c0,1.5,0.1,3,0.1,4.5c0.1,1.4,0.7,2.6,1.6,3.6c1.9,2.1,5.1,2.3,7.2,0.4c1.4-1.3,2.2-2.9,2.3-4.8
			c0-1.3,0-2.7,0-4c0-13.2,0-26.4,0-39.6c0-1.5,0-3,0.1-4.5c0-0.8,0.7-1.5,1.6-1.5c1,0,2,0,3,0c9,0,18.1,0,27.1,0c1,0,2,0,3,0
			c2.4,0.1,4.1,1.2,5.5,3.1c1.1,1.5,1.8,3.2,1.8,5.1c0,1.3,0,2.7,0,4c0,11.2,0,22.4,0,33.6c0,1.3,0,2.7,0.1,4c0,1.6,0.7,2.9,1.6,4.1
			c1.4,1.8,3.8,2.2,5.4,1.6c2.3-0.8,3.5-2.5,3.9-4.8c0.2-1.3,0.2-2.7,0.2-4C358.7,114.1,358.7,101.9,358.7,89.7z"/>
		<path class="st0" d="M438.5,65.6c-2.6-0.4-4.4,0.5-5.7,3c-0.7,1.3-1.3,2.7-2,4.1c-6.6,14-13.3,28-19.9,42.1
			c-0.7,1.5-1.5,3-2.2,4.5c-0.2,0.4-0.9,0.4-1.2-0.1c-0.4-0.7-0.8-1.4-1.2-2.2c-3.9-8.1-7.7-16.3-11.6-24.4
			c-3.4-7.2-6.8-14.5-10.3-21.7c-0.5-1.1-1-2.1-1.7-3.1c-2-3-6.8-3.2-8.8,0.3c-1.3,2.3-1.7,4.7-0.5,7.2c0.9,2,1.8,3.9,2.7,5.9
			c7.8,16.4,15.7,32.8,23.4,49.3c1.7,3.7,4.1,5.5,7.1,5.1c2.3-0.1,3.5-0.1,4.6-0.2c1.8-0.2,3.2-1.1,4.1-2.6c0.8-1.3,1.4-2.6,2.1-4
			c7.9-16.9,15.8-33.8,23.8-50.8c0.4-0.9,0.9-1.8,1.3-2.7c0.6-1.6,0.8-3.2,0.5-4.9C442.5,68,440.6,65.9,438.5,65.6z"/>
		<path class="st0" d="M687.4,122c-2.2-0.1-4.3,0-6.5,0c-1.2,0-2.3,0-3.5,0c-2.2,0-3.8-1-5.2-2.6c-0.8-0.9-1.3-1.9-1.7-3.1
			c-0.4-1.5-0.6-2.9-0.6-4.5c0-10,0-20.1,0-30.1c0-0.5,0-1,0.2-1.5c0.2-0.4,0.6-0.8,1-0.9c0.8-0.2,1.7-0.2,2.5-0.2c4,0,8,0,12,0
			c1.2,0,2.3-0.1,3.5-0.2c1.6-0.2,2.8-1,3.7-2.3c1.5-2.3,1.5-5.8,0-8.1c-1-1.5-2.4-2.3-4.1-2.6c-1-0.1-2-0.1-3-0.1c-4,0-8,0-12,0
			c-0.8,0-1.7-0.1-2.5-0.1c-0.6,0-1.2-0.7-1.2-1.3c0-0.8-0.1-1.7-0.1-2.5c0-3.5,0-7,0-10.5c0-1.2-0.1-2.3-0.2-3.5
			c-0.1-1.6-0.9-2.8-2-3.9c-2.2-2.1-5.7-1.8-7.5,0.6c-0.9,1.2-1.5,2.6-1.6,4.2c0,1.3,0,2.7,0,4c0,9.7,0,19.4,0,29.1
			c0,9.4,0,18.7,0,28.1c0,1.2,0,2.3,0,3.5c-0.1,2.5,0.4,5,1.1,7.4c1.1,3.7,3,7.1,5.9,9.8c2.7,2.6,5.9,4.3,9.7,4.7
			c4.5,0.5,9,0.3,13.5,0.1c0.2,0,0.3-0.1,0.5-0.1c2-0.4,3.4-1.5,4.1-3.3c0.4-1.1,0.7-2.3,0.7-3.4C694.1,124.6,691.5,122.1,687.4,122
			z"/>
		<path class="st0" d="M468.7,67.5c-1.6-1.5-3.5-1.8-5.6-0.9c-1.8,0.8-3,2.2-3.3,4.1c-0.2,1.5-0.3,3-0.3,4.5c0,8.5,0,17,0,25.6
			c0,8,0,16,0,24.1c0,1.3,0,2.7,0,4c0,0.8,0.1,1.7,0.4,2.5c0.7,2,2,3.4,4.2,3.9c2.2,0.5,3.9-0.3,5.3-2c0.8-1.1,1.4-2.3,1.5-3.7
			c0-1.2,0.1-2.3,0.1-3.5c0-16.9,0-33.8,0-50.6c0-1.2,0-2.3-0.1-3.5C470.8,70.1,470,68.7,468.7,67.5z"/>
		<path class="st0" d="M465.7,42.4c-3.2-0.1-6.1,2.2-6.1,5.8c0,3.2,2.4,5.7,5.6,5.7c3.2,0,5.7-2.3,5.9-5.5
			C471.2,45.1,468.4,42.6,465.7,42.4z"/>
	</g>
</g>
<g id="Guest_x5F_3">
	<text transform="matrix(1 0 0 1 779.5127 51.4819)" class="st0 st1 st2">TM</text>
</g>
<g id="Guest_x5F_4">
	<g>
		<path class="st0" d="M745.1,152.1c-0.2,0-0.3,0-0.5,0c-0.9,0.1-1.6,0.7-1.6,1.6c0,1.8,0,3.7,0,5.5c0,2,0,4-0.1,6
			c0,0.1-0.1,0.4-0.2,0.4c-0.3,0-0.7,0.1-0.8-0.1c-1.5-2.6-2.9-5.2-4.4-7.8c-3.9-6.8-1.6-5.4-9.5-5.6c-0.3,0-0.7,0-1,0.1
			c-0.8,0.1-1.5,0.8-1.5,1.7c0,0.5-0.1,1-0.1,1.5c0,2.8,0,5.7,0,8.5c0,0,0,0,0,0c0,3.2,0,6.3,0,9.5c0,0.7,0.1,1.3,0.3,2
			c0.1,0.3,0.4,0.7,0.6,0.7c1.5,0.3,3,0.4,4.5-0.1c0.3-0.1,0.6-0.4,0.7-0.7c0.1-0.8,0.2-1.6,0.2-2.5c0-3.3,0-6.7,0-10
			c0-0.1,0.1-0.3,0.2-0.4c0.4-0.2,0.6-0.1,0.8,0.2c1.6,2.9,3.2,5.8,4.8,8.7c3.2,5.8,1.6,4.7,8.4,4.8c0.7,0,1.4,0,2-0.1
			c0.4-0.1,0.9-0.5,1-0.9c0.2-1,0.3-2,0.3-3c0-5.3,0-10.7,0-16C749.3,152.1,749.2,151.9,745.1,152.1z"/>
		<path class="st0" d="M313.6,155c0-0.7-0.1-1.3-0.2-2c-0.1-0.3-0.4-0.6-0.7-0.7c-1.5-0.4-3-0.3-4.5-0.1c-0.3,0-0.6,0.4-0.7,0.7
			c-0.2,0.5-0.2,1-0.2,1.5c0,2.5,0.1,5,0.1,7.5c0,1,0,2,0,3c0,0.9-0.3,1.3-0.6,1.1c-0.3-0.2-0.6-0.3-0.8-0.5
			c-1.5-2.6-2.9-5.2-4.4-7.9c-3.8-6.7-1.9-5.4-9.5-5.5c-0.3,0-0.7,0-1,0c-0.9,0.1-1.5,0.7-1.5,1.6c0,6.8,0,13.7,0,20.5
			c0,0.3,0.1,0.7,0.2,1c0.2,0.3,0.4,0.6,0.7,0.7c1.5,0.4,3,0.3,4.5,0.1c0.3,0,0.6-0.4,0.6-0.7c0.2-0.6,0.3-1.3,0.3-2
			c0-2.5-0.1-5-0.1-7.5c0-0.8,0-1.7,0-2.5c0-0.9,0.3-1.3,0.6-1.1c0.3,0.2,0.6,0.3,0.8,0.5c1.5,2.6,2.9,5.3,4.3,7.9
			c3.8,6.8,1.9,5.4,9.5,5.6c0.3,0,0.7,0,1-0.1c0.9-0.1,1.5-0.7,1.5-1.6c0-3.3,0-6.7,0-10c0,0,0,0,0.1,0
			C313.6,161.3,313.6,158.1,313.6,155z"/>
		<path class="st0" d="M777.5,162.6c-1.5-0.1-3-0.2-4.5-0.2c0,0,0,0,0,0.1c-1,0-2,0-3,0c-0.7,0-1.3,0.1-2,0.1
			c-0.5,0-1.3,0.8-1.3,1.3c0,0.5-0.1,1-0.1,1.5c0,1.3,0.5,2,1.6,2c1,0.1,2,0,3,0.2c0.4,0.1,0.9,0.6,1,0.9c0.1,0.4-0.1,1-0.4,1.4
			c-0.3,0.4-0.7,0.7-1.2,0.8c-2,0.4-4,0.3-6-0.1c-1-0.2-1.8-1.1-1.8-2.1c0-3,0-6,0-9c0-1.2,1-2.1,2.3-2.2c1.5-0.1,3-0.1,4.5-0.1
			c1.3,0,2.3,0.5,2.7,1.7c0.4,1.1,1.2,1.5,2.3,1.5c0.8,0,1.7,0,2.5-0.1c0.9-0.1,1.6-0.8,1.5-1.6c-0.2-4.3-2.2-6.6-6.4-6.8
			c-2.8-0.1-5.7,0-8.5,0c-0.8,0-1.7,0.2-2.4,0.4c-2.6,0.9-4.3,2.5-4.7,5.3c-0.7,4.3-0.7,8.6,0,12.9c0.4,2.1,1.6,3.6,3.6,4.5
			c1.1,0.5,2.2,0.9,3.4,0.9c2.7,0,5.3,0,8,0c1.4,0,2.6-0.5,3.8-1c1.3-0.6,2.2-1.5,2.7-2.8c0.2-0.6,0.5-1.3,0.5-1.9
			c0.1-2.2,0.1-4.3,0.1-6.5C778.8,163.4,778.1,162.7,777.5,162.6z"/>
		<path class="st0" d="M444.9,159c-0.2-4.3-2.2-6.7-6.9-6.9c-4.2-0.1-8.3,0-12.5,0c-1.1,0-1.7,0.7-1.7,2c0,3.2,0,6.3,0,9.5
			c0,0,0,0,0,0c0,3.2,0,6.3,0,9.5c0,0.7,0,1.3,0.2,2c0.1,0.5,0.4,0.9,1,1c0.7,0.1,1.3,0.1,2,0.1c2.6,0,3-0.3,3-2.7
			c0-1.2,0-2.3,0.2-3.5c0.1-0.4,0.4-0.9,1-0.9c1.8-0.2,3.7-0.3,5.5,0c0.6,0.1,1.3,0.7,1.3,1.3c0.1,1.2,0.1,2.3,0.2,3.5
			c0,0.5,0.1,1,0.3,1.4c0.1,0.3,0.4,0.6,0.7,0.7c5.1,0.7,5.7,0.6,5.6-4c0-1.9-0.4-3.6-1.3-5.3c-0.4-0.7-0.4-0.7,0.2-1.8
			C444.7,163,445,161.1,444.9,159z M437.9,162.5c-0.1,0.3-0.5,0.5-0.8,0.5c-1.1,0.1-2.3,0.2-3.4,0.3c0,0,0-0.1,0-0.1
			c-0.7,0-1.3,0-2,0c-1,0-1.6-0.5-1.6-1.4c0-1,0-2,0-3c0-0.7,0.6-1.3,1.2-1.3c1.5-0.1,3-0.1,4.5-0.1c0.8,0,1.7,0.1,2.2,0.9
			C438.7,159.7,438.6,161.1,437.9,162.5z"/>
		<path class="st0" d="M617,152.4c-0.5-0.1-1-0.2-1.5-0.2c-4.5,0-9,0-13.5,0c-0.6,0-1.3,0.6-1.4,1.2c-0.1,0.5-0.1,1-0.1,1.5
			c0,3,0,6,0,9c0,0,0,0,0,0c0,3.5,0,7,0,10.5c0,0.9,0.7,1.7,1.5,1.7c1.2,0,2.3,0.1,3.5-0.1c0.4,0,0.8-0.5,1-0.9
			c0.2-0.4,0.2-1,0.3-1.5c0.1-1.2,0.1-2.3,0.1-3.5c0-0.5,0.9-1.3,1.4-1.3c1.2,0,2.3-0.1,3.5-0.1c2.6,0,3.2,0.6,3.4,3.2
			c0,0.7,0,1.3,0,2c0.1,1.4,0.4,2.1,2.1,2.1c4,0.1,4.2-0.1,4.2-4.1c0-2-0.2-4-1.3-5.8c-0.3-0.5,0-0.9,0.2-1.3c0.7-1,1.1-2.1,1.1-3.3
			c0-1.3,0.1-2.7,0-4C621.3,154.9,619.7,153.1,617,152.4z M615.3,161.6c-0.1,0.7-1,1.6-1.7,1.6c-1,0-2,0-3,0c0,0,0,0.1,0,0.1
			c-0.8,0-1.7-0.1-2.5-0.1c-0.6,0-1-0.4-1.1-0.9c-0.3-1.3-0.3-2.7,0.1-4c0.2-0.4,0.5-0.9,1.1-0.9c1.7,0,3.3-0.1,5-0.1
			c1.3,0,2.2,0.9,2.2,2.2C615.4,160.3,615.3,161,615.3,161.6z"/>
		<path class="st0" d="M355.7,162.1c-3.3-0.3-6.6-0.6-9.9-1c-0.4-0.1-0.9-0.4-1.3-0.7c-0.5-0.5-0.7-1.1-0.5-1.8
			c0.2-0.6,0.6-1.3,1.4-1.3c1.7-0.1,3.3-0.1,5-0.1c0.7,0,1.2,0.5,1.3,1.3c0.2,1.2,0.9,1.7,2,1.7c1.3,0,2.7,0,4,0
			c0.5-1.3,0.2-2.6,0-3.9c-0.2-1-0.7-1.9-1.5-2.5c-0.9-0.8-1.9-1.4-3.1-1.5c-3.5-0.4-7-0.4-10.5,0.1c-0.3,0-0.6,0.1-1,0.3
			c-1.7,0.6-2.9,1.6-3.5,3.3c-0.8,2.1-0.8,4.2-0.1,6.4c0.5,1.7,1.7,2.8,3.3,3.6c0.1,0.1,0.3,0.2,0.4,0.3c2.8,0.2,5.6,0.3,8.4,0.6
			c1.4,0.1,2.1,1.1,2,2.3c-0.1,1.3-0.9,2-2.3,2.1c-1.2,0.1-2.3,0.1-3.5,0c-1.7-0.1-2.2-0.4-2.7-2.3c-0.3-1.2-1-1.6-2-1.8
			c-0.8,0.1-1.7,0.1-2.5,0.2c-0.9,0.1-1.6,0.8-1.6,1.6c0,0.8,0,1.7,0.1,2.5c0.3,1.9,1.4,3.4,3.2,4.1c0.9,0.4,1.9,0.7,2.9,0.7
			c2.7,0.1,5.3,0,8,0c1.4,0,2.7-0.3,3.8-1.1c0.7-0.4,1.4-1,1.8-1.7c1.3-2.1,1.4-4.4,1.1-6.8C358.3,164.7,357.2,163.3,355.7,162.1z"
			/>
		<path class="st0" d="M229.3,158.4c-0.4-3.6-2.5-5.6-6.1-6.2c-0.3-0.1-0.7-0.1-1-0.1c-2.5,0-5-0.1-7.5,0c-1,0-2,0.2-2.9,0.6
			c-1.8,0.6-3.1,1.8-3.7,3.8c-1,3.1-1,12.2,0,15.3c0.6,1.9,1.8,3.1,3.6,3.8c0.6,0.2,1.3,0.5,1.9,0.6c3,0.1,6,0.1,9,0
			c0.8,0,1.6-0.4,2.4-0.6c1.5-0.5,2.6-1.5,3.3-2.8c0.6-1,1-2.1,1-3.3c0-1.7,0-3.3,0-5c0,0,0,0-0.1,0
			C229.4,162.4,229.6,160.3,229.3,158.4z M222.9,168.9c-0.1,0.8-0.8,1.5-1.6,1.7c-2,0.6-3.9,0.6-5.9,0c-0.7-0.2-1.2-0.7-1.3-1.4
			c-0.2-1-0.4-2-0.4-3c0-2.2,0-4.3,0.2-6.5c0.1-1.5,1.1-2.4,2.6-2.5c1.5,0,3,0,4.5,0.1c0.9,0.1,1.9,1.1,2,2c0.1,1.7,0.2,3.3,0.3,5.1
			C223.2,165.9,223.2,167.4,222.9,168.9z"/>
		<path class="st0" d="M386.8,164.3c0-1.8,0.2-3.7,0-5.5c-0.4-3.9-2.5-6.1-6.3-6.6c-1.6-0.2-3.3-0.3-5-0.2c-1.7,0-3.3,0.1-5,0.3
			c-2.7,0.4-4.5,1.9-5.2,4.7c-0.2,0.6-0.4,1.3-0.4,1.9c0,3.3-0.1,6.6,0,10c0,1.1,0.4,2.3,0.8,3.4c0.4,1.3,1.4,2.2,2.6,2.9
			c1,0.6,2.1,1,3.3,1c2.7,0,5.3,0.1,8,0c0.8,0,1.6-0.3,2.4-0.5c1.9-0.5,3.2-1.7,3.9-3.5c0.4-0.9,0.7-1.9,0.8-2.9
			C386.9,167.6,386.8,165.9,386.8,164.3C386.8,164.3,386.8,164.3,386.8,164.3z M380.3,168.7c-0.1,1.1-0.9,1.8-2,2
			c-1.8,0.5-3.6,0.5-5.4,0c-0.9-0.2-1.4-0.9-1.6-1.8c-0.4-3.1-0.4-6.3-0.1-9.4c0-0.2,0.1-0.3,0.2-0.5c0.3-0.8,0.9-1.5,1.8-1.5
			c1.6-0.1,3.3-0.1,5-0.1c1.1,0,2.2,1.2,2.2,2.4c0.1,1.5,0,3,0,4.5c0.1,0,0.1,0,0.2,0C380.6,165.7,380.5,167.2,380.3,168.7z"/>
		<path class="st0" d="M415.7,153.8c0-0.9-0.7-1.6-1.5-1.6c-1,0-2,0-3,0c-1,0-1.6,0.6-1.7,1.5c-0.1,1.2-0.1,2.3-0.1,3.5
			c0,3.5,0,7,0,10.5c0,2.3-0.5,3.3-3.3,3.4c-1.2,0-2.3-0.1-3.5-0.2c-1.1-0.1-1.9-1-1.9-2c0-1-0.1-2-0.1-3c0-3.3,0-6.7,0-10
			c0-0.8,0-1.7-0.2-2.5c-0.1-0.4-0.3-0.9-0.9-1.1c-1.5-0.3-3-0.4-4.4,0.1c-0.3,0.1-0.5,0.4-0.7,0.7c-0.2,0.3-0.3,0.6-0.3,0.9
			c0,5-0.1,10,0,15c0,1.1,0.4,2.3,0.7,3.4c0.5,1.5,1.6,2.6,3.1,3.1c0.8,0.3,1.6,0.6,2.4,0.7c3.2,0.1,6.4,0.2,9.5-0.1
			c3.5-0.3,5.6-2.7,6-6.3c0.1-0.8,0.1-1.7,0.1-2.5c0-1.8,0-3.7,0-5.5c0,0-0.1,0-0.1,0C415.7,159.1,415.7,156.4,415.7,153.8z"/>
		<path class="st0" d="M702.7,153.8c-0.1-1-0.6-1.6-1.5-1.6c-0.8,0-1.7-0.1-2.5,0c-1.6,0-2.1,0.5-2.2,2c0,0.5,0,1,0,1.5
			c0,6.4,0.5,5.5-5.7,5.5c-0.7,0-1.3,0-2,0c-1.1,0-1.7-0.7-1.7-1.9c0-1.7,0-3.3-0.1-5c0-1.5-0.6-2.1-2.1-2.1c-1,0-2,0.1-3,0.1
			c-0.6,0-0.8,0.5-1.1,0.9c-0.1,0.3-0.2,0.6-0.2,1c0,6.7,0,13.3,0,20c0,0.3,0,0.7,0.2,1c0.2,0.4,0.5,0.9,1.1,0.9
			c0.5,0,1,0.1,1.5,0.1c3.4,0.1,3.6-0.1,3.6-3.7c0-1.3,0-2.7,0-4c0-0.3,0.1-0.7,0.2-1c0.2-0.3,0.4-0.6,0.7-0.7
			c1.3-0.1,2.6-0.3,4-0.3c4.8-0.1,4.5,0.2,4.5,4.3c0,1.2,0,2.3,0,3.5c0,0.3,0.1,0.7,0.2,1c0.2,0.3,0.4,0.6,0.7,0.7
			c1.3,0.1,2.6,0.1,4,0.1c0.6,0,1.2-0.7,1.2-1.3c0-3.5,0-7,0-10.5c0,0,0.1,0,0.1,0c0-3.3,0-6.7,0-10
			C702.8,154.1,702.7,153.9,702.7,153.8z"/>
		<path class="st0" d="M280.9,170.9c-1.3-0.1-2.6-0.2-4-0.2c-1.8-0.1-3.7-0.1-5.5-0.2c-0.6,0-0.8-0.5-1-1c-0.1-0.3-0.1-0.7-0.1-1
			c0-1.3,0.5-1.9,1.8-1.9c2.2,0,4.3,0,6.5-0.1c0.7,0,1.3-0.1,2-0.3c0.3-0.1,0.6-0.4,0.7-0.7c0.2-1.1,0.3-2.3-0.1-3.4
			c-0.1-0.3-0.4-0.6-0.7-0.7c-0.5-0.2-1-0.2-1.5-0.2c-2,0-4,0-6,0c-0.7,0-1.3-0.1-2-0.3c-0.2-0.1-0.5-0.4-0.6-0.7
			c-0.4-2.1,0.2-2.8,2.2-2.9c2.3,0,4.7,0,7,0c0.5,0,1-0.1,1.5-0.3c0.3-0.1,0.6-0.4,0.7-0.7c0.1-1,0.1-2,0.1-3c0-0.6-0.7-1.2-1.3-1.3
			c-0.2,0-0.3-0.1-0.5-0.1c-4.7,0-9.3,0-14,0c-0.3,0-0.7,0.1-1,0.1c-0.6,0.1-0.9,0.5-1,1c-0.2,0.6-0.2,1.3-0.2,2c0,2.8,0,5.7,0,8.5
			c0,0,0,0,0,0c0,2.2,0,4.3,0,6.5c0,1.2,0,2.3,0,3.5c0.1,1.9,0.6,2.5,2.3,2.5c4.5,0,9,0,13.5,0c0.5,0,1-0.1,1.5-0.2
			c0.3-0.1,0.6-0.4,0.7-0.7c0.4-0.9,0.4-1.9,0.2-2.9C282.1,171.7,281.5,171,280.9,170.9z"/>
		<path class="st0" d="M254.1,153.1c-1.2-0.6-2.5-1-3.8-1c-2,0-4,0-6,0c0,0,0,0,0,0c-2.2,0-4.3,0-6.5,0c-0.6,0-1.2,0.7-1.3,1.3
			c0,0.3-0.1,0.7-0.1,1c0,6.3,0,12.6,0,18.9c0,0.5,0.1,1,0.1,1.5c0.1,0.6,0.7,1.2,1.4,1.2c1.2,0,2.3,0,3.5,0c0.6,0,1.2-0.7,1.2-1.4
			c0.1-1.3,0.1-2.7,0.2-4c0-1,0.6-1.6,1.5-1.7c1.5,0,3-0.1,4.5-0.1c1.7,0,3.3-0.4,4.9-0.9c1.3-0.5,2.3-1.4,2.8-2.7
			c1.2-3.2,1.2-6.5,0-9.7C256,154.5,255.2,153.7,254.1,153.1z M250.8,162c-0.1,0.7-0.7,1.2-1.3,1.3c-1,0.1-2,0.2-2.9,0.2
			c-0.9-0.1-1.7-0.1-2.6-0.2c-0.6-0.1-1.2-0.7-1.2-1.4c0-1,0-2,0-3c0-0.8,0.8-1.5,1.6-1.5c1.5,0,3,0,4.5,0.1c1,0.1,1.8,0.9,1.9,2
			C250.9,160.3,250.8,161.1,250.8,162z"/>
		<path class="st0" d="M539,170.8c-0.5,0-1-0.1-1.5-0.1c-2.3,0-4.7,0-7-0.1c-1.6,0-2.4-1.8-1.5-3.3c0.2-0.3,0.4-0.6,0.7-0.6
			c0.6-0.1,1.3-0.2,2-0.2c2.2,0,4.3,0,6.5-0.1c0.8,0,1.5-0.7,1.6-1.6c0.3-3.5-0.7-3.6-3.2-3.6c-0.7,0-1.3,0-2,0
			c-1.7,0-3.3-0.1-5-0.1c-0.3,0-0.9-0.6-0.9-1c0-0.5-0.1-1,0.1-1.5c0.2-0.4,0.5-0.9,0.9-1c0.6-0.2,1.3-0.2,2-0.2c2.3,0,4.7,0,7-0.1
			c0.9,0,1.5-0.6,1.6-1.6c0-0.7,0-1.3,0-2c0-0.9-0.7-1.6-1.5-1.6c-2,0-4-0.1-6-0.1c-2.8,0-5.7,0-8.5,0c-1.4,0-2,0.7-2,2.2
			c0,3.2,0,6.3,0,9.5c0,0,0,0,0,0c0,1.7,0,3.3,0,5c0,1.8,0,3.7,0,5.5c0,1.1,0.8,1.8,1.9,1.8c4.8,0,9.7,0,14.5,0
			c0.9,0,1.6-0.7,1.6-1.5c0-0.8,0-1.7,0-2.5C540.3,171.5,539.6,170.9,539,170.8z"/>
		<path class="st0" d="M496.8,170.9c-2-0.1-4-0.1-6-0.2c-1.2,0-2.3-0.1-3.5-0.2c-0.3,0-0.6-0.3-0.7-0.6c-0.7-2-0.1-3.2,1.6-3.3
			c1,0,2,0,3,0c1.5,0,3,0,4.5-0.1c1.1,0,1.7-0.7,1.7-2c0-0.5,0-1,0-1.5c-0.1-0.9-0.8-1.6-1.5-1.7c-0.5,0-1-0.1-1.5-0.1
			c-2.3,0-4.7-0.1-7-0.1c-0.6,0-1-0.7-1-1.4c0-1.7,0.5-2.2,2-2.2c2.3,0,4.7,0,7,0c0.7,0,1.3-0.1,2-0.3c0.3-0.1,0.6-0.4,0.7-0.7
			c0.1-1,0.1-2,0.1-3c0-0.6-0.7-1.3-1.3-1.3c-5,0-10-0.1-15-0.1c-0.9,0-1.6,0.6-1.6,1.5c0,3.3,0,6.7,0,10c0,0,0,0-0.1,0
			c0,0.8,0,1.7,0,2.5c0,2.8,0.1,5.7,0.1,8.5c0,0.6,0.6,1.3,1.2,1.4c0.3,0,0.7,0.1,1,0.1c4.5,0,9,0,13.5,0c0.3,0,0.7-0.1,1-0.1
			c0.6-0.1,1.2-0.7,1.2-1.4c0-0.8,0-1.7,0-2.5C498.1,171.6,497.4,170.9,496.8,170.9z"/>
		<path class="st0" d="M470,166.3c-0.5,0-1,0-1.5,0.1c-0.7,0.1-1.2,0.5-1.4,1.2c-0.1,0.3-0.1,0.7-0.2,1c-0.4,1.6-1.2,2.2-2.8,2.3
			c-1,0-2,0-3,0c-2.1-0.1-3.1-1-3.1-3.1c0-1.2,0-2.3,0-3.5c0,0,0,0,0,0c0-1.5,0-3,0-4.5c0.1-1.4,1.1-2.4,2.6-2.5
			c1.2-0.1,2.3-0.1,3.5,0c1.2,0,2.2,0.4,2.5,1.9c0.2,1.4,0.8,2.1,2.3,2c0.8-0.1,1.7,0,2.5-0.1c0.9,0,1.6-0.8,1.5-1.6
			c-0.1-1.1-0.3-2.3-0.5-3.4c-0.6-2.4-2.3-3.6-4.6-4c-3.3-0.5-6.7-0.5-10,0.1c-3.3,0.5-5.4,2.7-5.8,6c-0.5,4-0.5,8,0,12
			c0.4,3.2,2.2,5.1,5.3,5.8c0.5,0.1,1,0.2,1.5,0.2c2.7,0,5.3,0,8-0.1c1,0,1.9-0.4,2.9-0.7c1.9-0.6,2.9-2.1,3.3-4
			c0.1-0.5,0.1-1,0.2-1.5C473.4,166.8,472.9,166.3,470,166.3z"/>
		<path class="st0" d="M591.6,170.8c-2.3-0.1-4.7-0.1-7-0.1c-0.8,0-1.7-0.1-2.5-0.3c-0.2-0.1-0.5-0.4-0.6-0.7
			c-0.5-2.4,0.2-3.1,1.9-3.1c2-0.1,4,0,6-0.1c0.7,0,1.3-0.1,2-0.2c0.3-0.1,0.7-0.3,0.8-0.6c0.4-1.3,0.5-2.6-0.2-3.8
			c-0.1-0.2-0.5-0.5-0.8-0.5c-1-0.1-2-0.1-3-0.2c-2-0.1-4-0.1-6-0.2c-0.5,0-0.8-0.5-0.8-1.1c-0.1-1.9,0.3-2.6,2.1-2.6c2,0,4,0,6,0
			c0.8,0,1.7,0,2.5-0.2c0.4-0.1,0.8-0.6,1-1c0.2-0.2,0.1-0.6,0.2-1c0.1-2.5-0.4-3.1-2.7-3.2c-2,0-4,0-6,0c-2.7,0-5.3,0.1-8,0.1
			c-0.6,0-1.2,0.7-1.3,1.3c-0.1,0.5-0.1,1-0.1,1.5c0,3,0,6,0,9c0,0,0,0,0,0c0,2.3,0,4.7,0,7c0,1,0,2,0,3c0,1.3,0.5,2.2,2.1,2.2
			c4.7,0,9.3,0,14,0c0.3,0,0.7,0,1-0.2c0.4-0.3,0.8-0.6,0.9-1c0.2-0.8,0.2-1.6,0.2-2.5C593.1,171.6,592.4,170.8,591.6,170.8z"/>
		<path class="st0" d="M568.7,152.3c-1.5-0.5-3-0.3-4.4-0.1c-0.4,0.1-0.9,0.5-1.1,0.9c-0.4,0.5-0.6,1.2-0.8,1.8
			c-1.3,3.6-2.5,7.3-3.7,10.9c-0.2,0.5-0.3,0.9-0.5,1.4c-0.1,0.1-0.2,0.4-0.3,0.4c-0.3-0.2-0.7-0.3-0.8-0.5
			c-1.2-3.3-2.4-6.6-3.6-9.9c-0.5-1.4-1-2.8-1.5-4.2c-0.1-0.3-0.5-0.5-0.7-0.6c-1.6-0.4-3.3-0.5-4.9,0.1c-0.2,0.1-0.4,0.5-0.4,0.8
			c0,0.5,0.1,1,0.3,1.5c2.2,6.5,4.4,12.9,6.6,19.4c0.1,0.3,0.3,0.6,0.4,0.9c0.3,0.7,0.7,1.1,1.5,1.1c0.8,0,1.7,0,2.5,0
			c0,0,0,0,0,0.1c0.8,0,1.7,0,2.5,0c1.5,0,2.1-0.4,2.6-1.8c2.3-6.6,4.6-13.2,6.9-19.9c0.2-0.5,0.2-1,0.1-1.5
			C569.2,152.8,568.9,152.4,568.7,152.3z"/>
		<path class="st0" d="M649.6,152.2c-1.5-0.1-3-0.1-4.5-0.1c-0.7,0-1.3,0.3-1.6,0.9c-0.9,1.4-1.7,2.8-2.6,4.2
			c-0.5,0.8-1.1,1.7-1.7,2.4c-0.1,0.1-0.7,0.1-0.8-0.1c-1.1-1.7-2.3-3.3-3.2-5c-1-2.1-2.6-2.9-4.5-2.6c-0.7,0-1,0-1.4,0
			c-0.2,0-0.3,0-0.5,0c-1.2,0-1.9,1-1.3,2c1.6,2.7,3.3,5.4,5,8.1c1,1.6,2.2,3,2.7,4.7c0.5,1.7,0.2,3.6,0.3,5.4c0,1,0.1,2,0.3,3
			c0,0.3,0.4,0.6,0.7,0.7c1.5,0.4,3,0.3,4.4,0c0.3-0.1,0.5-0.4,0.6-0.7c0.2-0.5,0.2-1,0.3-1.5c0.2-2.3-0.5-4.8,0.4-6.9
			c0.9-2.1,2.4-4,3.6-6c1.5-2.4,3-4.8,4.5-7.2C650.6,153.2,650.2,152.2,649.6,152.2z"/>
		<path class="st0" d="M673.1,152.2c-2.8,0-5.7,0-8.5,0c0,0,0,0,0,0c-2.8,0-5.7,0-8.5,0c-0.9,0-1.6,0.6-1.6,1.5c0,0.7,0,1.3,0,2
			c0,1,0.5,1.6,1.4,1.7c1.5,0.1,3,0.2,4.5,0.3c0.3,0,0.6,0.4,0.7,0.6c0.2,0.6,0.3,1.3,0.3,2c0,4.2,0,8.3,0,12.5
			c0,0.8,0.1,1.7,0.2,2.5c0.1,0.3,0.4,0.7,0.6,0.7c1.5,0.3,3,0.4,4.5,0c0.3-0.1,0.6-0.4,0.7-0.7c0.2-0.6,0.3-1.3,0.3-2
			c0-3.8,0-7.7,0-11.5c0-1,0.1-2,0.1-3c0-0.6,0.7-1.3,1.3-1.3c1.3-0.1,2.7-0.1,4-0.2c0.9,0,1.5-0.7,1.6-1.6c0-0.7,0-1.3,0-2
			C674.6,152.9,673.9,152.2,673.1,152.2z"/>
		<path class="st0" d="M717.3,154.9c0-0.6-0.2-1.3-0.4-1.9c-0.1-0.3-0.4-0.6-0.7-0.6c-1.5-0.4-3-0.4-4.4,0c-0.3,0.1-0.6,0.4-0.7,0.6
			c-0.2,0.3-0.3,0.6-0.3,0.9c0,6.8,0,13.7,0,20.5c0,0.3,0.1,0.7,0.3,0.9c0.2,0.3,0.4,0.6,0.7,0.7c1.5,0.4,3,0.4,4.4,0
			c0.3-0.1,0.6-0.4,0.7-0.6c0.2-0.6,0.4-1.3,0.4-1.9c0-3,0-6,0-9c0,0,0,0,0,0C717.4,161.2,717.4,158.1,717.3,154.9z"/>
	</g>
</g>
<g id="Layer_6">
	<g>
		<g>
			<path class="st0" d="M163.8,103.5c-0.1,0-0.1,0.1-0.1,0.2c0,1.8-0.3,3.6-0.6,5.4c-0.4,2.9-1.2,5.7-2.1,8.5
				c-0.6,1.7-1.2,3.3-2,4.9c-1.3,2.8-2.8,5.5-4.6,8.1c-1,1.5-2.2,3-3.4,4.4c-1.4,1.7-2.9,3.1-4.5,4.6c-1.5,1.4-3.1,2.6-4.7,3.8
				c-2.1,1.6-4.4,2.9-6.7,4.2c0,0-0.1,0-0.1,0c-0.1-0.1-0.1-0.3-0.1-0.4c0-6.7,0-13.4,0-20.1c0-0.3,0.1-0.6,0.3-0.7
				c0.5-0.3,0.9-0.8,1.3-1.2c1.1-1.2,2.1-2.4,3.1-3.6c0.9-1.3,1.7-2.6,2.5-3.9c1.3-2.2,2.2-4.6,3-7.1c0.5-1.6,0.8-3.2,1.1-4.9
				c0.2-1.6,0.4-3.2,0.4-4.8c0-1,0-2.1-0.1-3.1c-0.1-1.4-0.3-2.8-0.5-4.2c-0.4-1.9-0.9-3.8-1.5-5.6c-0.9-2.5-2-4.8-3.4-7
				c-1.2-1.9-2.6-3.7-4.1-5.3c-1.2-1.3-2.6-2.5-4-3.7c-2-1.7-4.3-3-6.6-4.2c-2.6-1.2-5.2-2.2-8-2.8c-1.6-0.3-3.1-0.6-4.7-0.7
				c-0.6-0.1-1.3,0-1.9-0.1c-0.9-0.1-1.8,0-2.8,0c-1.6,0-3.2,0.3-4.8,0.6c-1.9,0.4-3.8,0.9-5.7,1.5c-2.4,0.9-4.7,2-6.9,3.4
				c-1.9,1.2-3.7,2.6-5.4,4.2c-1.8,1.7-3.4,3.5-4.8,5.5c-1.1,1.6-2.1,3.2-3,5c-1.3,2.6-2.3,5.4-2.8,8.2c-0.3,1.6-0.6,3.1-0.7,4.7
				c-0.1,0.7,0,1.5-0.1,2.2c-0.1,0.6,0,1.2,0,1.8c0,1.9,0.3,3.7,0.6,5.5c0.3,1.9,0.9,3.8,1.5,5.6c0.9,2.4,2,4.7,3.4,6.9
				c1.2,1.9,2.6,3.7,4.2,5.4c0.5,0.6,1,1.2,1.6,1.6c0.2,0.1,0.1,0.3,0.1,0.5c0,6.8,0,13.6,0,20.5c0,0.1,0,0.2,0,0.4
				c-1-0.6-2.1-1.1-3.1-1.7c-1.8-1.1-3.6-2.3-5.3-3.6c-0.9-0.7-1.7-1.4-2.6-2.1c-1.3-1.1-2.5-2.3-3.7-3.6c-1-1.1-2-2.2-2.9-3.4
				c-0.7-0.8-1.7-1.4-2.8-1.5c-0.7-0.1-1.3,0.2-2,0.4c-3.1,0.8-6.3,1.6-9.3,2.7c-2.1,0.7-4.1,1.6-6.1,2.5c-2.8,1.3-5.4,2.8-7.9,4.5
				c-1.1,0.8-2.1,1.6-3.1,2.5c-1.8,1.6-3.3,3.5-4.7,5.6c-1.3,2-2.3,4.1-3.1,6.3c-0.5,1.3-0.7,2.8-1.3,4.1c-0.5,1.1-1.1,2.1-1.8,3.1
				c-1.4,1.8-3.2,3.1-5.2,4.1c-1.2,0.5-2.5,1-3.9,1.1c-0.1,0-0.1,0-0.1,0.1c-1.1,0-2.2,0-3.3,0c-0.6-0.1-1.3-0.1-2-0.3
				c-5.4-1.6-8.8-5.1-10.2-10.6c-0.1-0.4-0.1-0.9-0.2-1.3c0-1.1,0-2.2,0-3.3c0.2-0.6,0.2-1.2,0.4-1.9c0.6-2.1,1.5-4,3-5.6
				c1.2-1.5,2.7-2.6,4.5-3.4c1.1-0.6,2.4-0.9,3.6-1.2c1.2-0.3,2.5-0.2,3.7-0.2c1.3,0,2.5,0.3,3.7,0.8c0.6,0.2,1.3,0.3,1.9,0.4
				c1.4,0.3,2.8,0.4,4.2,0.4c1,0,2,0,3-0.1c0.9-0.1,1.8-0.2,2.6-0.3c2-0.4,4-1,5.9-1.8c2.1-0.9,4.1-2,6-3.1c1.7-1,3.3-2.1,4.9-3.3
				c1.7-1.3,3.3-2.6,4.9-4c1.5-1.3,2.9-2.7,4.3-4.1c0.7-0.8,1.6-1.5,2.2-2.4c0.6-0.9,0.6-1.9,0.5-2.9c-0.2-1.3-0.8-2.4-1.2-3.7
				c-0.7-2.2-1.3-4.4-1.7-6.6c-0.3-1.6-0.5-3.2-0.6-4.8c-0.3-2.6-0.2-5.2-0.1-7.9c0.1-2.1,0.4-4.3,0.8-6.4c0.4-2.2,0.9-4.3,1.5-6.4
				c0.4-1.4,1.1-2.8,1.5-4.3c0.4-1.2,0.4-2.4-0.5-3.4c-1-1.1-2.1-2.3-3.1-3.4c-1.3-1.5-2.8-2.8-4.2-4.1c-2.5-2.2-5.1-4.2-8-5.8
				c-1.8-1-3.7-2-5.7-2.7c-1.3-0.4-2.6-0.6-3.9-0.8c-0.8-0.1-1.5-0.1-2.3-0.1c-1.1,0-2.2,0.1-3.3,0.2c-2,0.2-3.8,0.9-5.9,0.8
				c-1.7-0.1-3.2-0.6-4.6-1.4c-0.9-0.5-1.7-1.1-2.3-1.8c-1.5-1.6-2.5-3.5-2.8-5.7c-0.3-2.2-0.1-4.4,1-6.5c1.5-2.9,3.9-4.8,7.1-5.5
				c3.2-0.7,6.2-0.1,8.9,2c2.1,1.6,3.3,3.8,3.9,6.3c0.2,0.9,0.5,1.6,0.8,2.4c0.7,1.6,1.6,3.2,2.7,4.6c1.1,1.4,2.3,2.7,3.7,3.8
				c2.1,1.7,4.5,3,6.9,4.2c1.9,0.9,3.9,1.7,5.8,2.4c2.1,0.7,4.3,1.3,6.4,1.9c1.3,0.3,2.6,0.6,4,0.8c0.9,0.1,1.8-0.3,2.5-0.9
				c1.1-0.9,1.9-2,2.9-3c0.6-0.7,1.2-1.3,1.9-1.9c0.7-0.7,1.4-1.4,2.1-2c1.6-1.4,3.2-2.7,5-3.9c2.4-1.7,4.9-3.2,7.5-4.4
				c3-1.4,6-2.6,9.2-3.4c2-0.5,4-0.9,6-1.3c0.6-0.1,1.1-0.1,1.7-0.3c0.8-0.3,1.2-1,1.6-1.6c1.2-2.1,2.2-4.2,2.9-6.5
				c0.4-1.4,0.6-2.8,0.7-4.3c0.1-1.8-0.2-3.6-0.8-5.3c-0.7-1.8-1.6-3.4-2.9-4.8c-1.5-1.5-2.1-3.4-1.9-5.4c0.4-2.9,2-4.8,4.8-5.7
				c0.2-0.1,0.5,0,0.7-0.2c0.8,0,1.6,0,2.4,0c3,0.3,5.1,3,5.5,5.4c0.4,2.3-0.2,4.3-1.9,6.1c-1.9,2-3.1,4.5-3.5,7.3
				c-0.4,3,0.1,5.9,1.2,8.7c0.7,1.8,1.5,3.5,2.5,5.1c0.5,0.8,1.2,1.3,2.1,1.4c3.3,0.5,6.6,1.2,9.8,2.3c6.4,2.2,12.2,5.4,17.4,9.8
				c5.2,4.4,9.4,9.5,12.6,15.5c3.1,5.7,5.1,11.8,6,18.3c0.2,1.2,0.2,2.4,0.2,3.5c0,0.1-0.1,0.3,0,0.4
				C163.8,99.1,163.8,101.3,163.8,103.5z"/>
			<path class="st0" d="M110.6,125c2.3,0,4.6,0,7,0c1.5,0,2.6,1.1,2.6,2.6c0,1.2-0.9,2.3-2.2,2.5c-0.6,0.1-1.2,0.1-1.7,0.1
				c-4.1,0-8.2,0-12.3,0c-0.6,0-1.2-0.1-1.8-0.4c-1.1-0.7-1.4-2.1-1-3.2c0.4-1.1,1.3-1.6,2.4-1.6C106,125,108.3,125,110.6,125z"/>
			<path class="st0" d="M110.6,150.3c-2.3,0-4.6,0-6.9,0c-0.8,0-1.5-0.2-2-0.8c-0.7-0.8-0.8-1.7-0.5-2.7c0.3-0.9,1-1.5,2.1-1.6
				c0.6-0.1,1.3-0.1,1.9-0.1c4,0,8,0,12.1,0c0.7,0,1.3,0.1,1.9,0.5c0.8,0.6,1.2,1.4,1.1,2.4c-0.2,1.3-0.8,1.9-1.9,2.2
				c-0.3,0.1-0.6,0.1-1,0.1C115,150.3,112.8,150.3,110.6,150.3z"/>
			<path class="st0" d="M110.5,140.2c-2.4,0-4.7,0-7.1,0c-1.2,0-2.5-1.2-2.4-2.4c0.1-1.4,0.6-2.2,1.9-2.6c0.2-0.1,0.3-0.1,0.5-0.1
				c4.8,0,9.5,0,14.3,0c1.1,0,2.1,0.9,2.4,2c0.4,1.6-1,3.2-2.7,3.1C115.1,140.1,112.8,140.2,110.5,140.2z"/>
		</g>
	</g>
	<path class="st0" d="M111.9,81.6c-5.3-0.3-10,1.3-13.9,5c-3.8,3.6-5.6,8-5.7,14.3c0,3.7,1.6,7.8,4.8,11.3c3.5,3.8,7.8,5.7,12.9,5.9
		c4.8,0.2,9.1-1.4,12.8-4.6c4-3.5,6.1-8,6.1-13.3C128.9,89.6,120.8,82.2,111.9,81.6z"/>
</g>
</svg>
