<?xml version="1.0" encoding="utf-8"?>
<!-- Generator: Adobe Illustrator 20.1.0, SVG Export Plug-In . SVG Version: 6.00 Build 0)  -->
<svg version="1.1" xmlns="http://www.w3.org/2000/svg" xmlns:xlink="http://www.w3.org/1999/xlink" x="0px" y="0px" width="200px"
	 height="200px" viewBox="0 0 200 200" style="enable-background:new 0 0 200 200;" xml:space="preserve">
<style type="text/css">
	.st0{display:none;}
	.st1{display:inline;}
	.st2{fill:#115BAA;}
	.st3{fill:#FFFFFF;}
	.st4{fill:#5191CD;}
	.st5{fill:#1B3967;}
	.st6{display:inline;opacity:0.3;fill:#FFFFFF;}
	.st7{display:inline;opacity:0.1;fill:#010101;}
	.st8{fill:#B9CEEB;}
	.st9{fill:#E2EEF1;}
	.st10{display:inline;opacity:0.2;fill:#FFFFFF;}
	.st11{display:inline;opacity:0.1;fill:#FFFFFF;}
	.st12{display:inline;opacity:0.7;fill:#FFFFFF;}
	.st13{opacity:0.2;fill:#FFFFFF;}
	.st14{opacity:0.1;fill:#010101;}
</style>
<g id="default">
</g>
<g id="Layer_1" class="st0">
	<g class="st1">
		<path class="st2" d="M144.3,130H125v7.9c0,1.8-1.9,2.1-3.7,2.1H78.6c-1.8,0-3.6-0.3-3.6-2.1V130H54.2l-10.3,23h110.5L144.3,130z
			 M108.2,150H91.7c-1.8,0-3.3-1.7-3.3-3.5c0-1.8,1.5-3.5,3.3-3.5h16.4c1.8,0,3.3,1.7,3.3,3.5C111.4,148.3,110,150,108.2,150z"/>
		<path class="st3" d="M82,134h36v-15.2c0-3.4,2.8-7.1,6.7-12.2c5.5-7.2,13-17.1,13-27.5c0-21-17.1-39.3-36.5-39.3
			c-18.3,0-38.8,16.8-38.8,39.3c0,10.3,7.5,20.3,12.9,27.5c3.9,5.1,6.7,8.9,6.7,12.2V134z M81.9,81.4c-1.8,0-3.3-1.5-3.3-3.3
			c0-4.9,3.5-14.5,16.9-15.9c1.8-0.2,3.4,1.1,3.6,2.9c0.2,1.8-1.1,3.4-2.9,3.6c-10.9,1.1-11,9-11,9.3C85.2,79.9,83.7,81.4,81.9,81.4
			z"/>
		<polygon class="st4" points="43,193 155.9,193 156.1,160 43,160 		"/>
		<path class="st5" d="M67.4,33.9c0.7,0.8,1.6,1.1,2.5,1.1c0.8,0,1.5-0.3,2.1-0.8c1.4-1.2,1.5-3.3,0.3-4.6L61,16.4
			c-1.2-1.4-3.3-1.5-4.6-0.3c-1.4,1.2-1.5,3.3-0.3,4.6L67.4,33.9z"/>
		<path class="st5" d="M134,35.4c0.7,0,1.3-0.2,1.9-0.6l14.7-10.6c1.5-1.1,1.8-3.1,0.8-4.6c-1.1-1.5-3.1-1.8-4.6-0.8L132,29.5
			c-1.5,1.1-1.8,3.1-0.8,4.6C131.9,34.9,132.9,35.4,134,35.4z"/>
		<path class="st5" d="M101.5,26.3c1.8,0,3.5-1.5,3.5-3.3V3.3c0-1.8-1.7-3.3-3.5-3.3C99.7,0,98,1.5,98,3.3V23
			C98,24.8,99.7,26.3,101.5,26.3z"/>
		<path class="st5" d="M162.2,155.7l-12.8-29.4c-0.5-1.2-1.7-2.3-3-2.3H125v-5.2c0-1.3,2.9-5.3,5.2-8.3c6-8,14.2-18.9,14.2-31.4
			c0-24.9-19.8-45.9-43.1-45.9c-21.4,0-45.4,19.6-45.4,45.9c0,12.5,8,23.5,14,31.4c2.2,3,5.2,7,5.2,8.3v5.2H52.1
			c-1.3,0-2.5,1.1-3,2.3l-12.8,28.9c-0.3,0.6-0.3,2.2-0.3,2.3V197c0,1.8,1.4,2,3.2,2h119.9c1.8,0,3.3-0.8,3.3-2.6l0.2-39.1
			c0-0.5-0.2-0.9-0.4-1.3C162.2,155.8,162.2,155.8,162.2,155.7z M75.3,106.5C69.9,99.3,62.4,89.4,62.4,79
			c0-22.5,20.5-39.3,38.8-39.3c19.5,0,36.5,18.4,36.5,39.3c0,10.3-7.5,20.2-13,27.5c-3.9,5.1-6.7,8.9-6.7,12.2V134H82v-15.2
			C82,115.4,79.2,111.7,75.3,106.5z M54.2,130H75v7.9c0,1.8,1.8,2.1,3.6,2.1h42.7c1.8,0,3.7-0.3,3.7-2.1V130h19.3l10.1,23H43.9
			L54.2,130z M155.9,193H43v-33h113.1L155.9,193z"/>
		<path class="st5" d="M108.2,143H91.7c-1.8,0-3.3,1.7-3.3,3.5c0,1.8,1.5,3.5,3.3,3.5h16.4c1.8,0,3.3-1.7,3.3-3.5
			C111.4,144.7,110,143,108.2,143z"/>
		<path class="st5" d="M85.2,78.1c0-0.3,0.1-8.2,11-9.3c1.8-0.2,3.1-1.8,2.9-3.6c-0.2-1.8-1.7-3.1-3.6-2.9
			c-13.4,1.3-16.9,11-16.9,15.9c0,1.8,1.5,3.3,3.3,3.3S85.2,79.9,85.2,78.1z"/>
	</g>
	<polygon class="st6" points="43,160 43,193 156,193 42.9,160 	"/>
	<polygon class="st7" points="43,166 42.9,166 156,160 43,160 	"/>
	<polygon class="st7" points="125,135.6 142.9,130 125,130 	"/>
	<path class="st7" d="M78.6,140c-1.8,0-3.6-0.3-3.6-2.1V130H54.2l-10.3,23h0.3l56.3-13H78.6z"/>
	<path class="st7" d="M82.1,106.5C76.6,99.3,69.8,89.4,69.8,79c0-21,17.9-37.1,35.1-39.1c-1.2-0.2-2.5-0.2-3.7-0.2
		c-18.3,0-38.8,16.8-38.8,39.3c0,10.3,7.5,20.3,12.9,27.5c3.9,5.1,6.7,8.9,6.7,12.2V134h6v-15.2C88,115.4,85.9,111.7,82.1,106.5z"/>
</g>
<g id="Layer_3" class="st0">
	<g class="st1">
		<path class="st8" d="M87.1,52.9c1.3,0,2.8-0.5,4.3-0.5c1.9,0,3.9-0.4,6.2-0.4h4.3c3.5,0,6.1,0.8,9.1,1V41H84v12
			C85,52.9,86,52.9,87.1,52.9z"/>
		<path class="st2" d="M113.2,34l21.2-27H111v7.8c0,1.9-1.1,3.4-3,3.4c-1.9,0-3-1.5-3-3.4V7H91v7.8c0,1.9-1.6,3.4-3.5,3.4
			c-1.9,0-3.5-1.5-3.5-3.4V7H62.6l20.2,27H113.2z"/>
		<path class="st2" d="M152.8,183H42.5l0-0.2L41.2,193h114.1l-1.6-10.4C153.4,182.7,153.1,183,152.8,183z"/>
		<path class="st2" d="M101.9,59h-4.3c-2.4,0-4.5,0.4-6.4,0.4c-1.5,0-2.9,0.2-4.2,0.2c-7.4,0-10.9,0.8-19.3,8.1
			C51.3,82,39,114.8,39,144.4c0,10.9,4.2,31.6,4.2,31.6h109.7c0.2,0,0.4,0.5,0.6,0.5l1.8-4.2c3.8-10.3,5-15.4,5-27.5
			c0-27.8-10.9-60-25.4-74.3C124.1,59.9,116.6,59,101.9,59z M94.7,117h9.8h0.2c9.5,0,13.3,5.2,13.3,14.6v4.2
			c0,9.4-3.9,12.2-13.3,12.2H101v8.2c0,1.9-1.6,3.4-3.5,3.4c-1.9,0-3.5-1.5-3.5-3.4V148h-6.7c-1.9,0-3.4-1.6-3.4-3.5
			c0-1.9,1.5-3.5,3.4-3.5h10.3h7.1c5.6,0,6.3,0.3,6.3-5.2v-4.2c0-5.5-0.6-7.6-6.3-7.6h-0.2h-9.8h-0.5c-0.1,0-0.3,0.5-0.4,0.5
			c-9.1-0.2-13.7-4.1-13.7-13.1v-4.2c0-11.4,8-13,14-13.1c0,0,0,0,0,0v-6.9c0-1.9,1.6-3.4,3.5-3.4c1.9,0,3.5,1.5,3.5,3.4V93h13.9
			c1.9,0,3.4,1.6,3.4,3.5c0,1.9-1.5,3.5-3.4,3.5H94.7c-6.5,0-7.7,2.4-7.7,7.2v4.2C87,116.8,88.9,117,94.7,117z"/>
		<path class="st5" d="M94.2,125.1h0.5c-0.3,0-0.5,0-0.8,0C94,125.1,94.1,125.1,94.2,125.1z"/>
		<path class="st9" d="M104.7,117h-0.2h-9.8c-5.8,0-7.7-0.2-7.7-5.6v-4.2c0-4.8,1.3-7.2,7.7-7.2h20.2c1.9,0,3.4-1.6,3.4-3.5
			c0-1.9-1.5-3.5-3.4-3.5H101v-5.8c0-1.9-1.6-3.4-3.5-3.4c-1.9,0-3.5,1.5-3.5,3.4v6.9c0,0,0,0,0,0c-6,0.1-14,1.7-14,13.1v4.2
			c0,9,4.7,12.9,13.7,13.1c0.3,0,0.7-0.5,1-0.5h9.8h0.2c5.7,0,6.3,2.1,6.3,7.6v4.2c0,5.5-0.7,5.2-6.3,5.2h-7.1H87.3
			c-1.9,0-3.4,1.6-3.4,3.5c0,1.9,1.5,3.5,3.4,3.5H94v8.2c0,1.9,1.6,3.4,3.5,3.4c1.9,0,3.5-1.5,3.5-3.4V148h3.7
			c9.4,0,13.3-2.9,13.3-12.2v-4.2C118,122.2,114.2,117,104.7,117z"/>
		<path class="st5" d="M167.1,144.8c0-25.6-9.6-61-27.6-78.9C132,58.4,126,55.2,118,53.8V40.1l26-33.6c0.8-1,1-3,0.4-4.1
			c-0.6-1.2-1.7-2.4-3-2.4H55.8c-1.3,0-2.5,1.2-3.1,2.4c-0.6,1.2-0.4,2.8,0.3,3.8L77,39.2v14.9c-4,1.3-8.3,3.7-13.8,8.5
			c-20.4,17.9-31.1,54.9-31.1,82.3c0,11.5,0.7,18.9,4.3,29.7l-2.5,22.5c-0.1,1,0.2,1.5,0.9,2.2c0.7,0.7,1.6,0.7,2.6,0.7h122
			c1,0,2,0.1,2.6-0.7c0.7-0.8,0.9-1.5,0.8-2.5l-2.7-17.9l1.6-4C165.7,163.8,167.1,157.9,167.1,144.8z M62.6,7H84v7.8
			c0,1.9,1.6,3.4,3.5,3.4c1.9,0,3.5-1.5,3.5-3.4V7h14v7.8c0,1.9,1.1,3.4,3,3.4c1.9,0,3-1.5,3-3.4V7h23.4l-21.2,27H82.8L62.6,7z
			 M111,41v12c-3-0.2-5.7-1-9.1-1h-4.3c-2.3,0-4.4,0.5-6.2,0.4c-1.6,0-2.9,0.3-4.3,0.3C86,52.7,85,52.9,84,53V41H111z M41.2,193
			l1.2-10.2l0,0.2h110.3c0.3,0,0.6-0.3,0.9-0.4l1.6,10.4H41.2z M155.1,172.5l-1.8,4c-0.2,0-0.4-0.5-0.6-0.5H43.2
			c0,0-4.2-20.6-4.2-31.5c0-29.6,12.4-62.5,28.8-76.9c8.4-7.3,11.9-7.9,19.3-7.9c1.3,0,2.7-0.3,4.2-0.3c1.9,0,4-0.3,6.4-0.3h4.3
			c14.7,0,22.3,0.9,32.9,11.5c14.5,14.4,25.4,46.5,25.4,74.2C160.2,156.9,159,162.2,155.1,172.5z"/>
	</g>
	<path class="st7" d="M101.9,52c3.5,0,6.1,0.8,9.1,1V41H98v11H101.9z"/>
	<path class="st10" d="M113.2,34l21.2-27H111v7.8c0,1.9-1.1,3.4-3,3.4c-1.9,0-3-1.5-3-3.4V7h-7v27H113.2z"/>
	<path class="st10" d="M153.7,182.6c-0.3,0.1-0.6,0.4-0.9,0.4H98v10h57.3L153.7,182.6z"/>
	<path class="st10" d="M101,87.2V93h13.9c1.9,0,3.4,1.6,3.4,3.5c0,1.9-1.5,3.5-3.4,3.5H98v17h6.5h0.2c9.5,0,13.3,5.2,13.3,14.6v4.2
		c0,9.4-3.9,12.2-13.3,12.2H101v8.2c0,1.9-1,3.4-3,3.4V176h54.8c0.2,0,0.4,0.5,0.6,0.5l1.8-4.2c3.8-10.3,5-15.4,5-27.5
		c0-27.8-10.9-60-25.4-74.3C124.1,59.9,116.6,59,101.9,59H98v24.8C100,83.8,101,85.3,101,87.2z"/>
	<polygon class="st7" points="82.8,34 113.2,34 118.5,28 77.7,28 	"/>
	<path class="st11" d="M84.2,66.9c1.6,0,3.3-0.4,5.2-0.4c2.3,0,4.9-0.5,7.8-0.5h5.2c17.7,0,26.9,1.3,39.5,13.5
		c-2.2-3.4-4.6-6.6-7.1-9.1C124.1,59.8,116.6,59,101.9,59h-4.3c-2.4,0-4.5,0.4-6.4,0.4c-1.5,0-2.9,0.2-4.2,0.2
		c-7.4,0-10.9,0.8-19.3,8.1c-3.6,3.1-7,7.3-10.1,12c1-1,1.9-1.9,2.9-2.8C70.8,67.9,75.2,66.9,84.2,66.9z"/>
	<path class="st7" d="M114.9,100H94.7c-6.5,0-7.7,2.4-7.7,7.2v3.4c0-4.8,1.3-7.7,7.7-7.7h20.2c1.9,0,3.4-0.8,3.4-2.7
		c0-0.6-0.2-1.3-0.5-1.9C117.2,99.4,116.1,100,114.9,100z"/>
	<path class="st7" d="M87.3,148c-1.3,0-2.3-0.1-2.9-1.1c-0.3,0.5-0.5,1-0.5,1.7c0,1.9,1.5,3.4,3.4,3.4H94v-4H87.3z"/>
	<path class="st7" d="M104.7,148H101v4h3.7c9.4,0,13.3-3.4,13.3-12.8v-3.4C118,145.1,114.1,148,104.7,148z"/>
	<path class="st7" d="M97.5,159.6c-1.9,0-3.5-1.5-3.5-3.4v3.4c0,1.9,1.6,3.4,3.5,3.4c1.9,0,3.5-1.5,3.5-3.4v-3.4
		C101,158.1,99.4,159.6,97.5,159.6z"/>
</g>
<g id="Layer_4" class="st0">
	<g class="st1">
		<path class="st2" d="M110.8,141.8c-11.4,3.8-25.1,5.7-40.5,5.7c-26.1,0-48-5.5-48.9-5.7c-1.6-0.4-2.8-1.9-2.8-3.6v-69
			c-4.4-0.7-8.3-1.4-11.1-1.9v86.9c10.9,2.3,51.2,9.8,82.4-0.6c2.4-0.7,53-15.6,83.7,2.8l0.3-18.3c-6.2-1.5-13.2-2.3-21.1-2.3
			C131,135.8,111,141.7,110.8,141.8z"/>
		<path class="st8" d="M174.5,130.6c6.7,1.5,12.7,3.8,17.8,6.8l0.1-24.8C178.8,116.9,175.3,127.4,174.5,130.6z"/>
		<path class="st8" d="M26.5,119.8c-0.2-0.1-0.4-0.2-0.6-0.3v15.7c3.9,0.9,11.8,2.4,21.6,3.5C46.2,134.1,41.5,123.6,26.5,119.8z"/>
		<path class="st8" d="M192.5,64.2l0-12.2c-5.8-4.4-13.2-7.4-22.1-9C175.9,59.1,188.7,63.3,192.5,64.2z"/>
		<path class="st8" d="M47.4,51.9c-9.3-1-16.9-2.4-21.5-3.4v22.7c0.3-0.1,0.6-0.3,1-0.3C27.5,70.8,41.8,68.6,47.4,51.9z"/>
		<path class="st9" d="M162.4,41.9c-3-0.3-6.2-0.4-9.5-0.4c-21.8,0-42,5.9-42.2,6c-11.4,3.8-25.1,5.7-40.5,5.7
			c-5.4,0-10.5-0.2-15.4-0.6c-6.5,22.8-26.2,25.5-27,25.7c-0.2,0-0.3,0-0.5,0c-0.5,0-1-0.1-1.4-0.3v35c0.7-0.3,1.5-0.5,2.3-0.2
			c22.3,5.6,26.4,23.4,27,26.9c4.7,0.4,9.8,0.6,14.9,0.6c14.7,0,27.5-1.8,38.3-5.4c1-0.3,21.4-6.3,44.2-6.3c5.1,0,9.9,0.3,14.5,0.9
			c1-4.6,5.6-19.5,25.1-24.4c0,0,0,0,0.1,0l0.1-33.3C190,71.3,169,67.4,162.4,41.9z M129.4,104.1c0,7.2-6.3,15.5-14.3,15.5h-0.5v3.7
			c0,2-1.7,3.7-3.7,3.7c-2,0-3.7-1.7-3.7-3.7v-3.7h-7.4c-2,0-3.7-1.7-3.7-3.7s1.7-3.7,3.7-3.7h15.3c3.3,0,6.9-4.2,6.9-8.1v-0.6
			c0-3.3-3.2-6.1-6.9-6.1h-0.5h-7h-0.4c-0.1,0-0.3-0.1-0.4-0.1c-7.6-0.4-14.4-6.9-14.4-14.1v-0.5c0-7.4,7.3-14.6,14.8-14.8v-7.4
			c0-2,1.7-3.7,3.7-3.7c2,0,3.7,1.7,3.7,3.7v7.4h7.4c2,0,3.7,1.7,3.7,3.7s-1.7,3.7-3.7,3.7h-14.4c-3.6,0-7.8,4-7.8,7.5v0.5
			c0,3.3,4,6.8,7.8,6.8h7h0.5c7.9,0,14.3,6.1,14.3,13.5V104.1z"/>
		<path class="st5" d="M115.1,90h-0.5h-7c-3.8,0-7.8-3.5-7.8-6.8v-0.5c0-3.5,4.1-7.5,7.8-7.5H122c2,0,3.7-1.7,3.7-3.7
			s-1.7-3.7-3.7-3.7h-7.4v-7.4c0-2-1.7-3.7-3.7-3.7c-2,0-3.7,1.7-3.7,3.7v7.4c-7.5,0.2-14.8,7.4-14.8,14.8v0.5
			c0,7.2,6.8,13.6,14.4,14.1c0.1,0,0.3,0.1,0.4,0.1h0.4h7h0.5c3.8,0,6.9,2.8,6.9,6.1v0.6c0,3.9-3.6,8.1-6.9,8.1H99.8
			c-2,0-3.7,1.7-3.7,3.7s1.7,3.7,3.7,3.7h7.4v3.7c0,2,1.7,3.7,3.7,3.7c2,0,3.7-1.7,3.7-3.7v-3.7h0.5c8.1,0,14.3-8.3,14.3-15.5v-0.6
			C129.4,96.1,123,90,115.1,90z"/>
		<path class="st5" d="M153,34.1c-22.9,0-43.4,6-44.4,6.3c-10.8,3.6-23.6,5.4-38.3,5.4c-25.1,0-46.9-5.4-47.1-5.5
			c-1.1-0.3-2.3,0-3.2,0.7c-0.9,0.7-1.4,1.8-1.4,2.9v17.8c-8-1.3-14-2.6-14-2.6c-1.1-0.2-2.2,0.1-3.1,0.7C0.5,60.6,0,61.6,0,62.7
			v94.4c0,1.7,1.1,3.2,2.8,3.6c2.1,0.5,51.1,12.7,89.3,0c0.6-0.2,56.2-16.5,82.7,5.6c0.7,0.6,1.5,0.9,2.4,0.9c0.5,0,1,0.1,1.5-0.2
			c1.3-0.6,2.1-1.7,2.2-3.1l0.4-23.5c4.8,1.8,8.9,4.2,12.4,7.1c0.7,0.6,1.5,0.9,2.4,0.9c0.5,0,1.1-0.1,1.6-0.3
			c1.3-0.6,2.1-1.9,2.1-3.3l0.3-94.4c0-1.1-0.5-2.1-1.3-2.9C188.1,38.5,172.7,34.1,153,34.1z M25.9,48.5c4.5,0.9,12.1,2.3,21.5,3.4
			c-5.5,16.7-19.9,18.9-20.5,19c-0.4,0-0.7,0.2-1,0.3V48.5z M25.9,119.5c0.2,0.1,0.3,0.2,0.6,0.3c15.1,3.8,19.7,14.3,21.1,19
			c-9.8-1.1-17.7-2.6-21.6-3.5V119.5z M173.6,156.4c-30.7-18.3-81.3-3.5-83.7-2.8c-31.2,10.4-71.6,2.9-82.4,0.6V67.2
			c2.8,0.5,6.7,1.2,11.1,1.9v69c0,1.7,1.1,3.2,2.8,3.6c0.9,0.2,22.9,5.7,48.9,5.7c15.5,0,29.1-1.9,40.5-5.7c0.2-0.1,20.3-6,42-6
			c7.9,0,14.9,0.8,21.1,2.3L173.6,156.4z M192.3,137.4c-5.1-3-11.1-5.3-17.8-6.8c0.8-3.3,4.3-13.8,17.9-18L192.3,137.4z M192.4,105
			C192.4,105,192.4,105,192.4,105c-19.6,4.9-24.2,19.8-25.2,24.4c-4.5-0.6-9.3-0.9-14.5-0.9c-22.9,0-43.3,6-44.2,6.3
			c-10.8,3.6-23.6,5.4-38.3,5.4c-5.2,0-10.2-0.2-14.9-0.6c-0.6-3.5-4.8-21.3-27-26.9c-0.8-0.2-1.6-0.1-2.3,0.2v-35
			c0.5,0.2,0.9,0.3,1.4,0.3c0.2,0,0.3,0,0.5,0c0.9-0.1,20.5-2.9,27-25.7c4.9,0.4,10,0.6,15.4,0.6c15.5,0,29.1-1.9,40.5-5.7
			c0.2-0.1,20.4-6,42.2-6c3.3,0,6.4,0.2,9.5,0.4c6.5,25.5,27.6,29.4,30.1,29.8L192.4,105z M192.5,64.2c-3.9-0.9-16.7-5-22.1-21.2
			c9,1.6,16.4,4.7,22.1,9L192.5,64.2z"/>
	</g>
	<path class="st7" d="M14.8,68.6c1.2,0.2,2.4,0.4,3.7,0.6v69c0,1.7,1.1,3.2,2.8,3.6c0.9,0.2,22.9,5.7,48.9,5.7
		c15.5,0,29.1-1.9,40.5-5.7c0.2-0.1,20.3-6,42-6c7.9,0,14.9,0.8,21.1,2.3l-0.1,4.2l-3.6-1c-6.2-1.5-13.2-2.3-21.1-2.3
		c-21.7,0-41.8,5.9-42,6c-11.4,3.8-25.1,5.7-40.5,5.7c-26.1,0-48-5.5-48.9-5.7c-1.6-0.4-2.8-1.9-2.8-3.6V71.5L14.8,68.6z"/>
	<path class="st12" d="M74,53.1l-38.4,62.1c8.9,4,13.8,10.3,16.5,15.5l50-80.9C93.7,51.8,84.3,52.9,74,53.1z"/>
	<path class="st12" d="M162.4,41.9c-3-0.3-6.2-0.4-9.5-0.4c-9.1,0-17.8,1-25,2.2l-13.3,21.5v2.6h7.4c2,0,3.7,1.7,3.7,3.7
		s-1.7,3.7-3.7,3.7h-13.6l-7.2,11.6c1.5,1.8,4,3.2,6.3,3.2h7h0.5c7.9,0,14.3,6.1,14.3,13.5v0.6c0,7.2-6.3,15.5-14.3,15.5h-0.5v3.7
		c0,2-1.7,3.7-3.7,3.7c-2,0-3.7-1.7-3.7-3.7v-3.7h-7.4c-2,0-3.7-1.7-3.7-3.7s1.7-3.7,3.7-3.7h15.3c3.3,0,6.9-4.2,6.9-8.1v-0.6
		c0-3.3-3.2-6.1-6.9-6.1h-0.5h-7h-0.4c-0.1,0-0.3-0.1-0.4-0.1c-3.6-0.2-6.9-1.8-9.5-4.1l-28.9,46.8c0.6,0,1.2,0,1.9,0
		c14.7,0,27.5-1.8,38.3-5.4c0.5-0.2,6.4-1.9,15.2-3.5l45.7-74C166.6,53.3,164,48.3,162.4,41.9z"/>
</g>
<g id="Layer_5">
	<g>
		<path class="st3" d="M94.9,130.7c-4.7,0-9.6,3.7-9.6,8.4c0,0,0,0.1,0,0.1c0,1.1,0.3,1.7,0.5,1.9c0.7,0.7,4,0.6,6.4,0.6
			c0.8,0,1.7,0,2.6,0l23.2-0.1c0.6-0.2,1.2-0.4,1.7-0.6c1.9-0.7,4,0.3,4.7,2.2c0.7,1.9-0.3,4-2.2,4.7c-3.7,1.4-36.5,13.3-46.9,13.3
			c-4.5,0-13.5-3.7-27.9-9.7c-10-4.2-26.2-10.9-31.6-11.3l0,8.6c0,8.9,50.5,43.1,63.6,43.1c11.9,0,39.2-3.1,43.6-3.5l32-14.7v-31.6
			L129,130.7H94.9z"/>
		<rect x="162.2" y="130.7" class="st2" width="22" height="54.9"/>
		<path class="st3" d="M90.7,105.7c26.9,0,48.8-21.9,48.8-48.8C139.5,29.9,117.6,8,90.7,8S41.9,29.9,41.9,56.8
			C41.9,83.7,63.8,105.7,90.7,105.7z M70.7,44.1c0-9,6.1-15.6,14.6-15.8c0,0,0,0,0-0.1v-7.3c0-2,1.6-3.7,3.7-3.7
			c2,0,3.7,1.6,3.7,3.7v7.3h11c2,0,3.7,1.6,3.7,3.7s-1.6,3.7-3.7,3.7H85.9c-4.8,0-7.8,3.4-7.8,8.6v0.7c0,4.4,2.5,9,7.8,9h9.4h1.1
			c0.4,0,0.7,0.1,1.1,0.2c7.7,1.1,13.5,7.7,13.5,16.1v0.7c0,9.1-6.8,15.9-15.7,15.9h-2.6v7.3c0,2-1.6,3.7-3.7,3.7
			c-2,0-3.7-1.6-3.7-3.7v-7.3H78c-2,0-3.7-1.6-3.7-3.7s1.6-3.7,3.7-3.7h17.2c4.9,0,8.4-3.5,8.4-8.6v-0.7c0-5.2-3.6-9-8.4-9h-9.4
			h-0.5c-0.2,0-0.3-0.1-0.5-0.1c-8.2-0.5-14.1-7.2-14.1-16.3V44.1z"/>
		<path class="st5" d="M187.8,123.4h-29.3c-2,0-3.7,1.6-3.7,3.7v7.1l-23.7-10.4c-0.5-0.2-1-0.3-1.5-0.3H94.9
			c-8.6,0-15.7,6.5-16.6,15.2c-0.1,0.5-0.1,1.3-0.1,1.8c0,0.5,0.1,1,0.3,1.5c0.4,1.9,1.1,3.4,2.3,4.5c2.4,2.4,5.7,2.7,9.4,2.7
			c0.7,0,1.5,0,2.2,0c0.8,0,1.6,0,2.5,0l1.3,0c-8.7,2.7-17.1,4.9-20.9,4.9c-3.3,0-15.4-5-25.1-9.1c-23.7-9.9-34.6-13.9-39.4-10.7
			c-1.5,1-2.3,2.7-2.3,4.9c0,0.4-0.1,0.7-0.1,1.1v8.7c0,15.3,57,50.4,70.9,50.4c13.3,0,43.7-3.5,45-3.7c0.4,0,0.8-0.2,1.1-0.3
			l29.4-13.5v7.5c0,2,1.6,3.7,3.7,3.7h29.3c2,0,3.7-1.6,3.7-3.7V127C191.5,125,189.9,123.4,187.8,123.4z M154.9,173.7l-32,14.7
			c-4.3,0.5-31.7,3.5-43.6,3.5c-13.1,0-63.6-34.3-63.6-43.1l0-8.6c5.4,0.3,21.6,7.1,31.6,11.3c14.4,6,23.4,9.7,27.9,9.7
			c10.4,0,43.2-11.9,46.9-13.3c1.9-0.7,2.9-2.8,2.2-4.7c-0.7-1.9-2.8-2.9-4.7-2.2c-0.5,0.2-1.1,0.4-1.7,0.6l-23.2,0.1
			c-0.9,0-1.8,0-2.6,0c-2.4,0-5.7,0.1-6.4-0.6c-0.2-0.2-0.5-0.8-0.5-1.9c0,0,0-0.1,0-0.1c0-4.7,4.9-8.4,9.6-8.4h34l25.9,11.4V173.7z
			 M184.2,185.6h-22v-54.9h22V185.6z"/>
		<path class="st5" d="M90.7,113c31,0,56.1-25.2,56.1-56.1c0-30.9-25.2-56.1-56.1-56.1c-31,0-56.1,25.2-56.1,56.1
			C34.5,87.8,59.7,113,90.7,113z M90.7,8c26.9,0,48.8,21.9,48.8,48.8c0,26.9-21.9,48.8-48.8,48.8S41.9,83.7,41.9,56.8
			C41.9,29.9,63.8,8,90.7,8z"/>
		<path class="st5" d="M84.9,61.1c0.2,0,0.3,0.1,0.5,0.1h0.5h9.4c4.8,0,8.4,3.9,8.4,9v0.7c0,5-3.5,8.6-8.4,8.6H78
			c-2,0-3.7,1.6-3.7,3.7s1.6,3.7,3.7,3.7h7.3v7.3c0,2,1.6,3.7,3.7,3.7c2,0,3.7-1.6,3.7-3.7v-7.3h2.6c9,0,15.7-6.8,15.7-15.9v-0.7
			c0-8.4-5.8-15.1-13.5-16.1c-0.4-0.1-0.7-0.2-1.1-0.2h-1.1h-9.4c-5.4,0-7.8-4.7-7.8-9v-0.7c0-5.2,3.1-8.6,7.8-8.6h17.8
			c2,0,3.7-1.6,3.7-3.7s-1.6-3.7-3.7-3.7h-11v-7.3c0-2-1.6-3.7-3.7-3.7c-2,0-3.7,1.6-3.7,3.7v7.3c0,0,0,0,0,0.1
			c-8.5,0.3-14.6,6.8-14.6,15.8v0.7C70.7,53.9,76.6,60.5,84.9,61.1z"/>
	</g>
	<rect x="162.2" y="130.7" class="st13" width="22" height="14.6"/>
	<path class="st14" d="M79.4,181c-12,0-55.9-29.1-62.6-40.6c-0.3,0-0.6-0.1-0.9-0.1l0,8.6c0,8.9,50.5,43.1,63.6,43.1
		c11.9,0,39.2-3.1,43.6-3.5l32-14.7v-11l-32,14.7C118.6,177.9,91.3,181,79.4,181z"/>
	<path class="st9" d="M139.5,56.8c0-26.2-20.8-47.6-46.8-48.7v12.8v7.3h11c2,0,3.7,1.6,3.7,3.7s-1.6,3.7-3.7,3.7h-11v18.3h2.6h1.1
		c0.4,0,0.7,0.1,1.1,0.2c7.7,1.1,13.5,7.7,13.5,16.1v0.7c0,9.1-6.8,15.9-15.7,15.9h-2.6v7.3v11.5C118.7,104.5,139.5,83.1,139.5,56.8
		z"/>
</g>
</svg>
